<svg xmlns="http://www.w3.org/2000/svg" width="164.078" height="200.257" viewBox="0 0 164.078 200.257">
  <g id="Grupo_39982" data-name="Grupo 39982" transform="translate(-2770.337 -354.397)">
    <g id="Grupo_39963" data-name="Grupo 39963" transform="translate(2787.885 354.397)">
      <g id="Grupo_39962" data-name="Grupo 39962" transform="translate(0 0)">
        <rect id="Rectángulo_32078" data-name="Rectángulo 32078" width="75.47" height="2.264" fill="#58a5f8"/>
        <rect id="Rectángulo_32079" data-name="Rectángulo 32079" width="2.264" height="29.691" transform="translate(36.604)" fill="#58a5f8"/>
        <rect id="Rectángulo_32080" data-name="Rectángulo 32080" width="75.47" height="2.264" transform="translate(0 27.428)" fill="#58a5f8"/>
        <rect id="Rectángulo_32081" data-name="Rectángulo 32081" width="2.264" height="29.691" transform="translate(0)" fill="#58a5f8"/>
        <rect id="Rectángulo_32082" data-name="Rectángulo 32082" width="2.264" height="29.691" transform="translate(73.207)" fill="#58a5f8"/>
      </g>
      <path id="Trazado_107683" data-name="Trazado 107683" d="M3069.518,602.845h22.1a3.52,3.52,0,0,1,3.432,3.583v.958a3.52,3.52,0,0,1-3.432,3.583h-22.1a3.52,3.52,0,0,1-3.432-3.583v-.958A3.52,3.52,0,0,1,3069.518,602.845Z" transform="translate(-3060.655 -583.541)" fill="#055f63" fill-rule="evenodd"/>
      <path id="Trazado_107684" data-name="Trazado 107684" d="M3069.518,602.845h21.6c1.263.748,1.977,1.6,1.977,2.5,0,3.01-7.985,5.45-17.834,5.45a53.509,53.509,0,0,1-7.806-.549,3.637,3.637,0,0,1-1.366-2.856v-.958A3.52,3.52,0,0,1,3069.518,602.845Z" transform="translate(-3060.655 -583.541)" fill="#056d6c" fill-rule="evenodd"/>
      <rect id="Rectángulo_32083" data-name="Rectángulo 32083" width="30.197" height="6.173" rx="3.086" transform="translate(5.813 13.112)" fill="#e55b59"/>
      <path id="Trazado_107685" data-name="Trazado 107685" d="M3073.722,523.149h23.667a2.291,2.291,0,0,1,.787,1.605c0,1.913-3.227,3.6-8.106,4.568h-16.347A2.73,2.73,0,0,1,3071,526.6v-.728A2.73,2.73,0,0,1,3073.722,523.149Z" transform="translate(-3065.187 -510.037)" fill="#ea7a70" fill-rule="evenodd"/>
      <rect id="Rectángulo_32084" data-name="Rectángulo 32084" width="30.197" height="6.173" rx="3.086" transform="translate(3.735 7.089)" fill="#39d0b2"/>
      <path id="Trazado_107686" data-name="Trazado 107686" d="M3046.975,445.637h23.148a2.165,2.165,0,0,1,.626,1.435c0,2.029-3.631,3.8-9.015,4.738h-14.76a2.73,2.73,0,0,1-2.722-2.723v-.728A2.73,2.73,0,0,1,3046.975,445.637Z" transform="translate(-3040.518 -438.548)" fill="#62ddc4" fill-rule="evenodd"/>
      <rect id="Rectángulo_32085" data-name="Rectángulo 32085" width="30.197" height="6.173" rx="3.086" transform="translate(41.609 21.297)" fill="#e55b59"/>
      <path id="Trazado_107687" data-name="Trazado 107687" d="M3534.432,628.5h24.161a1.942,1.942,0,0,1,.334,1.054c0,2.351-4.874,4.355-11.7,5.119h-12.264q-.792-.089-1.549-.2a2.732,2.732,0,0,1-1.7-2.523v-.728A2.73,2.73,0,0,1,3534.432,628.5Z" transform="translate(-3490.101 -607.204)" fill="#ea776e" fill-rule="evenodd"/>
      <path id="Trazado_107688" data-name="Trazado 107688" d="M3555.416,549.147h22.041a2.594,2.594,0,0,1,2.424,2.722v.728a2.594,2.594,0,0,1-2.424,2.722h-22.041a2.594,2.594,0,0,1-2.424-2.722v-.728A2.594,2.594,0,0,1,3555.416,549.147Z" transform="translate(-3509.729 -534.015)" fill="#962932" fill-rule="evenodd"/>
      <path id="Trazado_107689" data-name="Trazado 107689" d="M3555.416,549.147h22.041a2.3,2.3,0,0,1,1.738.829c-.861,2.765-8.48,4.927-17.752,4.927a53.413,53.413,0,0,1-7.884-.561,2.915,2.915,0,0,1-.567-1.745v-.728A2.594,2.594,0,0,1,3555.416,549.147Z" transform="translate(-3509.729 -534.015)" fill="#a53435" fill-rule="evenodd"/>
    </g>
    <g id="Grupo_39973" data-name="Grupo 39973" transform="translate(2770.337 421.863)" opacity="0.57">
      <rect id="Rectángulo_32086" data-name="Rectángulo 32086" width="103.238" height="2.162" transform="translate(10.31 3.633)" fill="#a39691"/>
      <path id="Trazado_107690" data-name="Trazado 107690" d="M2903.035,1269.466h1.9v125.018a.953.953,0,0,1-.95.951h0a.954.954,0,0,1-.951-.951Z" transform="translate(-2892.725 -1265.833)" fill="#a39691" fill-rule="evenodd"/>
      <path id="Trazado_107691" data-name="Trazado 107691" d="M4207.276,1269.466h1.9v125.018a.954.954,0,0,1-.951.951h0a.953.953,0,0,1-.951-.951Z" transform="translate(-4095.63 -1265.833)" fill="#a39691" fill-rule="evenodd"/>
      <g id="Grupo_39966" data-name="Grupo 39966" transform="translate(7.912 0.97)">
        <g id="Grupo_39964" data-name="Grupo 39964">
          <path id="Trazado_107692" data-name="Trazado 107692" d="M2875.91,1242.679a3.744,3.744,0,1,0-3.744-3.744A3.751,3.751,0,0,0,2875.91,1242.679Z" transform="translate(-2872.166 -1235.191)" fill="#ce8156" fill-rule="evenodd"/>
          <path id="Trazado_107693" data-name="Trazado 107693" d="M2892.343,1257.673a1.732,1.732,0,1,0-1.732-1.731A1.735,1.735,0,0,0,2892.343,1257.673Z" transform="translate(-2889.177 -1252.732)" fill="#e58f60" fill-rule="evenodd"/>
        </g>
        <g id="Grupo_39965" data-name="Grupo 39965" transform="translate(100.547)">
          <path id="Trazado_107694" data-name="Trazado 107694" d="M4169.995,1242.679a3.744,3.744,0,1,0-3.744-3.744A3.751,3.751,0,0,0,4169.995,1242.679Z" transform="translate(-4166.251 -1235.191)" fill="#ce8156" fill-rule="evenodd"/>
          <path id="Trazado_107695" data-name="Trazado 107695" d="M4186.423,1257.673a1.732,1.732,0,1,0-1.731-1.731A1.735,1.735,0,0,0,4186.423,1257.673Z" transform="translate(-4183.259 -1252.732)" fill="#e58f60" fill-rule="evenodd"/>
        </g>
      </g>
      <path id="Trazado_107696" data-name="Trazado 107696" d="M2774.05,2855.175h15.1a3.724,3.724,0,0,1,3.713,3.713v1.283h-22.522v-1.283A3.724,3.724,0,0,1,2774.05,2855.175Z" transform="translate(-2770.337 -2728.336)" fill="#e58f60" fill-rule="evenodd"/>
      <path id="Trazado_107697" data-name="Trazado 107697" d="M4078.291,2855.175h15.1a3.724,3.724,0,0,1,3.713,3.713v1.283h-22.522v-1.283A3.724,3.724,0,0,1,4078.291,2855.175Z" transform="translate(-3973.241 -2728.336)" fill="#e58f60" fill-rule="evenodd"/>
      <g id="Grupo_39970" data-name="Grupo 39970" transform="translate(19.284)">
        <path id="Trazado_107698" data-name="Trazado 107698" d="M3126.13,1235.593l.012-.01a1.313,1.313,0,0,0,.37-1.888c-.075-.1-.056-.167-.082-.167a5.39,5.39,0,0,1-3.821-1.585l0,0a5.4,5.4,0,0,1,0-7.642l0,0a5.4,5.4,0,0,1,7.642,0l0,0a5.412,5.412,0,0,1,1.284,2.044h-2.318a3.342,3.342,0,0,0-.452-.564,3.31,3.31,0,1,0-2.341,5.647,2.3,2.3,0,0,1,1.766,1.022,3.482,3.482,0,0,1,.49.93,3.438,3.438,0,0,1,.189,1.116,3.233,3.233,0,0,1-.2,1.122,39.579,39.579,0,0,1,10.9,1.754c3.6,1.205,5.916,3,6.136,5.1a1.049,1.049,0,0,1-.937,1.15l-.107.005v0h-35.494a1.051,1.051,0,0,1-1.051-1.051,1.074,1.074,0,0,1,.02-.205c.281-2.059,2.578-3.815,6.124-5a40.572,40.572,0,0,1,11.856-1.777Zm5.7-7.089h-2.11c0,.041-.01.082-.016.123a3.33,3.33,0,0,1-.114.49,1.05,1.05,0,0,0,2,.624,5.445,5.445,0,0,0,.187-.8c.022-.144.039-.289.049-.435Zm7.091,10.854a43.905,43.905,0,0,0-23.977,0,10.623,10.623,0,0,0-4.09,2.167h32.157A10.622,10.622,0,0,0,3138.917,1239.358Z" transform="translate(-3101.168 -1222.709)" fill="#e79c75" fill-rule="evenodd"/>
        <g id="Grupo_39968" data-name="Grupo 39968" transform="translate(0 13.867)">
          <g id="Grupo_39967" data-name="Grupo 39967" transform="translate(0 2.702)">
            <path id="Trazado_107699" data-name="Trazado 107699" d="M3494.73,1445.3q.536-3.774,1.075-7.547l4.493-1.8c6.925,6.163,7.3,29.737,8.949,43.306a9.059,9.059,0,0,1-5.441,1.129q-1.334-7.064-2.668-14.128C3499.581,1458.021,3498.569,1450.548,3494.73,1445.3Z" transform="translate(-3457.73 -1435.959)" fill="#d268cc" fill-rule="evenodd"/>
            <path id="Trazado_107700" data-name="Trazado 107700" d="M3033.041,1445.3q-.537-3.774-1.075-7.547l-4.493-1.8c-6.926,6.163-7.3,29.737-8.949,43.306a9.058,9.058,0,0,0,5.441,1.129l2.668-14.128C3028.19,1458.021,3029.2,1450.548,3033.041,1445.3Z" transform="translate(-3018.524 -1435.959)" fill="#d7314c" fill-rule="evenodd"/>
          </g>
          <path id="Trazado_107701" data-name="Trazado 107701" d="M3134.985,1467.092c-.638-7.231-1.712-10.674-1.369-18a35.367,35.367,0,0,1,.888-6.656,19.127,19.127,0,0,1,1.535-4.132c.563-1.121,1.217-2.189,1.835-3.283a14.94,14.94,0,0,0,2.188-6.549,12.487,12.487,0,0,0-1.5-6.611c-.8-1.65-1.751-3.236-2.5-4.905-.153-.465,1.1-3.587.755-5.942a9.935,9.935,0,0,0-4.289-7.041l.03-.041-.03-.017a4.932,4.932,0,0,1,.98-.953,6.171,6.171,0,0,1,1.365-.783c.853-.34,1.854-.613,3.058-1l.026.024.074-.024c2.288,2.092,6.534,3.5,11.4,3.509,4.865-.01,9.111-1.418,11.4-3.509l.074.024.026-.024c1.2.383,2.2.655,3.057,1a6.149,6.149,0,0,1,1.365.783,4.926,4.926,0,0,1,.981.953l-.03.017.03.041a9.933,9.933,0,0,0-4.289,7.041c-.345,2.357.907,5.476.755,5.942-.747,1.669-1.7,3.255-2.5,4.905a12.49,12.49,0,0,0-1.5,6.611,14.949,14.949,0,0,0,2.188,6.549c.618,1.094,1.272,2.163,1.836,3.283a19.113,19.113,0,0,1,1.535,4.132,35.387,35.387,0,0,1,.888,6.656c.343,7.323-.731,10.766-1.369,18l-.023.268-.252.135c-7.005,3.758-21.327,3.755-28.334,0l-.252-.135Z" transform="translate(-3123.668 -1401.185)" fill="#d268cc" fill-rule="evenodd"/>
        </g>
        <g id="Grupo_39969" data-name="Grupo 39969" transform="translate(0 13.867)">
          <path id="Trazado_107702" data-name="Trazado 107702" d="M3033.041,1445.3q-.537-3.774-1.075-7.547l-4.493-1.8c-6.926,6.163-7.3,29.737-8.949,43.306a9.058,9.058,0,0,0,5.441,1.129l2.668-14.128C3028.19,1458.021,3029.2,1450.548,3033.041,1445.3Z" transform="translate(-3018.524 -1433.257)" fill="#d268cc" fill-rule="evenodd"/>
          <path id="Trazado_107703" data-name="Trazado 107703" d="M3134.985,1467.092c-.638-7.231-1.712-10.674-1.369-18a35.367,35.367,0,0,1,.888-6.656,19.127,19.127,0,0,1,1.535-4.132c.563-1.121,1.217-2.189,1.835-3.283a14.94,14.94,0,0,0,2.188-6.549,12.487,12.487,0,0,0-1.5-6.611c-.8-1.65-1.751-3.236-2.5-4.905-.153-.465,1.1-3.587.755-5.942a9.935,9.935,0,0,0-4.289-7.041l.03-.041-.03-.017a4.932,4.932,0,0,1,.98-.953,6.171,6.171,0,0,1,1.365-.783c.853-.34,1.854-.613,3.058-1l.026.024.074-.024a14.242,14.242,0,0,0,6.633,3.028c1.927,4.438,9.422,5.237,10.523,10.476,1.231,5.856-4.043,16.238-4.043,22.773a84.612,84.612,0,0,1-6.213,32.624,27.015,27.015,0,0,1-9.667-2.59l-.252-.135Z" transform="translate(-3123.668 -1401.185)" fill="#d268cc" fill-rule="evenodd"/>
        </g>
      </g>
      <g id="Grupo_39972" data-name="Grupo 39972" transform="translate(60.693)">
        <path id="Trazado_107704" data-name="Trazado 107704" d="M3569.476,1235.593l.011-.01a1.269,1.269,0,0,0,.556-1.524,1.377,1.377,0,0,0-.186-.364c-.076-.1-.056-.167-.083-.167a5.392,5.392,0,0,1-3.822-1.585l0,0a5.4,5.4,0,0,1,0-7.642l0,0a5.4,5.4,0,0,1,7.643,0l0,0a5.41,5.41,0,0,1,1.285,2.044h-2.318a3.31,3.31,0,1,0-2.792,5.084,2.3,2.3,0,0,1,1.767,1.022,3.494,3.494,0,0,1,.489.93,3.432,3.432,0,0,1,.19,1.116,3.244,3.244,0,0,1-.2,1.122,39.579,39.579,0,0,1,10.9,1.754c3.6,1.205,5.916,3,6.136,5.1a1.049,1.049,0,0,1-.937,1.15l-.107.005v0h-35.493a1.051,1.051,0,0,1-1.051-1.051,1.074,1.074,0,0,1,.02-.205c.281-2.059,2.578-3.815,6.124-5a40.569,40.569,0,0,1,11.856-1.777Zm5.7-7.089h-2.11c0,.041-.01.082-.016.123a3.361,3.361,0,0,1-.114.49,1.05,1.05,0,0,0,2,.624,5.383,5.383,0,0,0,.187-.8c.022-.144.038-.289.049-.435Zm7.091,10.854a43.9,43.9,0,0,0-23.976,0,10.629,10.629,0,0,0-4.091,2.167h32.158A10.627,10.627,0,0,0,3582.262,1239.358Z" transform="translate(-3551.476 -1222.709)" fill="#e79c75" fill-rule="evenodd"/>
        <g id="Grupo_39971" data-name="Grupo 39971" transform="translate(3.161 12.976)">
          <path id="Trazado_107705" data-name="Trazado 107705" d="M3594.438,1483.788c-.59-7.231-1.584-38.842-1.266-46.165a38.075,38.075,0,0,1,.821-6.656,20.126,20.126,0,0,1,1.42-4.133c.521-1.12,1.126-2.189,1.7-3.283a15.784,15.784,0,0,0,2.024-6.55,13.323,13.323,0,0,0-1.391-6.611c-.736-1.649-1.62-3.236-2.311-4.9l-.087-.288c.03-.052.061-.106.09-.16l-.04-.1a9.235,9.235,0,0,0,.736-5.392,10.064,10.064,0,0,0-3.967-7.041l.028-.041-.028-.018a4.748,4.748,0,0,1,.907-.953,5.624,5.624,0,0,1,1.263-.783c.788-.34,1.715-.613,2.828-1l.024.024.069-.024c2.116,2.091,6.044,3.5,10.545,3.509,4.5-.01,8.428-1.418,10.544-3.509l.068.024.025-.024c1.113.382,2.039.655,2.828,1a5.6,5.6,0,0,1,1.262.783,4.75,4.75,0,0,1,.907.953l-.028.018.028.041a10.065,10.065,0,0,0-3.968,7.041,9.241,9.241,0,0,0,.735,5.392l-.039.1c.029.054.059.108.089.16l-.087.288c-.691,1.668-1.575,3.255-2.311,4.9a13.32,13.32,0,0,0-1.391,6.611,15.784,15.784,0,0,0,2.024,6.55c.572,1.093,1.177,2.163,1.7,3.283a20.11,20.11,0,0,1,1.42,4.133,38.123,38.123,0,0,1,.821,6.656c.318,7.323-.677,38.933-1.266,46.165l-.022.268-.233.135c-6.481,3.758-19.729,3.754-26.212,0l-.233-.135Z" transform="translate(-3592.164 -1389.713)" fill="#8acc59" fill-rule="evenodd"/>
          <path id="Trazado_107706" data-name="Trazado 107706" d="M3594.438,1483.788c-.59-7.231-1.584-38.842-1.266-46.165a38.075,38.075,0,0,1,.821-6.656,20.126,20.126,0,0,1,1.42-4.133c.521-1.12,1.126-2.189,1.7-3.283a15.784,15.784,0,0,0,2.024-6.55,13.323,13.323,0,0,0-1.391-6.611c-.736-1.649-1.62-3.236-2.311-4.9l-.087-.288c.03-.052.061-.106.09-.16l-.04-.1a9.235,9.235,0,0,0,.736-5.392,10.064,10.064,0,0,0-3.967-7.041l.028-.041-.028-.018a4.748,4.748,0,0,1,.907-.953,5.624,5.624,0,0,1,1.263-.783c.788-.34,1.715-.613,2.828-1l.024.024.069-.024a12.5,12.5,0,0,0,5.765,2.94c2.245,4.071,10.018,6.607,11.586,12.055,1.044,3.627-3.9,9.837-3.221,13.938a129.1,129.1,0,0,1,1.691,21.1c0,18.935-3.891,35.842-9.988,46.968a22.96,22.96,0,0,1-8.4-2.524l-.233-.135Z" transform="translate(-3592.164 -1389.713)" fill="#8acc59" fill-rule="evenodd"/>
        </g>
      </g>
    </g>
    <g id="Grupo_39981" data-name="Grupo 39981" transform="translate(2836.304 379.835)">
      <g id="Grupo_39978" data-name="Grupo 39978" transform="translate(1.409)">
        <path id="Trazado_107707" data-name="Trazado 107707" d="M4140.4,785.166a6.727,6.727,0,1,1-13.367-1.079,6.724,6.724,0,0,0,2.994-5.6c0-6.282-6.521-5.686-6.521-11.759,0-.98.788-2.37.82-4.344.061-3.734-2.067-7.665,1.21-9.155.756-.344,3.814,6.772,4.7,6.772C4136.852,760,4140.4,779.984,4140.4,785.166Z" transform="translate(-4085.747 -747.671)" fill="#033" fill-rule="evenodd"/>
        <path id="Trazado_107708" data-name="Trazado 107708" d="M3654.157,1283.3l-16.661-5.856c.126-1.113,1.723-2.392,3.519-2.8,2.382-.546,4,.452,5.946,1.481a80.383,80.383,0,0,0,9.067,4.037C3662.8,1282.538,3658.641,1282.785,3654.157,1283.3Z" transform="translate(-3637.496 -1228.435)" fill="#fcbe99" fill-rule="evenodd"/>
        <path id="Trazado_107709" data-name="Trazado 107709" d="M3806.33,1089.274a144.743,144.743,0,0,1-15.855-6.417c-.033-.895,1.213-5.059,1.363-6.225a93.892,93.892,0,0,0,16.92-.089c12.6-1.254,18.2-5.888,22.751-14.02,1.8-3.21,4.223-5.828,10.14-5.314,10.384.9,13.985,15.02,5.155,24.823C3838.445,1091.31,3820.939,1093.754,3806.33,1089.274Z" transform="translate(-3778.588 -1027.981)" fill="#58a5f8" fill-rule="evenodd"/>
        <path id="Trazado_107710" data-name="Trazado 107710" d="M4284.167,939.73c2.308,3.548,2.15,10.022,3.2,12.16,2.512-2.491,8.7-7.947,12.791-6.41-4.181-3.334-7.916-8.242-10.766-11.692C4288.371,935.792,4285.983,939,4284.167,939.73Z" transform="translate(-4233.922 -914.209)" fill="#fcbe99" fill-rule="evenodd"/>
        <path id="Trazado_107711" data-name="Trazado 107711" d="M4284.167,939.733a13,13,0,0,1,1.569,4.028c2.688-2.592,4.261-6.471,3.935-9.632l-.279-.339C4288.371,935.795,4285.983,939,4284.167,939.733Z" transform="translate(-4233.922 -914.212)" fill="#fcad86" fill-rule="evenodd"/>
        <path id="Trazado_107712" data-name="Trazado 107712" d="M4675.613,2770.174h8.566a17.259,17.259,0,0,0-2.067,7.147c-.174,1.85-9.583,1.967-8.567,0A11.541,11.541,0,0,0,4675.613,2770.174Z" transform="translate(-4592.977 -2607.913)" fill="#fcbe99" fill-rule="evenodd"/>
        <path id="Trazado_107713" data-name="Trazado 107713" d="M4692.031,2770.178h8.566a18,18,0,0,0-1.8,5,26.125,26.125,0,0,1-7.528-.329A11.217,11.217,0,0,0,4692.031,2770.178Z" transform="translate(-4609.394 -2607.916)" fill="#fcad86" fill-rule="evenodd"/>
        <g id="Grupo_39974" data-name="Grupo 39974" transform="translate(74.127 168.007)">
          <path id="Trazado_107714" data-name="Trazado 107714" d="M4595.51,2845.58c6.388,0,11.065-1.464,12.05-1.464a3.3,3.3,0,0,1,3.375,3.212,3.167,3.167,0,0,1-1.459,2.644h-17.663a2.7,2.7,0,0,1-.266-1.165C4591.547,2847.024,4593.32,2845.58,4595.51,2845.58Z" transform="translate(-4591.547 -2844.116)" fill="#df4157" fill-rule="evenodd"/>
          <path id="Trazado_107715" data-name="Trazado 107715" d="M4595.662,2920.436H4612.3a.614.614,0,0,0,.612-.612v-.344h-17.861v.344A.613.613,0,0,0,4595.662,2920.436Z" transform="translate(-4594.779 -2913.624)" fill="#514c52" fill-rule="evenodd"/>
        </g>
        <path id="Trazado_107716" data-name="Trazado 107716" d="M4476.063,1708.5c1.326,1.377,10.271,1.11,11.238.291,1.736-5.768,6.824-22.5,3.676-30.721-1.317-3.442-3.543-6.5-3.721-9.345-.25-3.975,1.295-12.837,1.742-16.972,1.107-10.247.283-24.368-3.984-32.169-4.361-7.972-30.292-.357-25.246,10.241C4476.494,1664.95,4474.659,1686.574,4476.063,1708.5Z" transform="translate(-4395.28 -1543.669)" fill="#ffc74a" fill-rule="evenodd"/>
        <path id="Trazado_107717" data-name="Trazado 107717" d="M4488.428,1630.42a35.718,35.718,0,0,0-3.415-10.834c-4.361-7.972-30.292-.357-25.246,10.241q1.608,3.375,2.991,6.587C4471.5,1636.158,4484.127,1634.657,4488.428,1630.42Z" transform="translate(-4395.28 -1543.669)" fill="#f29953" fill-rule="evenodd"/>
        <path id="Trazado_107718" data-name="Trazado 107718" d="M4459.751,1638.845a5.939,5.939,0,0,0,.038,5.314c13.208,27.734,14.842,47.05,15.636,64.747,2.136-6,3.723-12.34,2.833-16.5-.847-3.953-3-7.293-1.484-10.44,2.255-4.69,6.85-13.974,8.285-22.148,1.729-9.84,2.317-17.7-1.847-24.11C4478.382,1628.276,4464.587,1632.707,4459.751,1638.845Z" transform="translate(-4395.303 -1558.002)" fill="#f3944b" fill-rule="evenodd"/>
        <path id="Trazado_107719" data-name="Trazado 107719" d="M4375.583,2778.56h8.566a15.161,15.161,0,0,0-2.285,6.519c-.23,1.688-9.644,1.795-8.567,0A10.143,10.143,0,0,0,4375.583,2778.56Z" transform="translate(-4316.048 -2615.647)" fill="#fcbe99" fill-rule="evenodd"/>
        <path id="Trazado_107720" data-name="Trazado 107720" d="M4394.2,2778.56h8.566a16.185,16.185,0,0,0-1.9,4.344,25.756,25.756,0,0,1-7.473-.306A9.555,9.555,0,0,0,4394.2,2778.56Z" transform="translate(-4334.667 -2615.647)" fill="#fcad86" fill-rule="evenodd"/>
        <g id="Grupo_39975" data-name="Grupo 39975" transform="translate(50.601 168.007)">
          <path id="Trazado_107721" data-name="Trazado 107721" d="M4292.709,2845.58c6.388,0,11.066-1.464,12.049-1.464a3.3,3.3,0,0,1,3.376,3.212,3.168,3.168,0,0,1-1.459,2.644h-17.663a2.7,2.7,0,0,1-.266-1.165C4288.747,2847.024,4290.521,2845.58,4292.709,2845.58Z" transform="translate(-4288.747 -2844.116)" fill="#df4157" fill-rule="evenodd"/>
          <path id="Trazado_107722" data-name="Trazado 107722" d="M4292.863,2920.436H4309.5a.614.614,0,0,0,.612-.612v-.344h-17.861v.344A.613.613,0,0,0,4292.863,2920.436Z" transform="translate(-4291.98 -2913.624)" fill="#514c52" fill-rule="evenodd"/>
        </g>
        <path id="Trazado_107723" data-name="Trazado 107723" d="M4380.166,1722.833c1,1.376,10.013,1.11,11.17.291,3.078-5.768,12.059-22.5,10.826-30.722-.594-3.953-2.53-7.293-.816-10.44,2.556-4.69,8-14.218,9.963-22.392,2.359-9.84,3.19-17.458-.564-23.866-5.625-9.6-27.49.6-25.518,8.7C4387.033,1677.851,4383.865,1700.9,4380.166,1722.833Z" transform="translate(-4322.463 -1557.999)" fill="#ffc74a" fill-rule="evenodd"/>
        <path id="Trazado_107724" data-name="Trazado 107724" d="M4471.917,1646.386a20.1,20.1,0,0,0-2.574-10.682c-5.626-9.6-27.49.6-25.518,8.7q.175,3.246.289,6.362C4451.276,1650.932,4465.21,1650.04,4471.917,1646.386Z" transform="translate(-4381.06 -1557.999)" fill="#f8a35d" fill-rule="evenodd"/>
        <path id="Trazado_107725" data-name="Trazado 107725" d="M4174.961,821.475c-.586,3.266,1.705,9.483,2.752,11.445,1.509,2.831,1.978,3.765,4.538,3.456,3.525-.425,7.152-5.907,6.352-10.692-.927-5.539-3.167-7.836-9.4-6.909C4177.137,819.082,4175.242,819.914,4174.961,821.475Z" transform="translate(-4133.114 -807.947)" fill="#fcbe99" fill-rule="evenodd"/>
        <path id="Trazado_107726" data-name="Trazado 107726" d="M4276.857,1108.42c.939,1.159,33.74,1.095,35.922-7.8-3.262-9.572-7.28-23.135-11.515-34.106-5.267-13.642-15.007-25.293-26.156-18.546-2.956,1.788-4.443,7.3-6.378,12.4-2.6,6.859.024,10.21,2.591,15.68C4277.464,1089.14,4276.724,1100.167,4276.857,1108.42Z" transform="translate(-4218.696 -1017.696)" fill="#58a5f8" fill-rule="evenodd"/>
        <path id="Trazado_107727" data-name="Trazado 107727" d="M4276.857,1233.681c.36.445,5.425.709,11.648.362a75.9,75.9,0,0,0-.9-18.346c-2.72-16.278-9.812-29.4-17.482-33.889-.456,1.256-.909,2.551-1.39,3.821-2.6,6.859.024,10.21,2.591,15.68C4277.464,1214.4,4276.724,1225.427,4276.857,1233.681Z" transform="translate(-4218.696 -1142.957)" fill="#58a5f8" fill-rule="evenodd"/>
        <path id="Trazado_107728" data-name="Trazado 107728" d="M4273.978,1104.288a52.817,52.817,0,0,0,3.172,7.106,55.635,55.635,0,0,1,3.652,10.258c6.4-4.336,11.555-8.633,14.594-14.576,6.757-13.21.762-25.936-9.536-22.046C4274.98,1089.139,4277.28,1097.98,4273.978,1104.288Z" transform="translate(-4224.525 -1053.043)" fill="#58a5f8" fill-rule="evenodd"/>
        <path id="Trazado_107729" data-name="Trazado 107729" d="M4240.359,977.41c.055,1.425-.643,2.341-1.566,2.363a2.381,2.381,0,0,1-2.009-.953c-.628-.877.674-.876,1.075-.892a3.082,3.082,0,0,0,1.947-.87C4240.279,976.588,4240.343,976.984,4240.359,977.41Z" transform="translate(-4190.066 -953.921)" fill="#fff" fill-rule="evenodd"/>
        <path id="Trazado_107730" data-name="Trazado 107730" d="M4185.458,709.859a8.528,8.528,0,0,1-1.955,14.548,7.288,7.288,0,0,0,3.851,1.679,7.317,7.317,0,0,1-7.3,6.786c-5.378,0-7.226-11.891-12.8-18.2-1.9-2.146-5.4-2.3-8.038-2.937a9.352,9.352,0,0,1-6.645-5.225c-.86-1.756-.487-4.289-.852-6.933-.086-.624-.167-1.26-.244-1.9-1.961.465-2.737,1.42-4.833.506a6.026,6.026,0,0,1-2.367-1.912,6.15,6.15,0,1,1-3-11.52,6.221,6.221,0,0,1,.947.073,6.093,6.093,0,0,1,5.271-3.032c6.164,0,12.243,10.491,13.869,15.222,1.8,5.25,6.391,14.186,13.08,14.186a8.489,8.489,0,0,0,5.279-1.83,8.487,8.487,0,0,1,.885,3.785v.168A8.54,8.54,0,0,0,4185.458,709.859Z" transform="translate(-4096.466 -681.797)" fill="#254b4b" fill-rule="evenodd"/>
        <path id="Trazado_107731" data-name="Trazado 107731" d="M4488.716,1884.225a.246.246,0,0,1,.493,0,22.81,22.81,0,0,0,.6,6.076c.565,1.959,1.676,3.579,3.856,3.836a.246.246,0,0,1-.056.489c-2.43-.286-3.655-2.052-4.272-4.187A23.189,23.189,0,0,1,4488.716,1884.225Z" transform="translate(-4422.578 -1790.573)" fill="#dc9966" fill-rule="evenodd"/>
        <path id="Trazado_107732" data-name="Trazado 107732" d="M4338.366,886.116a3.993,3.993,0,0,1-.834,3.186c-.565.689-1.287,1.095-1.639.477a20.5,20.5,0,0,0-.595-4.4A1.7,1.7,0,0,1,4338.366,886.116Z" transform="translate(-4281.08 -868.902)" fill="#fcbe99" fill-rule="evenodd"/>
        <g id="Grupo_39976" data-name="Grupo 39976" transform="translate(66.961 58.553)">
          <path id="Trazado_107733" data-name="Trazado 107733" d="M4504.728,1467.022a.2.2,0,0,1-.2-.191c-.5-13.288-2.153-23.19-5.2-31.162a.2.2,0,1,1,.371-.143c3.063,8.014,4.724,17.957,5.226,31.29a.2.2,0,0,1-.191.206Z" transform="translate(-4499.315 -1435.398)" fill="#f7f9f4"/>
        </g>
        <g id="Grupo_39977" data-name="Grupo 39977" transform="translate(12.972 52.788)">
          <path id="Trazado_107734" data-name="Trazado 107734" d="M3817.843,1365.01a.244.244,0,0,1-.04,0c-3.864-.776-8.063-1.862-13.216-3.417a.2.2,0,0,1,.115-.381c5.14,1.551,9.328,2.634,13.179,3.407a.2.2,0,0,1-.039.394Z" transform="translate(-3804.446 -1361.199)" fill="#fff"/>
        </g>
        <path id="Trazado_107735" data-name="Trazado 107735" d="M4382.608,1887.846a12.1,12.1,0,0,0,1.583.252,1.188,1.188,0,0,0-.982-.337,2.006,2.006,0,0,0-.6.086Zm3.211.357c.3.01.6.016.9.018-.2-.254-.386-.461-.458-.461s-.252.2-.444.443Zm2.626-.014c.7-.03,1.362-.08,1.949-.147a1.345,1.345,0,0,0-.943-.283c-.552,0-1,.192-1.006.429Zm4.927-2.218q.247-.465.516-.978c-.464.039-.814.215-.814.427a1.827,1.827,0,0,0,.3.552Zm1.527-2.926q.226-.443.461-.906c-.415.054-.718.219-.718.416a1.586,1.586,0,0,0,.257.49Zm4.782-10.223c.083-.2.164-.4.245-.6-.235-.407-.762-1.1-.892-1.1a3.821,3.821,0,0,0-1.007,1.36c0,.24.451.434,1.007.434a1.943,1.943,0,0,0,.647-.1Zm1.052-2.658q.309-.823.595-1.642a1.91,1.91,0,0,0-.674-.112c-.556,0-1.006.195-1.006.434a3.818,3.818,0,0,0,1.006,1.359.159.159,0,0,0,.08-.04Zm1.111-3.184q.23-.723.434-1.433h-.056c-.556,0-1.007.195-1.007.434a3.68,3.68,0,0,0,.629,1Zm.813-2.838.025-.1a.26.26,0,0,0-.026.09v.012Zm.8-4.938a13.36,13.36,0,0,0-.013-1.612,4.314,4.314,0,0,0-.789,1.186c0,.21.345.384.8.426Zm-.383-3.886q-.073-.322-.151-.64a1.87,1.87,0,0,0-.7-.123c-.556,0-1.007.194-1.007.434a3.815,3.815,0,0,0,1.007,1.36c.124,0,.6-.62.853-1.031Zm-1.128-4.844a8.767,8.767,0,0,1-.089-1.528c-.376.063-.644.221-.644.405a4.126,4.126,0,0,0,.732,1.123Zm8.127-19.17q.228-.557.445-1.117c-.242-.339-.523-.671-.613-.671a3.815,3.815,0,0,0-1.007,1.359c0,.24.451.434,1.007.434.057,0,.113,0,.168-.006Zm1.1-2.877q.281-.794.533-1.585c-.1-.115-.19-.19-.233-.19a3.818,3.818,0,0,0-1.006,1.359c0,.195.3.36.707.415Zm1.131-3.63q.1-.393.2-.781c-.251.079-.415.207-.415.351a1.351,1.351,0,0,0,.218.43Zm1.141-5.037q.138-.7.263-1.376a1.994,1.994,0,0,0-.614-.09c-.556,0-1.007.194-1.007.435a3.818,3.818,0,0,0,1.007,1.359c.058,0,.2-.138.352-.327Zm.575-3.247q.078-.518.145-1.027c-.3.075-.51.216-.51.378a2.241,2.241,0,0,0,.365.649Zm.475-4.762q.034-.847.021-1.669c-.487.03-.861.211-.861.43a4.4,4.4,0,0,0,.84,1.239Zm-27.754,4.167q.021.624.041,1.244c.292-.076.487-.215.487-.372a3.158,3.158,0,0,0-.528-.871Zm.154,5.848.016.994c.219-.079.358-.2.358-.332a2.28,2.28,0,0,0-.374-.662Zm.035,2.461,0,.3a3.943,3.943,0,0,0,.95,1.2,3.822,3.822,0,0,0,1.008-1.359c0-.24-.451-.435-1.008-.435a1.312,1.312,0,0,0-.953.294Zm.018,3.2v.9c.2-.079.322-.193.322-.318a1.966,1.966,0,0,0-.321-.586Zm-.007,2.372,0,.321a3.922,3.922,0,0,0,.944,1.192,3.822,3.822,0,0,0,1.008-1.359c0-.24-.451-.434-1.008-.434a1.355,1.355,0,0,0-.942.281Zm-.038,3.2-.018.992c.234-.08.384-.2.384-.342a2.231,2.231,0,0,0-.366-.651Zm-.13,5.173q-.021.61-.044,1.215c.321-.073.541-.218.541-.385a2.988,2.988,0,0,0-.5-.83Zm-.228,5.354q-.04.773-.083,1.54c.461-.04.808-.215.808-.426a4.1,4.1,0,0,0-.725-1.114Zm-.327,5.406q-.062.89-.128,1.771c.056,0,.114.006.173.006.556,0,1.007-.194,1.007-.434a3.825,3.825,0,0,0-1.007-1.359.1.1,0,0,0-.045.017Zm-.5,6.192q-.052.563-.1,1.123a1.941,1.941,0,0,0,.644.1c.556,0,1.007-.195,1.007-.435a3.821,3.821,0,0,0-1.007-1.359c-.082,0-.318.269-.54.57Zm-.3,3.131-.087.856c.223-.08.365-.2.365-.335a1.7,1.7,0,0,0-.278-.521Zm-.507,4.693q-.092.811-.19,1.616c.542-.007.975-.2.975-.434a4.287,4.287,0,0,0-.785-1.181Zm-.746,6.008-.152,1.134a1.906,1.906,0,0,0,.675.112c.557,0,1.007-.195,1.007-.435a3.82,3.82,0,0,0-1.007-1.359c-.079,0-.305.256-.523.547Zm-.309,2.276-.167,1.192a3.13,3.13,0,0,0,.521-.862c0-.132-.137-.251-.354-.33Zm-.807,5.539q-.108.719-.22,1.434c.165.2.313.354.374.354a3.82,3.82,0,0,0,1.007-1.359c0-.24-.451-.434-1.007-.434-.052,0-.1,0-.153,0Zm-.485,3.126-.079.5a1,1,0,0,0,.157-.333.242.242,0,0,0-.078-.167Zm-.826,5.087-.277,1.664c.077.079.14.128.174.128a3.825,3.825,0,0,0,1.007-1.359c0-.225-.4-.41-.9-.432Zm3.958,1.357c0,.24-.451.434-1.007.434s-1.006-.195-1.006-.434a1.053,1.053,0,1,1,2.014,0Zm3.189-.925c0-.24-.451-.435-1.008-.435s-1.006.195-1.006.435a1.053,1.053,0,1,0,2.014,0Zm3.009.925c0,.24-.451.434-1.007.434s-1.007-.195-1.007-.434a1.053,1.053,0,1,1,2.014,0Zm-7.684-3.789c0-.24-.451-.434-1.007-.434s-1.007.194-1.007.434a1.053,1.053,0,1,0,2.014,0Zm3.054.925c0,.24-.451.434-1.007.434s-1.007-.195-1.007-.434a1.053,1.053,0,1,1,2.014,0Zm3.188-.925c0-.24-.45-.434-1.007-.434s-1.006.194-1.006.434a1.052,1.052,0,1,0,2.013,0Zm3.01.925c0,.24-.451.434-1.007.434s-1.006-.195-1.006-.434a1.053,1.053,0,1,1,2.014,0Zm-7.766-2.488c0,.24-.451.435-1.007.435s-1.006-.195-1.006-.435a1.053,1.053,0,1,1,2.014,0Zm3.189-.925c0-.24-.451-.434-1.008-.434s-1.006.194-1.006.434a1.053,1.053,0,1,0,2.014,0Zm3.009.925c0,.24-.451.435-1.007.435s-1.007-.195-1.007-.435a1.053,1.053,0,1,1,2.014,0Zm3.188-.925c0-.24-.451-.434-1.007-.434s-1.007.194-1.007.434a1.053,1.053,0,1,0,2.014,0Zm-7.818-1.939c0,.24-.451.434-1.007.434s-1.007-.194-1.007-.434a1.053,1.053,0,1,1,2.014,0Zm3.188-.925c0-.24-.45-.434-1.007-.434s-1.006.194-1.006.434a1.052,1.052,0,1,0,2.013,0Zm3.01.925c0,.24-.451.434-1.007.434s-1.006-.194-1.006-.434a1.053,1.053,0,1,1,2.014,0Zm3.188-.925c0-.24-.451-.434-1.007-.434s-1.007.194-1.007.434a1.053,1.053,0,1,0,2.014,0Zm-10.955-1.85c0,.24-.451.434-1.007.434s-1.006-.194-1.006-.434a1.053,1.053,0,1,1,2.014,0Zm3.189-.925c0-.24-.451-.434-1.008-.434s-1.006.195-1.006.434a1.053,1.053,0,1,0,2.014,0Zm3.009.925c0,.24-.451.434-1.007.434s-1.007-.194-1.007-.434a1.053,1.053,0,1,1,2.014,0Zm3.188-.925c0-.24-.451-.434-1.007-.434s-1.007.195-1.007.434a1.052,1.052,0,1,0,2.014,0Zm3.136.925c0,.24-.451.434-1.006.434s-1.007-.194-1.007-.434a1.052,1.052,0,1,1,2.013,0Zm-10.954-2.864c0,.24-.451.434-1.007.434s-1.007-.195-1.007-.434a1.053,1.053,0,1,1,2.014,0Zm3.188-.925c0-.24-.45-.434-1.007-.434s-1.006.194-1.006.434a1.052,1.052,0,1,0,2.013,0Zm3.01.925c0,.24-.451.434-1.007.434s-1.006-.195-1.006-.434a1.053,1.053,0,1,1,2.014,0Zm3.188-.925c0-.24-.451-.434-1.007-.434s-1.007.194-1.007.434a1.053,1.053,0,1,0,2.014,0Zm3.384-4.659c0,.24-.451.434-1.007.434s-1.007-.194-1.007-.434a1.053,1.053,0,1,1,2.014,0Zm1.62-3.7c0-.24-.45-.434-1.007-.434s-1.006.194-1.006.434a1.052,1.052,0,1,0,2.013,0Zm-1.62-1.939c0,.24-.451.435-1.007.435s-1.007-.195-1.007-.435a1.053,1.053,0,1,1,2.014,0Zm3.188-.925c0-.24-.451-.434-1.007-.434s-1.007.194-1.007.434a1.053,1.053,0,1,0,2.014,0Zm-1.568-2.488c0-.24-.45-.434-1.007-.434s-1.006.194-1.006.434a1.052,1.052,0,1,0,2.013,0Zm-1.62-1.939c0,.24-.451.435-1.007.435s-1.007-.195-1.007-.435a1.053,1.053,0,1,1,2.014,0Zm1.62-3.7c0-.24-.45-.434-1.007-.434s-1.006.194-1.006.434a1.052,1.052,0,1,0,2.013,0Zm-1.62-1.939c0,.24-.451.434-1.007.434s-1.007-.194-1.007-.434a1.053,1.053,0,1,1,2.014,0Zm-11.149,18.568c0-.24-.451-.434-1.008-.434s-1.006.195-1.006.434a1.053,1.053,0,1,0,2.014,0Zm3.009.925c0,.24-.451.435-1.007.435s-1.007-.195-1.007-.435a1.052,1.052,0,1,1,2.014,0Zm3.188-.925c0-.24-.451-.434-1.007-.434s-1.007.195-1.007.434a1.053,1.053,0,1,0,2.014,0Zm3.136.925c0,.24-.451.435-1.006.435s-1.007-.195-1.007-.435a1.052,1.052,0,1,1,2.013,0Zm-10.954-2.864c0,.24-.451.434-1.007.434s-1.007-.194-1.007-.434a1.052,1.052,0,1,1,2.014,0Zm3.188-.925c0-.24-.45-.434-1.007-.434s-1.006.195-1.006.434a1.052,1.052,0,1,0,2.013,0Zm3.01.925c0,.24-.451.434-1.007.434s-1.006-.194-1.006-.434a1.052,1.052,0,1,1,2.014,0Zm3.188-.925c0-.24-.451-.434-1.007-.434s-1.007.195-1.007.434a1.053,1.053,0,1,0,2.014,0Zm-7.766-2.774c0-.24-.451-.434-1.008-.434s-1.006.194-1.006.434a1.053,1.053,0,1,0,2.014,0Zm3.009.925c0,.24-.451.434-1.007.434s-1.007-.195-1.007-.434a1.053,1.053,0,1,1,2.014,0Zm3.188-.925c0-.24-.451-.434-1.007-.434s-1.007.194-1.007.434a1.053,1.053,0,1,0,2.014,0Zm3.136.925c0,.24-.451.434-1.006.434s-1.007-.195-1.007-.434a1.052,1.052,0,1,1,2.013,0Zm-10.954-2.864c0,.24-.451.435-1.007.435s-1.007-.195-1.007-.435a1.052,1.052,0,1,1,2.014,0Zm3.188-.925c0-.24-.45-.434-1.007-.434s-1.006.194-1.006.434a1.052,1.052,0,1,0,2.013,0Zm3.01.925c0,.24-.451.435-1.007.435s-1.006-.195-1.006-.435a1.052,1.052,0,1,1,2.014,0Zm3.188-.925c0-.24-.451-.434-1.007-.434s-1.007.194-1.007.434a1.053,1.053,0,1,0,2.014,0Zm-7.766-2.488c0-.24-.451-.434-1.008-.434s-1.006.194-1.006.434a1.053,1.053,0,1,0,2.014,0Zm3.009.925c0,.24-.451.435-1.007.435s-1.007-.195-1.007-.435a1.052,1.052,0,1,1,2.014,0Zm3.188-.925c0-.24-.451-.434-1.007-.434s-1.007.194-1.007.434a1.053,1.053,0,1,0,2.014,0Zm3.136.925c0,.24-.451.435-1.006.435s-1.007-.195-1.007-.435a1.052,1.052,0,1,1,2.013,0Zm-7.766-3.789c0-.24-.45-.434-1.007-.434s-1.006.194-1.006.434a1.052,1.052,0,1,0,2.013,0Zm3.01.925c0,.24-.451.435-1.007.435s-1.006-.195-1.006-.435a1.052,1.052,0,1,1,2.014,0Zm3.188-.925c0-.24-.451-.434-1.007-.434s-1.007.194-1.007.434a1.053,1.053,0,1,0,2.014,0Zm-7.766-2.774c0-.24-.451-.434-1.008-.434s-1.006.194-1.006.434a1.053,1.053,0,1,0,2.014,0Zm3.009.925c0,.24-.451.434-1.007.434s-1.007-.194-1.007-.434a1.053,1.053,0,1,1,2.014,0Zm3.188-.925c0-.24-.451-.434-1.007-.434s-1.007.194-1.007.434a1.052,1.052,0,1,0,2.014,0Zm3.136.925c0,.24-.451.434-1.006.434s-1.007-.194-1.007-.434a1.052,1.052,0,1,1,2.013,0Zm-7.766-3.789c0-.24-.45-.434-1.007-.434s-1.006.194-1.006.434a1.052,1.052,0,1,0,2.013,0Zm3.01.925c0,.24-.451.434-1.007.434s-1.006-.194-1.006-.434a1.052,1.052,0,1,1,2.014,0Zm3.188-.925c0-.24-.451-.434-1.007-.434s-1.007.194-1.007.434a1.053,1.053,0,1,0,2.014,0Zm5-2.771c0-.24-.45-.434-1.007-.434s-1.006.194-1.006.434a1.052,1.052,0,1,0,2.013,0Zm-1.62-1.939c0,.24-.451.434-1.007.434s-1.007-.194-1.007-.434a1.053,1.053,0,1,1,2.014,0Zm3.188-.925c0-.24-.451-.434-1.007-.434s-1.007.194-1.007.434a1.053,1.053,0,1,0,2.014,0Zm-1.568-2.775c0-.24-.45-.434-1.007-.434s-1.006.195-1.006.434a1.052,1.052,0,1,0,2.013,0Zm3.01.925c0,.24-.451.434-1.007.434s-1.007-.194-1.007-.434a1.053,1.053,0,1,1,2.014,0Zm-4.63-2.864c0,.24-.451.435-1.007.435s-1.007-.195-1.007-.435a1.053,1.053,0,1,1,2.014,0Zm3.188-.925c0-.24-.451-.434-1.007-.434s-1.007.194-1.007.434a1.053,1.053,0,1,0,2.014,0Zm3.009.925c0,.24-.451.435-1.006.435s-1.007-.195-1.007-.435a1.052,1.052,0,1,1,2.014,0Zm-4.578-3.413c0-.24-.45-.434-1.007-.434s-1.006.194-1.006.434a1.052,1.052,0,1,0,2.013,0Zm3.01.925c0,.24-.451.435-1.007.435s-1.007-.194-1.007-.435a1.053,1.053,0,1,1,2.014,0Zm3.188-.925c0-.24-.451-.434-1.007-.434s-1.007.194-1.007.434a1.053,1.053,0,1,0,2.014,0Zm-7.818-1.939c0,.24-.451.434-1.007.434s-1.007-.194-1.007-.434a1.053,1.053,0,1,1,2.014,0Zm3.188-.925c0-.24-.451-.434-1.007-.434s-1.007.194-1.007.434a1.053,1.053,0,1,0,2.014,0Zm3.009.925c0,.24-.451.434-1.006.434s-1.007-.194-1.007-.434a1.052,1.052,0,1,1,2.014,0Zm3.188-.925c0-.24-.451-.434-1.007-.434s-1.007.194-1.007.434a1.053,1.053,0,1,0,2.014,0Zm-7.766-2.775c0-.24-.45-.434-1.007-.434s-1.006.194-1.006.434a1.052,1.052,0,1,0,2.013,0Zm3.01.925c0,.24-.451.434-1.007.434s-1.007-.194-1.007-.434a1.053,1.053,0,1,1,2.014,0Zm3.188-.925c0-.24-.451-.434-1.007-.434s-1.007.194-1.007.434a1.053,1.053,0,1,0,2.014,0Zm-7.818-1.939c0,.24-.451.434-1.007.434s-1.007-.195-1.007-.434a1.053,1.053,0,1,1,2.014,0Zm3.188-.925c0-.24-.451-.435-1.007-.435s-1.007.195-1.007.435a1.053,1.053,0,1,0,2.014,0Zm3.009.925c0,.24-.451.434-1.006.434s-1.007-.195-1.007-.434a1.053,1.053,0,1,1,2.014,0Zm3.188-.925c0-.24-.451-.435-1.007-.435s-1.007.195-1.007.435a1.053,1.053,0,1,0,2.014,0Zm-20.536,19.493c0-.24-.451-.434-1.008-.434s-1.006.194-1.006.434a1.053,1.053,0,1,0,2.014,0Zm3.009.925c0,.24-.451.434-1.007.434s-1.007-.194-1.007-.434a1.052,1.052,0,1,1,2.014,0Zm3.188-.925c0-.24-.451-.434-1.007-.434s-1.007.194-1.007.434a1.053,1.053,0,1,0,2.014,0Zm3.136.925c0,.24-.451.434-1.006.434s-1.007-.194-1.007-.434a1.052,1.052,0,1,1,2.013,0Zm-7.766-3.789c0-.24-.45-.434-1.007-.434s-1.006.194-1.006.434a1.052,1.052,0,1,0,2.013,0Zm3.01.925c0,.24-.451.434-1.007.434s-1.006-.194-1.006-.434a1.053,1.053,0,1,1,2.014,0Zm3.188-.925c0-.24-.451-.434-1.007-.434s-1.007.194-1.007.434a1.053,1.053,0,1,0,2.014,0Zm-7.766-2.775c0-.24-.451-.434-1.008-.434s-1.006.195-1.006.434a1.053,1.053,0,1,0,2.014,0Zm3.009.925c0,.24-.451.434-1.007.434s-1.007-.194-1.007-.434a1.053,1.053,0,1,1,2.014,0Zm3.188-.925c0-.24-.451-.434-1.007-.434s-1.007.195-1.007.434a1.053,1.053,0,1,0,2.014,0Zm3.136.925c0,.24-.451.434-1.006.434s-1.007-.194-1.007-.434a1.052,1.052,0,1,1,2.013,0Zm-7.766-3.789c0-.24-.45-.434-1.007-.434s-1.006.194-1.006.434a1.052,1.052,0,1,0,2.013,0Zm3.01.925c0,.24-.451.435-1.007.435s-1.006-.195-1.006-.435a1.052,1.052,0,1,1,2.014,0Zm3.188-.925c0-.24-.451-.434-1.007-.434s-1.007.194-1.007.434a1.053,1.053,0,1,0,2.014,0Zm-7.766-2.488c0-.24-.451-.434-1.008-.434s-1.006.194-1.006.434a1.053,1.053,0,1,0,2.014,0Zm3.009.925c0,.24-.451.435-1.007.435s-1.007-.194-1.007-.435a1.052,1.052,0,1,1,2.014,0Zm3.188-.925c0-.24-.451-.434-1.007-.434s-1.007.194-1.007.434a1.053,1.053,0,1,0,2.014,0Zm3.136.925c0,.24-.451.435-1.006.435s-1.007-.194-1.007-.435a1.052,1.052,0,1,1,2.013,0Zm-7.766-3.789c0-.24-.45-.434-1.007-.434s-1.006.194-1.006.434a1.052,1.052,0,1,0,2.013,0Zm3.01.925c0,.24-.451.434-1.007.434s-1.006-.194-1.006-.434a1.052,1.052,0,1,1,2.014,0Zm3.188-.925c0-.24-.451-.434-1.007-.434s-1.007.194-1.007.434a1.053,1.053,0,1,0,2.014,0Zm-4.757-1.85c0,.24-.451.434-1.007.434s-1.007-.194-1.007-.434a1.052,1.052,0,1,1,2.014,0Zm3.188-.925c0-.24-.451-.434-1.007-.434s-1.007.194-1.007.434a1.053,1.053,0,1,0,2.014,0Zm3.136.925c0,.24-.451.434-1.006.434s-1.007-.194-1.007-.434a1.052,1.052,0,1,1,2.013,0Zm-7.766-3.789c0-.24-.45-.435-1.007-.435s-1.006.195-1.006.435a1.052,1.052,0,1,0,2.013,0Zm3.01.925c0,.24-.451.434-1.007.434s-1.006-.195-1.006-.434a1.053,1.053,0,1,1,2.014,0Zm3.188-.925c0-.24-.451-.435-1.007-.435s-1.007.195-1.007.435a1.053,1.053,0,1,0,2.014,0Zm5-2.72c0-.24-.45-.435-1.007-.435s-1.006.195-1.006.435a1.052,1.052,0,1,0,2.013,0Zm3.01.925c0,.24-.451.434-1.007.434s-1.007-.194-1.007-.434a1.053,1.053,0,1,1,2.014,0Zm3.188-.925c0-.24-.451-.435-1.007-.435s-1.007.195-1.007.435a1.053,1.053,0,1,0,2.014,0Zm3.054.925c0,.24-.451.434-1.006.434s-1.007-.194-1.007-.434a1.053,1.053,0,1,1,2.014,0Zm-10.872-2.864c0,.24-.451.434-1.007.434s-1.007-.194-1.007-.434a1.053,1.053,0,1,1,2.014,0Zm3.188-.925c0-.24-.451-.434-1.007-.434s-1.007.194-1.007.434a1.053,1.053,0,1,0,2.014,0Zm3.009.925c0,.24-.451.434-1.006.434s-1.007-.194-1.007-.434a1.052,1.052,0,1,1,2.014,0Zm3.188-.925c0-.24-.451-.434-1.007-.434s-1.007.194-1.007.434a1.053,1.053,0,1,0,2.014,0Zm3.054.925c0,.24-.451.434-1.007.434s-1.006-.194-1.006-.434a1.052,1.052,0,1,1,2.013,0Zm-10.82-3.7c0-.24-.45-.435-1.007-.435s-1.006.194-1.006.435a1.052,1.052,0,1,0,2.013,0Zm3.01.925c0,.24-.451.434-1.007.434s-1.007-.194-1.007-.434a1.053,1.053,0,1,1,2.014,0Zm3.188-.925c0-.24-.451-.435-1.007-.435s-1.007.194-1.007.435a1.053,1.053,0,1,0,2.014,0Zm3.054.925c0,.24-.451.434-1.006.434s-1.007-.194-1.007-.434a1.053,1.053,0,1,1,2.014,0Zm-10.872-2.864c0,.24-.451.434-1.007.434s-1.007-.195-1.007-.434a1.053,1.053,0,1,1,2.014,0Zm3.188-.925c0-.24-.451-.434-1.007-.434s-1.007.194-1.007.434a1.053,1.053,0,1,0,2.014,0Zm3.009.925c0,.24-.451.434-1.006.434s-1.007-.195-1.007-.434a1.053,1.053,0,1,1,2.014,0Zm3.188-.925c0-.24-.451-.434-1.007-.434s-1.007.194-1.007.434a1.053,1.053,0,1,0,2.014,0Zm3.054.925c0,.24-.451.434-1.007.434s-1.006-.195-1.006-.434a1.052,1.052,0,1,1,2.013,0Zm-10.82-3.413c0-.24-.45-.434-1.007-.434s-1.006.194-1.006.434a1.052,1.052,0,1,0,2.013,0Zm3.01.925c0,.24-.451.434-1.007.434s-1.007-.194-1.007-.434a1.053,1.053,0,1,1,2.014,0Zm3.188-.925c0-.24-.451-.434-1.007-.434s-1.007.194-1.007.434a1.053,1.053,0,1,0,2.014,0Zm3.054.925c0,.24-.451.434-1.006.434s-1.007-.194-1.007-.434a1.053,1.053,0,1,1,2.014,0Zm3.188-.925c0-.24-.451-.434-1.006-.434s-1.007.194-1.007.434a1.053,1.053,0,1,0,2.014,0Zm-6.081-1.891c.175.219.336.387.4.387.089,0,.363-.322.6-.656q-.494.139-1,.269Zm4.461-.048c0,.24-.451.434-1.007.434s-1.006-.194-1.006-.434a2.98,2.98,0,0,1,.5-.829q.4-.14.789-.289a4.115,4.115,0,0,1,.728,1.118Zm-20.581,13.855c0,.24-.451.434-1.007.434s-1.007-.194-1.007-.434a1.053,1.053,0,1,1,2.014,0Zm3.188-.925c0-.24-.451-.435-1.007-.435s-1.007.195-1.007.435a1.053,1.053,0,1,0,2.014,0Zm3.136.925c0,.24-.451.434-1.006.434s-1.007-.194-1.007-.434a1.052,1.052,0,1,1,2.013,0Zm-7.766-3.789c0-.24-.45-.434-1.007-.434s-1.006.194-1.006.434a1.052,1.052,0,1,0,2.013,0Zm3.01.925c0,.24-.451.434-1.007.434s-1.006-.194-1.006-.434a1.052,1.052,0,1,1,2.014,0Zm3.188-.925c0-.24-.451-.434-1.007-.434s-1.007.194-1.007.434a1.053,1.053,0,1,0,2.014,0Zm-7.766-2.774c0-.24-.451-.435-1.008-.435s-1.006.194-1.006.435a1.053,1.053,0,1,0,2.014,0Zm3.009.925c0,.24-.451.434-1.007.434s-1.007-.194-1.007-.434a1.053,1.053,0,1,1,2.014,0Zm3.188-.925c0-.24-.451-.435-1.007-.435s-1.007.194-1.007.435a1.052,1.052,0,1,0,2.014,0Zm3.136.925c0,.24-.451.434-1.006.434s-1.007-.194-1.007-.434a1.052,1.052,0,1,1,2.013,0Zm-7.766-3.789c0-.24-.45-.434-1.007-.434s-1.006.194-1.006.434a1.052,1.052,0,1,0,2.013,0Zm3.01.925c0,.24-.451.434-1.007.434s-1.006-.195-1.006-.434a1.053,1.053,0,1,1,2.014,0Zm3.188-.925c0-.24-.451-.434-1.007-.434s-1.007.194-1.007.434a1.053,1.053,0,1,0,2.014,0Zm-9.655-2.208c.24.409.753,1.079.881,1.079s.64-.667.881-1.076c-.618.006-1.207,0-1.762,0Zm4.9.645c0,.24-.451.434-1.007.434s-1.007-.194-1.007-.434a2.309,2.309,0,0,1,.378-.668q.6-.015,1.229-.038a2.455,2.455,0,0,1,.406.707Zm1.226-.78a1.016,1.016,0,1,0,1.959-.121q-1,.071-1.959.121Zm5.1.78c0,.24-.451.434-1.006.434s-1.007-.194-1.007-.434a3.85,3.85,0,0,1,.665-1.044l.635-.059A4.053,4.053,0,0,1,4398.224,1814.3Z" transform="translate(-4323.662 -1722.419)" fill="#fec883" fill-rule="evenodd"/>
        <path id="Trazado_107736" data-name="Trazado 107736" d="M4649.447,1858.357c.624.063,1.3.1,1.985.117l0-.017c0-.24-.451-.435-1.007-.435a1.193,1.193,0,0,0-.98.335Zm3.583.118c.3-.007.592-.017.879-.031-.186-.235-.36-.422-.428-.422s-.257.2-.451.453Zm2.7-.178a10.324,10.324,0,0,0,1.346-.237,2.168,2.168,0,0,0-.41-.038,1.372,1.372,0,0,0-.936.275Zm2.188-1.263c.141-.47.3-.989.462-1.553-.122-.139-.224-.233-.271-.233a3.813,3.813,0,0,0-1.007,1.359c0,.212.352.389.817.427Zm.9-3.065q.13-.457.264-.939a2.509,2.509,0,0,0-.411.713.291.291,0,0,0,.147.226Zm1.377-5.206c.071-.294.143-.593.213-.893-.26-.388-.625-.839-.73-.839a3.817,3.817,0,0,0-1.007,1.359c0,.24.451.434,1.007.434a2.084,2.084,0,0,0,.517-.062Zm.705-3.1q.148-.7.286-1.406c-.5.024-.894.208-.894.432a3.593,3.593,0,0,0,.608.974Zm1.031-5.9q.064-.476.12-.95a1.8,1.8,0,0,0-.752-.145c-.556,0-1.006.195-1.006.434a3.816,3.816,0,0,0,1.006,1.359c.093,0,.387-.35.633-.7Zm.307-2.858q.041-.518.07-1.029c-.271.078-.449.211-.449.361a2.306,2.306,0,0,0,.379.667Zm.025-5.6c-.03-.343-.069-.679-.114-1.009-.18.078-.291.186-.291.3a2.477,2.477,0,0,0,.4.7Zm-.376-2.469q-.134-.591-.309-1.14a2.284,2.284,0,0,0-.28-.017c-.556,0-1.006.194-1.006.434a3.818,3.818,0,0,0,1.006,1.359c.087,0,.353-.31.589-.636Zm-4.2-10.678c-.018-.141-.032-.282-.041-.423-.016-.255-.024-.529-.026-.822a3.087,3.087,0,0,0-.513.851c0,.174.237.325.581.394Zm.194-5.609c.058-.577.124-1.17.194-1.769a4.18,4.18,0,0,0-.969,1.347c0,.205.331.377.775.423Zm.657-5.381.155-1.129c-.234-.322-.494-.624-.58-.624a3.812,3.812,0,0,0-1.007,1.359c0,.24.451.434,1.007.434a2.161,2.161,0,0,0,.425-.041Zm.408-2.961.137-1.008a2.493,2.493,0,0,0-.409.711c0,.115.1.219.272.3Zm.633-5.5q.07-.881.121-1.788a.057.057,0,0,0-.019,0,3.819,3.819,0,0,0-1.007,1.359c0,.225.4.41.905.432Zm.248-5.586q.01-.839,0-1.688c-.065-.063-.117-.1-.147-.1a3.821,3.821,0,0,0-1.007,1.359c0,.24.451.434,1.007.434.049,0,.1,0,.146,0Zm-.123-5.634q-.048-.872-.115-1.743a4.4,4.4,0,0,0-.915,1.309c0,.24.451.435,1.007.435Zm-.488-5.4q-.07-.54-.147-1.075a2.394,2.394,0,0,0-.394.689c0,.167.22.313.542.385Zm-.43-2.837q-.111-.628-.232-1.244c-.045-.058-.091-.114-.133-.165a8.7,8.7,0,0,1-1.312,1.066.146.146,0,0,0,0,.019c0,.24.451.434,1.007.434a1.911,1.911,0,0,0,.672-.111Zm-14.829,41.489c.122.141.226.236.274.236a3.824,3.824,0,0,0,1.007-1.359c0-.24-.451-.434-1.007-.434a2.222,2.222,0,0,0-.363.029,8.767,8.767,0,0,0,.089,1.528Zm1.127,4.844a.983.983,0,0,0,.154-.329c0-.122-.117-.232-.305-.311q.079.317.151.64Zm.383,3.885c.066.006.135.009.205.009.556,0,1.007-.195,1.007-.435a3.818,3.818,0,0,0-1.007-1.359c-.041,0-.121.068-.218.173a13.768,13.768,0,0,1,.013,1.611Zm-.272,4.054q.051.64.1,1.276a2.225,2.225,0,0,0,.379.032c.556,0,1.007-.195,1.007-.434a3.818,3.818,0,0,0-1.007-1.359c-.074,0-.274.22-.477.486Zm.355,5.229q.049.862.093,1.717h.029c.556,0,1.007-.194,1.007-.435a3.819,3.819,0,0,0-1.007-1.359.247.247,0,0,0-.122.077Zm.278,5.615.072,1.674c.446-.045.779-.217.779-.423a4.407,4.407,0,0,0-.851-1.251Zm.25,5.925.061,1.349c.321-.073.54-.218.54-.385a3.542,3.542,0,0,0-.6-.964Zm.159,3.424,0,.084c.063.213.486.378,1,.378.556,0,1.007-.195,1.007-.434a3.824,3.824,0,0,0-1.007-1.359,3.954,3.954,0,0,0-1,1.331Zm.125,2.313q.025.437.052.873c.164-.078.264-.18.264-.294a1.938,1.938,0,0,0-.316-.579Zm3.5-.346c0-.24-.451-.435-1.007-.435s-1.007.195-1.007.435a1.053,1.053,0,1,0,2.014,0Zm3.054.925c0,.24-.45.435-1.006.435s-1.007-.195-1.007-.435a1.052,1.052,0,1,1,2.013,0Zm3.188-.925c0-.24-.45-.435-1.006-.435s-1.007.195-1.007.435a1.052,1.052,0,1,0,2.013,0Zm-4.674-2.864c0-.24-.451-.434-1.007-.434s-1.007.194-1.007.434a1.053,1.053,0,1,0,2.014,0Zm3.054.925c0,.24-.451.434-1.007.434s-1.006-.195-1.006-.434a1.052,1.052,0,1,1,2.013,0Zm3.188-.925c0-.24-.451-.434-1.007-.434s-1.007.194-1.007.434a1.053,1.053,0,1,0,2.014,0Zm-7.811-2.489c0-.24-.451-.434-1.007-.434s-1.007.194-1.007.434a1.053,1.053,0,1,0,2.014,0Zm3.054.925c0,.24-.45.435-1.006.435s-1.007-.195-1.007-.435a1.052,1.052,0,1,1,2.013,0Zm3.188-.925c0-.24-.45-.434-1.006-.434s-1.007.194-1.007.434a1.052,1.052,0,1,0,2.013,0Zm3.01.925c0,.24-.451.435-1.007.435s-1.007-.195-1.007-.435a1.053,1.053,0,1,1,2.014,0Zm-10.873-2.864c0,.24-.451.434-1.007.434s-1.007-.194-1.007-.434a1.053,1.053,0,1,1,2.014,0Zm3.188-.925c0-.24-.451-.434-1.007-.434s-1.007.194-1.007.434a1.052,1.052,0,1,0,2.014,0Zm3.054.925c0,.24-.451.434-1.007.434s-1.006-.194-1.006-.434a1.052,1.052,0,1,1,2.013,0Zm3.188-.925c0-.24-.451-.434-1.007-.434s-1.007.194-1.007.434a1.052,1.052,0,1,0,2.014,0Zm-7.811-2.775c0-.24-.451-.434-1.007-.434s-1.007.194-1.007.434a1.052,1.052,0,1,0,2.014,0Zm3.054.925c0,.24-.45.434-1.006.434s-1.007-.194-1.007-.434a1.052,1.052,0,1,1,2.013,0Zm3.188-.925c0-.24-.45-.434-1.006-.434s-1.007.194-1.007.434a1.052,1.052,0,1,0,2.013,0Zm3.01.925c0,.24-.451.434-1.007.434s-1.007-.194-1.007-.434a1.053,1.053,0,1,1,2.014,0Zm-10.873-2.864c0,.24-.451.434-1.007.434s-1.007-.195-1.007-.434a1.053,1.053,0,1,1,2.014,0Zm3.188-.925c0-.24-.451-.434-1.007-.434s-1.007.194-1.007.434a1.053,1.053,0,1,0,2.014,0Zm3.054.925c0,.24-.451.434-1.007.434s-1.006-.195-1.006-.434a1.052,1.052,0,1,1,2.013,0Zm3.188-.925c0-.24-.451-.434-1.007-.434s-1.007.194-1.007.434a1.053,1.053,0,1,0,2.014,0Zm3.009.925c0,.24-.451.434-1.006.434s-1.007-.195-1.007-.434a1.053,1.053,0,1,1,2.014,0Zm-10.82-3.645c0-.24-.451-.434-1.007-.434s-1.007.195-1.007.434a1.053,1.053,0,1,0,2.014,0Zm3.054.925c0,.24-.45.435-1.006.435s-1.007-.194-1.007-.435a1.052,1.052,0,1,1,2.013,0Zm3.188-.925c0-.24-.45-.434-1.006-.434s-1.007.195-1.007.434a1.052,1.052,0,1,0,2.013,0Zm3.01.925c0,.24-.451.435-1.007.435s-1.007-.194-1.007-.435a1.053,1.053,0,1,1,2.014,0Zm-10.873-2.864c0,.24-.451.434-1.007.434s-1.007-.194-1.007-.434a1.053,1.053,0,1,1,2.014,0Zm3.188-.925c0-.24-.451-.434-1.007-.434s-1.007.195-1.007.434a1.053,1.053,0,1,0,2.014,0Zm3.054.925c0,.24-.451.434-1.007.434s-1.006-.194-1.006-.434a1.052,1.052,0,1,1,2.013,0Zm3.188-.925c0-.24-.451-.434-1.007-.434s-1.007.195-1.007.434a1.053,1.053,0,1,0,2.014,0Zm3.009.925c0,.24-.451.434-1.006.434s-1.007-.194-1.007-.434a1.053,1.053,0,1,1,2.014,0Zm-10.82-3.7c0-.24-.451-.434-1.007-.434s-1.007.194-1.007.434a1.053,1.053,0,1,0,2.014,0Zm3.054.925c0,.24-.45.434-1.006.434s-1.007-.195-1.007-.434a1.052,1.052,0,1,1,2.013,0Zm3.188-.925c0-.24-.45-.434-1.006-.434s-1.007.194-1.007.434a1.052,1.052,0,1,0,2.013,0Zm3.01.925c0,.24-.451.434-1.007.434s-1.007-.195-1.007-.434a1.053,1.053,0,1,1,2.014,0Zm3.188-.925c0-.24-.451-.434-1.007-.434s-1.006.194-1.006.434a1.052,1.052,0,1,0,2.013,0Zm-14.061-1.939c0,.24-.451.435-1.007.435s-1.007-.195-1.007-.435a1.052,1.052,0,1,1,2.014,0Zm3.188-.925c0-.24-.451-.434-1.007-.434s-1.007.194-1.007.434a1.053,1.053,0,1,0,2.014,0Zm3.054.925c0,.24-.451.435-1.007.435s-1.006-.195-1.006-.435a1.052,1.052,0,1,1,2.013,0Zm3.188-.925c0-.24-.451-.434-1.007-.434s-1.007.194-1.007.434a1.053,1.053,0,1,0,2.014,0Zm3.009.925c0,.24-.451.435-1.006.435s-1.007-.195-1.007-.435a1.052,1.052,0,1,1,2.014,0Zm-10.82-3.413c0-.24-.451-.434-1.007-.434s-1.007.194-1.007.434a1.053,1.053,0,1,0,2.014,0Zm3.054.925c0,.24-.45.435-1.006.435s-1.007-.195-1.007-.435a1.052,1.052,0,1,1,2.013,0Zm3.188-.925c0-.24-.45-.434-1.006-.434s-1.007.194-1.007.434a1.052,1.052,0,1,0,2.013,0Zm3.01.925c0,.24-.451.435-1.007.435s-1.007-.195-1.007-.435a1.053,1.053,0,1,1,2.014,0Zm-10.873-2.864c0,.24-.451.435-1.007.435s-1.007-.195-1.007-.435a1.052,1.052,0,1,1,2.014,0Zm3.188-.925c0-.24-.451-.434-1.007-.434s-1.007.194-1.007.434a1.053,1.053,0,1,0,2.014,0Zm3.054.925c0,.24-.451.435-1.007.435s-1.006-.195-1.006-.435a1.052,1.052,0,1,1,2.013,0Zm3.188-.925c0-.24-.451-.434-1.007-.434s-1.007.194-1.007.434a1.053,1.053,0,1,0,2.014,0Zm3.009.925c0,.24-.451.435-1.006.435s-1.007-.195-1.007-.435a1.052,1.052,0,1,1,2.014,0Zm-14.008-2.775c0,.24-.451.434-1.007.434s-1.007-.195-1.007-.434a1.053,1.053,0,1,1,2.014,0Zm3.188-.925c0-.24-.451-.435-1.007-.435s-1.007.194-1.007.435a1.052,1.052,0,1,0,2.014,0Zm3.054.925c0,.24-.45.434-1.006.434s-1.007-.195-1.007-.434a1.052,1.052,0,1,1,2.013,0Zm3.188-.925c0-.24-.45-.435-1.006-.435s-1.007.194-1.007.435a1.052,1.052,0,1,0,2.013,0Zm3.01.925c0,.24-.451.434-1.007.434s-1.007-.195-1.007-.434a1.053,1.053,0,1,1,2.014,0Zm-10.873-2.864c0,.24-.451.434-1.007.434s-1.007-.194-1.007-.434a1.052,1.052,0,1,1,2.014,0Zm3.188-.925c0-.24-.451-.434-1.007-.434s-1.007.194-1.007.434a1.053,1.053,0,1,0,2.014,0Zm3.054.925c0,.24-.451.434-1.007.434s-1.006-.194-1.006-.434a1.052,1.052,0,1,1,2.013,0Zm3.188-.925c0-.24-.451-.434-1.007-.434s-1.007.194-1.007.434a1.053,1.053,0,1,0,2.014,0Zm-11-1.846c0,.24-.451.434-1.007.434s-1.007-.194-1.007-.434a1.052,1.052,0,1,1,2.014,0Zm3.188-.925c0-.24-.451-.434-1.007-.434s-1.007.194-1.007.434a1.053,1.053,0,1,0,2.014,0Zm3.054.925c0,.24-.45.434-1.006.434s-1.007-.194-1.007-.434a1.052,1.052,0,1,1,2.013,0Zm3.188-.925c0-.24-.45-.434-1.006-.434s-1.007.194-1.007.434a1.052,1.052,0,1,0,2.013,0Zm-7.862-1.939c0,.24-.451.434-1.007.434s-1.007-.194-1.007-.434a1.053,1.053,0,1,1,2.014,0Zm3.188-.925c0-.24-.451-.434-1.007-.434s-1.007.194-1.007.434a1.053,1.053,0,1,0,2.014,0Zm3.054.925c0,.24-.451.434-1.007.434s-1.006-.194-1.006-.434a1.052,1.052,0,1,1,2.013,0Zm3.188-.925c0-.24-.451-.434-1.007-.434s-1.007.194-1.007.434a1.053,1.053,0,1,0,2.014,0Zm-7.811-2.775c0-.24-.451-.434-1.007-.434s-1.007.194-1.007.434a1.053,1.053,0,1,0,2.014,0Zm3.054.925c0,.24-.45.434-1.006.434s-1.007-.194-1.007-.434a1.052,1.052,0,1,1,2.013,0Zm3.188-.925c0-.24-.45-.434-1.006-.434s-1.007.194-1.007.434a1.052,1.052,0,1,0,2.013,0Zm-4.674-2.864c0-.24-.451-.434-1.007-.434s-1.007.194-1.007.434a1.053,1.053,0,1,0,2.014,0Zm3.054.925c0,.24-.451.434-1.007.434s-1.006-.195-1.006-.434a1.052,1.052,0,1,1,2.013,0Zm3.188-.925c0-.24-.451-.434-1.007-.434s-1.007.194-1.007.434a1.053,1.053,0,1,0,2.014,0Zm-4.757-1.563c0,.24-.45.434-1.006.434s-1.007-.194-1.007-.434a1.052,1.052,0,1,1,2.013,0Zm3.188-.925c0-.24-.45-.434-1.006-.434s-1.007.194-1.007.434a1.052,1.052,0,1,0,2.013,0Zm-1.62-1.939c0,.24-.451.434-1.007.434s-1.006-.194-1.006-.434a1.052,1.052,0,1,1,2.013,0Zm3.188-.925c0-.24-.451-.434-1.007-.434s-1.007.194-1.007.434a1.053,1.053,0,1,0,2.014,0Zm-4.757-1.849c0,.215-.363.394-.838.428q.227-.558.445-1.117a2.393,2.393,0,0,1,.393.689Zm3.188-.925c0-.24-.45-.434-1.006-.434s-1.007.194-1.007.434a1.052,1.052,0,1,0,2.013,0Zm3.01.925c0,.24-.451.434-1.007.434s-1.007-.195-1.007-.434a1.053,1.053,0,1,1,2.014,0Zm-4.63-2.864c0,.24-.451.435-1.007.435a2.242,2.242,0,0,1-.3-.02q.281-.794.533-1.584a4.263,4.263,0,0,1,.773,1.169Zm3.188-.925c0-.24-.451-.434-1.007-.434s-1.007.194-1.007.434a1.053,1.053,0,1,0,2.014,0Zm-1.568-2.72c0-.24-.45-.435-1.006-.435a2.008,2.008,0,0,0-.592.083c-.062.259-.128.52-.2.781.26.4.675.929.789.929a3.817,3.817,0,0,0,1.006-1.359Zm3.01.925c0,.24-.451.434-1.007.434s-1.007-.194-1.007-.434a1.053,1.053,0,1,1,2.014,0Zm-1.442-3.789c0-.24-.451-.434-1.007-.434s-1.007.195-1.007.434a1.053,1.053,0,1,0,2.014,0Zm-1.568-2.774c0-.14-.153-.265-.392-.344q-.124.68-.263,1.376a3.8,3.8,0,0,0,.655-1.032Zm3.01.925c0,.24-.451.434-1.007.434s-1.007-.195-1.007-.434a1.053,1.053,0,1,1,2.014,0Zm-1.442-3.789c0-.24-.451-.434-1.007-.434a2.1,2.1,0,0,0-.5.057q-.067.509-.146,1.026c.248.353.547.711.642.711a3.821,3.821,0,0,0,1.007-1.359Zm1.442-1.563c0,.24-.451.434-1.007.434s-1.007-.194-1.007-.434a1.053,1.053,0,1,1,2.014,0Zm-1.442-3.789c0-.24-.451-.434-1.007-.434q-.074,0-.145,0,.012.822-.022,1.669c.075.075.133.12.167.12A3.817,3.817,0,0,0,4657.677,1780.776Z" transform="translate(-4565.669 -1692.681)" fill="#feb374" fill-rule="evenodd"/>
        <path id="Trazado_107737" data-name="Trazado 107737" d="M4689.29,2246.723a.246.246,0,0,1,.469-.146c.379,1.207.658,2.081.928,2.926,2.141,6.718,3.55,11.142,3.544,15.9,0,3.255-.162,6.48-.472,10.1s-.771,7.663-1.381,12.531a.246.246,0,1,1-.489-.059c.609-4.862,1.07-8.891,1.379-12.511s.468-6.839.471-10.064c.006-4.678-1.394-9.073-3.521-15.747Z" transform="translate(-4607.558 -2124.838)" fill="#da8a4b" fill-rule="evenodd"/>
        <path id="Trazado_107738" data-name="Trazado 107738" d="M4458.751,1886.3a.246.246,0,0,1,.489.057c-.55,4.534-.791,9.194-1.031,13.848-.381,7.38-.762,14.747-2.367,21.569l-5.075,34.374a.246.246,0,0,1-.487-.071l5.081-34.406c1.6-6.788,1.977-14.133,2.357-21.491C4457.959,1895.507,4458.2,1890.833,4458.751,1886.3Z" transform="translate(-4387.126 -1792.508)" fill="#dc9966" fill-rule="evenodd"/>
      </g>
      <g id="Grupo_39980" data-name="Grupo 39980" transform="translate(0 28.89)">
        <path id="Trazado_107739" data-name="Trazado 107739" d="M3639.788,1424.949s-8.524.756-9.992.732a5.192,5.192,0,0,1-3.972-2.846c-.191-1.209-3.1-2.419-4.775-2.887-2.7-.756-1.821-1.775.281-1.613,3.664.283,16.6,2.141,19.1,3.984A3.663,3.663,0,0,1,3639.788,1424.949Z" transform="translate(-3619.363 -1389.983)" fill="#fcbe99" fill-rule="evenodd"/>
        <path id="Trazado_107740" data-name="Trazado 107740" d="M3863.1,1093.127a139.767,139.767,0,0,1-16.678-2.75c-.2-.871.225-5.239.152-6.418,8.033-1.071,24.889-5.014,31.935-12.358,4.929-5.137,1.071-16.2,12.967-17.866,10.3-1.44,16.482,11.617,9.725,23.219C3894.8,1087.936,3878.191,1094.256,3863.1,1093.127Z" transform="translate(-3828.726 -1053.625)" fill="#58a5f8" fill-rule="evenodd" opacity="0.749"/>
        <g id="Grupo_39979" data-name="Grupo 39979" transform="translate(18.616 5.939)">
          <path id="Trazado_107741" data-name="Trazado 107741" d="M3873.45,1160.874a128.686,128.686,0,0,1-14.312-.938.2.2,0,0,1-.175-.22.194.194,0,0,1,.22-.175c13.968,1.576,29.532,2.079,39.071-6.159,5.778-4.991,8.758-12.554,9.112-23.122a.191.191,0,0,1,.205-.192.2.2,0,0,1,.192.206c-.352,10.536-3.464,18.412-9.249,23.41C3892.078,1159.241,3882.97,1160.874,3873.45,1160.874Z" transform="translate(-3858.961 -1130.068)" fill="#fff"/>
        </g>
      </g>
    </g>
  </g>
</svg>
