<svg xmlns="http://www.w3.org/2000/svg" width="380" height="183.816" viewBox="0 0 380 183.816">
  <g id="Grupo_41244" data-name="Grupo 41244" transform="translate(-80.727 -260.97)">
    <path id="Trazado_108724" data-name="Trazado 108724" d="M580.145,443.8c-.116.273-20.333.6-20.478.872H525.215l-10.083-.027H424.844l-26.368-.028H328.963l-29.034-.027h-52.5l-.261-.656-.029-.055a.267.267,0,0,1-.029-.082c-.116-.219-46.394-61.749,25.552-104.582,28.15-16.759-1.762-27.823,20.622-46.48,30.271-25.229,63.8,12.068,97.61-16.163C423.952,249,493.5,261.626,522,286.137c3.737,3.214,22.441,14.64,9.044,37.5-8.458,14.433,16.508,18.017,29.035,18.858C602.923,345.373,580.436,443.256,580.145,443.8Z" transform="translate(-132.372)" fill="#e2e7fc"/>
    <path id="Trazado_108725" data-name="Trazado 108725" d="M2082.7,474.842h0a.717.717,0,0,1-.717-.717V443.037a.717.717,0,0,1,.717-.717h0a.717.717,0,0,1,.717.717v31.088A.717.717,0,0,1,2082.7,474.842Z" transform="translate(-1747.157 -158.324)" fill="#94b0ed"/>
    <rect id="Rectángulo_32089" data-name="Rectángulo 32089" width="380" height="1.008" rx="0.504" transform="translate(80.727 443.778)" fill="#2e3552"/>
    <g id="Grupo_41233" data-name="Grupo 41233" transform="translate(171.745 273.299)">
      <g id="Grupo_41222" data-name="Grupo 41222" transform="translate(0 14.622)">
        <g id="Grupo_41212" data-name="Grupo 41212" transform="translate(34.184 107.506)">
          <path id="Trazado_108726" data-name="Trazado 108726" d="M1068.342,1323.872a1.774,1.774,0,0,1-1-.305,1.068,1.068,0,0,1-.348-1.51,5.894,5.894,0,0,0,.684-2.111l.21.014a5.928,5.928,0,0,1-.7,2.171.91.91,0,0,0,.295,1.306,1.461,1.461,0,0,0,1.5.107l.121.14A1.534,1.534,0,0,1,1068.342,1323.872Z" transform="translate(-1066.817 -1319.945)" fill="#f99746"/>
        </g>
        <path id="Trazado_108727" data-name="Trazado 108727" d="M987,733.948V843.655a7.773,7.773,0,0,1-7.774,7.772H805.51a7.872,7.872,0,0,1-7.887-6.978c-.02-.2-.033-.393-.038-.594,0-.067,0-.133,0-.2v-26.8c0-.208.009-.415.025-.62a7.967,7.967,0,0,1,6.034-2.736H910.179a9.757,9.757,0,0,0,9.717-8.266,9.463,9.463,0,0,0,.1-1.36V778.85a8.939,8.939,0,0,0-.53-3.04,9.29,9.29,0,0,0-8.767-6.08H872.78c-8.186,0-15.344,5.682-19.227,13.04a26.977,26.977,0,0,0-2.491,6.7,3.989,3.989,0,0,1-2.421.812H814.7a6.522,6.522,0,0,1-6.584-6.456V734.257a10.231,10.231,0,0,1,.149-1.75,10.876,10.876,0,0,1,8.813-4.449H978.352a10.559,10.559,0,0,1,8.527,4.281A10.281,10.281,0,0,1,987,733.948Z" transform="translate(-797.583 -695.703)" fill="#9db0f4" opacity="0.3"/>
        <path id="Trazado_108728" data-name="Trazado 108728" d="M987,703.564V813.27a7.773,7.773,0,0,1-7.774,7.772H805.358a7.774,7.774,0,0,1-7.734-6.978c-.02-.2-.033-.393-.038-.594,0-.067,0-.133,0-.2v-26.8c0-.208.009-.415.025-.62a7.771,7.771,0,0,1,7.75-7.153H909.837a9.628,9.628,0,0,0,9.626-9.626V744.047a9.118,9.118,0,0,0-9.118-9.12H873.159c-9.576,0-17.718,8.089-20.685,17.459a26.216,26.216,0,0,0-.954,4.133,3.964,3.964,0,0,1-1.49,2.568,3.858,3.858,0,0,1-2.372.812H814.372a6.457,6.457,0,0,1-6.456-6.456V703.873a10.611,10.611,0,0,1,10.618-10.618H976.7A10.3,10.3,0,0,1,987,703.564Z" transform="translate(-797.583 -665.319)" fill="#f8faff"/>
        <rect id="Rectángulo_32090" data-name="Rectángulo 32090" width="3.683" height="13.008" transform="translate(34.459 94.506)" fill="#2b478b"/>
        <rect id="Rectángulo_32091" data-name="Rectángulo 32091" width="4.315" height="2.315" transform="translate(38.142 97.631)" fill="#2b478b"/>
        <path id="Trazado_108729" data-name="Trazado 108729" d="M1128.51,1236.33a2.176,2.176,0,1,1,2.176,2.176A2.176,2.176,0,0,1,1128.51,1236.33Z" transform="translate(-1086.493 -1137.541)" fill="#2b478b"/>
        <rect id="Rectángulo_32092" data-name="Rectángulo 32092" width="2.42" height="1.907" transform="translate(32.565 103.248)" fill="#2b478b"/>
        <rect id="Rectángulo_32093" data-name="Rectángulo 32093" width="5.612" height="3.648" transform="translate(41.387 24.213)" fill="#2b478b"/>
        <path id="Trazado_108730" data-name="Trazado 108730" d="M2039.089,498.775h-12.413a2.125,2.125,0,0,1-2.124-2.247l.2-3.482v-.033l.136-2.347.377-6.542.121-2.061.288-5,.107-1.827a2.125,2.125,0,0,1,2.12-2h9.736a2.1,2.1,0,0,1,.959.229,2.132,2.132,0,0,1,1.163,1.752l.1,1.467.287,4.221.046.666.471,6.949.378,5.56.166,2.429A2.126,2.126,0,0,1,2039.089,498.775Z" transform="translate(-1868.763 -473.233)" fill="#f99746"/>
        <g id="Grupo_41213" data-name="Grupo 41213" transform="translate(36.125 27.795)" opacity="0.3">
          <path id="Trazado_108731" data-name="Trazado 108731" d="M1090.349,749.847h-8.243V692.214h.351V749.5H1090V692.148h.35Z" transform="translate(-1082.105 -692.148)" fill="#9db0f4"/>
        </g>
        <path id="Rectángulo_32094" data-name="Rectángulo 32094" d="M0,0H0A7.927,7.927,0,0,1,7.927,7.927V23.109A7.927,7.927,0,0,1,0,31.036H0a0,0,0,0,1,0,0V0A0,0,0,0,1,0,0Z" transform="translate(189.422 44.095)" fill="#ed7d2b"/>
        <rect id="Rectángulo_32095" data-name="Rectángulo 32095" width="26.238" height="0.619" transform="translate(22.708 112.68)" fill="#9db0f4"/>
        <path id="Trazado_108732" data-name="Trazado 108732" d="M1066.12,713.993l-2.526-2.947V692.666h2.526Z" transform="translate(-1029.819 -664.805)" fill="#2b478b"/>
        <g id="Grupo_41214" data-name="Grupo 41214" transform="translate(36.125 85.319)" opacity="0.3">
          <rect id="Rectángulo_32096" data-name="Rectángulo 32096" width="0.351" height="9.187" fill="#9db0f4"/>
        </g>
        <g id="Grupo_41215" data-name="Grupo 41215" transform="translate(0 147.7)" opacity="0.3">
          <rect id="Rectángulo_32097" data-name="Rectángulo 32097" width="189.421" height="0.351" fill="#9db0f4"/>
        </g>
        <g id="Grupo_41216" data-name="Grupo 41216" transform="translate(53.997 35.718)">
          <path id="Trazado_108733" data-name="Trazado 108733" d="M1222.866,755.954a1.4,1.4,0,1,1,1.4,1.4A1.4,1.4,0,0,1,1222.866,755.954Z" transform="translate(-1222.866 -754.551)" fill="#2b478b"/>
          <path id="Trazado_108734" data-name="Trazado 108734" d="M1266.241,755.954a1.4,1.4,0,1,1,1.4,1.4A1.4,1.4,0,0,1,1266.241,755.954Z" transform="translate(-1260.734 -754.551)" fill="#2b478b"/>
          <path id="Trazado_108735" data-name="Trazado 108735" d="M1309.616,755.954a1.4,1.4,0,1,1,1.4,1.4A1.4,1.4,0,0,1,1309.616,755.954Z" transform="translate(-1298.602 -754.551)" fill="#2b478b"/>
        </g>
        <rect id="Rectángulo_32098" data-name="Rectángulo 32098" width="0.912" height="4.911" transform="translate(43.755 20.6)" fill="#2b478b"/>
        <path id="Trazado_108736" data-name="Trazado 108736" d="M1082.027,1325.177h-.086l-.287-5.166h.674Z" transform="translate(-1045.586 -1212.498)" fill="#2b478b"/>
        <path id="Trazado_108737" data-name="Trazado 108737" d="M1090.371,1325.177h-.086l-.287-5.166h.674Z" transform="translate(-1052.87 -1212.498)" fill="#2b478b"/>
        <g id="Grupo_41217" data-name="Grupo 41217" transform="translate(35.264 111.741)">
          <path id="Trazado_108738" data-name="Trazado 108738" d="M1077.921,1354.24h-1.932a.7.7,0,0,1-.664-.722.2.2,0,1,1,.4,0,.278.278,0,0,0,.266.289h1.932a.278.278,0,0,0,.265-.289.2.2,0,1,1,.4,0A.7.7,0,0,1,1077.921,1354.24Z" transform="translate(-1075.325 -1353.301)" fill="#35488b"/>
        </g>
        <g id="Grupo_41221" data-name="Grupo 41221" transform="translate(153.76 104.204)">
          <g id="Grupo_41219" data-name="Grupo 41219" transform="translate(0 7.456)">
            <path id="Trazado_108739" data-name="Trazado 108739" d="M2018.74,1359.442h-6.07a2.7,2.7,0,0,1-2.7-2.7h0a2.7,2.7,0,0,1,2.7-2.7h6.07a2.7,2.7,0,0,1,2.7,2.7h0A2.7,2.7,0,0,1,2018.74,1359.442Z" transform="translate(-2009.798 -1353.874)" fill="#f99746"/>
            <g id="Grupo_41218" data-name="Grupo 41218">
              <path id="Trazado_108740" data-name="Trazado 108740" d="M2029.777,1358.411H2011.4a2.809,2.809,0,0,1-2.806-2.806v-.131a2.81,2.81,0,0,1,2.806-2.807h18.378a2.809,2.809,0,0,1,2.806,2.807v.131A2.809,2.809,0,0,1,2029.777,1358.411Zm-18.378-5.394a2.458,2.458,0,0,0-2.456,2.456v.131a2.458,2.458,0,0,0,2.456,2.456h18.378a2.458,2.458,0,0,0,2.455-2.456v-.131a2.458,2.458,0,0,0-2.455-2.456Z" transform="translate(-2008.593 -1352.667)" fill="#ed7d2b"/>
            </g>
          </g>
          <g id="Grupo_41220" data-name="Grupo 41220" transform="translate(1.816)">
            <path id="Trazado_108741" data-name="Trazado 108741" d="M2023.644,1297.883h0a.747.747,0,0,1-.745-.745v-2.454a.747.747,0,0,1,.745-.745h0a.747.747,0,0,1,.745.745v2.454A.747.747,0,0,1,2023.644,1297.883Z" transform="translate(-2022.899 -1293.94)" fill="#2b478b"/>
            <path id="Trazado_108742" data-name="Trazado 108742" d="M2101.633,1297.883h0a.747.747,0,0,1-.745-.745v-2.454a.747.747,0,0,1,.745-.745h0a.747.747,0,0,1,.745.745v2.454A.747.747,0,0,1,2101.633,1297.883Z" transform="translate(-2090.986 -1293.94)" fill="#2b478b"/>
            <path id="Trazado_108743" data-name="Trazado 108743" d="M2179.62,1297.883h0a.747.747,0,0,1-.745-.745v-2.454a.747.747,0,0,1,.745-.745h0a.747.747,0,0,1,.745.745v2.454A.747.747,0,0,1,2179.62,1297.883Z" transform="translate(-2159.071 -1293.94)" fill="#2b478b"/>
          </g>
        </g>
        <path id="Trazado_108744" data-name="Trazado 108744" d="M2027.632,536.859s6.59.763,14.879-3.221l.257,3.775s-3.959,4.9-15.514,5.988Z" transform="translate(-1871.124 -525.969)" fill="#ed7d2b" opacity="0.3"/>
        <path id="Trazado_108745" data-name="Trazado 108745" d="M2041.045,599.171a20.6,20.6,0,0,1-6.6,4.7h-7.769a2.125,2.125,0,0,1-2.124-2.247l.2-3.482v-.033a48.315,48.315,0,0,0,15.911-4.5Z" transform="translate(-1868.763 -578.327)" fill="#ed7d2b" opacity="0.5"/>
        <path id="Trazado_108746" data-name="Trazado 108746" d="M2045.653,478.254c-1.4,1.288-5.651,4.452-14.473,5.382l.288-5a21.319,21.319,0,0,0,12.921-3.6,2.132,2.132,0,0,1,1.162,1.752Z" transform="translate(-1874.552 -474.806)" fill="#ed7d2b" opacity="0.5"/>
      </g>
      <g id="Grupo_41228" data-name="Grupo 41228" transform="translate(36.246)">
        <g id="Grupo_41223" data-name="Grupo 41223" transform="translate(0 27.124)">
          <path id="Trazado_108747" data-name="Trazado 108747" d="M1083.164,587.117l-.109-.112,7.475-7.282h.03c26.058-1.282,50.693-7.952,50.939-8.019l.041.151c-.246.067-24.879,6.737-50.943,8.023Z" transform="translate(-1083.055 -571.702)" fill="#f99746"/>
        </g>
        <g id="Grupo_41225" data-name="Grupo 41225" transform="translate(43.833)">
          <g id="Grupo_41224" data-name="Grupo 41224">
            <path id="Trazado_108748" data-name="Trazado 108748" d="M1618.9,781.606a.751.751,0,0,1,.134.8.008.008,0,0,1,0,0,4.993,4.993,0,0,1-1.577,1.73c-.095.077-.18.146-.253.211l-.057.051-.044.04c-.693.639-.432.785-1.678,2.082-1.42,1.478-2.4,1.5-2.676,1.37-.235-.115.243-.9.772-1.779l.077-.128c.071-.117.141-.236.211-.354.621-1.06.461-1.558.314-3.135-.12-1.282-1.995-7.163-1.995-7.163l2.722-.469s.82,4.683,1.723,5.4c.483.385,1.023.389,1.488.674l.1.061A3.564,3.564,0,0,1,1618.9,781.606Z" transform="translate(-1588.784 -721.948)" fill="#ffb27d"/>
            <path id="Trazado_108749" data-name="Trazado 108749" d="M1622.738,823.4a.751.751,0,0,1,.134.8.007.007,0,0,1,0,0,5.782,5.782,0,0,1-1.58,1.725c-.094.078-.177.149-.251.216l-.057.051-.044.04c-.693.639-.432.785-1.678,2.082-1.42,1.478-2.4,1.5-2.676,1.37-.235-.115.243-.9.773-1.779a6.052,6.052,0,0,0,2.532-1.865c.855-1.091,1.426-2.493,2.008-3.306l.1.061A3.577,3.577,0,0,1,1622.738,823.4Z" transform="translate(-1592.622 -763.742)" fill="#233862"/>
            <path id="Trazado_108750" data-name="Trazado 108750" d="M1436.452,774.211c-.168.84-1.366.7-2.7.373s-1.02.062-2.924-.149-2.481-.921-2.539-1.2c-.052-.251.889-.34,1.9-.456l.382-.046a8.24,8.24,0,0,0,3.009-1.482,12.094,12.094,0,0,0,2.443-2.9l2.612.207s-1.37,2.081-1.9,2.986a3.157,3.157,0,0,0-.256,1.78A3.35,3.35,0,0,1,1436.452,774.211Z" transform="translate(-1428.283 -716.253)" fill="#ffb27d"/>
            <path id="Trazado_108751" data-name="Trazado 108751" d="M1433.748,805.044c-1.338-.327-1.02.062-2.924-.149s-2.481-.921-2.539-1.2c-.052-.251.889-.34,1.9-.456l.01.019a5.368,5.368,0,0,0,2.727.848c1.292.031,2.66-.339,3.552-.324a3.351,3.351,0,0,1-.02.893C1436.284,805.511,1435.086,805.371,1433.748,805.044Z" transform="translate(-1428.283 -746.713)" fill="#233862"/>
            <path id="Trazado_108752" data-name="Trazado 108752" d="M1571.441,654.248l2.441,6.569,3.187,8.577a5.163,5.163,0,0,0,1.693-.155,7.342,7.342,0,0,0,1.638-.8s-.885-9.209-2.536-14.5a9.412,9.412,0,0,0-1.42-3.072C1573.884,647.849,1571.441,654.248,1571.441,654.248Z" transform="translate(-1553.264 -612.988)" fill="#ed7d2b"/>
            <path id="Trazado_108753" data-name="Trazado 108753" d="M1491.729,591.845c1.6-.516,6.161.146,10.743,1.043l.959-1.582,9.9-.773s3.266,7.243,1.478,11.857a1.674,1.674,0,0,1-1.675,1.128h-.145l-7.8,0c-4.922,0-10.417-3.383-11.128-3.526-1.163-.233-1.629,2.094-2.792,4.538s-10.937,10.82-10.937,10.82a8.6,8.6,0,0,1-2.122-.218,2.09,2.09,0,0,1-.912-.575S1488.122,593.008,1491.729,591.845Z" transform="translate(-1471.07 -561.018)" fill="#f99746"/>
            <path id="Trazado_108754" data-name="Trazado 108754" d="M1656.752,373.708a108.18,108.18,0,0,0,10.307,7.468s2.33,1.567,4.009.946c2.8-1.035,5.115-5.052,1.569-9.816-1.768-2.376-3.293-3.208-2.767-6.216.57-3.259-.7-7.46-4.462-7.831a10.432,10.432,0,0,0-3.6-.03C1658.273,359.139,1651.782,371.763,1656.752,373.708Z" transform="translate(-1626.167 -358.072)" fill="#a9453d"/>
            <path id="Trazado_108755" data-name="Trazado 108755" d="M1703.78,435.955a4.941,4.941,0,0,0,2.91.83,4.8,4.8,0,0,0,2.313-1.762c-.482-.138-.834-.724-.587-3.616l-.225.026-3.785.432s-.011,1.179-.1,2.284C1704.233,435.074,1704,435.873,1703.78,435.955Z" transform="translate(-1668.801 -422.095)" fill="#ffb27d"/>
            <path id="Trazado_108756" data-name="Trazado 108756" d="M1708.03,432.039s-.011,1.179-.1,2.284c2.089.112,3.346-1.7,3.884-2.716Z" transform="translate(-1672.425 -422.27)" fill="#ed975d"/>
            <path id="Trazado_108757" data-name="Trazado 108757" d="M1694.13,386.406s4.924.486,5.18-2.586,1.063-5.077-2.071-5.517-3.842.681-4.177,1.686S1692.855,386.2,1694.13,386.406Z" transform="translate(-1659.306 -375.648)" fill="#ffb27d"/>
            <path id="Trazado_108758" data-name="Trazado 108758" d="M1706.712,371.817s.62,3.752,3.425,4.642a4.485,4.485,0,0,0,2.973.221,8.337,8.337,0,0,1-1.335-3.122,1.5,1.5,0,0,0-1-1.146C1709.319,371.934,1707.557,370.627,1706.712,371.817Z" transform="translate(-1671.36 -369.647)" fill="#a9453d"/>
            <path id="Trazado_108759" data-name="Trazado 108759" d="M1693.943,375.55a3.258,3.258,0,0,0-1.75,1.4,6.283,6.283,0,0,0-.881,3.035s-.862-3.473.395-4.764A1.308,1.308,0,0,1,1693.943,375.55Z" transform="translate(-1657.664 -372.579)" fill="#a9453d"/>
            <path id="Trazado_108760" data-name="Trazado 108760" d="M1687.056,469.292c-.088.373-.163.716-.224,1.033-.1.511-.169.951-.218,1.34-.151,1.211-.1,1.929-.207,2.714a6.761,6.761,0,0,1-.368,1.478c-.2.562-5.555,1.064-8.6.862a4.172,4.172,0,0,1-1.965-.425c-1.086-.943-.978,1.131-1.127-8.8-.072-4.842,4.109-9.154,4.109-9.154s.334,2.068,4.48-.393c.147-.086,1.78,2.332,3.352,5.309C1688.02,466.549,1687.545,467.245,1687.056,469.292Z" transform="translate(-1643.104 -445.267)" fill="#aec3ff"/>
            <path id="Trazado_108761" data-name="Trazado 108761" d="M1590.669,687.527l3.187,8.577a5.161,5.161,0,0,0,1.693-.155,7.34,7.34,0,0,0,1.638-.8s-.885-9.21-2.536-14.5Z" transform="translate(-1570.051 -639.698)" fill="#f99746"/>
            <path id="Trazado_108762" data-name="Trazado 108762" d="M1646.691,461.058s-4.266.723-4.767,2.56-3.962,12.109-3.962,12.109,2.682.915,3.684-.087,3.486-9.3,3.486-9.3Z" transform="translate(-1611.34 -447.982)" fill="#aec3ff"/>
            <path id="Trazado_108763" data-name="Trazado 108763" d="M1539.668,554.762l-1.011-.4a2.413,2.413,0,0,0-.936-.031c-.328.1-1.15.092-1.154.227s.936.554.936.554l.03-.011c-.357.809-2.144,1.271-2.23,1.568-.1.36.727.546,1.18.658a2.5,2.5,0,0,0,2.109-.476c.4-.422,1.076-1,1.076-1Z" transform="translate(-1521.707 -529.377)" fill="#ffb27d"/>
            <path id="Trazado_108764" data-name="Trazado 108764" d="M1699.454,427.836a.847.847,0,0,1-.752.505c-.545,0-.693-.082-.8-.2a1.705,1.705,0,0,1-.205-.338A4.63,4.63,0,0,1,1699.454,427.836Z" transform="translate(-1663.494 -418.89)" fill="#fff"/>
            <path id="Trazado_108765" data-name="Trazado 108765" d="M1576.081,538.317l-10.328.789a3.221,3.221,0,0,0,.45,2.137s9.318,1.822,11.749.891,2.157-5.318,2.157-5.318Z" transform="translate(-1548.27 -514.121)" fill="#aec3ff"/>
            <path id="Trazado_108766" data-name="Trazado 108766" d="M1665.019,538.265l-.686-.843a2.413,2.413,0,0,0-.8-.485c-.337-.07-1.049-.481-1.118-.365s.547.941.547.941l.031,0c-.707.532-2.491.062-2.712.279-.267.263.368.831.708,1.15a2.5,2.5,0,0,0,2.073.615c.555-.173,1.428-.348,1.428-.348Z" transform="translate(-1630.768 -513.89)" fill="#ffb27d"/>
            <path id="Trazado_108767" data-name="Trazado 108767" d="M1707.3,564.071c-.15,1.211-.1,1.929-.207,2.714-3.874.013-9.052-2.991-9.052-2.991Z" transform="translate(-1663.788 -537.674)" fill="#94b0ed"/>
            <path id="Trazado_108768" data-name="Trazado 108768" d="M1698.038,509.684s6.034-.18,7.052-3.61c1.117-3.768,2.369,1.55,2.369,1.55l-.666,3.394h-6.621Z" transform="translate(-1663.788 -486.105)" fill="#94b0ed"/>
            <path id="Trazado_108769" data-name="Trazado 108769" d="M1697.5,457.972s3.917.256,4.9,1.784,2.194,9.284,1.684,11.948-13.053-.509-13.053-.509l.4-2.311s7.239.042,7.652-.9C1699.624,466.729,1697.5,457.972,1697.5,457.972Z" transform="translate(-1657.663 -445.288)" fill="#aec3ff"/>
          </g>
        </g>
        <g id="Grupo_41226" data-name="Grupo 41226" transform="translate(75.55 21.689)">
          <path id="Trazado_108770" data-name="Trazado 108770" d="M1691.439,532.439a54.765,54.765,0,0,1-13.3-1.345.078.078,0,0,1,.04-.152c4.306,1.127,12.67,2.121,28.068.458,9.212-1,16.672-2.493,16.747-2.508a.078.078,0,0,1,.031.154c-.074.015-7.542,1.514-16.761,2.51A141.632,141.632,0,0,1,1691.439,532.439Z" transform="translate(-1678.085 -528.891)" fill="#f99746"/>
        </g>
        <g id="Grupo_41227" data-name="Grupo 41227" transform="translate(58.904 24.978)">
          <path id="Trazado_108771" data-name="Trazado 108771" d="M1551.816,556.545a46.408,46.408,0,0,1-4.763-.252.078.078,0,1,1,.016-.156c9.7,1,14.978-1.31,15.03-1.333a.078.078,0,0,1,.064.143C1562.121,554.967,1558.516,556.545,1551.816,556.545Z" transform="translate(-1546.983 -554.797)" fill="#f99746"/>
        </g>
      </g>
      <g id="Grupo_41229" data-name="Grupo 41229" transform="translate(149.688 75.724)">
        <circle id="Elipse_1039" data-name="Elipse 1039" cx="14.256" cy="14.256" r="14.256" transform="translate(0 4.567) rotate(-9.217)" fill="#2a4e96"/>
        <path id="Trazado_108772" data-name="Trazado 108772" d="M2020.76,1011.214a10.74,10.74,0,1,1,10.74,10.74A10.739,10.739,0,0,1,2020.76,1011.214Z" transform="translate(-2015.143 -994.633)" fill="#fff"/>
      </g>
      <g id="Grupo_41230" data-name="Grupo 41230" transform="translate(153.686 52.443)">
        <circle id="Elipse_1040" data-name="Elipse 1040" cx="8.71" cy="8.71" r="8.71" transform="matrix(0.169, -0.986, 0.986, 0.169, 0, 17.171)" fill="#2a4e96"/>
        <path id="Trazado_108773" data-name="Trazado 108773" d="M2035.531,806.276a6.562,6.562,0,1,1,6.562,6.562A6.562,6.562,0,0,1,2035.531,806.276Z" transform="translate(-2032.037 -796.084)" fill="#fff"/>
      </g>
      <g id="Grupo_41232" data-name="Grupo 41232" transform="translate(119.096 72.074)">
        <path id="Trazado_108774" data-name="Trazado 108774" d="M1867.967,1041.571s5.117,1.4,7.767.742,7.749-3.46,7.749-3.46l.8,1.4s-4.171,6.214-8.026,6.92S1867.967,1041.571,1867.967,1041.571Z" transform="translate(-1851.158 -1024.489)" fill="#ed7d2b"/>
        <path id="Trazado_108775" data-name="Trazado 108775" d="M2055.2,1186.574s2.65,1.056,3.544.775,2.435-1.145,2.712-1.853-1.818.185-2.527,0a4.647,4.647,0,0,0-2.867,0C2054.674,1185.9,2055.2,1186.574,2055.2,1186.574Z" transform="translate(-2014.532 -1152.27)" fill="#ffb27d"/>
        <path id="Trazado_108776" data-name="Trazado 108776" d="M1866.1,1666.966s.2,3.224.8,3.982h9.213a1.64,1.64,0,0,0-1.471-1.317c-1.456-.253-3.892-1.276-4.773-3.2C1868.942,1664.408,1866.1,1666.966,1866.1,1666.966Z" transform="translate(-1849.531 -1571.705)" fill="#163560"/>
        <path id="Trazado_108777" data-name="Trazado 108777" d="M1735.8,1663.744s-.607,4.014.181,4.086c.1.01,3.795,0,4.8.153a25.179,25.179,0,0,0,4.371.031.433.433,0,0,0,.392-.651,1.747,1.747,0,0,0-1.251-.8c-1.451-.279-3.869-1.345-4.717-3.284C1738.688,1661.237,1735.8,1663.744,1735.8,1663.744Z" transform="translate(-1735.581 -1568.933)" fill="#163560"/>
        <path id="Trazado_108778" data-name="Trazado 108778" d="M1758.02,1283.452s-2.317,8.106-8.956,22.182-7.151,20.491-7.151,20.491l-4.573-.215s.43-16.754,3.566-23.858,3.775-26.542,3.775-26.542Z" transform="translate(-1737.116 -1231.098)" fill="#94b0ed"/>
        <path id="Trazado_108779" data-name="Trazado 108779" d="M1825.7,1283.13a202.153,202.153,0,0,1-1.987,27.963c-2.172,15.411-1.436,21.953-1.436,21.953l-5.2.173s-3.109-15.417-2.217-23.13-4.256-26.469-4.256-26.469Z" transform="translate(-1801.078 -1237.751)" fill="#aec3ff"/>
        <path id="Trazado_108780" data-name="Trazado 108780" d="M1848.68,1009.127l2.453,1.817,3.545-.746c-.049-.323-.283-1.663-.5-2.877-.013-.072-.026-.143-.038-.213-.182-1.033-.34-1.92-.34-1.92l-3.312-1.65-1.235-.615c0,.022.1,1.146.109,1.31A10.6,10.6,0,0,1,1848.68,1009.127Z" transform="translate(-1834.32 -993.12)" fill="#ffb27d"/>
        <path id="Trazado_108781" data-name="Trazado 108781" d="M1811.089,1074.339c.224,2.24-17.7,4.89-17.767,1.134-.059-3.3,1.908-21.492,2.519-24.094,1.078-4.6,2.047-7.235,4.1-7.839.758-.22,3.552.5,5.572,1.091a3.34,3.34,0,0,1,.416.144,4.285,4.285,0,0,1,2.51,2.748c.311,1.049.669,2.391.96,3.872a29.617,29.617,0,0,1,.544,4.206c.016.3.026.6.028.891.011,1.1.107,2.519.242,4.1.085.995.187,2.053.292,3.131.031.309.063.62.093.932.022.216.366,7.322.466,9.225,0,.028,0,.052,0,.076a.018.018,0,0,0,0,.009c0,.026,0,.053,0,.079C1811.082,1074.211,1811.087,1074.314,1811.089,1074.339Z" transform="translate(-1785.99 -1028.545)" fill="#f99746"/>
        <path id="Trazado_108782" data-name="Trazado 108782" d="M1855.4,1008.512c.727,1.391,3.437,2.595,4.567,3.037-.013-.072-.026-.143-.038-.213-.183-1.033-.34-1.92-.34-1.92l-3.312-1.651C1855.542,1007.754,1855.1,1007.939,1855.4,1008.512Z" transform="translate(-1840.101 -997.349)" fill="#fca56b"/>
        <path id="Trazado_108783" data-name="Trazado 108783" d="M1844.427,951.633s-5.974,1.864-7.077-1.874-2.618-6.015,1.15-7.363,4.933-.141,5.6,1.017S1845.952,951.052,1844.427,951.633Z" transform="translate(-1823.333 -939.759)" fill="#ffb27d"/>
        <path id="Trazado_108784" data-name="Trazado 108784" d="M1826.166,929.017s-.381,4.35-1.281,4.161-1.716-.329-1.584.982,1.379,2.826-1.393,3.057-6.758-6.918-6-8.272C1818.109,925.04,1829.342,924.252,1826.166,929.017Z" transform="translate(-1805.629 -925.724)" fill="#163560"/>
        <g id="Grupo_41231" data-name="Grupo 41231" transform="translate(32.326 11.086)">
          <path id="Trazado_108785" data-name="Trazado 108785" d="M1990.176,1016.317a11.286,11.286,0,0,1,1.979-2.83,4.552,4.552,0,0,1,3.24-.266c.259.545-1.867,1.337-2.121,1.827s.756.463-.039,1.305a8.338,8.338,0,0,1-2.255,1.368Z" transform="translate(-1990.176 -1013.04)" fill="#ffb27d"/>
          <path id="Trazado_108786" data-name="Trazado 108786" d="M2002.857,1029.248c.015,0,.721-.083,1.411-.158.507-.055,1-.28,1.212-.291.491-.024.146.756-.918,1.144-.9.329-1.156.862-2.005,1.006C2001.531,1031.124,2002.857,1029.248,2002.857,1029.248Z" transform="translate(-2000.645 -1026.799)" fill="#ffb27d"/>
        </g>
        <path id="Trazado_108787" data-name="Trazado 108787" d="M1851.621,1035.793c-.078-.033-4.823-1.433-5.338-1.263s-.821,1.167-.821,1.167l7.326,2.087S1852.612,1036.211,1851.621,1035.793Z" transform="translate(-1831.51 -1020.703)" fill="#ed7d2b"/>
        <path id="Trazado_108788" data-name="Trazado 108788" d="M2062.662,1177.269a4.657,4.657,0,0,1,1.587-.878c.74-.162,1.387-.832,1.387-.509s-.555,1.11-.555,1.387S2062.662,1177.269,2062.662,1177.269Z" transform="translate(-2021.133 -1144.044)" fill="#ffb27d"/>
        <path id="Trazado_108789" data-name="Trazado 108789" d="M1880.352,1129.573c-3.806-1.444-6.691-7.057-6.691-7.057l6.421,2.069c.017.3.026.6.028.891C1880.121,1126.575,1880.217,1128,1880.352,1129.573Z" transform="translate(-1856.129 -1097.53)" fill="#ed7d2b"/>
        <path id="Trazado_108790" data-name="Trazado 108790" d="M1867.139,1082.119c0-.01.005-.021.008-.031a1.409,1.409,0,0,0-.754-1.623c-2.391-1.152-8.585-4.139-9.277-4.509-.729-.391-7.981-7.363-10.15-9.456a1.409,1.409,0,0,0-1.417-.325l-6.008,1.964a1.411,1.411,0,0,0-.36,2.5c4.419,3.029,13.663,9.331,15.325,10.18,2.93,1.5,8.858,2.281,11.046,2.528a1.406,1.406,0,0,0,1.454-.846A2.91,2.91,0,0,0,1867.139,1082.119Z" transform="translate(-1825.493 -1048.281)" fill="#f99746"/>
      </g>
    </g>
    <g id="Grupo_41239" data-name="Grupo 41239" transform="translate(92.344 348.708)">
      <path id="Trazado_108791" data-name="Trazado 108791" d="M226.766,1256.025s-7.328.694-11.261,12.176-2.786,32.9-5.692,35.043-18.576-3.336-19.829.189,0,3.942-3.447,2.271-9.3-2.248-8.044.547-6.477.921-6.268,4.731h39.448s18.677-1.936,18.029-10.293-7.238-27.836-3.272-35.2a36.218,36.218,0,0,1,9.152-11.193Z" transform="translate(-172.22 -1215.909)" fill="#ed7d2b"/>
      <g id="Grupo_41234" data-name="Grupo 41234" transform="translate(27.886)">
        <path id="Trazado_108792" data-name="Trazado 108792" d="M464.588,1324.466l-1.658.617s-7.2-9.987-8.087-18.773a13.347,13.347,0,0,1,.237-4.492s-.07-.4-.193-1.113c-.057-.332-.127-.731-.207-1.188-.234-1.341-.556-3.177-.924-5.266-.847-4.809-1.945-10.956-2.8-15.475l.447-.143,4.833-1.559,1-3.172,3.6-.947s.8,1.573,1.523,9c.133.974.253,2.049.344,3.214a63.616,63.616,0,0,1-.343,13.013q-.248,1.937-.632,3.994a17.822,17.822,0,0,0-.138,3.944C461.951,1313.3,464.588,1324.466,464.588,1324.466Z" transform="translate(-443.453 -1232.202)" fill="#aec3ff"/>
        <path id="Trazado_108793" data-name="Trazado 108793" d="M462.7,1285.169l-7.815,15.536c-.057-.332-.127-.731-.207-1.188-.234-1.341-.556-3.177-.924-5.266-.847-4.809-1.945-10.956-2.8-15.475l.447-.143,4.833-1.559,1-3.172,3.6-.947s.8,1.573,1.523,9C462.49,1282.929,462.61,1284,462.7,1285.169Z" transform="translate(-443.453 -1232.202)" fill="#94b0ed"/>
        <path id="Trazado_108794" data-name="Trazado 108794" d="M409.6,1262.522l-.181-1.551c-3.031.8-11.129-2.25-11.129-2.25s-2.936,2.581-2.551,8.768c.188,3.02.532,15.852.891,19.649.13,1.376.243,2.356.29,2.747a.007.007,0,0,1,0,0,.544.544,0,0,1-.088.336,17.815,17.815,0,0,0-1.325,2.786c-3.523,9.389.543,20.952.543,20.952l1.055-.425s2.314-12.868,4.194-18.553a11.251,11.251,0,0,1,.906-2.175,24.563,24.563,0,0,0,2.265-6.039,148.527,148.527,0,0,0,3.046-16.021C407.611,1270.754,409.6,1262.522,409.6,1262.522Z" transform="translate(-393.789 -1219.777)" fill="#aec3ff"/>
        <path id="Trazado_108795" data-name="Trazado 108795" d="M565.185,1130l-.226,1.518s-.1,0-.276-.013c-.552-.037-1.894-.113-3.412-.276-2.283-.226-4.993-.627-6.072-1.292-1.643-1-4.341-4.078-6.1-7.151a2,2,0,0,1-.125-.226,11.037,11.037,0,0,1-1.606-4.542,6.482,6.482,0,0,1,.213-2.057,5.25,5.25,0,0,1,.928-1.857.939.939,0,0,1,.176-.213,4.332,4.332,0,0,1,1.192-1.016c.3-.125.627.025.966.389v.013a5.747,5.747,0,0,1,.866,1.28c.013.013.025.025.025.038.063.113.125.238.2.376a.317.317,0,0,1,.05.088q.207.433.414.9c1.543,3.362,3.187,8.456,4.554,9.974.59.652,3.287,1.932,5.432,2.886C563.931,1129.5,565.185,1130,565.185,1130Z" transform="translate(-527.617 -1092.41)" fill="#ffb27d"/>
        <path id="Trazado_108796" data-name="Trazado 108796" d="M492.535,1062.884a9.439,9.439,0,0,1-3.491.818c-5.211.285-6.394-4.282-6.609-7.314a4.372,4.372,0,0,1,1.788-.226c.369.02.755.058,1.073.1.637-.333,1.782-1.95,2.444-4.656l.225.1,3.76,1.768s-.4,1.223-.694,2.394a4.764,4.764,0,0,0-.257,2.049c.3.12.474.2.474.2a.011.011,0,0,0,0,0A25.8,25.8,0,0,1,492.535,1062.884Z" transform="translate(-470.935 -1038.956)" fill="#ffb27d"/>
        <path id="Trazado_108797" data-name="Trazado 108797" d="M435.248,1096.962c-.039.1-.083.206-.13.31-1.32,2.842-3.763,14.616-3.763,14.616.348,2.117-15.908-.416-15.951-2.343-.573-2.044,2.032-5.327,3.5-6.974a4.68,4.68,0,0,0,.493-.663,4.623,4.623,0,0,0,.666-1.944,67.127,67.127,0,0,0,.2-6.85h0c.287-.213.564-.409.823-.6a7.364,7.364,0,0,0,1-.831,1.516,1.516,0,0,0,.48-.946,5.038,5.038,0,0,0-.02-.793c-.012-.126-.028-.252-.047-.378a10.753,10.753,0,0,0-.755-2.521,9.768,9.768,0,0,1,3.884-.229s0,.138,0,.364a13.525,13.525,0,0,0,.291,3.681c.364.55,7.025,2.957,7.376,2.212s-.6-4.17-.638-4.3a.011.011,0,0,1,0,0,10.5,10.5,0,0,1,3.028,1.611C434.341,1091.256,436.287,1094.2,435.248,1096.962Z" transform="translate(-412.344 -1069.615)" fill="#f99746"/>
        <path id="Trazado_108798" data-name="Trazado 108798" d="M498.294,954.783c-.008-.226-.183-2.66-3.891-2.787,0,0,1.823.217,2.138,1.019,0,0-1.242-.99-2.253-.672s-1.6,2.09-1.611,2.673.556,2.461,1.2,2.621a1.958,1.958,0,0,0,.777,0,8.7,8.7,0,0,0-.5.889c-1.48,3.037.046,6.005,1.3,5.678.8-.211,1.031,1.16,1.031,1.16l7.8-6.318S501.422,953.114,498.294,954.783Z" transform="translate(-479.876 -951.996)" fill="#2c3a64"/>
        <path id="Trazado_108799" data-name="Trazado 108799" d="M529.75,1054.2s-.4,1.222-.694,2.394c-2.2-.613-2.865-2.923-3.066-4.162Z" transform="translate(-508.959 -1039.678)" fill="#ed985f"/>
        <path id="Trazado_108800" data-name="Trazado 108800" d="M528.073,1010.791s-5.258-1.217-4.45-4.48.674-5.617,4.065-4.978,3.733,2.045,3.728,3.2S529.461,1011.023,528.073,1010.791Z" transform="translate(-506.819 -994.977)" fill="#ffb27d"/>
        <path id="Trazado_108801" data-name="Trazado 108801" d="M522.624,998.591c-.565-1.183-1.231-1.119-1.647-.91a3.772,3.772,0,0,0-4.894-.418,6.421,6.421,0,0,1-2.954,3.174s.808.827,3.149.809a3.854,3.854,0,0,0,2.088-.786,12.59,12.59,0,0,1-2.742,2.045c2.931-.561,4.9-3.954,5.1-4.314a4.229,4.229,0,0,1,.763,1.806c.054.9-.254,2.635.259,2.7C521.744,1002.7,523.471,1000.365,522.624,998.591Z" transform="translate(-497.731 -990.888)" fill="#2c3a64"/>
        <path id="Trazado_108802" data-name="Trazado 108802" d="M569.789,1115.567s1.266,2.208,1.455,2.777a2.638,2.638,0,0,0-2.3,1.2S568.781,1115.865,569.789,1115.567Z" transform="translate(-546.448 -1094.799)" fill="#f99746"/>
        <path id="Trazado_108803" data-name="Trazado 108803" d="M454.989,1142.082c-3.206-.034-5.921-3.363-7.581-6.024a4.623,4.623,0,0,0,.666-1.944,67.121,67.121,0,0,0,.2-6.85h0c.287-.213.564-.409.823-.6a7.376,7.376,0,0,0,1-.831C452.727,1130.276,459.336,1142.128,454.989,1142.082Z" transform="translate(-440.354 -1103.766)" fill="#ed7d2b"/>
        <path id="Trazado_108804" data-name="Trazado 108804" d="M400.248,1668.231H391.9a4.585,4.585,0,0,1,.236-2.238c.418-.926,1.073-1.348.916-2.468a3.006,3.006,0,0,0,2.6,1,9.161,9.161,0,0,0,1.449,1.878C397.646,1666.791,400.08,1666.651,400.248,1668.231Z" transform="translate(-391.852 -1573.183)" fill="#233862"/>
        <path id="Trazado_108805" data-name="Trazado 108805" d="M541.153,1670.807H532.8a3.472,3.472,0,0,1,.236-2.238,1.609,1.609,0,0,0-.06-1.922,3.242,3.242,0,0,0,1.406.265,2.939,2.939,0,0,0,1.242-.437,30.051,30.051,0,0,0,2.379,2.5C538.552,1669.366,540.985,1669.227,541.153,1670.807Z" transform="translate(-514.83 -1575.759)" fill="#233862"/>
        <path id="Trazado_108806" data-name="Trazado 108806" d="M471.312,1112.093l-.336,1.3s-4.17-.874-5.085-1.075h-.013c-1.568-.376-3.325-.828-4.805-1.33a13.2,13.2,0,0,1-2.559-1.142,1.524,1.524,0,0,1-.176-.125c-1.468-1.066-3.212-4.2-4.567-7.565-.188-.464-.364-.928-.539-1.38A34.288,34.288,0,0,1,451.8,1096a13.465,13.465,0,0,1-.339-2.271,5.58,5.58,0,0,1-.012-.64c.025-3.638,1.832-4.14,1.832-4.14.038-.012.075-.025.125-.037.314-.05.64.163.979.577a11.386,11.386,0,0,1,1.342,2.371c.715,1.619,1.468,3.714,2.17,5.8.389,1.141.765,2.283,1.142,3.337.213.64.426,1.242.627,1.794a17.293,17.293,0,0,0,1.054,2.446,6.074,6.074,0,0,0,1.543,1.392C463.594,1107.6,471.312,1112.093,471.312,1112.093Z" transform="translate(-443.879 -1071.525)" fill="#ffb27d"/>
        <path id="Trazado_108807" data-name="Trazado 108807" d="M455.728,1091.914a4.718,4.718,0,0,0-4.278,1.22c.03-3.632,1.838-4.13,1.838-4.13C454.016,1088.7,454.859,1089.963,455.728,1091.914Z" transform="translate(-443.883 -1071.57)" fill="#f99746"/>
      </g>
      <path id="Trazado_108808" data-name="Trazado 108808" d="M1030.279,1360.134c.071.2-29.8,15.352-29.8,15.352a13.344,13.344,0,0,0,8.28.566c4.834-1.119,23.376-11.786,23.376-11.786Z" transform="translate(-895.315 -1308.313)" fill="#2a4e96"/>
      <path id="Trazado_108809" data-name="Trazado 108809" d="M652.181,1261.262s-9.91,15.961-36.36-13.219a3.766,3.766,0,0,0-3.711-1.128l-10.289,2.571a1.938,1.938,0,0,1,1.363.417,2.661,2.661,0,0,1,.54.954c2.124,5.923,10.07,25.765,22.952,31.251,15.2,6.472,31.312,2.733,43.364-20.845Z" transform="translate(-547.275 -1209.37)" fill="#f99746"/>
      <g id="Grupo_41238" data-name="Grupo 41238" transform="translate(133.463 20.234)">
        <path id="Trazado_108810" data-name="Trazado 108810" d="M1403.688,1339.246l-.073.13c-.586,1.019-1.931,3.515-3.411,6.246-.7,1.3-1.434,2.645-2.13,3.914-1.2,2.191-2.289,4.141-2.925,5.172-.647,1.048-1.124,1.785-1.316,2.079h0a.488.488,0,0,0-.063.3,15.9,15.9,0,0,1-.042,2.747,21.074,21.074,0,0,1-6.885,13.648l-1.782.263s2.521-9.341,3.264-14.621a10.154,10.154,0,0,0,.136-2.094,21.871,21.871,0,0,1,.575-5.715,128.045,128.045,0,0,1,3.643-13.228c.083-.259,2.589-9.322,2.589-9.322,2.1,1.838,9.773,2.6,9.773,2.6S1406.34,1334.531,1403.688,1339.246Z" transform="translate(-1364.53 -1301.167)" fill="#f99746"/>
        <path id="Trazado_108811" data-name="Trazado 108811" d="M1355.608,1672.337h7.436a4.084,4.084,0,0,0-.21-1.993c-.372-.825-.9-.851-.068-2.145a4.53,4.53,0,0,1-3.066.543,9.106,9.106,0,0,1-1.289,1.962C1357.925,1671.055,1355.758,1670.93,1355.608,1672.337Z" transform="translate(-1338.818 -1597.499)" fill="#233862"/>
        <path id="Trazado_108812" data-name="Trazado 108812" d="M1495.275,1381.114l-.074.13c-.586,1.019-3.756,6.873-5.236,9.6a39.6,39.6,0,0,0,.522-14.119Z" transform="translate(-1456.116 -1343.035)" fill="#ed7d2b"/>
        <path id="Trazado_108813" data-name="Trazado 108813" d="M1305.707,1114.566a2.95,2.95,0,0,1,3.291-3.208,4.212,4.212,0,0,0-1.648.884,4.24,4.24,0,0,1,4.775.72c2.488,2.063.942,7.235,1.7,8.218s3.7,1.179,3.343,4.354-9.352,7.153-8.774,9.781c0,0-3.524-5.18-1-7.544a4.668,4.668,0,0,0-1.353,2.532s-.333-2.685,1.375-3.543a6.307,6.307,0,0,0,2.619-4.036C1309.9,1122.227,1305.707,1114.566,1305.707,1114.566Z" transform="translate(-1295.248 -1111.357)" fill="#2c3a64"/>
        <path id="Trazado_108814" data-name="Trazado 108814" d="M1247.945,1242.739s-5.1,12.87-6.2,12.394-7.576-2.534-7.576-2.534l-.426,1.577s6.164,4.75,9.336,4.958,7.468-9.137,7.468-9.137Z" transform="translate(-1232.426 -1226.058)" fill="#ffb27d"/>
        <g id="Grupo_41237" data-name="Grupo 41237" transform="translate(0 24.219)">
          <g id="Grupo_41235" data-name="Grupo 41235" transform="translate(2.122 15.822)">
            <path id="Trazado_108815" data-name="Trazado 108815" d="M1243.453,1427.49a6.419,6.419,0,1,1-2.595,8.7A6.426,6.426,0,0,1,1243.453,1427.49Zm4.917,9.1a3.923,3.923,0,1,0-5.316-1.585A3.927,3.927,0,0,0,1248.37,1436.587Z" transform="translate(-1240.087 -1426.719)" fill="#2a4e96"/>
          </g>
          <g id="Grupo_41236" data-name="Grupo 41236">
            <path id="Trazado_108816" data-name="Trazado 108816" d="M1223.552,1307.023a6.419,6.419,0,1,1,4.739,7.742A6.426,6.426,0,0,1,1223.552,1307.023Zm2.427.584a3.923,3.923,0,1,0,4.732-2.9A3.927,3.927,0,0,0,1225.979,1307.607Z" transform="translate(-1223.373 -1302.105)" fill="#2a4e96"/>
          </g>
        </g>
        <path id="Trazado_108817" data-name="Trazado 108817" d="M1285.68,1132.715a29.783,29.783,0,0,1,4.465,2.183c2.015,2.235,1.44,5.151.287,5.179-.739.018-.6,1.247-.6,1.247l-8.236-3.484S1282.592,1132.057,1285.68,1132.715Z" transform="translate(-1274.207 -1129.958)" fill="#2c3a64"/>
        <path id="Trazado_108818" data-name="Trazado 108818" d="M1327.991,1244.852s-1.1,1.136-1.1,4.535a7.88,7.88,0,0,0,5.431,2.99S1328.955,1244.85,1327.991,1244.852Z" transform="translate(-1313.75 -1227.902)" fill="#aec3ff"/>
        <path id="Trazado_108819" data-name="Trazado 108819" d="M1485.957,1321.253l-.025-1.391c2.771.349,9.554-3.311,9.554-3.311s2.9,1.928,3.3,7.434c.194,2.687,1.419,14.053,1.554,17.447.049,1.23.066,2.108.071,2.459a.007.007,0,0,0,0,0,.483.483,0,0,0,.118.286,15.868,15.868,0,0,1,1.5,2.3c4.228,7.867,2.017,18.556,2.017,18.556l-.982-.25s-3.575-11.081-5.912-15.874a10.04,10.04,0,0,0-1.058-1.811,21.862,21.862,0,0,1-2.718-5.06C1491.648,1337.92,1485.957,1321.253,1485.957,1321.253Z" transform="translate(-1452.595 -1290.498)" fill="#f99746"/>
        <path id="Trazado_108820" data-name="Trazado 108820" d="M1582.007,1671.968h7.436a4.08,4.08,0,0,0-.21-1.993c-.372-.825-.955-1.2-.815-2.2a2.677,2.677,0,0,1-2.318.887,8.146,8.146,0,0,1-1.29,1.673C1584.323,1670.686,1582.156,1670.561,1582.007,1671.968Z" transform="translate(-1536.472 -1597.129)" fill="#233862"/>
        <path id="Trazado_108821" data-name="Trazado 108821" d="M1340.369,1222.892c1,.17-.163.964,1.211,1.114a24.818,24.818,0,0,1,5.031.781,1.136,1.136,0,0,1,.724.587,13.806,13.806,0,0,0,2.479,3.505c12.948-.589,14.369-6.005,14.369-6.005-8.4-8.161-16.13-12.974-22.03-13.611a7.188,7.188,0,0,0-3.2.937,8.779,8.779,0,0,0-3.424,3.571S1336.574,1222.245,1340.369,1222.892Z" transform="translate(-1321.292 -1196.821)" fill="#aec3ff"/>
        <path id="Trazado_108822" data-name="Trazado 108822" d="M1383.155,1253.038a24.834,24.834,0,0,1,5.031.781,20.619,20.619,0,0,0-2.615-11.315S1383.583,1250.594,1383.155,1253.038Z" transform="translate(-1362.868 -1225.852)" fill="#94b0ed"/>
        <path id="Trazado_108823" data-name="Trazado 108823" d="M1342.775,1233.854s4.917-.269,5.791,2.818-1.639,15.409-2.181,16.681c-.986,2.315-5.786,8.923-5.786,8.923l-1.765-.537s3.2-10.1,3.915-11.094C1343.871,1249.077,1341.3,1235.2,1342.775,1233.854Z" transform="translate(-1324.175 -1218.296)" fill="#ffb27d"/>
        <path id="Trazado_108824" data-name="Trazado 108824" d="M1326.929,1452.039a2.78,2.78,0,0,1-.422,1.187c-.331.4-1.293,1.382-1.31,1.954,0,0,.048.254.255.208s.923-.756,1.291-.705a7.131,7.131,0,0,1-.391,1.47,4.209,4.209,0,0,0,.077,1.972c.117.279,1.551-1.5,2.141-2.29s.009-4.011.009-4.011Z" transform="translate(-1312.269 -1408.595)" fill="#ffb27d"/>
        <path id="Trazado_108825" data-name="Trazado 108825" d="M1365.493,1234.531c-.013.072-4.653.854-7.555-.619,0,0-2.424-7.6,1.04-7.232s5.516,1.455,5.6,3.113A31.941,31.941,0,0,0,1365.493,1234.531Z" transform="translate(-1340.132 -1212.026)" fill="#aec3ff"/>
        <path id="Trazado_108826" data-name="Trazado 108826" d="M1225.938,1315.378s-1.275-.264-1.745.4-.157,2.664.705,2.586.944-1.332,1.04-1.8A4.477,4.477,0,0,0,1225.938,1315.378Z" transform="translate(-1223.898 -1289.429)" fill="#ffb27d"/>
        <path id="Trazado_108827" data-name="Trazado 108827" d="M1325.834,1198.979s-1.367,5.1-3.424,3.571a4.215,4.215,0,0,0-.724-1.689c-.541-.929-1.185-1.879-1.185-1.879l2.783-2.438.166-.146A7.35,7.35,0,0,0,1325.834,1198.979Z" transform="translate(-1308.169 -1185.6)" fill="#ffb27d"/>
        <path id="Trazado_108828" data-name="Trazado 108828" d="M1320.5,1199.985s.643.948,1.184,1.878c1.73-1.066,1.732-3.208,1.6-4.317Z" transform="translate(-1308.171 -1186.603)" fill="#ed985f"/>
        <path id="Trazado_108829" data-name="Trazado 108829" d="M1288.708,1167.013s4.2-2.337,2.7-4.93-1.961-4.641-4.706-3.259-2.69,2.67-2.4,3.657S1287.577,1167.554,1288.708,1167.013Z" transform="translate(-1276.453 -1152.409)" fill="#ffb27d"/>
        <path id="Trazado_108830" data-name="Trazado 108830" d="M1279.438,1158.553c.192-1.151.777-1.261,1.185-1.184a3.359,3.359,0,0,1,4.085-1.564,5.718,5.718,0,0,0,3.31,1.988s-.487.907-2.5,1.468a3.433,3.433,0,0,1-1.981-.158,11.206,11.206,0,0,0,2.85,1.074c-2.646.242-5.164-2.177-5.425-2.436a3.768,3.768,0,0,0-.208,1.734c.174.78.866,2.192.444,2.375C1281.2,1161.849,1279.15,1160.279,1279.438,1158.553Z" transform="translate(-1272.295 -1149.993)" fill="#2c3a64"/>
      </g>
      <path id="Trazado_108831" data-name="Trazado 108831" d="M1025.309,1405.742c.018-.211-32.743-7.2-32.743-7.2a13.345,13.345,0,0,1,7.858-2.67c4.959-.158,25.617,5.4,25.617,5.4Z" transform="translate(-888.408 -1339.515)" fill="#2a4e96"/>
      <path id="Trazado_108832" data-name="Trazado 108832" d="M1142.1,1421.939a.717.717,0,1,1-.708.726A.717.717,0,0,1,1142.1,1421.939Z" transform="translate(-1018.341 -1362.272)" fill="#f99746"/>
      <path id="Trazado_108833" data-name="Trazado 108833" d="M589.143,1267.8a20.56,20.56,0,0,1,2.534,1.15,5.265,5.265,0,0,1,1.342,1.93s-.007.227-.219.227-.687-.813-1.035-.683a7.119,7.119,0,0,0,.7,1.349,4.207,4.207,0,0,1,.356,1.941c-.053.3-1.841-1.122-2.59-1.767-.4-.344-.387-1.177-.511-2.119-.108-.826-2.388-1.3-2.388-1.3Z" transform="translate(-534.629 -1227.702)" fill="#ffb27d"/>
    </g>
    <g id="Grupo_41243" data-name="Grupo 41243" transform="translate(337.157 347.414)">
      <g id="Grupo_41241" data-name="Grupo 41241" transform="translate(39.569)">
        <path id="Trazado_108834" data-name="Trazado 108834" d="M2562.019,1084.17a36,36,0,0,1-2.758,2.966c-1.835,1.764-4.3,3.73-6.459,4.1a3.457,3.457,0,0,1-1.663-.082,9.929,9.929,0,0,1-3.228-1.965,33.706,33.706,0,0,1-5.436-6.364l1.545-1.75s3.456,2.567,5.618,3.945a4.458,4.458,0,0,0,1.668.838c.537-.23,9.833-6.5,9.833-6.5Z" transform="translate(-2525.911 -1061.891)" fill="#ffb27d"/>
        <path id="Trazado_108835" data-name="Trazado 108835" d="M2599.353,1084.17a36.05,36.05,0,0,1-2.758,2.966,70.162,70.162,0,0,1-6.459,4.1,3.86,3.86,0,0,1-1.26.517c-1.142-.067-3.593-1.612-3.593-1.612a5.442,5.442,0,0,1-.038-.952,7.4,7.4,0,0,1,1.727-4.169,4.456,4.456,0,0,0,1.668.838c.537-.23,9.833-6.5,9.833-6.5Z" transform="translate(-2563.245 -1061.891)" fill="#94b0ed"/>
        <g id="Grupo_41240" data-name="Grupo 41240" transform="translate(0 8.567)">
          <path id="Trazado_108836" data-name="Trazado 108836" d="M2431.6,1045.5c.318,1.946.535,3.361.535,3.361a21.334,21.334,0,0,1-7.784,1.551c-.889.029-1.772.019-2.632-.02-1.34-.059-2.624-.187-3.8-.345a44.166,44.166,0,0,1-5.916-1.187,21.129,21.129,0,0,1,2.057-8.938c1.235-2.723,2.641-4.8,3.026-6.482.483-2.11-.545-7.029-1.289-10.1-.378-1.555-.682-2.634-.682-2.634-2.594-3.8-1.349-6.035-1.349-6.035s1.209-.5,2.721-.965l.023-.007c.519-.158,1.073-.31,1.624-.436a12.881,12.881,0,0,1,1.676-.277c1.478-.129,1.556-3.484,1.556-3.484a5.181,5.181,0,0,1,2.047-.226,10.89,10.89,0,0,1,1.792.226s0,2.653,1.242,3.206c.639.284,1.854.8,3.043,1.307h0l.12.05.392.166.509.215.245.1.394.166c.889.375,1.534.645,1.534.645.553,1.433-1.385,4.652-1.385,4.652a3.276,3.276,0,0,1,.135.724l.01.12a17.678,17.678,0,0,1-.43,4.055c-.529,2.77-1.364,5.944-1.562,8.079a5.11,5.11,0,0,0,.068,1.8.494.494,0,0,0,.017.057c.082.247.173.583.271.987C2430.359,1038.086,2431.1,1042.445,2431.6,1045.5Z" transform="translate(-2412.009 -1009.275)" fill="#aec3ff"/>
          <path id="Trazado_108837" data-name="Trazado 108837" d="M2435.351,1318.426l-9.183-5.97a2.182,2.182,0,0,1-.993-1.855l.554-46.232c0-.4-.918-.813-1.32-.813s-1.6.169-1.6.57l1.07,46.779a1.507,1.507,0,0,1-.686,1.3l-9.573,6.224a.323.323,0,0,0,.176.593h0l9.769-4.283a2.29,2.29,0,0,1,1.839,0l9.769,4.283A.323.323,0,0,0,2435.351,1318.426Z" transform="translate(-2413.29 -1231.269)" fill="#aec3ff"/>
        </g>
        <path id="Trazado_108838" data-name="Trazado 108838" d="M2696.161,1026.327s-2.591,3.073-5.889,1.788a10,10,0,0,1-.72-2.982c0-.156,0-.307-.005-.45-.018-1.425-.066-2.224-.066-2.224h0c.15-.063,5.043-2.071,5.039-1.9A8.676,8.676,0,0,0,2696.161,1026.327Z" transform="translate(-2654.251 -1010.546)" fill="#ffb27d"/>
        <path id="Trazado_108839" data-name="Trazado 108839" d="M2694.032,1027.609a7.651,7.651,0,0,1-4.485,3.211c-.018-1.425-.066-2.224-.066-2.224h0C2689.62,1028.558,2694.172,1027.351,2694.032,1027.609Z" transform="translate(-2654.251 -1016.682)" fill="#ed975d"/>
        <path id="Trazado_108840" data-name="Trazado 108840" d="M2445.748,1072.955a31.087,31.087,0,0,1-7.19-.036,22.138,22.138,0,0,1-2.816-.547,12.539,12.539,0,0,1-7.529-4.994c1.234-2.722,2.641-4.8,3.026-6.482.482-2.11-.545-7.029-1.289-10.1l.69-9.632h0l.023-.007,1.624-.435s-.551,6.164,8.181,6.526c2.749.114,4.293.489,5.119.948.314,3.506-2.667,11.8-1.9,14.113C2444.228,1063.928,2445.161,1069.35,2445.748,1072.955Z" transform="translate(-2426.156 -1028.163)" fill="#ff9843"/>
        <path id="Trazado_108841" data-name="Trazado 108841" d="M2675.527,972.1s5.5,1.294,6.255-2.145,1.97-5.588-1.511-6.559-4.453.191-4.984,1.278S2674.115,971.679,2675.527,972.1Z" transform="translate(-2641.321 -960.339)" fill="#ffb27d"/>
        <path id="Trazado_108842" data-name="Trazado 108842" d="M2668.935,952.357c.075.048,1.259.412,3.5-4.055a3.89,3.89,0,0,0-.229-3.558c-.82-1.34-3.729-2.394-6.146-2.853s-3,.9-3.566,2.268a7.381,7.381,0,0,1-2.323,2.616c2.084,1.164,4.595-.5,5.464-.227s1.177,1.645,1.242,2.084.166.8,1.259.412.494,1.55.319,1.921C2668.456,950.965,2668.307,951.955,2668.935,952.357Z" transform="translate(-2628.662 -941.8)" fill="#a9453d"/>
        <path id="Trazado_108843" data-name="Trazado 108843" d="M2840.106,1643.8h3.332c.7,0,1.475-.7,1.669-1.979s1.63-1.98,1.941-3.028-1.281-2.523-1.281-2.523l-.266-.342-.277-.356-2.639.621s-.065.628-.106,1.429a18.256,18.256,0,0,0-.01,1.832c.078,1.4-.392,2.9-1.633,3.174S2840.106,1643.8,2840.106,1643.8Z" transform="translate(-2785.659 -1547.488)" fill="#2c3a64"/>
        <path id="Trazado_108844" data-name="Trazado 108844" d="M2658.153,1667.327h8.832a.808.808,0,0,0,.187-.054c.59-.3.405-2.553.334-3.25-.014-.129-.023-.205-.023-.205s-3.105-2.484-3.533-.582c-.013.059-.029.118-.045.175h0c-.539,1.78-2.949,2.588-4.341,2.813A1.516,1.516,0,0,0,2658.153,1667.327Z" transform="translate(-2626.901 -1571.01)" fill="#2c3a64"/>
        <path id="Trazado_108845" data-name="Trazado 108845" d="M2672.173,1293.669s.472,5.884,1.026,12.958c.753,9.608,1.659,21.411,1.749,23.647.155,3.883.777,10.093.777,10.093a4.882,4.882,0,0,0,4.425.854,101.623,101.623,0,0,0,3.38-18.246c.012-.154.023-.309.035-.464.7-9.549,1.785-29.657,1.785-29.657Z" transform="translate(-2639.14 -1248.281)" fill="#ff9843"/>
        <path id="Trazado_108846" data-name="Trazado 108846" d="M2672.173,1293.669s.472,5.884,1.026,12.958l10.332,16.348c.012-.154.023-.309.035-.464.7-9.549,1.785-29.657,1.785-29.657Z" transform="translate(-2639.14 -1248.281)" fill="#ed7d2b"/>
        <path id="Trazado_108847" data-name="Trazado 108847" d="M2689.137,1278.355s8.5,21.311,14.091,31.326,7.336,12.81,7.336,12.81,3.2-1.281,3.494-2.154c0,0-2.138-19.334-5.881-24.047-2.115-2.663-4.6-10.655-4.716-13.45s-.757-8.326-.757-8.326Z" transform="translate(-2653.95 -1232.268)" fill="#ff9843"/>
        <path id="Trazado_108848" data-name="Trazado 108848" d="M2675.211,1083.467a22.939,22.939,0,0,1-7.075,2.934c-3.022.657-6.714.376-7.951.532a.523.523,0,0,1-.363-.093c-.09-.057-.578-3.785-1.041-8.5-.02-.182-.043-.382-.047-.564l-.008-.066c-.05-.492-.1-.99-.145-1.495-.063-.709-.122-1.428-.179-2.152-.043-.561-.084-1.126-.125-1.69-.008-.124-.018-.247-.026-.37-.144-2.081-.25-4.13-.282-5.952-.006-.3-.008-.6-.01-.888v-.039c-.007-1.2.026-2.286.1-3.178.02-.228.043-.442.072-.645a11.463,11.463,0,0,1,2.928-6.1l1.208-1.511a4.681,4.681,0,0,0,3.324-.456c1.234-.791,1.783-1.858,2.033-1.718,1.91,1.118,4.227,4.188,5.264,7.92a42.259,42.259,0,0,1,1.232,6.651q.149,1.37.228,2.785a91.688,91.688,0,0,0,1.521,11.88c.132.721.236,1.3.293,1.694C2676.223,1082.8,2675.52,1083.284,2675.211,1083.467Z" transform="translate(-2626.731 -1037.569)" fill="#aec3ff"/>
        <path id="Trazado_108849" data-name="Trazado 108849" d="M2666.44,1117.272s-1.074,9.139-8.032,14.211q-.064-.842-.125-1.69c-.008-.124-.017-.247-.025-.37-.144-2.08-.25-4.13-.282-5.952q-.008-.453-.01-.888v-.039c.007-1.076.041-2.05.1-2.88A17.477,17.477,0,0,1,2666.44,1117.272Z" transform="translate(-2626.737 -1094.993)" fill="#94b0ed"/>
        <path id="Trazado_108850" data-name="Trazado 108850" d="M2467.872,1046.642s-.2,12.445-7.51,16.981-2.12,31.321-4.247,41.2,19.095,1.819,20.169-9.329-9.268-28.331-9.178-30.463,2.7-15.758,2.426-17.687Z" transform="translate(-2450.384 -1033.33)" fill="#ed7d2b"/>
        <path id="Trazado_108851" data-name="Trazado 108851" d="M2498.8,1164.145a15.2,15.2,0,0,1-2.15,1.171,20.057,20.057,0,0,1-5.089.776c-4.463.259-9.654-.03-9.654-.03a3.294,3.294,0,0,1-3.327-.19c-1.163-.656-.911-.372-1.747-.821a.521.521,0,0,1-.233-.8,1.182,1.182,0,0,1,.742-.559,4.693,4.693,0,0,1,2.9-.082.733.733,0,0,1-.182-.523c.046-.168,1.178.5,1.678.812,1.68.238,5.637-.932,8.59-1.93,1.779-.6,3.193-1.137,3.525-1.266a13.84,13.84,0,0,0,2.187-2.12A19.523,19.523,0,0,0,2498.8,1164.145Z" transform="translate(-2468.314 -1131.057)" fill="#ffb27d"/>
        <path id="Trazado_108852" data-name="Trazado 108852" d="M2603.394,1090.18c-3.487,2.459-9.973,7.063-11.665,8a15.378,15.378,0,0,1-4.567,2.245c-2.955-2.009-2.238-5.671-2.238-5.671,1.779-.6,3.192-1.137,3.524-1.266.887-.342,8.1-8.88,8.1-8.88s2.75-3.532,5.223-2.95a4.575,4.575,0,0,1,3.461,3.648A4.626,4.626,0,0,1,2603.394,1090.18Z" transform="translate(-2562.902 -1063.844)" fill="#aec3ff"/>
      </g>
      <g id="Grupo_41242" data-name="Grupo 41242" transform="translate(0 71.016)">
        <path id="Trazado_108853" data-name="Trazado 108853" d="M2114.9,1526.661h-12.414a2.125,2.125,0,0,1-2.123-2.247l.2-3.482,0-.033.136-2.347.378-6.542.121-2.061.289-5,.107-1.827a2.124,2.124,0,0,1,2.12-2h9.736a2.1,2.1,0,0,1,.959.229,2.133,2.133,0,0,1,1.163,1.752l.1,1.467.287,4.221.045.666.472,6.949.378,5.559.166,2.429A2.126,2.126,0,0,1,2114.9,1526.661Z" transform="translate(-2100.362 -1501.119)" fill="#94b0ed"/>
        <path id="Trazado_108854" data-name="Trazado 108854" d="M2103.443,1564.745s6.59.763,14.879-3.221l.257,3.775s-3.959,4.9-15.514,5.988Z" transform="translate(-2102.722 -1553.854)" fill="#aec3ff" opacity="0.5"/>
        <path id="Trazado_108855" data-name="Trazado 108855" d="M2116.858,1627.057a20.6,20.6,0,0,1-6.6,4.7h-7.769a2.125,2.125,0,0,1-2.123-2.247l.2-3.482,0-.033a48.309,48.309,0,0,0,15.911-4.5Z" transform="translate(-2100.362 -1606.213)" fill="#aec3ff" opacity="0.5"/>
        <path id="Trazado_108856" data-name="Trazado 108856" d="M2121.465,1506.14c-1.4,1.288-5.65,4.452-14.472,5.382l.288-5a21.319,21.319,0,0,0,12.921-3.6,2.132,2.132,0,0,1,1.163,1.752Z" transform="translate(-2106.151 -1502.692)" fill="#aec3ff" opacity="0.5"/>
      </g>
    </g>
  </g>
</svg>
