<svg xmlns="http://www.w3.org/2000/svg" width="189.729" height="212.203" viewBox="0 0 189.729 212.203">
  <g id="Grupo_41248" data-name="Grupo 41248" transform="matrix(0.545, -0.839, 0.839, 0.545, -437.766, -23.218)">
    <path id="Trazado_108857" data-name="Trazado 108857" d="M114.641,505.524c6.381.848,12.4-1.723,14.85-6.906,3.182-6.74-.889-15.343-9.091-19.214a19.572,19.572,0,0,0-5.759-1.711v-3.178a24.006,24.006,0,0,1,7.074,2.1c7.176,3.387,11.775,9.722,12.418,16.078l.02-.027a11.378,11.378,0,0,0,8.516,8.7L280.342,530.8s-65.5.367-91.856-3.344-47.212-29.543-61.784-20.771l.025-.027a19.719,19.719,0,0,1-12.086,2.042Zm-5.76-1.712a19.581,19.581,0,0,0,5.76,1.712V508.7a23.98,23.98,0,0,1-7.075-2.1c-6.245-2.948-10.539-8.128-11.97-13.614-.161.022-.282-.136-.345-.527-.548-3.412-13.146-6.629-17-10s-.733-8.022,3.373-2.362c3.79,5.222,11.967,5.587,14.941,2.555,3.108-6.131,10.376-9.157,18.071-8.134v3.178c-6.382-.848-12.4,1.723-14.851,6.907C96.609,491.34,100.68,499.942,108.881,503.812Z" fill="#d268cc" fill-rule="evenodd"/>
    <g id="Grupo_41245" data-name="Grupo 41245">
      <path id="Trazado_108858" data-name="Trazado 108858" d="M103.956,537.135c8.112-4.055,17.39-1.939,20.723,4.727s-.543,15.36-8.656,19.414-17.389,1.939-20.721-4.728.541-15.358,8.654-19.413Zm2.6-4.329a23.3,23.3,0,0,1,3.039-.688l.026,0c.243-.037.487-.071.731-.1l.01,0,.226-.027.052-.006.2-.02.064-.007a21.932,21.932,0,0,1,2.194-.1h.011c.407,0,.813.015,1.214.04h.01c.161.009.321.021.48.035l.242.022.017,0,.223.024.027,0,.16.019.085.011.178.022.1.014.156.021h.01l.236.037.015,0,.079.013.176.03.115.021.148.027.112.022.16.032.123.024h.006l.23.05.012,0,.218.05.027.007.117.028.142.034.125.033.161.042.077.022.256.071.008,0,.248.074.086.027.177.056.084.028.178.059.072.025.247.087.006,0,.21.077.028.01.084.033.179.069.067.026.159.066.112.047.009,0,.21.089h0l.242.11.055.024.189.089.059.029.171.083.076.037.226.117-.024-.027c14.767,8.441,35.032-17.854,61.3-22.162s91.757-5.419,91.757-5.419L137.79,538.81a11.378,11.378,0,0,0-8.316,8.9l-.022-.027c-.5,6.369-4.953,12.806-12.051,16.354-9.964,4.981-21.36,2.381-25.453-5.807s.666-18.865,10.63-23.846l.036-.018.012-.006.178-.087.011-.005.012-.006.012-.006.012-.006.012-.006.012-.006.012-.006h0l.009,0,.012-.006.012-.005.012-.006.011-.006.013-.005.012-.006.011-.005.012-.006.012-.006.012-.006.012-.005.012-.006.012-.005.011-.006.012-.005.012-.006.013-.006.011-.005.012-.007.012-.005.142-.066.013-.005.012-.006.011-.006.013-.006.012,0-.975-2.788a1.478,1.478,0,0,1,.9-1.879l.458-.161a1.48,1.48,0,0,1,1.88.907l.949,2.711Zm7.781-.914c.16.009.321.021.48.035" fill="none" stroke="#f3efd4" stroke-linecap="round" stroke-linejoin="round" stroke-width="3.84" fill-rule="evenodd"/>
      <path id="Trazado_108859" data-name="Trazado 108859" d="M114.577,535.208a12.727,12.727,0,0,1,10.1,6.654c3.333,6.668-.543,15.36-8.656,19.414q-.717.36-1.446.654v3.3a24.611,24.611,0,0,0,2.824-1.2c7.1-3.548,11.553-9.985,12.051-16.354l.022.027a11.378,11.378,0,0,1,8.316-8.9l136.973-32.532s-65.492,1.114-91.757,5.419-46.531,30.6-61.3,22.162l.024.027-.226-.117-.076-.037-.171-.083-.059-.029-.189-.089-.055-.024-.242-.11h0l-.21-.089-.009,0-.112-.047-.159-.066-.067-.026-.179-.069-.084-.033-.028-.01-.21-.077-.006,0-.247-.087-.072-.025-.178-.059-.084-.028-.177-.056-.086-.027-.248-.074-.008,0-.256-.071-.077-.022-.161-.042-.125-.033-.142-.034-.117-.028-.027-.007-.218-.05-.012,0-.23-.05h-.006l-.123-.024-.16-.032-.112-.022-.148-.027-.115-.021-.176-.03-.079-.013-.015,0-.236-.037H116l-.156-.021-.1-.014-.178-.022-.085-.011-.16-.019-.027,0-.223-.024-.017,0-.242-.022-.24-.019.24.019-.24-.018Zm-4.588.039a17.433,17.433,0,0,1,4.588-.039v-3.3l-.24-.017.24.016-.24-.016h-.01c-.4-.025-.807-.039-1.214-.04H113.1a21.932,21.932,0,0,0-2.194.1l-.064.007-.2.02-.052.006-.226.027-.01,0c-.121.014-.242.03-.363.046v3.187Zm4.588,26.683a19.3,19.3,0,0,1-4.588,1.234v3.187a23.48,23.48,0,0,0,4.588-1.12Zm-10.621-24.795a19.506,19.506,0,0,1,6.033-1.888V532.06l-.368.054-.026,0a23.3,23.3,0,0,0-3.039.688l-.949-2.711a1.48,1.48,0,0,0-1.88-.907l-.458.161a1.478,1.478,0,0,0-.9,1.879l.975,2.788-.012,0-.013.006-.011.006-.012.006-.013.005-.142.066-.012.005-.012.007-.011.005-.013.006-.012.006-.012.005-.011.006-.012.005-.012.006-.012.005-.012.006-.012.006-.012.006-.011.005-.012.006-.013.005-.011.006-.012.006-.012.005-.012.006-.009,0h0l-.012.006-.012.006-.012.006-.012.006-.012.006-.012.006-.011.005-.178.087-.012.006-.036.018c-9.964,4.981-14.723,15.657-10.63,23.846,3.1,6.194,10.369,9.188,18.041,8.126v-3.187c-6.245.865-12.168-1.573-14.687-6.616C91.969,549.882,95.843,541.19,103.956,537.135Z" fill="#d268cc" fill-rule="evenodd"/>
    </g>
    <path id="Trazado_108860" data-name="Trazado 108860" d="M187.581,514.705a4.249,4.249,0,0,1,3.152,7.1l-3.152-4.434v-2.662Zm0,8.495a4.209,4.209,0,0,0,1.654-.335l-1.654-2.327Zm-1.655-8.16a4.207,4.207,0,0,1,1.655-.335v2.662l-1.655-2.327Zm1.655,5.5-3.153-4.433a4.248,4.248,0,0,0,3.153,7.1Z" fill="#43433b" fill-rule="evenodd"/>
    <g id="Grupo_41246" data-name="Grupo 41246">
      <path id="Trazado_108861" data-name="Trazado 108861" d="M114.641,505.524c6.381.848,12.4-1.723,14.85-6.906,3.182-6.74-.889-15.343-9.091-19.214a19.572,19.572,0,0,0-5.759-1.711v-3.178a24.006,24.006,0,0,1,7.074,2.1c7.053,3.328,11.617,9.506,12.381,15.752.432,4.763-.788,8.026-3.251,10.87-4.162,4.806-10.165,6.4-16.2,5.513Zm-5.76-1.712a19.581,19.581,0,0,0,5.76,1.712v3.229a25.18,25.18,0,0,1-6.863-2.066c-5.791-2.665-10.579-7.555-12.182-13.7-.161.022-.282-.136-.345-.527-.548-3.412-13.146-6.629-17-10s-.733-8.022,3.373-2.362c3.79,5.222,11.967,5.587,14.941,2.555,3.108-6.131,10.376-9.157,18.071-8.134v3.178c-6.382-.848-12.4,1.723-14.851,6.907C96.609,491.34,100.68,499.942,108.881,503.812Z" fill="#43433b" fill-rule="evenodd"/>
      <path id="Trazado_108862" data-name="Trazado 108862" d="M108.881,503.812c8.2,3.871,17.429,1.546,20.61-5.194S128.6,483.275,120.4,479.4s-17.428-1.545-20.61,5.2.89,15.342,9.091,19.212Zm21.964-.572c2.463-2.844,3.683-6.107,3.251-10.87-.764-6.246-5.328-12.424-12.381-15.752-9.931-4.686-21.086-1.976-25.145,6.031-2.974,3.032-11.151,2.667-14.941-2.555-4.106-5.66-7.224-1.01-3.373,2.362s16.447,6.59,17,10c.063.391.184.549.345.527,1.6,6.147,6.391,11.037,12.182,13.7C115.806,510.384,125.087,509.889,130.845,503.24Z" fill="none" stroke="#15579f" stroke-miterlimit="22.926" stroke-width="2.4" fill-rule="evenodd"/>
    </g>
    <g id="Grupo_41247" data-name="Grupo 41247">
      <path id="Trazado_108863" data-name="Trazado 108863" d="M109.989,535.247c6.247-.865,12.168,1.574,14.69,6.615,3.333,6.668-.543,15.36-8.656,19.414a19.461,19.461,0,0,1-6.034,1.888v3.187a23.95,23.95,0,0,0,7.412-2.319,22.664,22.664,0,0,0,10.26-10.027,24.5,24.5,0,0,0,1.311-3.494,16.848,16.848,0,0,0,.371-1.846c.473-4.368-.4-7.495-2.334-10.17-3.928-5.443-10.542-7.33-17.02-6.434Zm-6.033,1.888a19.506,19.506,0,0,1,6.033-1.888v-3.186l-.368.053-.026,0a23.3,23.3,0,0,0-3.039.688l-.949-2.711a1.48,1.48,0,0,0-1.88-.907l-.458.161a1.478,1.478,0,0,0-.9,1.879l.975,2.788-.012,0-.013.006-.011.006-.012.006-.013.005-.142.066-.012.005-.012.007-.011.005-.013.006-.012.006-.012.005-.011.006-.012.005-.012.006-.012.005-.012.006-.012.006-.012.006-.011.005-.012.006-.013.005-.011.006-.012.006-.012.005-.012.006-.009,0h0l-.012.006-.012.006-.012.006-.012.006-.012.006-.012.006-.011.005-.178.087-.012.006-.036.018c-9.964,4.981-14.723,15.657-10.63,23.846,3.1,6.194,10.369,9.188,18.041,8.126v-3.187c-6.245.865-12.168-1.573-14.687-6.616C91.969,549.882,95.843,541.19,103.956,537.135Z" fill="#43433b" fill-rule="evenodd"/>
      <path id="Trazado_108864" data-name="Trazado 108864" d="M103.956,537.135c8.112-4.055,17.39-1.939,20.723,4.727s-.543,15.36-8.656,19.414-17.389,1.939-20.721-4.728.541-15.358,8.654-19.413Zm23.053,1.36c1.929,2.675,2.807,5.8,2.334,10.17a16.848,16.848,0,0,1-.371,1.846,24.5,24.5,0,0,1-1.311,3.494,22.664,22.664,0,0,1-10.26,10.027c-9.964,4.981-21.36,2.381-25.453-5.807s.666-18.865,10.63-23.846l.036-.018.012-.006.178-.087.011-.005.012-.006.012-.006.012-.006.012-.006.012-.006.012-.006h0l.009,0,.012-.006.012-.005.012-.006.011-.006.013-.005.012-.006.011-.005.012-.006.012-.006.012-.006.012-.005.012-.006.012-.005.011-.006.012-.005.012-.006.013-.006.011-.005.012-.007.012-.005.142-.066.013-.005.012-.006.011-.006.013-.006.012,0-.975-2.788a1.478,1.478,0,0,1,.9-1.879l.458-.161a1.48,1.48,0,0,1,1.88.907l.949,2.711a23.3,23.3,0,0,1,3.039-.688l.026,0C116.215,531.094,123.007,532.948,127.009,538.495Z" fill="none" stroke="#15579f" stroke-miterlimit="22.926" stroke-width="2.4" fill-rule="evenodd"/>
    </g>
  </g>
</svg>
