<svg xmlns="http://www.w3.org/2000/svg" width="130" height="65" viewBox="0 0 130 65">
  <g id="Grupo_42556" data-name="Grupo 42556" transform="translate(-272 -2417)">
    <rect id="Rectángulo_31685" data-name="Rectángulo 31685" width="130" height="65" rx="15" transform="translate(272 2417)" fill="#15579f"/>
    <path id="Trazado_110679" data-name="Trazado 110679" d="M12.168,3.154H4.551V6.211h6.992v2.5H4.551v3.7H12.52V15H1.611V.605H12.168ZM13.594,15l3.633-5.391L13.75,4.375h3.408l1.777,3.086,1.738-3.086h3.311l-3.5,5.186L24.121,15H20.654l-1.836-3.193L16.973,15ZM33.1,9.678A4.189,4.189,0,0,0,32.534,7.5a1.955,1.955,0,0,0-1.821-.947,2.072,2.072,0,0,0-2.08,1.436,5.445,5.445,0,0,0-.293,1.934,3.084,3.084,0,0,0,.986,2.607,2.246,2.246,0,0,0,1.387.439,2.009,2.009,0,0,0,1.772-.9A4.19,4.19,0,0,0,33.1,9.678ZM31.514,4.121A4.17,4.17,0,0,1,34.673,5.5a5.7,5.7,0,0,1,1.294,4.043A6.412,6.412,0,0,1,34.7,13.828,4.094,4.094,0,0,1,31.445,15.3a3.4,3.4,0,0,1-2.109-.635,4.092,4.092,0,0,1-.9-1.025v5.547H25.684V4.355H28.35V5.928a4.468,4.468,0,0,1,.957-1.094A3.516,3.516,0,0,1,31.514,4.121ZM40.82,15H38.037V.605H40.82ZM43.574,4.355H46.4V15H43.574ZM48.369,0,45.4,2.92H43.389L45.264,0Zm7.08,8.174a2.47,2.47,0,0,0-.4-1.074,1.679,1.679,0,0,0-1.455-.645,1.916,1.916,0,0,0-1.924,1.4A5.839,5.839,0,0,0,51.4,9.824a5.368,5.368,0,0,0,.273,1.885,1.857,1.857,0,0,0,1.875,1.328,1.653,1.653,0,0,0,1.387-.527,2.625,2.625,0,0,0,.5-1.367h2.842a4.656,4.656,0,0,1-.918,2.4,4.462,4.462,0,0,1-3.877,1.826A4.535,4.535,0,0,1,49.7,13.848a6.164,6.164,0,0,1-1.211-3.955,6.255,6.255,0,0,1,1.338-4.268A4.657,4.657,0,0,1,53.516,4.1a5.558,5.558,0,0,1,3.276.9A4.179,4.179,0,0,1,58.3,8.174Zm7.627-5.088H60.254V.518h2.822Zm-2.822,1.27h2.822V15H60.254Zm4.424,2.08V4.453h1.484V1.484h2.754V4.453h1.729V6.436H68.916v5.625a1.267,1.267,0,0,0,.166.815,1.828,1.828,0,0,0,1.016.161q.127,0,.269,0t.278-.015V15.1l-1.318.049a3.538,3.538,0,0,1-2.7-.684,2.035,2.035,0,0,1-.469-1.475V6.436Zm12.529,6.6a2.206,2.206,0,0,0,1.875-.869A4.043,4.043,0,0,0,79.736,9.7a4.021,4.021,0,0,0-.654-2.466,2.471,2.471,0,0,0-3.755,0A4,4,0,0,0,74.668,9.7a4.021,4.021,0,0,0,.659,2.471A2.219,2.219,0,0,0,77.207,13.037ZM82.656,9.7a6.171,6.171,0,0,1-1.348,4.009,5.86,5.86,0,0,1-8.184,0A6.171,6.171,0,0,1,71.777,9.7,6.212,6.212,0,0,1,73.125,5.7a5.8,5.8,0,0,1,8.184,0A6.212,6.212,0,0,1,82.656,9.7Zm4.16,1.9a1.859,1.859,0,0,0,.381,1.055,2.575,2.575,0,0,0,1.914.557,2.918,2.918,0,0,0,1.3-.244.819.819,0,0,0,.093-1.445,15.891,15.891,0,0,0-2.9-.84,6.041,6.041,0,0,1-2.549-1.123,2.435,2.435,0,0,1-.742-1.914,3.32,3.32,0,0,1,1.157-2.534,4.648,4.648,0,0,1,3.257-1.06,5.975,5.975,0,0,1,3.247.8A3.409,3.409,0,0,1,93.418,7.6H90.635a1.646,1.646,0,0,0-.3-.85,1.9,1.9,0,0,0-1.562-.566,2.245,2.245,0,0,0-1.294.283.815.815,0,0,0-.386.664.727.727,0,0,0,.41.693,17.756,17.756,0,0,0,2.9.771,5.327,5.327,0,0,1,2.49,1.182,2.683,2.683,0,0,1,.82,2,3.235,3.235,0,0,1-1.177,2.583A7.06,7.06,0,0,1,85.19,14.3a3.447,3.447,0,0,1-1.2-2.7Z" transform="translate(288.377 2435.466)" fill="#fff"/>
  </g>
</svg>
