<svg xmlns="http://www.w3.org/2000/svg" width="130" height="65" viewBox="0 0 130 65">
  <g id="Grupo_42558" data-name="Grupo 42558" transform="translate(-750 -2416)">
    <rect id="Rectángulo_32018" data-name="Rectángulo 32018" width="130" height="65" rx="15" transform="translate(750 2416)" fill="#15579f"/>
    <path id="Trazado_110681" data-name="Trazado 110681" d="M26.816.484h2.406V9.93h5.7V12H26.816ZM39.77,5.094a1.512,1.512,0,0,0-1.2.484,2.418,2.418,0,0,0-.535,1.313H41.5a1.938,1.938,0,0,0-.535-1.34A1.662,1.662,0,0,0,39.77,5.094Zm0-1.836a4.463,4.463,0,0,1,1.914.4A3.353,3.353,0,0,1,43.09,4.914a4.292,4.292,0,0,1,.648,1.758,11.352,11.352,0,0,1,.07,1.688H37.98a2.116,2.116,0,0,0,.8,1.8,1.9,1.9,0,0,0,1.109.32,1.6,1.6,0,0,0,1.117-.391,1.855,1.855,0,0,0,.414-.586H43.7a2.824,2.824,0,0,1-.789,1.539,3.866,3.866,0,0,1-3.062,1.242,4.318,4.318,0,0,1-2.867-1.047,4.222,4.222,0,0,1-1.242-3.406,4.734,4.734,0,0,1,1.121-3.391A3.833,3.833,0,0,1,39.77,3.258Zm9.2,6.914a1.72,1.72,0,0,0,1.32-.59A2.731,2.731,0,0,0,50.824,7.7a2.875,2.875,0,0,0-.512-1.844,1.673,1.673,0,0,0-1.371-.633,1.616,1.616,0,0,0-1.617,1.1,3.906,3.906,0,0,0-.234,1.445,3.3,3.3,0,0,0,.25,1.32A1.629,1.629,0,0,0,48.965,10.172ZM48.41,3.281a2.933,2.933,0,0,1,1.117.2A2.675,2.675,0,0,1,50.84,4.711V3.484H53v8.078a4.524,4.524,0,0,1-.555,2.484q-.953,1.437-3.656,1.438a4.982,4.982,0,0,1-2.664-.641,2.364,2.364,0,0,1-1.141-1.914H47.41a1,1,0,0,0,.3.563,1.882,1.882,0,0,0,1.211.3,1.627,1.627,0,0,0,1.609-.8,4.076,4.076,0,0,0,.266-1.734v-.547a2.715,2.715,0,0,1-.687.82,2.765,2.765,0,0,1-1.727.508,3.267,3.267,0,0,1-2.621-1.152,4.659,4.659,0,0,1-.98-3.121,5.261,5.261,0,0,1,.945-3.191A3.123,3.123,0,0,1,48.41,3.281ZM59.777,7.859a2.42,2.42,0,0,1-.426.215,3.561,3.561,0,0,1-.59.152l-.5.094a3.229,3.229,0,0,0-1.008.3,1.021,1.021,0,0,0-.516.945,1,1,0,0,0,.316.824,1.191,1.191,0,0,0,.77.254,2.268,2.268,0,0,0,1.324-.422,1.8,1.8,0,0,0,.629-1.539ZM58.426,6.82a3.475,3.475,0,0,0,.883-.2.669.669,0,0,0,.477-.633.751.751,0,0,0-.363-.723,2.269,2.269,0,0,0-1.066-.2,1.389,1.389,0,0,0-1.117.391,1.624,1.624,0,0,0-.312.781H54.777A3.268,3.268,0,0,1,55.4,4.406a3.636,3.636,0,0,1,3.031-1.125,5.385,5.385,0,0,1,2.484.555A2.13,2.13,0,0,1,62,5.93V9.836q0,.406.016.984a1.238,1.238,0,0,0,.133.594.8.8,0,0,0,.328.258V12H60.059a2.48,2.48,0,0,1-.141-.484q-.039-.227-.062-.516a4.575,4.575,0,0,1-1.062.852,3.2,3.2,0,0,1-1.625.414,2.794,2.794,0,0,1-1.91-.66A2.355,2.355,0,0,1,54.5,9.734a2.429,2.429,0,0,1,1.211-2.273,5.377,5.377,0,0,1,1.953-.547ZM66.254,12H64.027V.484h2.227Zm5.531-6.906a1.512,1.512,0,0,0-1.2.484,2.418,2.418,0,0,0-.535,1.313h3.461a1.938,1.938,0,0,0-.535-1.34A1.662,1.662,0,0,0,71.785,5.094Zm0-1.836a4.463,4.463,0,0,1,1.914.4,3.353,3.353,0,0,1,1.406,1.258,4.292,4.292,0,0,1,.648,1.758,11.353,11.353,0,0,1,.07,1.688H70a2.116,2.116,0,0,0,.8,1.8,1.9,1.9,0,0,0,1.109.32,1.6,1.6,0,0,0,1.117-.391,1.855,1.855,0,0,0,.414-.586h2.273a2.824,2.824,0,0,1-.789,1.539,3.866,3.866,0,0,1-3.062,1.242A4.318,4.318,0,0,1,69,11.234a4.222,4.222,0,0,1-1.242-3.406,4.734,4.734,0,0,1,1.121-3.391A3.833,3.833,0,0,1,71.785,3.258Zm7.273,6.023a1.487,1.487,0,0,0,.3.844,2.06,2.06,0,0,0,1.531.445,2.334,2.334,0,0,0,1.043-.2.655.655,0,0,0,.074-1.156,12.713,12.713,0,0,0-2.32-.672,4.833,4.833,0,0,1-2.039-.9,1.948,1.948,0,0,1-.594-1.531,2.656,2.656,0,0,1,.926-2.027,3.718,3.718,0,0,1,2.605-.848,4.78,4.78,0,0,1,2.6.637,2.727,2.727,0,0,1,1.152,2.2H82.113a1.317,1.317,0,0,0-.242-.68,1.524,1.524,0,0,0-1.25-.453,1.8,1.8,0,0,0-1.035.227.652.652,0,0,0-.309.531.581.581,0,0,0,.328.555,14.2,14.2,0,0,0,2.32.617,4.262,4.262,0,0,1,1.992.945,2.146,2.146,0,0,1,.656,1.6,2.588,2.588,0,0,1-.941,2.066,5.648,5.648,0,0,1-5.875-.047,2.758,2.758,0,0,1-.957-2.16Zm15.43,1.148a1.765,1.765,0,0,0,1.5-.7,3.235,3.235,0,0,0,.523-1.977,3.217,3.217,0,0,0-.523-1.973,1.977,1.977,0,0,0-3,0,3.2,3.2,0,0,0-.527,1.973,3.217,3.217,0,0,0,.527,1.977A1.775,1.775,0,0,0,94.488,10.43Zm4.359-2.672a4.936,4.936,0,0,1-1.078,3.207,4.688,4.688,0,0,1-6.547,0,4.936,4.936,0,0,1-1.078-3.207,4.969,4.969,0,0,1,1.078-3.2,4.64,4.64,0,0,1,6.547,0A4.969,4.969,0,0,1,98.848,7.758ZM10.809,27.281q.063,0,.105,0l.191.012v2.281q-.211-.023-.375-.031t-.266-.008a1.847,1.847,0,0,0-1.8.875A3.4,3.4,0,0,0,8.4,31.93V36H6.16V27.484H8.285v1.484a4.708,4.708,0,0,1,.9-1.164A2.446,2.446,0,0,1,10.809,27.281Zm4.961,1.813a1.512,1.512,0,0,0-1.2.484,2.418,2.418,0,0,0-.535,1.313H17.5a1.938,1.938,0,0,0-.535-1.34A1.662,1.662,0,0,0,15.77,29.094Zm0-1.836a4.463,4.463,0,0,1,1.914.4,3.353,3.353,0,0,1,1.406,1.258,4.292,4.292,0,0,1,.648,1.758,11.352,11.352,0,0,1,.07,1.688H13.98a2.116,2.116,0,0,0,.8,1.8,1.9,1.9,0,0,0,1.109.32,1.6,1.6,0,0,0,1.117-.391,1.855,1.855,0,0,0,.414-.586H19.7a2.824,2.824,0,0,1-.789,1.539,3.866,3.866,0,0,1-3.062,1.242,4.318,4.318,0,0,1-2.867-1.047,4.222,4.222,0,0,1-1.242-3.406,4.734,4.734,0,0,1,1.121-3.391A3.833,3.833,0,0,1,15.77,27.258Zm9.2,6.914a1.72,1.72,0,0,0,1.32-.59,2.731,2.731,0,0,0,.539-1.879,2.875,2.875,0,0,0-.512-1.844,1.673,1.673,0,0,0-1.371-.633,1.616,1.616,0,0,0-1.617,1.1,3.906,3.906,0,0,0-.234,1.445,3.3,3.3,0,0,0,.25,1.32A1.629,1.629,0,0,0,24.965,34.172Zm-.555-6.891a2.933,2.933,0,0,1,1.117.2,2.675,2.675,0,0,1,1.313,1.234V27.484H29v8.078a4.524,4.524,0,0,1-.555,2.484q-.953,1.437-3.656,1.438a4.982,4.982,0,0,1-2.664-.641,2.364,2.364,0,0,1-1.141-1.914H23.41a1,1,0,0,0,.3.563,1.882,1.882,0,0,0,1.211.3,1.627,1.627,0,0,0,1.609-.8,4.076,4.076,0,0,0,.266-1.734v-.547a2.715,2.715,0,0,1-.687.82,2.765,2.765,0,0,1-1.727.508,3.267,3.267,0,0,1-2.621-1.152,4.659,4.659,0,0,1-.98-3.121,5.261,5.261,0,0,1,.945-3.191A3.123,3.123,0,0,1,24.41,27.281ZM33.355,36H31.129V24.484h2.227Zm6.867-4.141a2.42,2.42,0,0,1-.426.215,3.561,3.561,0,0,1-.59.152l-.5.094a3.229,3.229,0,0,0-1.008.3,1.021,1.021,0,0,0-.516.945,1,1,0,0,0,.316.824,1.191,1.191,0,0,0,.77.254,2.268,2.268,0,0,0,1.324-.422,1.8,1.8,0,0,0,.629-1.539ZM38.871,30.82a3.475,3.475,0,0,0,.883-.2.669.669,0,0,0,.477-.633.751.751,0,0,0-.363-.723,2.269,2.269,0,0,0-1.066-.2,1.389,1.389,0,0,0-1.117.391,1.624,1.624,0,0,0-.312.781H35.223a3.268,3.268,0,0,1,.625-1.836,3.636,3.636,0,0,1,3.031-1.125,5.385,5.385,0,0,1,2.484.555,2.13,2.13,0,0,1,1.086,2.094v3.906q0,.406.016.984a1.238,1.238,0,0,0,.133.594.8.8,0,0,0,.328.258V36H40.5a2.48,2.48,0,0,1-.141-.484q-.039-.227-.062-.516a4.575,4.575,0,0,1-1.062.852,3.2,3.2,0,0,1-1.625.414,2.794,2.794,0,0,1-1.91-.66,2.355,2.355,0,0,1-.754-1.871,2.429,2.429,0,0,1,1.211-2.273,5.377,5.377,0,0,1,1.953-.547ZM53.941,27.3a2.964,2.964,0,0,1,1.109.219,2.475,2.475,0,0,1,.992.766,2.446,2.446,0,0,1,.484,1.094,7.56,7.56,0,0,1,.078,1.258L56.59,36H54.309V30.578a1.78,1.78,0,0,0-.156-.8,1.11,1.11,0,0,0-1.094-.594,1.28,1.28,0,0,0-1.273.766,2.4,2.4,0,0,0-.18.977V36H49.363V30.93a2.848,2.848,0,0,0-.156-1.1,1.091,1.091,0,0,0-1.1-.617,1.315,1.315,0,0,0-1.281.617,2.378,2.378,0,0,0-.18,1.047V36H44.387V27.5h2.164v1.242a3.583,3.583,0,0,1,.781-.945,3.091,3.091,0,0,1,3.258-.07,2.5,2.5,0,0,1,.734,1.023,2.831,2.831,0,0,1,1.086-1.1A3.314,3.314,0,0,1,53.941,27.3Zm8.07,1.8a1.512,1.512,0,0,0-1.2.484,2.418,2.418,0,0,0-.535,1.313h3.461a1.938,1.938,0,0,0-.535-1.34A1.662,1.662,0,0,0,62.012,29.094Zm0-1.836a4.463,4.463,0,0,1,1.914.4,3.353,3.353,0,0,1,1.406,1.258,4.292,4.292,0,0,1,.648,1.758,11.353,11.353,0,0,1,.07,1.688H60.223a2.116,2.116,0,0,0,.8,1.8,1.9,1.9,0,0,0,1.109.32,1.6,1.6,0,0,0,1.117-.391,1.855,1.855,0,0,0,.414-.586h2.273a2.824,2.824,0,0,1-.789,1.539,3.866,3.866,0,0,1-3.062,1.242,4.318,4.318,0,0,1-2.867-1.047,4.222,4.222,0,0,1-1.242-3.406A4.734,4.734,0,0,1,59.1,28.438,3.833,3.833,0,0,1,62.012,27.258Zm10.258.023a3.287,3.287,0,0,1,2.16.691,2.811,2.811,0,0,1,.84,2.293V36H72.988V30.82a2.364,2.364,0,0,0-.18-1.031,1.264,1.264,0,0,0-1.25-.656A1.55,1.55,0,0,0,70,30.094a3.3,3.3,0,0,0-.219,1.3V36H67.566V27.5h2.148v1.242a3.78,3.78,0,0,1,.813-.945A2.824,2.824,0,0,1,72.27,27.281Zm4.18,1.867V27.563h1.188V25.188h2.2v2.375h1.383v1.586H79.84v4.5a1.014,1.014,0,0,0,.133.652,1.462,1.462,0,0,0,.813.129q.1,0,.215,0t.223-.012v1.664l-1.055.039a2.83,2.83,0,0,1-2.156-.547,1.628,1.628,0,0,1-.375-1.18V29.148Zm10.9,2.711a2.42,2.42,0,0,1-.426.215,3.561,3.561,0,0,1-.59.152l-.5.094a3.229,3.229,0,0,0-1.008.3,1.021,1.021,0,0,0-.516.945,1,1,0,0,0,.316.824,1.191,1.191,0,0,0,.77.254,2.268,2.268,0,0,0,1.324-.422,1.8,1.8,0,0,0,.629-1.539ZM86,30.82a3.475,3.475,0,0,0,.883-.2.669.669,0,0,0,.477-.633.751.751,0,0,0-.363-.723,2.269,2.269,0,0,0-1.066-.2,1.389,1.389,0,0,0-1.117.391,1.624,1.624,0,0,0-.312.781H82.348a3.268,3.268,0,0,1,.625-1.836A3.636,3.636,0,0,1,86,27.281a5.386,5.386,0,0,1,2.484.555,2.13,2.13,0,0,1,1.086,2.094v3.906q0,.406.016.984a1.238,1.238,0,0,0,.133.594.8.8,0,0,0,.328.258V36H87.629a2.48,2.48,0,0,1-.141-.484q-.039-.227-.062-.516a4.575,4.575,0,0,1-1.062.852,3.2,3.2,0,0,1-1.625.414,2.794,2.794,0,0,1-1.91-.66,2.355,2.355,0,0,1-.754-1.871,2.429,2.429,0,0,1,1.211-2.273,5.377,5.377,0,0,1,1.953-.547Zm10.18-3.539q.062,0,.105,0l.191.012v2.281q-.211-.023-.375-.031t-.266-.008a1.847,1.847,0,0,0-1.8.875,3.4,3.4,0,0,0-.258,1.516V36H91.527V27.484h2.125v1.484a4.707,4.707,0,0,1,.9-1.164A2.446,2.446,0,0,1,96.176,27.281Zm3.891-.812H97.809V24.414h2.258Zm-2.258,1.016h2.258V36H97.809Zm8.234,6.945a1.765,1.765,0,0,0,1.5-.7,3.235,3.235,0,0,0,.523-1.977,3.217,3.217,0,0,0-.523-1.973,1.977,1.977,0,0,0-3,0,3.2,3.2,0,0,0-.527,1.973,3.217,3.217,0,0,0,.527,1.977A1.775,1.775,0,0,0,106.043,34.43Zm4.359-2.672a4.936,4.936,0,0,1-1.078,3.207,4.688,4.688,0,0,1-6.547,0,5.292,5.292,0,0,1,0-6.4,4.64,4.64,0,0,1,6.547,0A4.969,4.969,0,0,1,110.4,31.758Zm3.328,1.523a1.487,1.487,0,0,0,.3.844,2.06,2.06,0,0,0,1.531.445,2.334,2.334,0,0,0,1.043-.2.655.655,0,0,0,.074-1.156,12.713,12.713,0,0,0-2.32-.672,4.833,4.833,0,0,1-2.039-.9,1.948,1.948,0,0,1-.594-1.531,2.656,2.656,0,0,1,.926-2.027,3.718,3.718,0,0,1,2.605-.848,4.78,4.78,0,0,1,2.6.637,2.727,2.727,0,0,1,1.152,2.2h-2.227a1.317,1.317,0,0,0-.242-.68,1.524,1.524,0,0,0-1.25-.453,1.8,1.8,0,0,0-1.035.227.652.652,0,0,0-.309.531.581.581,0,0,0,.328.555,14.2,14.2,0,0,0,2.32.617,4.262,4.262,0,0,1,1.992.945,2.146,2.146,0,0,1,.656,1.6,2.588,2.588,0,0,1-.941,2.066,5.648,5.648,0,0,1-5.875-.047,2.758,2.758,0,0,1-.957-2.16Z" transform="translate(751 2425.466)" fill="#fff"/>
  </g>
</svg>
