<svg xmlns="http://www.w3.org/2000/svg" width="131" height="66" viewBox="0 0 131 66">
  <g id="Grupo_42559" data-name="Grupo 42559" transform="translate(-1004 -2417)">
    <g id="Grupo_37779" data-name="Grupo 37779" transform="translate(1004.094 2417)">
      <rect id="Rectángulo_31688" data-name="Rectángulo 31688" width="131" height="66" rx="15" transform="translate(-0.094)" fill="#58a5f8"/>
    </g>
    <path id="Trazado_110682" data-name="Trazado 110682" d="M9.734,2.523H3.641V4.969H9.234v2H3.641V9.93h6.375V12H1.289V.484H9.734ZM21.227,3.3a2.964,2.964,0,0,1,1.109.219,2.475,2.475,0,0,1,.992.766,2.446,2.446,0,0,1,.484,1.094,7.56,7.56,0,0,1,.078,1.258L23.875,12H21.594V6.578a1.78,1.78,0,0,0-.156-.8,1.11,1.11,0,0,0-1.094-.594,1.28,1.28,0,0,0-1.273.766,2.4,2.4,0,0,0-.18.977V12H16.648V6.93a2.848,2.848,0,0,0-.156-1.1,1.091,1.091,0,0,0-1.1-.617,1.315,1.315,0,0,0-1.281.617,2.378,2.378,0,0,0-.18,1.047V12H11.672V3.5h2.164V4.742a3.583,3.583,0,0,1,.781-.945,2.673,2.673,0,0,1,1.68-.5,2.657,2.657,0,0,1,1.578.43,2.5,2.5,0,0,1,.734,1.023,2.831,2.831,0,0,1,1.086-1.1A3.314,3.314,0,0,1,21.227,3.3ZM31.8,7.742A3.351,3.351,0,0,0,31.355,6,1.564,1.564,0,0,0,29.9,5.242a1.658,1.658,0,0,0-1.664,1.148A4.356,4.356,0,0,0,28,7.938a2.467,2.467,0,0,0,.789,2.086,1.8,1.8,0,0,0,1.109.352,1.608,1.608,0,0,0,1.418-.719A3.352,3.352,0,0,0,31.8,7.742ZM30.539,3.3a3.336,3.336,0,0,1,2.527,1.1A4.558,4.558,0,0,1,34.1,7.633a5.13,5.13,0,0,1-1.012,3.43,3.275,3.275,0,0,1-2.605,1.18,2.719,2.719,0,0,1-1.687-.508,3.274,3.274,0,0,1-.719-.82v4.438h-2.2V3.484h2.133V4.742a3.575,3.575,0,0,1,.766-.875A2.813,2.813,0,0,1,30.539,3.3Zm9.8-.016q.063,0,.105,0l.191.012V5.578q-.211-.023-.375-.031t-.266-.008a1.847,1.847,0,0,0-1.8.875A3.4,3.4,0,0,0,37.93,7.93V12H35.688V3.484h2.125V4.969a4.708,4.708,0,0,1,.9-1.164A2.446,2.446,0,0,1,40.336,3.281ZM45.3,5.094a1.512,1.512,0,0,0-1.2.484,2.418,2.418,0,0,0-.535,1.313h3.461a1.938,1.938,0,0,0-.535-1.34A1.662,1.662,0,0,0,45.3,5.094Zm0-1.836a4.463,4.463,0,0,1,1.914.4,3.353,3.353,0,0,1,1.406,1.258,4.292,4.292,0,0,1,.648,1.758,11.352,11.352,0,0,1,.07,1.688H43.508a2.116,2.116,0,0,0,.8,1.8,1.9,1.9,0,0,0,1.109.32,1.6,1.6,0,0,0,1.117-.391,1.855,1.855,0,0,0,.414-.586h2.273a2.824,2.824,0,0,1-.789,1.539,3.866,3.866,0,0,1-3.062,1.242,4.318,4.318,0,0,1-2.867-1.047,4.222,4.222,0,0,1-1.242-3.406,4.734,4.734,0,0,1,1.121-3.391A3.833,3.833,0,0,1,45.3,3.258ZM52.57,9.281a1.487,1.487,0,0,0,.3.844,2.06,2.06,0,0,0,1.531.445,2.334,2.334,0,0,0,1.043-.2.655.655,0,0,0,.074-1.156,12.713,12.713,0,0,0-2.32-.672,4.832,4.832,0,0,1-2.039-.9,1.948,1.948,0,0,1-.594-1.531A2.656,2.656,0,0,1,51.5,4.09,3.718,3.718,0,0,1,54.1,3.242a4.78,4.78,0,0,1,2.6.637,2.727,2.727,0,0,1,1.152,2.2H55.625a1.317,1.317,0,0,0-.242-.68,1.524,1.524,0,0,0-1.25-.453,1.8,1.8,0,0,0-1.035.227.652.652,0,0,0-.309.531.581.581,0,0,0,.328.555,14.2,14.2,0,0,0,2.32.617,4.262,4.262,0,0,1,1.992.945,2.146,2.146,0,0,1,.656,1.6,2.588,2.588,0,0,1-.941,2.066,4.423,4.423,0,0,1-2.91.8,4.381,4.381,0,0,1-2.965-.848,2.758,2.758,0,0,1-.957-2.16ZM64.43,7.859A2.42,2.42,0,0,1,64,8.074a3.561,3.561,0,0,1-.59.152l-.5.094a3.229,3.229,0,0,0-1.008.3,1.021,1.021,0,0,0-.516.945,1,1,0,0,0,.316.824,1.191,1.191,0,0,0,.77.254,2.268,2.268,0,0,0,1.324-.422,1.8,1.8,0,0,0,.629-1.539ZM63.078,6.82a3.475,3.475,0,0,0,.883-.2.669.669,0,0,0,.477-.633.751.751,0,0,0-.363-.723,2.269,2.269,0,0,0-1.066-.2,1.389,1.389,0,0,0-1.117.391,1.624,1.624,0,0,0-.312.781H59.43a3.268,3.268,0,0,1,.625-1.836,3.636,3.636,0,0,1,3.031-1.125,5.386,5.386,0,0,1,2.484.555A2.13,2.13,0,0,1,66.656,5.93V9.836q0,.406.016.984a1.238,1.238,0,0,0,.133.594.8.8,0,0,0,.328.258V12H64.711a2.48,2.48,0,0,1-.141-.484q-.039-.227-.062-.516a4.575,4.575,0,0,1-1.062.852,3.2,3.2,0,0,1-1.625.414,2.794,2.794,0,0,1-1.91-.66,2.355,2.355,0,0,1-.754-1.871,2.429,2.429,0,0,1,1.211-2.273,5.377,5.377,0,0,1,1.953-.547Zm10.18-3.539q.062,0,.105,0l.191.012V5.578q-.211-.023-.375-.031t-.266-.008a1.847,1.847,0,0,0-1.8.875,3.4,3.4,0,0,0-.258,1.516V12H68.609V3.484h2.125V4.969a4.707,4.707,0,0,1,.9-1.164A2.446,2.446,0,0,1,73.258,3.281Zm3.891-.812H74.891V.414h2.258ZM74.891,3.484h2.258V12H74.891ZM84,7.859a2.42,2.42,0,0,1-.426.215,3.561,3.561,0,0,1-.59.152l-.5.094a3.229,3.229,0,0,0-1.008.3,1.021,1.021,0,0,0-.516.945,1,1,0,0,0,.316.824,1.191,1.191,0,0,0,.77.254,2.268,2.268,0,0,0,1.324-.422A1.8,1.8,0,0,0,84,8.688ZM82.648,6.82a3.475,3.475,0,0,0,.883-.2.669.669,0,0,0,.477-.633.751.751,0,0,0-.363-.723,2.269,2.269,0,0,0-1.066-.2,1.389,1.389,0,0,0-1.117.391,1.624,1.624,0,0,0-.312.781H79a3.268,3.268,0,0,1,.625-1.836,3.636,3.636,0,0,1,3.031-1.125,5.386,5.386,0,0,1,2.484.555A2.13,2.13,0,0,1,86.227,5.93V9.836q0,.406.016.984a1.238,1.238,0,0,0,.133.594.8.8,0,0,0,.328.258V12H84.281a2.48,2.48,0,0,1-.141-.484q-.039-.227-.062-.516a4.575,4.575,0,0,1-1.062.852,3.2,3.2,0,0,1-1.625.414,2.794,2.794,0,0,1-1.91-.66,2.355,2.355,0,0,1-.754-1.871,2.429,2.429,0,0,1,1.211-2.273,5.377,5.377,0,0,1,1.953-.547ZM90.477,12H88.25V.484h2.227Zm5.531-6.906a1.512,1.512,0,0,0-1.2.484,2.418,2.418,0,0,0-.535,1.313h3.461a1.938,1.938,0,0,0-.535-1.34A1.662,1.662,0,0,0,96.008,5.094Zm0-1.836a4.463,4.463,0,0,1,1.914.4,3.353,3.353,0,0,1,1.406,1.258,4.292,4.292,0,0,1,.648,1.758,11.353,11.353,0,0,1,.07,1.688H94.219a2.116,2.116,0,0,0,.8,1.8,1.9,1.9,0,0,0,1.109.32,1.6,1.6,0,0,0,1.117-.391,1.855,1.855,0,0,0,.414-.586h2.273a2.824,2.824,0,0,1-.789,1.539,3.866,3.866,0,0,1-3.062,1.242,4.318,4.318,0,0,1-2.867-1.047,4.222,4.222,0,0,1-1.242-3.406A4.734,4.734,0,0,1,93.1,4.438,3.833,3.833,0,0,1,96.008,3.258Zm7.273,6.023a1.487,1.487,0,0,0,.3.844,2.06,2.06,0,0,0,1.531.445,2.334,2.334,0,0,0,1.043-.2.655.655,0,0,0,.074-1.156,12.713,12.713,0,0,0-2.32-.672,4.833,4.833,0,0,1-2.039-.9,1.948,1.948,0,0,1-.594-1.531,2.656,2.656,0,0,1,.926-2.027,3.718,3.718,0,0,1,2.605-.848,4.78,4.78,0,0,1,2.6.637,2.727,2.727,0,0,1,1.152,2.2h-2.227a1.317,1.317,0,0,0-.242-.68,1.524,1.524,0,0,0-1.25-.453,1.8,1.8,0,0,0-1.035.227.652.652,0,0,0-.309.531.581.581,0,0,0,.328.555,14.2,14.2,0,0,0,2.32.617,4.262,4.262,0,0,1,1.992.945,2.146,2.146,0,0,1,.656,1.6,2.588,2.588,0,0,1-.941,2.066,5.648,5.648,0,0,1-5.875-.047,2.758,2.758,0,0,1-.957-2.16Z" transform="translate(1013 2436.466)" fill="#fff"/>
  </g>
</svg>
