<svg xmlns="http://www.w3.org/2000/svg" width="184.055" height="287.761" viewBox="0 0 184.055 287.761">
  <g id="Grupo_41209" data-name="Grupo 41209" transform="translate(-30.438 -220.313)">
    <g id="Grupo_41170" data-name="Grupo 41170" transform="translate(35.607 431.752)">
      <path id="Trazado_108696" data-name="Trazado 108696" d="M46.387,325.11c.42-1.707.192-4.767,1.847-5.824,1.113-.711,3.281-.711,4.563-.758a34.983,34.983,0,0,1,9,1.139,7.478,7.478,0,0,1,2.5.889c.745.482,1.718,1.163,1.29,1.94-5.14,9.353-10.283,18.7-15.068,28.243-3.587,7.148-6.272,14.872-10.454,21.667-1.307,2.121-3.35,1.161-5.618.9-2-.226-1.755-.945-1.257-2.319.663-1.83,1.031-3.818,1.535-5.7q1.515-5.61,3.1-11.207,3.123-11.017,6.526-21.954C45.067,329.809,45.8,327.479,46.387,325.11Z" transform="translate(-32.839 -318.513)" fill="#ffdcc5"/>
    </g>
    <g id="Grupo_41171" data-name="Grupo 41171" transform="translate(114.212 278.132)">
      <path id="Trazado_108697" data-name="Trazado 108697" d="M126.778,314.518c.383-1.492-.377-3.017-2.98-4.287-7.362-3.6-17.393-5.3-23.314-11.257-4.629-4.662-5.639-11.685-6.862-18.14C91.817,271.32,89,261.9,84.182,253.5c-1.781-3.107-4.442-6.4-8.025-6.328-2.946.058-5.407,2.567-6.294,5.376-1.229,3.9-.054,6.511,1.283,9.969,1.8,4.657,2.185,9.642,3.615,14.435,2.793,9.375,5.842,18.993,11.351,27.177,3.932,5.839,9.745,10.077,16.091,12.977,4.515,2.061,9.142,5.435,14.364,4.806C120.413,321.447,125.759,318.489,126.778,314.518Z" transform="translate(-69.346 -247.166)" fill="#2d2d2d"/>
    </g>
    <g id="Grupo_41172" data-name="Grupo 41172" transform="translate(115.507 484.982)">
      <path id="Trazado_108698" data-name="Trazado 108698" d="M92.086,354.957c2.1-.058,3.783-.674,3.551-2.573-.306-2.485-3.344-3.236-5.342-3.645-2.943-.609-5.736-1.779-8.615-2.614-2.739-.792-3.919-3.236-7.217-2.849a5.087,5.087,0,0,0-4.479,5.674c.177,2.853-.037,5.775-.037,8.632,0,1.4,2.907,1.511,3.815,1.089,1.475-.678.73-2.683.693-4.1-.071-2.62.975-2.877,3.365-2.633,2.549.263,4.926,1.363,7.383,2.02A27.767,27.767,0,0,0,92.086,354.957Z" transform="translate(-69.947 -343.235)" fill="#e26a84"/>
    </g>
    <g id="Grupo_41173" data-name="Grupo 41173" transform="translate(94.917 431.897)">
      <path id="Trazado_108699" data-name="Trazado 108699" d="M83.5,374.562c2.028.291,4.713-.9,4.433-2.737q-1.637-10.768-3.271-21.532c-.6-3.919-1.193-7.833-1.852-11.741a174.322,174.322,0,0,0-3.755-17.591c-.306-1.1-.327-2.463-1.464-2.377A54.184,54.184,0,0,0,65.9,320.815c-1.27.392-4.149.683-5.107,1.651-1.294,1.307.807,4.341,1.518,5.575a63.1,63.1,0,0,1,4.007,7.642c1.434,3.49,7.71,18.967,9.493,23.071,1.3,3,2.571,6.022,3.731,9.084C80.3,369.84,80.847,374.183,83.5,374.562Z" transform="translate(-60.385 -318.58)" fill="#ffdcc5"/>
    </g>
    <g id="Grupo_41174" data-name="Grupo 41174" transform="translate(45.111 269.088)">
      <path id="Trazado_108700" data-name="Trazado 108700" d="M109.466,411.892c2.054-3.856.665-10.4.327-14.428a108.861,108.861,0,0,0-2.569-16.575c-2.644-10.921-9.315-21.234-10.949-32.239-1.313-8.847-2.844-17.9-2.175-26.878.939-12.553,9.088-22.752,14.648-33.451a70.416,70.416,0,0,0,6.948-20.793c1.249-7.443,2.033-18.769-6.972-21.854-4.976-1.7-9.3-3.378-14.484-2.433-17.9,3.251-28.874,24.1-36.179,38.884-4.123,8.343-5.721,18.42-6.767,27.621-1.225,10.779-.814,21.654-.616,32.476.3,16.271-.03,33.128-6.866,47.9-2.22,4.8-5.4,9.5-6.419,14.768-1.619,8.378,11.216,6.664,16.515,7.2,9.431.956,18.9,1.58,28.383,1.632C88.528,413.75,105.825,418.73,109.466,411.892Z" transform="translate(-37.253 -242.966)" fill="#424242"/>
    </g>
    <g id="Grupo_41176" data-name="Grupo 41176" transform="translate(64.593 401.463)">
      <g id="Grupo_41175" data-name="Grupo 41175">
        <path id="Trazado_108701" data-name="Trazado 108701" d="M47.6,308.045a7.577,7.577,0,0,1,1.294.876,25.117,25.117,0,0,0,3.415,2.379c2.414,1.817,5.183,3.99,7.646,6.04,6.47,5.379,12.732,10.985,19,16.6q22.188,19.866,43.873,40.3c10.085,9.53,20.063,19.189,30.342,28.514,3.932,3.566,9.741-2.164,5.848-5.848-19.286-18.25-38.49-36.636-58.305-54.309C89.2,332.33,77.6,322.018,65.143,312.913a73.97,73.97,0,0,0-9.978-6.5c-1.477-.747-3.154-1.729-4.489-1.791.528.024-.192-.017-.258-.028a5.145,5.145,0,0,0-1.182-.14,9.476,9.476,0,0,0-1.636.095c-1.942.28-1.507,2.971,0,3.5Z" transform="translate(-46.301 -304.446)" fill="#6fb2b2"/>
      </g>
    </g>
    <g id="Grupo_41178" data-name="Grupo 41178" transform="translate(62.662 391.114)">
      <g id="Grupo_41177" data-name="Grupo 41177">
        <path id="Trazado_108702" data-name="Trazado 108702" d="M165.033,299.675c-5.986,1.462-11.6,5.331-16.521,8.912q-8.052,5.849-15.647,12.284c-10.18,8.585-19.88,17.7-29.511,26.889-10.878,10.383-21.87,20.651-32.842,30.934-8,7.5-16.334,14.788-23.993,22.634-3.361,3.447,1.611,8.173,5.193,5.191,4.13-3.436,7.956-7.288,11.881-10.96Q72.85,386.9,82.053,378.19c11.931-11.287,23.767-22.673,35.686-33.968,7.941-7.525,15.951-14.982,24.285-22.072,4-3.406,8.137-6.668,12.133-10.079,4.024-3.436,8.535-6.55,11.857-10.708a1.018,1.018,0,0,0-.982-1.688Z" transform="translate(-45.404 -299.639)" fill="#6fb2b2"/>
      </g>
    </g>
    <g id="Grupo_41180" data-name="Grupo 41180" transform="translate(127.957 246.489)">
      <g id="Grupo_41179" data-name="Grupo 41179">
        <path id="Trazado_108703" data-name="Trazado 108703" d="M78.564,240.733l.168-.108-.984.265a4.74,4.74,0,0,0,2.676-1.077c.448-.332.911-.624,1.344-.982l.342-.282c-.848.7.213-.153.51-.39,1.434-1.126,1.173-3.551,0-4.724a3.374,3.374,0,0,0-4.726,0,7.11,7.11,0,0,0-2.024,6.024v-1.038c-.022.065-.043.127-.06.192a1.889,1.889,0,0,0,2.754,2.119Z" transform="translate(-75.729 -232.471)" fill="#f7aa77"/>
      </g>
    </g>
    <g id="Grupo_41181" data-name="Grupo 41181" transform="translate(30.438 485.15)">
      <path id="Trazado_108704" data-name="Trazado 108704" d="M30.8,356.123c.715.807,2.261,1.262,2.969.465a9.873,9.873,0,0,0,1.369-3.075c1.753-4.39,4.177-.319,5.46,1.843a33.219,33.219,0,0,0,5.144,6.957c1.533,1.49,3.432,3.24,5.555,3.787,3.856.99,2.1-3.643,1.113-5.587-2.254-4.423-4.3-9.112-7.353-13.055-.917-1.182-1.466-2.353-2.8-3.027a14.3,14.3,0,0,0-5.409-1.107c-2.958-.2-4.27,2.28-4.849,4.8-.347,1.52-1.156,3.073-1.2,4.646a23.33,23.33,0,0,0-.349,2.7A1.5,1.5,0,0,0,30.8,356.123Z" transform="translate(-30.438 -343.313)" fill="#e26a84"/>
    </g>
    <g id="Grupo_41182" data-name="Grupo 41182" transform="translate(38.39 366.533)">
      <path id="Trazado_108705" data-name="Trazado 108705" d="M205.367,289.123a5.583,5.583,0,0,1,.715,1.809,15.812,15.812,0,0,1,.988,6.223c-.814,9.569-9.612,16.4-18.282,20.522-12.073,5.747-25.293,8.709-38.537,10.557a247.787,247.787,0,0,1-29.5,2.328c-7.024.133-14.049-.032-21.075-.2l-35.107-.827c-3.985-.093-7.809.174-11.8,0-4.237-.185-10.359-.926-16.747-1.214-1.957-.09-2.19-9.743-1.6-13.948,5.579-1.834,11.334-1.333,17.2-1.089a341.427,341.427,0,0,0,133.127-21.178c5.129-1.912,10.49-3.964,16.047-3.882,1.074.015,3.243-.1,4.164.519A1.889,1.889,0,0,1,205.367,289.123Z" transform="translate(-34.131 -288.223)" fill="#6fb2b2"/>
    </g>
    <g id="Grupo_41183" data-name="Grupo 41183" transform="translate(38.413 345.678)">
      <path id="Trazado_108706" data-name="Trazado 108706" d="M203.266,310.036c-5.1,7.775-14.876,12.368-23.441,15.251-7.805,2.631-16.668,3.46-24.865,4.3-8.643.879-17.591.583-26.294.586-11.827,0-23.65.273-35.478.226-11.55-.045-23.245-.256-34.681-1.049-6.126-.429-12.342-.435-18.425-1.068-1.415-.146-3.18,0-4.5-.6-2.588-1.169-.915-10.367-.894-12.723.041-4.595.041-9.334.065-13.841.032-6.539.082-13.078.019-19.617-.017-1.735,1.35-2.3,3.083-2.291,11.7.013,23.383.536,35.079.612,8.522.054,17.044-.157,25.562-.375,15.854-.4,31.992-1.393,47.895-.614,9.371.459,18.614,2.17,27.819,3.9,3.749.706,8.3.812,11.593,2.816,5.424,3.3,11.444,4.862,16.5,8.843a12.015,12.015,0,0,1,4.5,7.177C207.5,305.4,205.213,307.064,203.266,310.036Z" transform="translate(-34.142 -278.537)" fill="#93c9c0"/>
    </g>
    <g id="Grupo_41184" data-name="Grupo 41184" transform="translate(80.812 348.13)">
      <path id="Trazado_108707" data-name="Trazado 108707" d="M116.175,339.475c5.064.605,10.133,1.189,15.169,2,10.535,1.688,21.144,3.6,31.744,4.42,4.033.31,17.647,1.359,20.367.775,3.482-.747,4.272-2.407,4.016-5.829q-1.473-19.646-2.946-39.293a15.3,15.3,0,0,0-1.163-5.665,12.844,12.844,0,0,0-3.266-3.861c-9.291-8.074-21.824-11.565-34.11-12.325a2.025,2.025,0,0,0-2.506,2.651q.245,4.344.853,8.654a17.426,17.426,0,0,1,.241,5.331,5.306,5.306,0,0,1-3,4.16,7.732,7.732,0,0,1-2.825.347c-25.821-.05-47.137-.392-72.955-.439-2.375,0-9.467-.461-10.925,1.415-1.94,2.491-.558,17.4-.609,21.1-.028,1.966-1.077,5.762.448,7.4C56.373,332.107,108.979,338.614,116.175,339.475Z" transform="translate(-53.834 -279.676)" fill="#f9ad15"/>
    </g>
    <g id="Grupo_41185" data-name="Grupo 41185" transform="translate(103.327 253.944)">
      <path id="Trazado_108708" data-name="Trazado 108708" d="M82.744,241.9c.788-2.319,3.051-3.968.342-4.935-2.756-.984-7.2-2-9.14.736-1.387,1.951-.493,4.931-1.755,7.009-1.673,2.756-4.416,4.606-7.185,6.132-2.1,1.163.82,4.033,3.535,5.478,2.694,1.434,11.323,3.415,13.188.071C82.165,255.6,79.276,252.121,82.744,241.9Z" transform="translate(-64.29 -235.933)" fill="#ffdcc5"/>
    </g>
    <g id="Grupo_41186" data-name="Grupo 41186" transform="translate(107.067 233.604)">
      <path id="Trazado_108709" data-name="Trazado 108709" d="M79.019,227.5c-5.99,2.719-11.117,9.786-12.594,15.143-1.335,4.842.711,10.445,5.79,12.277,11.435,4.13,23.773-14.435,18.552-24.156C88.385,226.335,83.362,225.53,79.019,227.5Z" transform="translate(-66.027 -226.486)" fill="#ffdcc5"/>
    </g>
    <g id="Grupo_41187" data-name="Grupo 41187" transform="translate(118.313 220.314)">
      <path id="Trazado_108710" data-name="Trazado 108710" d="M75.283,221.583a11.061,11.061,0,0,0-3.869,4.957,3.549,3.549,0,0,0,3.579,4.507c3.49-.1,8.436-4.149,6.94-7.96C80.515,219.475,77.679,219.865,75.283,221.583Z" transform="translate(-71.25 -220.314)" fill="#2d2d2d"/>
    </g>
    <g id="Grupo_41188" data-name="Grupo 41188" transform="translate(166.264 342.996)">
      <path id="Trazado_108711" data-name="Trazado 108711" d="M98.424,277.538a25.67,25.67,0,0,1,13.08,7.954c5.1,6.117-.2,12.191-5.521,5.295-1.074-1.4-2.567-4.771-4.954-3.221-1.4.909-.336,4.054-2.907,3.583-2.347-.433-4.214-7.295-4.522-9.454C93.1,278.2,94.919,276.649,98.424,277.538Z" transform="translate(-93.52 -277.292)" fill="#ffdcc5"/>
    </g>
    <g id="Grupo_41189" data-name="Grupo 41189" transform="translate(138.271 371.609)">
      <path id="Trazado_108712" data-name="Trazado 108712" d="M82.073,308.354a9.815,9.815,0,0,1-.96-4.308c-.1-1.923-1.193-10.858-.136-12.077,1.208-1.4,3.215-.67,4.767-.678,8.447-.047,16.866-.209,25.282-.583,5.383-.239,11.072-.409,15.808,2.16,2.618,1.419,12.183,8.6,8.083,12.394-2.407,2.231-7.14,1.772-10.165,1.94-4.369.239-8.744.366-13.119.476-8.628.215-17.268.366-25.864,1.214A7.344,7.344,0,0,1,82.073,308.354Z" transform="translate(-80.519 -290.581)" fill="#2d2d2d"/>
    </g>
    <g id="Grupo_41190" data-name="Grupo 41190" transform="translate(140.005 355.353)">
      <path id="Trazado_108713" data-name="Trazado 108713" d="M113.289,291.366a56.769,56.769,0,0,0-14.924-7.334c-5.288-1.555-11.763-1.871-15.154,3.316-2,3.068-2.384,9.125-1.27,13.134a2.178,2.178,0,0,0,2.2,1.583c.751-.032,1.477-.039,2.216-.028a2.082,2.082,0,0,0,2.121-2.254c-.22-2.506-.14-5.387,1.309-7.136,1.645-1.987,4.517-2.679,6.991-2.564,3.249.149,17.419,8.94,22.449,12.523,1.507,1.074,7.57.243,4.591-2.676A69.418,69.418,0,0,0,113.289,291.366Z" transform="translate(-81.325 -283.031)" fill="#424242"/>
    </g>
    <g id="Grupo_41191" data-name="Grupo 41191" transform="translate(129.027 349.996)">
      <path id="Trazado_108714" data-name="Trazado 108714" d="M95.154,287.236c3.083,1.634,6.035,3.613,6.7,6.029a4.652,4.652,0,0,1-1.565,4.778c-6.5,5.112-12.889-5.7-17.716-8.176-2.773-1.417-8.391-4.02-5.585-7.928,2.579-3.589,9.3.7,11.918,2.17C90.463,284.983,92.844,286.013,95.154,287.236Z" transform="translate(-76.226 -280.542)" fill="#ffdcc5"/>
    </g>
    <g id="Grupo_41192" data-name="Grupo 41192" transform="translate(88.208 274.755)">
      <path id="Trazado_108715" data-name="Trazado 108715" d="M87.433,331.8c-2.588-1.606-4.752-5.066-6.552-6.989l-9.627-10.279a64.573,64.573,0,0,1-5.811-6.815C58.99,298.536,58.292,288.747,57.5,278c-.515-6.985-.276-14.151,1.977-20.843a20.067,20.067,0,0,1,5.032-8.412c8.729-8.133,14.908,1.057,14.84,10.06-.047,6.276.069,12.534.579,18.786.336,4.093-.336,8.705,1.408,12.557,3.051,6.75,8.514,12.034,13.67,17.193,2.392,2.392,4.636,5.148,7.2,7.319,2.188,1.85,6.58,4.285,3.253,7.506a47.037,47.037,0,0,1-7.868,6.55C95.277,330.105,90.271,333.557,87.433,331.8Z" transform="translate(-57.268 -245.598)" fill="#2d2d2d"/>
    </g>
    <g id="Grupo_41194" data-name="Grupo 41194" transform="translate(110.102 229.4)">
      <g id="Grupo_41193" data-name="Grupo 41193">
        <path id="Trazado_108716" data-name="Trazado 108716" d="M84.337,226.694c-4.978-3.141-13.345.127-16.119,5-1.884,3.314-.181,6.81,3.167,8.15,2.926,1.167,6.6.519,9.582-.157a21.811,21.811,0,0,0,8.6-3.686,5.847,5.847,0,0,0,.584-8.86c-2.823-3.088-7.39-2.89-11.115-2.127A30.761,30.761,0,0,0,73.268,227c-1.811.764-3.908,1.725-4.836,3.557-1.727,3.411,1.07,6.406,4.556,5.928,1.914-.267,3.746-1.921,5.557-2.633,2.024-.792,4.291-1.438,5.9-.947-.719-.22.573.594-.082.022-.6-.53-.525-1.742-.428-2.353.03-.185.911-1.3.36-.723-.325.284-.3.273.067-.037-.2.136-.4.263-.616.381a19.543,19.543,0,0,1-4.914,1.746c-.689.172-1.384.312-2.084.433-1.133.2,1.686-.157-.357.022a16.242,16.242,0,0,1-2.147.022c.659.032-.375-.093-.463-.114.474.235.532.256.179.062a2.533,2.533,0,0,1,1.173,1.531c.065.177-.11,1.658.084,1.023-.385,1.262.523-.5-.093.258,2.259-2.76,5.809-4.272,9.213-5.725,1.167-.5.9-2.181,0-2.752Z" transform="translate(-67.437 -224.534)" fill="#2d2d2d"/>
      </g>
    </g>
    <g id="Grupo_41196" data-name="Grupo 41196" transform="translate(118.646 247.626)">
      <g id="Grupo_41195" data-name="Grupo 41195">
        <path id="Trazado_108717" data-name="Trazado 108717" d="M72.068,234.884l-.136-.049a.978.978,0,1,0-.2-1.537.817.817,0,0,0-.067.08.9.9,0,0,0,.4,1.507Z" transform="translate(-71.405 -232.998)" fill="#2d2d2d"/>
      </g>
    </g>
    <g id="Grupo_41198" data-name="Grupo 41198" transform="translate(127.894 246.796)">
      <g id="Grupo_41197" data-name="Grupo 41197">
        <path id="Trazado_108718" data-name="Trazado 108718" d="M77.846,233.494a1.339,1.339,0,0,0-.327-.579,1.028,1.028,0,0,0-1.456,0,1.339,1.339,0,0,0-.327.579,1.094,1.094,0,1,0,2.11,0Z" transform="translate(-75.7 -232.613)" fill="#2d2d2d"/>
      </g>
    </g>
    <g id="Grupo_41200" data-name="Grupo 41200" transform="translate(139.67 384.775)">
      <g id="Grupo_41199" data-name="Grupo 41199">
        <path id="Trazado_108719" data-name="Trazado 108719" d="M81.53,301.113a3.912,3.912,0,0,0,2.521.754c1.412.119,2.823.265,4.237.388a66.869,66.869,0,0,0,6.722.426c3.835-.039,7.674.03,11.509.03,5.325,0,10.649-.052,15.968-.293,2.237-.1,4.476-.25,6.7-.5,1.636-.187,3.566-.278,5.006-1.154,1.755-1.066,1.15-4.22-1.1-4.059-1.557.112-3.083.558-4.636.741-2.457.291-4.933.437-7.4.564-5.467.282-10.942.362-16.416.413-3.557.034-7.114.024-10.671.1-2.81.06-5.628-.276-8.443-.258-.911.006-5.7,1.034-4,2.851Z" transform="translate(-81.169 -296.695)" fill="#424242"/>
      </g>
    </g>
    <g id="Grupo_41202" data-name="Grupo 41202" transform="translate(104.694 244.644)">
      <g id="Grupo_41201" data-name="Grupo 41201">
        <path id="Trazado_108720" data-name="Trazado 108720" d="M67.487,232.737a2,2,0,0,0-1.109.844c-.075.172-.149.351-.22.525-.151.36.209-.459.056-.153a4.033,4.033,0,0,0-.319,1.977c.03-.228.06-.456.093-.683-.024.121-.056.241-.075.366q.371-.643.747-1.285l-.013.017a3.059,3.059,0,0,0-.472,3.647,3.023,3.023,0,0,0,4.119,1.081,3.677,3.677,0,0,0,1.74-3.305,4.858,4.858,0,0,0-.523-1.94,5.06,5.06,0,0,0-.726-1.016,3.4,3.4,0,0,0-4.317-.708,3.355,3.355,0,0,0-1.537,2.73,3.487,3.487,0,0,0,1.746,2.952l-.661-.51a2.094,2.094,0,0,1,.235.224l-.51-.659a1.643,1.643,0,0,1,.207.357l-.327-.773a1.872,1.872,0,0,1,.08.31c-.039-.286-.08-.571-.116-.857a4.444,4.444,0,0,0,.592,2.114q.9-2.209,1.8-4.423l-.03.011h1.546c-.093-.03-.183-.067-.273-.1.211.088.42.174.631.265.39.325.482.4.282.228-.056-.05-.11-.1-.164-.146a3.609,3.609,0,0,0-.76-.657c-.284-.14.388.388.022.041a1.8,1.8,0,0,0-1.742-.474Z" transform="translate(-64.925 -231.613)" fill="#f7aa77"/>
      </g>
    </g>
    <g id="Grupo_41204" data-name="Grupo 41204" transform="translate(122.127 246.967)">
      <g id="Grupo_41203" data-name="Grupo 41203">
        <path id="Trazado_108721" data-name="Trazado 108721" d="M73.961,233.736c-.355,1.712-1.219,3.172-.85,4.978.456,2.235,4.044,2.235,4.5,0,.37-1.806-.5-3.266-.85-4.978a1.462,1.462,0,0,0-2.8,0Z" transform="translate(-73.021 -232.693)" fill="#f7aa77"/>
      </g>
    </g>
    <g id="Grupo_41206" data-name="Grupo 41206" transform="translate(118.915 255.406)">
      <g id="Grupo_41205" data-name="Grupo 41205">
        <path id="Trazado_108722" data-name="Trazado 108722" d="M71.545,237.882c1.311,4.1,8.277,2.483,9.5-.881.1-.286-.241-.467-.469-.357a35.218,35.218,0,0,1-3.787,2.048c-1.91.648-3.189-.166-4.677-1.249-.278-.2-.667.131-.568.439Z" transform="translate(-71.53 -236.612)" fill="#2d2d2d"/>
      </g>
    </g>
    <g id="Grupo_41208" data-name="Grupo 41208" transform="translate(116.689 442.869)">
      <g id="Grupo_41207" data-name="Grupo 41207">
        <path id="Trazado_108723" data-name="Trazado 108723" d="M73.541,329.765a3.045,3.045,0,1,0-3.045-3.045,3.074,3.074,0,0,0,3.045,3.045Z" transform="translate(-70.496 -323.676)" fill="#93c9c0"/>
      </g>
    </g>
  </g>
</svg>
