<svg xmlns="http://www.w3.org/2000/svg" width="297.306" height="151.579" viewBox="0 0 297.306 151.579">
  <g id="Grupo_39919" data-name="Grupo 39919" transform="translate(-172.22 -951.996)">
    <path id="Trazado_107478" data-name="Trazado 107478" d="M259.185,1257.055s-11.684,1.106-17.954,19.413-4.442,52.448-9.075,55.87-29.616-5.318-31.615.3,0,6.286-5.5,3.621-14.823-3.584-12.824.873-10.326,1.469-9.993,7.543h62.894s29.778-3.086,28.744-16.41-11.54-44.38-5.216-56.128a57.743,57.743,0,0,1,14.592-17.846Z" transform="translate(0 -241.101)" fill="#58a5f8"/>
    <g id="Grupo_39914" data-name="Grupo 39914" transform="translate(216.681 951.996)">
      <path id="Trazado_107479" data-name="Trazado 107479" d="M472.689,1355.083l-2.643.984s-11.48-15.922-12.894-29.931a21.279,21.279,0,0,1,.378-7.162s-.112-.641-.308-1.774c-.091-.529-.2-1.165-.33-1.895-.373-2.139-.887-5.065-1.474-8.4-1.351-7.667-3.1-17.468-4.46-24.673l.712-.229,7.706-2.486,1.593-5.058,5.738-1.51s1.282,2.507,2.428,14.352c.212,1.553.4,3.267.548,5.125a101.425,101.425,0,0,1-.546,20.748q-.395,3.088-1.008,6.368a28.412,28.412,0,0,0-.22,6.288C468.486,1337.286,472.689,1355.083,472.689,1355.083Z" transform="translate(-438.992 -1207.981)" fill="#15579f"/>
      <path id="Trazado_107480" data-name="Trazado 107480" d="M469.681,1292.43l-12.46,24.77c-.091-.529-.2-1.165-.33-1.895-.373-2.139-.887-5.065-1.474-8.4-1.351-7.667-3.1-17.468-4.46-24.673l.712-.229,7.706-2.486,1.593-5.058,5.738-1.51s1.282,2.507,2.428,14.352C469.344,1288.859,469.536,1290.572,469.681,1292.43Z" transform="translate(-438.992 -1207.981)" fill="#94b0ed"/>
      <path id="Trazado_107481" data-name="Trazado 107481" d="M418.829,1264.781l-.288-2.473c-4.832,1.283-17.744-3.586-17.744-3.586s-4.681,4.115-4.067,13.979c.3,4.815.848,25.273,1.421,31.327.207,2.194.388,3.756.462,4.379a.012.012,0,0,1,0,.006.867.867,0,0,1-.141.536,28.413,28.413,0,0,0-2.113,4.443c-5.618,14.969.865,33.4.865,33.4l1.682-.678s3.689-20.516,6.687-29.579a17.947,17.947,0,0,1,1.444-3.467,39.16,39.16,0,0,0,3.611-9.628,236.794,236.794,0,0,0,4.856-25.543C415.659,1277.906,418.829,1264.781,418.829,1264.781Z" transform="translate(-393.621 -1196.63)" fill="#15579f"/>
      <path id="Trazado_107482" data-name="Trazado 107482" d="M575.779,1140.2l-.36,2.42s-.16,0-.44-.02c-.88-.06-3.021-.18-5.441-.44-3.64-.36-7.961-1-9.681-2.06-2.62-1.6-6.921-6.5-9.721-11.4a3.142,3.142,0,0,1-.2-.36,17.594,17.594,0,0,1-2.56-7.241,10.337,10.337,0,0,1,.34-3.281,8.374,8.374,0,0,1,1.48-2.96,1.5,1.5,0,0,1,.28-.34,6.907,6.907,0,0,1,1.9-1.62c.48-.2,1,.04,1.54.62v.02a9.161,9.161,0,0,1,1.38,2.04c.02.02.04.04.04.06.1.18.2.38.32.6a.506.506,0,0,1,.08.14q.33.69.66,1.44c2.46,5.361,5.08,13.482,7.261,15.9.94,1.04,5.241,3.081,8.661,4.6C573.778,1139.4,575.779,1140.2,575.779,1140.2Z" transform="translate(-515.882 -1080.273)" fill="#ffb27d"/>
      <path id="Trazado_107483" data-name="Trazado 107483" d="M498.538,1069.589a15.048,15.048,0,0,1-5.565,1.3c-8.308.455-10.194-6.828-10.537-11.661a6.967,6.967,0,0,1,2.851-.36c.589.032,1.2.093,1.711.155,1.016-.531,2.842-3.109,3.9-7.423l.358.166,5.994,2.818s-.636,1.95-1.107,3.817c-.367,1.461-.63,2.872-.41,3.267.472.192.755.313.755.313a.019.019,0,0,0,0,.006A41.137,41.137,0,0,1,498.538,1069.589Z" transform="translate(-464.099 -1031.439)" fill="#ffb27d"/>
      <path id="Trazado_107484" data-name="Trazado 107484" d="M447.09,1103.048c-.063.166-.132.328-.207.494-2.1,4.531-6,23.3-6,23.3.555,3.375-25.364-.662-25.431-3.735-.913-3.258,3.239-8.493,5.58-11.119a7.471,7.471,0,0,0,.785-1.057,7.369,7.369,0,0,0,1.062-3.1,107.025,107.025,0,0,0,.324-10.921h0c.457-.339.9-.652,1.312-.949a11.735,11.735,0,0,0,1.6-1.325,2.417,2.417,0,0,0,.766-1.508,8.033,8.033,0,0,0-.032-1.265c-.019-.2-.045-.4-.076-.6a17.148,17.148,0,0,0-1.2-4.02c2.229-.9,6.193-.365,6.193-.365s0,.22-.007.58c-.013,1.448,0,5.166.464,5.869.58.876,11.2,4.715,11.76,3.526.552-1.169-.96-6.648-1.016-6.856a.018.018,0,0,1,0-.006,16.748,16.748,0,0,1,4.827,2.568C445.644,1093.951,448.747,1098.652,447.09,1103.048Z" transform="translate(-410.573 -1059.448)" fill="#ffc74a"/>
      <path id="Trazado_107485" data-name="Trazado 107485" d="M501.632,956.44c-.013-.36-.292-4.241-6.2-4.444,0,0,2.907.347,3.409,1.625,0,0-1.979-1.579-3.591-1.071s-2.559,3.332-2.568,4.261.886,3.923,1.909,4.178a3.12,3.12,0,0,0,1.239,0,13.878,13.878,0,0,0-.794,1.417c-2.359,4.842.074,9.575,2.071,9.052,1.281-.336,1.643,1.85,1.643,1.85l12.443-10.074S506.619,953.779,501.632,956.44Z" transform="translate(-472.267 -951.996)" fill="#2c3a64"/>
      <path id="Trazado_107486" data-name="Trazado 107486" d="M531.985,1055.248s-.637,1.949-1.107,3.817c-3.5-.977-4.568-4.661-4.888-6.635Z" transform="translate(-498.836 -1032.099)" fill="#ed985f"/>
      <path id="Trazado_107487" data-name="Trazado 107487" d="M530.768,1016.474s-8.383-1.94-7.094-7.142,1.074-8.956,6.481-7.937,5.951,3.26,5.943,5.1S532.982,1016.845,530.768,1016.474Z" transform="translate(-496.881 -991.262)" fill="#ffb27d"/>
      <path id="Trazado_107488" data-name="Trazado 107488" d="M528.267,999.808c-.9-1.885-1.962-1.785-2.626-1.451a6.014,6.014,0,0,0-7.8-.667,10.237,10.237,0,0,1-4.71,5.06s1.288,1.319,5.02,1.29a6.145,6.145,0,0,0,3.33-1.254,20.062,20.062,0,0,1-4.371,3.26c4.673-.894,7.806-6.3,8.127-6.878a6.745,6.745,0,0,1,1.217,2.879c.087,1.428-.4,4.2.413,4.306C526.864,1006.354,529.618,1002.635,528.267,999.808Z" transform="translate(-488.579 -987.526)" fill="#2c3a64"/>
      <path id="Trazado_107489" data-name="Trazado 107489" d="M570.3,1115.567s2.018,3.521,2.32,4.427c0,0-2.617-.1-3.675,1.913C568.946,1121.907,568.692,1116.042,570.3,1115.567Z" transform="translate(-533.085 -1082.455)" fill="#ffc74a"/>
      <path id="Trazado_107490" data-name="Trazado 107490" d="M459.494,1151.737c-5.112-.054-9.441-5.362-12.086-9.6a7.37,7.37,0,0,0,1.062-3.1,107.025,107.025,0,0,0,.323-10.921h0c.458-.339.9-.651,1.312-.949a11.747,11.747,0,0,0,1.6-1.325C455.888,1132.914,466.425,1151.81,459.494,1151.737Z" transform="translate(-436.162 -1090.647)" fill="#ffc74a"/>
      <path id="Trazado_107491" data-name="Trazado 107491" d="M405.237,1671.029H391.925a7.31,7.31,0,0,1,.376-3.568c.666-1.477,1.71-2.148,1.46-3.935a4.794,4.794,0,0,0,4.149,1.587,14.609,14.609,0,0,0,2.31,2.994C401.09,1668.732,404.969,1668.509,405.237,1671.029Z" transform="translate(-391.852 -1519.489)" fill="#233862"/>
      <path id="Trazado_107492" data-name="Trazado 107492" d="M546.169,1673.381H532.856a5.534,5.534,0,0,1,.376-3.568,2.566,2.566,0,0,0-.1-3.064,5.17,5.17,0,0,0,2.242.422,4.683,4.683,0,0,0,1.98-.7,47.887,47.887,0,0,0,3.793,3.984C542.021,1671.084,545.9,1670.862,546.169,1673.381Z" transform="translate(-504.2 -1521.842)" fill="#233862"/>
      <path id="Trazado_107493" data-name="Trazado 107493" d="M483.119,1125.873l-.536,2.066s-6.648-1.394-8.108-1.714h-.02c-2.5-.6-5.3-1.32-7.661-2.12a21.06,21.06,0,0,1-4.08-1.82,2.474,2.474,0,0,1-.28-.2c-2.34-1.7-5.12-6.7-7.281-12.061-.3-.74-.58-1.48-.86-2.2a54.689,54.689,0,0,1-2.28-7.6,21.482,21.482,0,0,1-.54-3.62,8.883,8.883,0,0,1-.02-1.02c.04-5.8,2.92-6.6,2.92-6.6.06-.02.12-.04.2-.06.5-.08,1.02.26,1.56.92a18.161,18.161,0,0,1,2.14,3.78c1.14,2.58,2.34,5.921,3.46,9.241.62,1.82,1.22,3.64,1.82,5.32.34,1.02.68,1.98,1,2.86a27.548,27.548,0,0,0,1.68,3.9,9.685,9.685,0,0,0,2.46,2.22C470.815,1118.7,483.119,1125.873,483.119,1125.873Z" transform="translate(-439.381 -1061.193)" fill="#ffb27d"/>
      <path id="Trazado_107494" data-name="Trazado 107494" d="M458.271,1093.67c-3.851-1.062-6.821,1.945-6.821,1.945.048-5.791,2.931-6.584,2.931-6.584C455.541,1088.551,456.885,1090.559,458.271,1093.67Z" transform="translate(-439.385 -1061.234)" fill="#ffc74a"/>
    </g>
    <path id="Trazado_107495" data-name="Trazado 107495" d="M1047.993,1360.134c.114.319-47.516,24.476-47.516,24.476a21.276,21.276,0,0,0,13.2.9c7.707-1.784,37.269-18.791,37.269-18.791Z" transform="translate(-660.592 -325.518)" fill="#2a4e96"/>
    <path id="Trazado_107496" data-name="Trazado 107496" d="M682.113,1269.857s-15.8,25.448-57.971-21.076a6,6,0,0,0-5.917-1.8l-16.4,4.1a3.091,3.091,0,0,1,2.174.665,4.242,4.242,0,0,1,.862,1.521c3.386,9.443,16.055,41.079,36.593,49.824,24.234,10.319,49.923,4.358,69.138-33.234Z" transform="translate(-342.636 -235.127)" fill="#58a5f8"/>
    <g id="Grupo_39918" data-name="Grupo 39918" transform="translate(385.007 984.256)">
      <path id="Trazado_107497" data-name="Trazado 107497" d="M1414.761,1345.471c-.037.068-.078.137-.117.208-.934,1.624-3.078,5.6-5.439,9.958-1.117,2.066-2.286,4.217-3.4,6.241-1.911,3.492-3.65,6.6-4.664,8.247-1.032,1.672-1.791,2.845-2.1,3.315l0,0a.778.778,0,0,0-.1.485,25.32,25.32,0,0,1-.068,4.38,33.6,33.6,0,0,1-10.977,21.76l-2.84.42s4.02-14.892,5.2-23.311a16.186,16.186,0,0,0,.217-3.338,34.867,34.867,0,0,1,.917-9.111,204.086,204.086,0,0,1,5.809-21.09c.132-.412,4.127-14.862,4.127-14.862,3.353,2.931,15.582,4.14,15.582,4.14S1418.988,1337.953,1414.761,1345.471Z" transform="translate(-1352.329 -1284.76)" fill="#f99746"/>
      <path id="Trazado_107498" data-name="Trazado 107498" d="M1355.608,1674.8h11.855a6.512,6.512,0,0,0-.335-3.178c-.594-1.315-1.439-1.357-.108-3.419-.753.776-3.175,1.1-4.889.866a14.514,14.514,0,0,1-2.055,3.129C1359.3,1672.751,1355.847,1672.553,1355.608,1674.8Z" transform="translate(-1328.84 -1555.478)" fill="#233862"/>
      <path id="Trazado_107499" data-name="Trazado 107499" d="M1498.431,1383.72c-.037.067-.078.137-.117.207-.934,1.624-5.988,10.957-8.348,15.312a63.135,63.135,0,0,0,.833-22.51Z" transform="translate(-1435.998 -1323.009)" fill="#ed7d2b"/>
      <path id="Trazado_107500" data-name="Trazado 107500" d="M1305.71,1116.473s-.469-5.115,5.246-5.115a6.715,6.715,0,0,0-2.628,1.409,6.759,6.759,0,0,1,7.613,1.148c3.967,3.289,1.5,11.536,2.708,13.1s5.9,1.879,5.33,6.942-14.91,11.405-13.989,15.594c0,0-5.618-8.258-1.6-12.027a7.443,7.443,0,0,0-2.157,4.037s-.531-4.28,2.192-5.649c2.41-1.212,4.385-5.642,4.176-6.435S1305.71,1116.473,1305.71,1116.473Z" transform="translate(-1289.035 -1111.357)" fill="#2c3a64"/>
      <path id="Trazado_107501" data-name="Trazado 107501" d="M1256.386,1242.739s-8.132,20.52-9.884,19.76-12.079-4.04-12.079-4.04l-.679,2.514s9.828,7.573,14.884,7.9,11.906-14.568,11.906-14.568Z" transform="translate(-1231.644 -1216.143)" fill="#ffb27d"/>
      <g id="Grupo_39917" data-name="Grupo 39917" transform="translate(0 38.613)">
        <g id="Grupo_39915" data-name="Grupo 39915" transform="translate(3.383 25.226)">
          <path id="Trazado_107502" data-name="Trazado 107502" d="M1245.454,1427.948a10.234,10.234,0,1,1-4.137,13.87A10.246,10.246,0,0,1,1245.454,1427.948Zm7.84,14.505a6.254,6.254,0,1,0-8.475-2.528A6.261,6.261,0,0,0,1253.293,1442.453Z" transform="translate(-1240.087 -1426.719)" fill="#2a4e96"/>
        </g>
        <g id="Grupo_39916" data-name="Grupo 39916">
          <path id="Trazado_107503" data-name="Trazado 107503" d="M1223.658,1309.946a10.234,10.234,0,1,1,7.556,12.344A10.246,10.246,0,0,1,1223.658,1309.946Zm3.87.931a6.254,6.254,0,1,0,7.543-4.617A6.261,6.261,0,0,0,1227.528,1310.877Z" transform="translate(-1223.373 -1302.105)" fill="#2a4e96"/>
        </g>
      </g>
      <path id="Trazado_107504" data-name="Trazado 107504" d="M1288.1,1132.746c-.078-.312,6.771,3.1,7.118,3.481,3.212,3.563,2.3,8.212.458,8.257-1.179.028-.95,1.988-.95,1.988l-13.131-5.555S1283.181,1131.7,1288.1,1132.746Z" transform="translate(-1269.813 -1128.35)" fill="#2c3a64"/>
      <path id="Trazado_107505" data-name="Trazado 107505" d="M1328.643,1244.852s-1.749,1.811-1.749,7.231c0,0,2.409,3.8,8.659,4.766C1335.553,1256.849,1330.18,1244.849,1328.643,1244.852Z" transform="translate(-1305.938 -1217.828)" fill="#aec3ff"/>
      <path id="Trazado_107506" data-name="Trazado 107506" d="M1485.972,1324.047l-.04-2.218c4.418.557,15.232-5.279,15.232-5.279s4.622,3.074,5.255,11.853c.309,4.285,2.262,22.406,2.478,27.817.079,1.961.105,3.361.114,3.92a.012.012,0,0,0,0,.005.769.769,0,0,0,.188.456,25.306,25.306,0,0,1,2.394,3.669c6.741,12.542,3.216,29.584,3.216,29.584l-1.565-.4s-5.7-17.667-9.425-25.309a16,16,0,0,0-1.687-2.888,34.852,34.852,0,0,1-4.334-8.068C1495.045,1350.62,1485.972,1324.047,1485.972,1324.047Z" transform="translate(-1432.782 -1275.013)" fill="#f99746"/>
      <path id="Trazado_107507" data-name="Trazado 107507" d="M1582.007,1674.459h11.855a6.508,6.508,0,0,0-.335-3.178c-.593-1.315-1.522-1.913-1.3-3.5a4.27,4.27,0,0,1-3.7,1.414,13,13,0,0,1-2.057,2.667C1585.7,1672.414,1582.245,1672.215,1582.007,1674.459Z" transform="translate(-1509.408 -1555.14)" fill="#233862"/>
      <path id="Trazado_107508" data-name="Trazado 107508" d="M1343.243,1231c1.593.272-.26,1.537,1.93,1.775,3.117.34,6.336.573,8.022,1.245a1.811,1.811,0,0,1,1.155.935c.731,2.2,3.951,5.589,3.951,5.589,20.643-.94,22.91-9.574,22.91-9.574-13.4-13.012-25.716-20.685-35.123-21.7-1.61-.174-3.645.848-5.1,1.493-3.295,1.467-5.46,5.694-5.46,5.694S1337.192,1229.968,1343.243,1231Z" transform="translate(-1312.828 -1189.433)" fill="#d268cc"/>
      <path id="Trazado_107509" data-name="Trazado 107509" d="M1383.155,1259.3c3.117.34,6.336.573,8.022,1.245a32.875,32.875,0,0,0-4.17-18.04S1383.838,1255.4,1383.155,1259.3Z" transform="translate(-1350.81 -1215.956)" fill="#94b0ed"/>
      <path id="Trazado_107510" data-name="Trazado 107510" d="M1345.117,1233.858s7.839-.428,9.232,4.493-2.614,24.567-3.477,26.595c-1.572,3.691-9.224,14.227-9.224,14.227l-2.814-.857s5.1-16.1,6.241-17.688C1346.865,1258.128,1342.771,1236,1345.117,1233.858Z" transform="translate(-1315.462 -1209.052)" fill="#ffb27d"/>
      <path id="Trazado_107511" data-name="Trazado 107511" d="M1327.958,1452.167a4.431,4.431,0,0,1-.672,1.892c-.527.644-2.062,2.2-2.089,3.116,0,0,.077.405.406.331s1.472-1.205,2.058-1.124a11.364,11.364,0,0,1-.623,2.344,6.712,6.712,0,0,0,.123,3.144c.186.445,2.473-2.387,3.413-3.651s.015-6.4.015-6.4Z" transform="translate(-1304.584 -1382.903)" fill="#ffb27d"/>
      <path id="Trazado_107512" data-name="Trazado 107512" d="M1370.473,1239.2c-.02.115-7.418,1.361-12.046-.988,0,0-3.865-12.11,1.659-11.531s8.8,2.32,8.934,4.964A50.933,50.933,0,0,0,1370.473,1239.2Z" transform="translate(-1330.04 -1203.324)" fill="#d268cc"/>
      <path id="Trazado_107513" data-name="Trazado 107513" d="M1227.1,1315.409s-2.033-.421-2.782.641-.25,4.247,1.125,4.122,1.505-2.124,1.658-2.873A7.126,7.126,0,0,0,1227.1,1315.409Z" transform="translate(-1223.853 -1274.037)" fill="#ffb27d"/>
      <path id="Trazado_107514" data-name="Trazado 107514" d="M1329,1200.512s-2.18,8.132-5.46,5.694a6.719,6.719,0,0,0-1.154-2.693c-.862-1.482-1.889-3-1.889-3l4.437-3.887.265-.233A11.717,11.717,0,0,0,1329,1200.512Z" transform="translate(-1300.839 -1179.183)" fill="#ffb27d"/>
      <path id="Trazado_107515" data-name="Trazado 107515" d="M1320.5,1201.435s1.026,1.511,1.888,2.994c2.758-1.7,2.761-5.114,2.548-6.883Z" transform="translate(-1300.841 -1180.099)" fill="#ed985f"/>
      <path id="Trazado_107516" data-name="Trazado 107516" d="M1291.4,1172.145s6.7-3.726,4.311-7.86-3.126-7.4-7.5-5.2-4.289,4.256-3.829,5.83S1289.6,1173.007,1291.4,1172.145Z" transform="translate(-1271.865 -1148.86)" fill="#ffb27d"/>
      <path id="Trazado_107517" data-name="Trazado 107517" d="M1279.455,1160.3c.307-1.835,1.239-2.011,1.889-1.888a5.355,5.355,0,0,1,6.513-2.494,9.116,9.116,0,0,0,5.278,3.17s-.777,1.446-3.979,2.341a5.474,5.474,0,0,1-3.158-.253,17.867,17.867,0,0,0,4.544,1.713c-4.219.386-8.233-3.471-8.65-3.884a6.008,6.008,0,0,0-.332,2.764c.278,1.243,1.381,3.5.708,3.786C1282.268,1165.557,1278.995,1163.053,1279.455,1160.3Z" transform="translate(-1268.067 -1146.653)" fill="#2c3a64"/>
    </g>
    <path id="Trazado_107518" data-name="Trazado 107518" d="M1044.77,1411.607c.028-.337-52.2-11.471-52.2-11.471a21.276,21.276,0,0,1,12.528-4.258c7.906-.252,40.843,8.6,40.843,8.6Z" transform="translate(-654.282 -354.022)" fill="#2a4e96"/>
    <path id="Trazado_107519" data-name="Trazado 107519" d="M1142.524,1421.94a1.142,1.142,0,1,1-1.128,1.157A1.143,1.143,0,0,1,1142.524,1421.94Z" transform="translate(-772.984 -374.812)" fill="#f99746"/>
    <path id="Trazado_107520" data-name="Trazado 107520" d="M590.217,1267.8a32.79,32.79,0,0,1,4.04,1.833,8.4,8.4,0,0,1,2.14,3.076s-.012.363-.349.362-1.1-1.3-1.65-1.089a11.359,11.359,0,0,0,1.12,2.151,6.7,6.7,0,0,1,.567,3.095c-.085.475-2.935-1.788-4.129-2.817-.636-.547-.617-1.877-.814-3.378-.173-1.317-3.808-2.079-3.808-2.079Z" transform="translate(-331.083 -251.874)" fill="#ffb27d"/>
  </g>
</svg>
