<svg xmlns="http://www.w3.org/2000/svg" width="220.733" height="134.849" viewBox="0 0 220.733 134.849">
  <g id="Grupo_41943" data-name="Grupo 41943" transform="translate(-299.792 -842.349)">
    <g id="Grupo_41940" data-name="Grupo 41940" transform="translate(299.792 842.349)">
      <rect id="Rectángulo_32128" data-name="Rectángulo 32128" width="187.963" height="3.696" transform="translate(15.693 3.619)" fill="#e8b491"/>
      <path id="Trazado_109567" data-name="Trazado 109567" d="M1647.381,969.816h-3.835V844.267a1.918,1.918,0,0,1,1.918-1.918h0a1.918,1.918,0,0,1,1.918,1.918Z" transform="translate(-1440.423 -842.349)" fill="#ce8d6a"/>
      <path id="Trazado_109568" data-name="Trazado 109568" d="M394.754,969.74h-3.835V844.267a1.918,1.918,0,0,1,1.918-1.918h0a1.918,1.918,0,0,1,1.918,1.918Z" transform="translate(-377.144 -842.349)" fill="#ce8d6a"/>
      <path id="Trazado_109569" data-name="Trazado 109569" d="M1581.886,1680.152h-27.55a1.918,1.918,0,0,1-1.917-1.918h0a1.918,1.918,0,0,1,1.917-1.918h27.55a1.918,1.918,0,0,1,1.918,1.918h0A1.918,1.918,0,0,1,1581.886,1680.152Z" transform="translate(-1363.071 -1550.254)" fill="#ce8d6a"/>
      <path id="Trazado_109570" data-name="Trazado 109570" d="M329.259,1680.152H301.71a1.918,1.918,0,0,1-1.918-1.918h0a1.918,1.918,0,0,1,1.918-1.918h27.55a1.918,1.918,0,0,1,1.918,1.918h0A1.918,1.918,0,0,1,329.259,1680.152Z" transform="translate(-299.792 -1550.254)" fill="#ce8d6a"/>
    </g>
    <g id="Grupo_41941" data-name="Grupo 41941" transform="translate(491.398 972.247)">
      <path id="Trazado_109571" data-name="Trazado 109571" d="M1702.1,1701.69h-2.267a2.475,2.475,0,1,0,0,4.95h2.267a2.475,2.475,0,1,0,0-4.95Z" transform="translate(-1677.706 -1701.69)" fill="#233862"/>
      <circle id="Elipse_1041" data-name="Elipse 1041" cx="2.192" cy="2.192" r="2.192" transform="translate(22.202 0.283)" fill="#e8b491"/>
      <path id="Trazado_109572" data-name="Trazado 109572" d="M1572.1,1701.69h-2.267a2.475,2.475,0,1,0,0,4.95h2.267a2.475,2.475,0,1,0,0-4.95Z" transform="translate(-1567.357 -1701.69)" fill="#233862"/>
      <circle id="Elipse_1042" data-name="Elipse 1042" cx="2.192" cy="2.192" r="2.192" transform="translate(2.551 0.283)" fill="#e8b491"/>
    </g>
    <g id="Grupo_41942" data-name="Grupo 41942" transform="translate(302.05 972.247)">
      <path id="Trazado_109573" data-name="Trazado 109573" d="M449.473,1701.69h-2.267a2.475,2.475,0,1,0,0,4.95h2.267a2.475,2.475,0,1,0,0-4.95Z" transform="translate(-425.079 -1701.69)" fill="#233862"/>
      <circle id="Elipse_1043" data-name="Elipse 1043" cx="2.192" cy="2.192" r="2.192" transform="translate(22.202 0.283)" fill="#e8b491"/>
      <path id="Trazado_109574" data-name="Trazado 109574" d="M319.473,1701.69h-2.267a2.475,2.475,0,1,0,0,4.95h2.267a2.475,2.475,0,1,0,0-4.95Z" transform="translate(-314.73 -1701.69)" fill="#233862"/>
      <circle id="Elipse_1044" data-name="Elipse 1044" cx="2.192" cy="2.192" r="2.192" transform="translate(2.551 0.283)" fill="#e8b491"/>
    </g>
    <path id="Trazado_109575" data-name="Trazado 109575" d="M510.378,877.477c-3.976-2.546-11.82-6.8-20.124-7.06v-7.109c0-.767-.373-2.24-1.785-2.326a2,2,0,0,1-1.411-.724,2.284,2.284,0,0,1-.569-1.589,2.5,2.5,0,0,1,2.62-2.45,1.4,1.4,0,0,1,1.134.6h1.268a2.6,2.6,0,0,0-2.4-1.688,3.568,3.568,0,0,0-3.706,3.44,3.372,3.372,0,0,0,.827,2.4,3.1,3.1,0,0,0,2.173,1.1c.742.045.76,1.19.76,1.237v7.1c-7.945.1-15.724,4.148-19.714,6.592a2.076,2.076,0,0,0,1.09,3.844h38.854a1.826,1.826,0,0,0,.985-3.364Zm-.822,1.585a.153.153,0,0,1-.164.122H470.538a.4.4,0,0,1-.405-.308.389.389,0,0,1,.181-.467c3.894-2.386,11.519-6.351,19.171-6.351l.309,0c8.054.114,15.794,4.317,19.691,6.812A.152.152,0,0,1,509.556,879.062Z" transform="translate(-143.171 -10.847)" fill="#ce8d6a"/>
    <path id="Trazado_109576" data-name="Trazado 109576" d="M1154.378,874.558c-3.976-2.546-11.82-6.8-20.124-7.061v-7.109c0-.767-.373-2.24-1.785-2.325a2,2,0,0,1-1.411-.724,2.285,2.285,0,0,1-.569-1.589,2.5,2.5,0,0,1,2.62-2.449,1.6,1.6,0,0,1,1.409,1.038h1.181c-.66-1.753-1.768-2.129-2.59-2.129a3.568,3.568,0,0,0-3.706,3.44,3.371,3.371,0,0,0,.827,2.4,3.1,3.1,0,0,0,2.173,1.1c.742.045.76,1.19.76,1.237v7.1c-7.945.1-15.724,4.148-19.714,6.592a2.076,2.076,0,0,0,1.09,3.844h38.855a1.826,1.826,0,0,0,.985-3.364Zm-.822,1.585a.153.153,0,0,1-.163.122h-38.855a.4.4,0,0,1-.405-.308.39.39,0,0,1,.181-.467c3.894-2.386,11.519-6.351,19.171-6.351l.309,0c8.054.114,15.794,4.317,19.691,6.812A.152.152,0,0,1,1153.556,876.143Z" transform="translate(-689.823 -8.37)" fill="#ce8d6a"/>
    <path id="Trazado_109577" data-name="Trazado 109577" d="M1236.874,874.558c-3.976-2.546-11.82-6.8-20.125-7.061v-7.109c0-.767-.373-2.24-1.785-2.325a2,2,0,0,1-1.411-.724,2.284,2.284,0,0,1-.569-1.589,2.5,2.5,0,0,1,2.62-2.449,1.6,1.6,0,0,1,1.409,1.038h1.181c-.66-1.753-1.768-2.129-2.59-2.129a3.568,3.568,0,0,0-3.705,3.44,3.37,3.37,0,0,0,.827,2.4,3.1,3.1,0,0,0,2.173,1.1c.742.045.76,1.19.76,1.237v7.1c-7.945.1-15.724,4.148-19.714,6.592a2.076,2.076,0,0,0,1.09,3.844h38.855a1.826,1.826,0,0,0,.985-3.364Zm-.822,1.585a.153.153,0,0,1-.163.122h-38.855a.4.4,0,0,1-.405-.308.39.39,0,0,1,.181-.467c3.894-2.386,11.519-6.351,19.171-6.351l.309,0c8.054.114,15.794,4.317,19.691,6.812A.152.152,0,0,1,1236.052,876.143Z" transform="translate(-759.849 -8.37)" fill="#ce8d6a"/>
    <path id="Trazado_109578" data-name="Trazado 109578" d="M1100.236,972.337a22.735,22.735,0,0,0,14.778,5.071c8.724-.327,12.869-4.69,12.869-4.69s6.871,3.49,8.289,5.453,2.072,22.03,2.072,22.03a19.982,19.982,0,0,1-6.871,1.2l-1.418-4.253,4.3,71.342s-5.315.218-8.514-1.616c-3.083-1.767-7.726.587-11.871,1.144s-6.524-2.6-10.6-1.289a22.879,22.879,0,0,1-11.269.873l6.538-70.658-1.771,4.133s-6.075,0-8.038-2.074c0,0,2.327-21.339,3.635-22.648S1100.236,972.337,1100.236,972.337Z" transform="translate(-669.682 -110.339)" fill="#80bdcc"/>
    <path id="Trazado_109579" data-name="Trazado 109579" d="M1182.733,971.337a22.734,22.734,0,0,0,14.778,5.071c8.725-.327,12.869-4.689,12.869-4.689s6.871,3.49,8.289,5.453,2.072,22.03,2.072,22.03a19.982,19.982,0,0,1-6.871,1.2l-1.418-4.253,4.531,81.42s-5.549.722-8.748-1.113c-3.083-1.768-7.726.587-11.871,1.144s-6.524-1.087-10.6.222a22.88,22.88,0,0,1-11.269.873l6.538-82.751-1.771,4.133s-6.075,0-8.038-2.074c0,0,2.327-21.339,3.635-22.648S1182.733,971.337,1182.733,971.337Z" transform="translate(-739.708 -109.49)" fill="#233862"/>
    <path id="Trazado_109580" data-name="Trazado 109580" d="M456.236,975.255a22.734,22.734,0,0,0,14.778,5.071c8.725-.327,12.869-4.69,12.869-4.69s6.871,3.49,8.289,5.453,2.072,22.03,2.072,22.03a19.984,19.984,0,0,1-6.871,1.2l.316-3.995,2.563,71.083s-5.315.218-8.514-1.616c-3.083-1.768-7.727.586-11.871,1.144s-6.524-2.6-10.6-1.29a22.88,22.88,0,0,1-11.269.873l6.538-70.658-1.771,4.133s-6.075,0-8.039-2.074c0,0,2.327-21.339,3.635-22.648S456.236,975.255,456.236,975.255Z" transform="translate(-123.029 -112.816)" fill="#a8d29f"/>
    <path id="Trazado_109581" data-name="Trazado 109581" d="M704.274,877.477a52.943,52.943,0,0,0-7.261-3.894,43.47,43.47,0,0,0-4.327-1.631,31.67,31.67,0,0,0-8.535-1.538h0v-7.106c0-.767-.373-2.24-1.785-2.326a2.005,2.005,0,0,1-1.411-.724,2.284,2.284,0,0,1-.569-1.589,2.5,2.5,0,0,1,2.62-2.45,1.4,1.4,0,0,1,1.134.6h1.268a2.6,2.6,0,0,0-2.4-1.688,3.568,3.568,0,0,0-3.706,3.44,3.371,3.371,0,0,0,.827,2.4,3.1,3.1,0,0,0,2.173,1.1c.742.045.76,1.19.76,1.237v7.1a31.423,31.423,0,0,0-9.5,1.753c-1.376.463-2.692.984-3.922,1.529A54.543,54.543,0,0,0,663.347,877a2.075,2.075,0,0,0,1.088,3.843h38.856a1.825,1.825,0,0,0,.984-3.363Zm-.82,1.586a.154.154,0,0,1-.164.122H664.435a.4.4,0,0,1-.405-.31.392.392,0,0,1,.183-.467,52.416,52.416,0,0,1,6.116-3.215c1.219-.541,2.526-1.058,3.889-1.509a29.444,29.444,0,0,1,9.166-1.625c.1,0,.2,0,.307,0a29.831,29.831,0,0,1,8.457,1.455,42.839,42.839,0,0,1,4.731,1.819,52.018,52.018,0,0,1,6.5,3.538A.152.152,0,0,1,703.454,879.062Z" transform="translate(-307.758 -10.847)" fill="#ce8d6a"/>
    <path id="Trazado_109582" data-name="Trazado 109582" d="M849.6,877.643a54.522,54.522,0,0,0-6.291-3.311c-1.23-.545-2.545-1.067-3.922-1.529a31.434,31.434,0,0,0-9.5-1.754v-7.1c0-.047.018-1.192.76-1.237a3.1,3.1,0,0,0,2.173-1.1,3.372,3.372,0,0,0,.827-2.4,3.568,3.568,0,0,0-3.706-3.44,2.571,2.571,0,0,0-2.354,1.59h1.3a1.369,1.369,0,0,1,1.053-.5,2.5,2.5,0,0,1,2.62,2.45,2.284,2.284,0,0,1-.569,1.589,2,2,0,0,1-1.411.724c-1.412.086-1.785,1.559-1.785,2.326v7.106h0a31.672,31.672,0,0,0-8.535,1.538,43.452,43.452,0,0,0-4.327,1.631,52.969,52.969,0,0,0-7.261,3.893,1.825,1.825,0,0,0,.984,3.363h38.856a2.075,2.075,0,0,0,1.088-3.843Zm-.683,1.878a.4.4,0,0,1-.406.31H809.659a.154.154,0,0,1-.164-.122.152.152,0,0,1,.072-.19,52.053,52.053,0,0,1,6.5-3.538,42.889,42.889,0,0,1,4.731-1.819,29.829,29.829,0,0,1,8.457-1.455c.1,0,.2,0,.307,0a29.446,29.446,0,0,1,9.166,1.625c1.363.452,2.67.969,3.889,1.509a52.466,52.466,0,0,1,6.116,3.215A.392.392,0,0,1,848.92,879.521Z" transform="translate(-431.243 -11.396)" fill="#ce8d6a"/>
    <path id="Trazado_109583" data-name="Trazado 109583" d="M650.307,1048.816a6.361,6.361,0,0,0,6.506,1.481,12.692,12.692,0,0,1,8.868.511c4.648,2.9,9.731,3.194,11.851-.509,1.415-2.471,5.889,2.617,15.164.7,0,0-7.665-46.8-7.883-52.349s4.537-12.1,1.483-23.12c0,0-.013-.076-.033-.216-.041-.306-.116-.912-.164-1.656a13.961,13.961,0,0,1,.214-3.991,3.611,3.611,0,0,1,.691-1.507c-1.23-.545-2.545-1.067-3.922-1.529-.17.4-.393.925-.659,1.527-.668,1.507-1.616,3.522-2.716,5.5-.309.558-.632,1.115-.966,1.656-1.734,2.829-3.719,5.235-5.534,5.451,0,0-2.386-.321-5.4-5.451-.3-.5-.6-1.054-.905-1.656a48.6,48.6,0,0,1-2.408-5.669c-.179-.5-.36-1.023-.539-1.564a43.493,43.493,0,0,0-4.327,1.631,2.22,2.22,0,0,0-.161.275s.148.571.3,1.477a21.615,21.615,0,0,1,.292,3.85,15.247,15.247,0,0,1-.122,1.656c-.009.072-.02.144-.031.216,0,0-1.424,2.76-.988,7.777s2.475,10.137,2.33,15.338C661.051,1005.631,650.525,1040.31,650.307,1048.816ZM685.4,976.1c.353-.222.613-.388.759-.482C686.013,975.716,685.754,975.884,685.4,976.1Z" transform="translate(-297.531 -105.32)" fill="#fc7972"/>
    <path id="Trazado_109584" data-name="Trazado 109584" d="M799.782,1041.9a6.361,6.361,0,0,0,6.506,1.481,12.686,12.686,0,0,1,8.868.511c4.649,2.9,9.731,3.194,11.851-.509,1.415-2.471,5.889,2.617,15.164.7,0,0-9.423-39.248-9.641-44.8s6.294-12.1,3.241-23.115c0,0-.013-.076-.033-.216-.041-.305-.116-.912-.164-1.656a13.965,13.965,0,0,1,.214-3.991,3.611,3.611,0,0,1,.691-1.507c-1.23-.545-2.545-1.067-3.922-1.529-.17.4-.393.925-.659,1.527-.668,1.507-1.616,3.522-2.716,5.5-.309.558-.632,1.115-.966,1.656-1.734,2.829-3.719,5.235-5.534,5.451,0,0-2.386-.321-5.4-5.451-.3-.5-.6-1.054-.905-1.656a48.589,48.589,0,0,1-2.408-5.669c-.179-.5-.36-1.023-.539-1.564A43.45,43.45,0,0,0,809.1,968.7a2.192,2.192,0,0,0-.162.275s.148.571.3,1.477a21.625,21.625,0,0,1,.292,3.85,15.283,15.283,0,0,1-.122,1.656c-.009.072-.02.144-.031.216,0,0-1.424,2.76-.988,7.777s2.475,10.137,2.33,15.338C810.526,1006.277,800,1033.4,799.782,1041.9Zm35.093-65.159c.353-.222.613-.388.759-.482C835.488,976.362,835.228,976.53,834.875,976.746Z" transform="translate(-424.411 -105.868)" fill="#4d8693"/>
  </g>
</svg>
