<svg xmlns="http://www.w3.org/2000/svg" xmlns:xlink="http://www.w3.org/1999/xlink" width="153.724" height="156.777" viewBox="0 0 153.724 156.777">
  <defs>
    <clipPath id="clip-path">
      <path id="Trazado_109657" data-name="Trazado 109657" d="M436.1,250.642c.447-2.866,1.825-9.067-.738-11.345-1.845-1.639-5.214-.6-7.4-.506-5.014.2-10,.722-14.99,1.242-4.429.461-9.229,1.45-13.666,1.019-4.085-.4-8.245.37-12.377.521-4.662.168-9.328.107-13.992.046-4.929-.062-9.717.114-14.571.413-5.581.343-11.308-.352-16.926-.112-4,.168-8.141-.588-12.181-.538-1.1.013-11.848-.341-12.168.272a7.2,7.2,0,0,0-.891,3.761c.173,1.8-.183,3.606.136,5.386.607,3.4-1.161,6.888-.384,10.294.94,4.128,8.21,3.276,11.67,3.544,5.716.442,11.494,1.085,17.183.384,4.574-.564,26.73-.252,32.217-.325,5.991-.082,11.979-.277,17.953-.729,7.931-.6,15.891-.223,23.829-.649a76.541,76.541,0,0,0,11.789-1.439c1.435-.306,3.239-.338,4.053-1.634.678-1.077.293-2.935.5-4.151C435.447,254.277,435.814,252.467,436.1,250.642Z" transform="translate(-315.75 -238.381)" fill="none"/>
    </clipPath>
  </defs>
  <g id="Grupo_42078" data-name="Grupo 42078" transform="translate(-305.546 -238.381)">
    <g id="Grupo_41944" data-name="Grupo 41944" transform="translate(321.891 238.381)">
      <path id="Trazado_109585" data-name="Trazado 109585" d="M436.1,250.642c.447-2.866,1.825-9.067-.738-11.345-1.845-1.639-5.214-.6-7.4-.506-5.014.2-10,.722-14.99,1.242-4.429.461-9.229,1.45-13.666,1.019-4.085-.4-8.245.37-12.377.521-4.662.168-9.328.107-13.992.046-4.929-.062-9.717.114-14.571.413-5.581.343-11.308-.352-16.926-.112-4,.168-8.141-.588-12.181-.538-1.1.013-11.848-.341-12.168.272a7.2,7.2,0,0,0-.891,3.761c.173,1.8-.183,3.606.136,5.386.607,3.4-1.161,6.888-.384,10.294.94,4.128,8.21,3.276,11.67,3.544,5.716.442,11.494,1.085,17.183.384,4.574-.564,26.73-.252,32.217-.325,5.991-.082,11.979-.277,17.953-.729,7.931-.6,15.891-.223,23.829-.649a76.541,76.541,0,0,0,11.789-1.439c1.435-.306,3.239-.338,4.053-1.634.678-1.077.293-2.935.5-4.151C435.447,254.277,435.814,252.467,436.1,250.642Z" transform="translate(-315.75 -238.381)" fill="#93c9c0"/>
    </g>
    <g id="Grupo_41945" data-name="Grupo 41945" transform="translate(321.769 269.774)">
      <path id="Trazado_109586" data-name="Trazado 109586" d="M435.262,281.144c-.261.559-.96.795-2.555,1.2a34.834,34.834,0,0,1-8.087.875c-3.66.058-7.31-.328-10.97-.328l-21.386,0q-24.015,0-48.03-.006-12.116,0-24.231,0a11.776,11.776,0,0,1-2.558-.069c-.442-.059-1.157-.312-.956-.71a4.156,4.156,0,0,1-.415-.8,8.258,8.258,0,0,1-.011-5.027,48.082,48.082,0,0,0,1.293-4.94,27.971,27.971,0,0,0,.168-3.358,46.377,46.377,0,0,1,.945-8.359c.332-.006.485-.908.817-.911h89.176c1.77,0,3.632-.075,5.389.043a61.833,61.833,0,0,0,9.9-.229,84.115,84.115,0,0,1,12.064-.461c.6,5.136,1.011,10.3.127,15.4a20,20,0,0,0-.692,5.115A5.811,5.811,0,0,1,435.262,281.144Z" transform="translate(-315.673 -257.978)" fill="#f7b0b9"/>
    </g>
    <g id="Grupo_41946" data-name="Grupo 41946" transform="translate(323.377 331.801)">
      <path id="Trazado_109587" data-name="Trazado 109587" d="M429.548,342.21a12.256,12.256,0,0,0,4.058.312c1.652-.263,1.25-.854,1.118-2.355-.215-2.425-.083-4.995-.165-7.343-.133-3.83-.367-7.657-.551-11.483-.277-5.757,0-11.324-.221-17.046a2.652,2.652,0,0,0-.255-1.25,2.382,2.382,0,0,0-1.1-.868,11.71,11.71,0,0,0-4.22-1.118c-2.592-.181-5.158.5-7.741.814-5.426.657-10.9-.325-16.294-1.184-26.04-4.147-52.519-4.55-78.864-3.5a31.305,31.305,0,0,0-4.111.441,2.4,2.4,0,0,0-2.132.343c-1.065.665-1.221,2.124-1.266,3.378q-.135,3.83-.271,7.665-.159,4.558-.32,9.12c-.128,3.656-.26,7.315-.171,10.975.051,2.123-1.067,7.624.388,9.272,1.083,1.224,3.431-.357,4.867-.569,2.348-.348,4.514.354,6.81.732a18.088,18.088,0,0,0,7.148-.26c2.491-.6,4.912-1.737,7.472-1.65,3.6.122,6.653,2.608,10.118,3.579,4.846,1.362,9.99-.333,15.02-.215a40.13,40.13,0,0,0,5.916.128c3.02-.38,5.706-1.953,8.644-2.646,2.9-.686,5.181.445,7.781,1.474a17.1,17.1,0,0,0,8,.8c2.425-.247,4.873-1.342,7.244-.455a26.913,26.913,0,0,0,4.373,1.717c2.981.548,5.938-1.25,8.968-1.125,2.059.086,3.99,1.125,5.97,1.512C426.945,341.636,428.239,341.965,429.548,342.21Z" transform="translate(-316.677 -296.698)" fill="#db900b"/>
    </g>
    <g id="Grupo_41947" data-name="Grupo 41947" transform="translate(305.546 241.686)">
      <path id="Trazado_109588" data-name="Trazado 109588" d="M313.49,390.573l-.006-.035c-1.153-6.18-.405-12.851-.425-19.131-.024-6.627.139-13.256.139-19.885V277.371c0-8.168-.626-16.732.477-24.81.466-3.4.961-7.608-1.117-10.608-1.679-2.419-4.292-1.741-5.427.7-3.058,6.574-.793,13.7-.556,20.5.295,8.537-.356,17.077-.357,25.614q0,13.541,0,27.078,0,26.973,0,53.944c0,7.025-.8,14.1.064,21.106.277,2.257,1.491,3.156,3.955,3.005C312.12,393.785,313.868,392.692,313.49,390.573Z" transform="translate(-305.546 -240.444)" fill="#2d2d2d"/>
    </g>
    <g id="Grupo_41948" data-name="Grupo 41948" transform="translate(450.731 241.686)">
      <path id="Trazado_109589" data-name="Trazado 109589" d="M396.772,390.573l.006-.035c1.155-6.18.405-12.851.426-19.131.021-6.627-.139-13.256-.139-19.885V277.371c0-8.168.625-16.732-.479-24.81-.465-3.4-.963-7.608,1.117-10.608,1.679-2.419,4.293-1.741,5.429.7,3.055,6.574.791,13.7.556,20.5-.3,8.537.354,17.077.356,25.614q0,13.541,0,27.078,0,26.973.006,53.944c0,7.025.8,14.1-.064,21.106-.279,2.257-1.491,3.156-3.955,3.005C398.143,393.785,396.4,392.692,396.772,390.573Z" transform="translate(-396.176 -240.444)" fill="#2d2d2d"/>
    </g>
    <g id="Grupo_41949" data-name="Grupo 41949" transform="translate(319.475 242.143)">
      <path id="Trazado_109590" data-name="Trazado 109590" d="M321,242.135c-.966-1.242-2.281-1.993-3.588-.82-1.632,1.466-2.1,4.892-2.429,6.941-.5,3.1-2.4,14.988,2.895,14.458,3.84-.383,4.127-8.369,4.322-11.055.141-1.95.594-4.442.276-6.334A7.952,7.952,0,0,0,321,242.135Z" transform="translate(-314.241 -240.729)" fill="#6fb2b2"/>
    </g>
    <g id="Grupo_41950" data-name="Grupo 41950" transform="translate(436.831 238.776)">
      <path id="Trazado_109591" data-name="Trazado 109591" d="M393.428,238.924c-4.05-1.908-5.168,5.93-5.519,8.276-.538,3.611-.836,9.2,1,12.466a2.841,2.841,0,0,0,2.608,1.565c5.238-.54,4.646-12.092,4.457-15.76C395.889,243.673,395.251,239.785,393.428,238.924Z" transform="translate(-387.499 -238.628)" fill="#6fb2b2"/>
    </g>
    <g id="Grupo_41951" data-name="Grupo 41951" transform="translate(319.33 270.297)">
      <path id="Trazado_109592" data-name="Trazado 109592" d="M318.975,281.942a3.822,3.822,0,0,0,1.235-1.507c2.5-4.615,2.989-10.019,3.428-15.247.184-2.216.223-4.8-1.488-6.224a2.738,2.738,0,0,0-1.506-.652,3.065,3.065,0,0,0-2.225.871,8.939,8.939,0,0,0-2.22,4.309c-1.325,4.529-2.384,9.237-1.948,13.935a6.653,6.653,0,0,0,1.222,3.675A2.829,2.829,0,0,0,318.975,281.942Z" transform="translate(-314.151 -258.304)" fill="#e26a84"/>
    </g>
    <g id="Grupo_41952" data-name="Grupo 41952" transform="translate(436.131 269.576)">
      <path id="Trazado_109593" data-name="Trazado 109593" d="M391.81,258.022a6.434,6.434,0,0,0-3.409,2.835c-1.36,2.429-1.4,5.546-1.312,8.252.067,2.1.391,4.181.5,6.281.128,2.307-.439,6.067,2.727,6.731,6.7,1.407,5.285-13.088,5.532-16.359.149-1.954.45-4.743-.638-6.494A2.751,2.751,0,0,0,391.81,258.022Z" transform="translate(-387.062 -257.854)" fill="#e26a84"/>
    </g>
    <g id="Grupo_41953" data-name="Grupo 41953" transform="translate(321.113 305.521)">
      <path id="Trazado_109594" data-name="Trazado 109594" d="M433.854,319.456c-3.167,0-6.491-.457-9.687-.666-23.877-1.567-47.642.833-71.548-.058-6.466-.242-12.931-.527-19.4-.674-3.233-.072-6.466-.112-9.7-.093-1.628.008-5.785.993-6.933-.357-1.16-1.366-.71-4.1-.851-5.743-.29-3.377-.463-6.767-.473-10.158a81.155,81.155,0,0,1,2.355-20.484c.131-.511,1.41-.476,1.019-.83h74.153c14.5,0,29.074-.474,43.592.638,1.086,2.98,0,6.836-.665,9.939A89.221,89.221,0,0,0,433.854,319.456Z" transform="translate(-315.264 -280.292)" fill="#f9ad15"/>
    </g>
    <g id="Grupo_41954" data-name="Grupo 41954" transform="translate(318.121 305.789)">
      <path id="Trazado_109595" data-name="Trazado 109595" d="M319.49,280.523l-.042-.011c-1.507-.359-2.932,1.208-3.552,2.377-1.109,2.1-.873,4.351-1.248,6.626a75.455,75.455,0,0,0-1.185,16.042c.146,2.877-.319,11.315,3.358,12.489,1.943.62,2.936-2.084,3.462-3.62a20.983,20.983,0,0,0,.849-5.3c.538-7.331,2.163-15.379.8-22.663C321.656,284.989,321.2,280.991,319.49,280.523Z" transform="translate(-313.396 -280.459)" fill="#ea9807"/>
    </g>
    <g id="Grupo_41955" data-name="Grupo 41955" transform="translate(434.478 306.361)">
      <path id="Trazado_109596" data-name="Trazado 109596" d="M393.469,280.974c-.8-.433-1.826-.03-3.129,1.9-2.85,4.22-2.5,9.274-3.592,14.017a36.1,36.1,0,0,0-.508,11.292c.264,2.935.032,6.879,2.063,9.181,4.726,5.351,6.251-3.178,6.824-6.49a77.3,77.3,0,0,0,.53-24.622C395.35,284.169,394.671,281.625,393.469,280.974Z" transform="translate(-386.03 -280.817)" fill="#ea9807"/>
    </g>
    <g id="Grupo_41957" data-name="Grupo 41957" transform="translate(308.661 252.525)">
      <g id="Grupo_41956" data-name="Grupo 41956">
        <path id="Trazado_109597" data-name="Trazado 109597" d="M307.848,249.127a27.013,27.013,0,0,0,7.225,1.133c1.35.095,2.707.112,4.059.075,1.179-.03,2.384.051,2.98-1.134a1.151,1.151,0,0,0-.175-1.344c-.791-.913-1.722-.618-2.805-.532-1.349.112-2.707.1-4.059.075-2.363-.04-5.006-.179-7.225.756a.508.508,0,0,0,0,.971Z" transform="translate(-307.491 -247.211)" fill="#2d2d2d"/>
      </g>
    </g>
    <g id="Grupo_41959" data-name="Grupo 41959" transform="translate(440.78 249.482)">
      <g id="Grupo_41958" data-name="Grupo 41958">
        <path id="Trazado_109598" data-name="Trazado 109598" d="M390.007,246.469c.985,2.121,3.817,2.115,5.887,2.161,1.221.027,2.441.022,3.662.077,1.282.054,2.672.591,3.925.452,1.134-.125,2.259-1.68,1.078-2.6-1.9-1.482-5-1.176-7.291-1.149s-5.08-.482-7.135.577a.357.357,0,0,0-.127.484Z" transform="translate(-389.964 -245.311)" fill="#2d2d2d"/>
      </g>
    </g>
    <g id="Grupo_41961" data-name="Grupo 41961" transform="translate(310.018 281.007)">
      <g id="Grupo_41960" data-name="Grupo 41960">
        <path id="Trazado_109599" data-name="Trazado 109599" d="M308.338,266.43c-.014,1.982,4.295,1.99,5.562,2.108a28.014,28.014,0,0,0,4,.037,8.5,8.5,0,0,0,3.808-.748,1.532,1.532,0,0,0-.767-2.835c-1.016.05-2.015.383-3.04.474a35.05,35.05,0,0,1-4,.058c-.931-.024-5.549-.788-5.562.907Z" transform="translate(-308.338 -264.99)" fill="#2d2d2d"/>
      </g>
    </g>
    <g id="Grupo_41963" data-name="Grupo 41963" transform="translate(440.605 280.303)">
      <g id="Grupo_41962" data-name="Grupo 41962">
        <path id="Trazado_109600" data-name="Trazado 109600" d="M405.585,265.966A7.317,7.317,0,0,0,402.6,264.7a20.942,20.942,0,0,0-3.8-.117c-1.3.043-2.6.139-3.9.216-1.225.07-2.478-.07-3.68.1a1.847,1.847,0,0,0-1.37,1.8,1.908,1.908,0,0,0,1.865,1.865,15.96,15.96,0,0,0,3.185-.276c1.153-.107,2.307-.232,3.459-.33s2.273-.144,3.415-.151,2.254-.263,3.382-.264a.85.85,0,0,0,.425-1.573Z" transform="translate(-389.855 -264.55)" fill="#2d2d2d"/>
      </g>
    </g>
    <g id="Grupo_41965" data-name="Grupo 41965" transform="translate(308.249 322.217)">
      <g id="Grupo_41964" data-name="Grupo 41964">
        <path id="Trazado_109601" data-name="Trazado 109601" d="M307.579,293.434c1.613,1.278,3.89,1.142,5.855,1.155,2.356.016,4.711-.082,7.069-.093,2.435-.013,2.437-3.792,0-3.781-2.2.013-4.393.194-6.59.3-1.972.093-4.269-.263-6.1.583a1.173,1.173,0,0,0-.235,1.839Z" transform="translate(-307.234 -290.715)" fill="#2d2d2d"/>
      </g>
    </g>
    <g id="Grupo_41967" data-name="Grupo 41967" transform="translate(440.182 320.816)">
      <g id="Grupo_41966" data-name="Grupo 41966">
        <path id="Trazado_109602" data-name="Trazado 109602" d="M407.254,291.16a19.942,19.942,0,0,0-7.364-1.318c-2.656-.019-5.36.231-8.011.386-3.026.175-3.074,4.78,0,4.735,5.029-.074,10-1.836,15.052-1.427,1.459.119,1.5-1.922.324-2.376Z" transform="translate(-389.591 -289.84)" fill="#2d2d2d"/>
      </g>
    </g>
    <g id="Grupo_41969" data-name="Grupo 41969" transform="translate(333.224 310.967)">
      <g id="Grupo_41968" data-name="Grupo 41968">
        <path id="Trazado_109603" data-name="Trazado 109603" d="M323.4,287.484c.923-.449,1.855-.868,2.77-1.331.786-.4,1.868-.9,2.094-1.818a.511.511,0,0,0-.485-.638c-.88-.075-1.688.681-2.352,1.182-.857.644-1.688,1.29-2.485,2.012-.336.3.09.771.458.593Z" transform="translate(-322.824 -283.692)" fill="#fff"/>
      </g>
    </g>
    <g id="Grupo_41971" data-name="Grupo 41971" transform="translate(343.225 317.599)">
      <g id="Grupo_41970" data-name="Grupo 41970">
        <path id="Trazado_109604" data-name="Trazado 109604" d="M329.117,288.326a4.521,4.521,0,0,0,2.087,1.613,2.6,2.6,0,0,0,2.621-.043.552.552,0,0,0,.085-.673,3.151,3.151,0,0,0-1.927-1.017,10.108,10.108,0,0,0-2.582-.373.33.33,0,0,0-.284.493Z" transform="translate(-329.067 -287.832)" fill="#fff"/>
      </g>
    </g>
    <g id="Grupo_41973" data-name="Grupo 41973" transform="translate(335.867 324.507)">
      <g id="Grupo_41972" data-name="Grupo 41972">
        <path id="Trazado_109605" data-name="Trazado 109605" d="M324.5,292.666c.5,1.653.346,5.279,2.563,5.5a.5.5,0,0,0,.436-.248c.541-1,.066-1.823-.368-2.8a6.774,6.774,0,0,0-1.916-2.866c-.309-.248-.851-.029-.714.418Z" transform="translate(-324.474 -292.144)" fill="#fff"/>
      </g>
    </g>
    <g id="Grupo_41975" data-name="Grupo 41975" transform="translate(350.273 327.966)">
      <g id="Grupo_41974" data-name="Grupo 41974">
        <path id="Trazado_109606" data-name="Trazado 109606" d="M334.268,297.342c1.229-.583,2.911-.311,4.018-1.12.638-.466.719-1.688-.244-1.869-1.818-.341-3.127,1.161-4.4,2.179-.487.391.133,1.048.625.811Z" transform="translate(-333.466 -294.303)" fill="#fff"/>
      </g>
    </g>
    <g id="Grupo_41977" data-name="Grupo 41977" transform="translate(359.817 310.35)">
      <g id="Grupo_41976" data-name="Grupo 41976">
        <path id="Trazado_109607" data-name="Trazado 109607" d="M339.857,283.6c-.65,1.269-.649,3.3.567,4.274a.689.689,0,0,0,1.137-.3,6,6,0,0,0-.684-3.974.6.6,0,0,0-1.02,0Z" transform="translate(-339.424 -283.307)" fill="#fff"/>
      </g>
    </g>
    <g id="Grupo_41979" data-name="Grupo 41979" transform="translate(369.463 323.328)">
      <g id="Grupo_41978" data-name="Grupo 41978">
        <path id="Trazado_109608" data-name="Trazado 109608" d="M345.517,291.925a2.67,2.67,0,0,0,.058,1.4,3.01,3.01,0,0,0,.577,1.358.725.725,0,0,0,1.193-.316,2.969,2.969,0,0,0-.074-1.509,2.5,2.5,0,0,0-.572-1.246.715.715,0,0,0-1.182.311Z" transform="translate(-345.446 -291.408)" fill="#fff"/>
      </g>
    </g>
    <g id="Grupo_41981" data-name="Grupo 41981" transform="translate(363.539 335.318)">
      <g id="Grupo_41980" data-name="Grupo 41980">
        <path id="Trazado_109609" data-name="Trazado 109609" d="M342.1,300.668a6.359,6.359,0,0,0,2.262.681c.554.138,1.679.022,1.86-.663.242-.924-.9-1.628-1.647-1.735a3.05,3.05,0,0,0-2.621.59.73.73,0,0,0,.146,1.128Z" transform="translate(-341.748 -298.893)" fill="#fff"/>
      </g>
    </g>
    <g id="Grupo_41983" data-name="Grupo 41983" transform="translate(330.942 337.02)">
      <g id="Grupo_41982" data-name="Grupo 41982">
        <path id="Trazado_109610" data-name="Trazado 109610" d="M321.41,300.623c.133.782.732,2.123,1.716,1.946a.485.485,0,0,0,.362-.473,1.673,1.673,0,0,0-.535-.94,4.1,4.1,0,0,1-.575-.94.53.53,0,0,0-.6-.244.541.541,0,0,0-.368.65Z" transform="translate(-321.4 -299.955)" fill="#fff"/>
      </g>
    </g>
    <g id="Grupo_41985" data-name="Grupo 41985" transform="translate(376.983 310.88)">
      <g id="Grupo_41984" data-name="Grupo 41984">
        <path id="Trazado_109611" data-name="Trazado 109611" d="M350.805,286.765c1.74-.891,4.213-.058,5.722-1.424a.819.819,0,0,0-.162-1.267c-.972-.713-2.385-.409-3.449-.1a4.438,4.438,0,0,0-2.715,2.187.445.445,0,0,0,.6.6Z" transform="translate(-350.14 -283.637)" fill="#fff"/>
      </g>
    </g>
    <g id="Grupo_41987" data-name="Grupo 41987" transform="translate(389.343 320.174)">
      <g id="Grupo_41986" data-name="Grupo 41986">
        <path id="Trazado_109612" data-name="Trazado 109612" d="M357.865,290c.2,1.1.471,4.25,2.153,4.021a.378.378,0,0,0,.272-.274c.125-.623-.362-1.171-.654-1.688a14.332,14.332,0,0,1-.9-2.3.454.454,0,0,0-.875.24Z" transform="translate(-357.855 -289.439)" fill="#fff"/>
      </g>
    </g>
    <g id="Grupo_41989" data-name="Grupo 41989" transform="translate(382.752 331.069)">
      <g id="Grupo_41988" data-name="Grupo 41988">
        <path id="Trazado_109613" data-name="Trazado 109613" d="M354.036,296.651a6.285,6.285,0,0,0-.287,1.11,3.971,3.971,0,0,0,.165,1.32c.213.79.985,1.885,1.932,1.581a.675.675,0,0,0,.479-.633c.051-.556-.432-1.025-.711-1.467a3.529,3.529,0,0,1-.439-1.756.582.582,0,0,0-1.139-.155Z" transform="translate(-353.741 -296.241)" fill="#fff"/>
      </g>
    </g>
    <g id="Grupo_41991" data-name="Grupo 41991" transform="translate(397.6 310.899)">
      <g id="Grupo_41990" data-name="Grupo 41990">
        <path id="Trazado_109614" data-name="Trazado 109614" d="M363.263,285.758a4.282,4.282,0,0,0,3.032.463c.883-.1,2.155-.293,2.629-1.133a.633.633,0,0,0,0-.649c-1.152-1.516-4.4-.551-5.661.4a.539.539,0,0,0,0,.915Z" transform="translate(-363.01 -283.65)" fill="#fff"/>
      </g>
    </g>
    <g id="Grupo_41993" data-name="Grupo 41993" transform="translate(407.295 318.466)">
      <g id="Grupo_41992" data-name="Grupo 41992">
        <path id="Trazado_109615" data-name="Trazado 109615" d="M369.548,288.908a16.452,16.452,0,0,1-.352,2.61,2.736,2.736,0,0,0,.064,1.871.357.357,0,0,0,.609,0,5.066,5.066,0,0,0,.556-2.169,14.189,14.189,0,0,0,.232-2.312.555.555,0,0,0-1.109,0Z" transform="translate(-369.062 -288.373)" fill="#fff"/>
      </g>
    </g>
    <g id="Grupo_41995" data-name="Grupo 41995" transform="translate(400.594 329.282)">
      <g id="Grupo_41994" data-name="Grupo 41994">
        <path id="Trazado_109616" data-name="Trazado 109616" d="M364.915,296.062c.487,1.472,1.346,4.79,3.4,4.62.252-.021.554-.221.516-.517a5.4,5.4,0,0,0-1.208-2.211,24.2,24.2,0,0,1-1.354-2.464.746.746,0,0,0-1.358.572Z" transform="translate(-364.878 -295.125)" fill="#fff"/>
      </g>
    </g>
    <g id="Grupo_41997" data-name="Grupo 41997" transform="translate(413.111 329.138)">
      <g id="Grupo_41996" data-name="Grupo 41996">
        <path id="Trazado_109617" data-name="Trazado 109617" d="M373.291,298.124a7.625,7.625,0,0,0,2.826-.554c.777-.256,1.844-.921,2.022-1.769a.575.575,0,0,0-.4-.7,5.516,5.516,0,0,0-2.768.405,3.233,3.233,0,0,0-2.254,1.866.6.6,0,0,0,.57.75Z" transform="translate(-372.692 -295.035)" fill="#fff"/>
      </g>
    </g>
    <g id="Grupo_41999" data-name="Grupo 41999" transform="translate(417.496 312.391)">
      <g id="Grupo_41998" data-name="Grupo 41998">
        <path id="Trazado_109618" data-name="Trazado 109618" d="M375.82,287.027c.916.641,2.315.441,3.372.372.968-.062,2.678-.292,2.678-1.583,0-2.312-5.272-.817-6.209-.014a.788.788,0,0,0,.159,1.226Z" transform="translate(-375.429 -284.581)" fill="#fff"/>
      </g>
    </g>
    <g id="Grupo_42001" data-name="Grupo 42001" transform="translate(423.738 320.333)">
      <g id="Grupo_42000" data-name="Grupo 42000">
        <path id="Trazado_109619" data-name="Trazado 109619" d="M379.674,291a8.754,8.754,0,0,0,2.421,1.125c.594.192,1.86.288,2.083-.516.232-.851-.737-1.591-1.44-1.815a6.082,6.082,0,0,0-2.884-.151c-.7.115-.642,1.03-.179,1.357Z" transform="translate(-379.326 -289.538)" fill="#fff"/>
      </g>
    </g>
    <g id="Grupo_42003" data-name="Grupo 42003" transform="translate(431.437 310.365)">
      <g id="Grupo_42002" data-name="Grupo 42002">
        <path id="Trazado_109620" data-name="Trazado 109620" d="M384.951,284.977l.311.021a1.794,1.794,0,0,0,.519-.082.791.791,0,0,0,0-1.516,2.338,2.338,0,0,0-.457-.085c-.123,0-.248.013-.373.024a.819.819,0,1,0,0,1.637Z" transform="translate(-384.132 -283.316)" fill="#fff"/>
      </g>
    </g>
    <g id="Grupo_42005" data-name="Grupo 42005" transform="translate(425.08 336.011)">
      <g id="Grupo_42004" data-name="Grupo 42004">
        <path id="Trazado_109621" data-name="Trazado 109621" d="M380.372,300.573a1.534,1.534,0,0,0,1.853.466.523.523,0,0,0,0-.891,1.185,1.185,0,0,0-.292-.165c-.072-.026-.08-.027-.022-.008a1.367,1.367,0,0,1-.16-.1c.115.077-.082-.082-.1-.1a2.287,2.287,0,0,1-.242-.24.737.737,0,0,0-1.035,0,.746.746,0,0,0,0,1.035Z" transform="translate(-380.164 -299.326)" fill="#fff"/>
      </g>
    </g>
    <g id="Grupo_42007" data-name="Grupo 42007" transform="translate(344.164 348.708)" opacity="0.36">
      <g id="Grupo_42006" data-name="Grupo 42006">
        <path id="Trazado_109622" data-name="Trazado 109622" d="M329.719,307.648a7.275,7.275,0,0,0,.264,3.193c.245.764.8,1.972,1.753,1.908.928-.066.593-1.285.341-1.791a17.7,17.7,0,0,1-1.565-3.415c-.115-.476-.743-.317-.793.106Z" transform="translate(-329.653 -307.251)" fill="#fff"/>
      </g>
    </g>
    <g id="Grupo_42009" data-name="Grupo 42009" transform="translate(333.054 350.527)" opacity="0.36">
      <g id="Grupo_42008" data-name="Grupo 42008">
        <path id="Trazado_109623" data-name="Trazado 109623" d="M324.5,308.618a19.18,19.18,0,0,0-1.424,3.055c-.224.782-.753,2,.165,2.534,1.839,1.075,1.922-4.5,2.087-5.24.109-.481-.594-.831-.828-.349Z" transform="translate(-322.718 -308.387)" fill="#fff"/>
      </g>
    </g>
    <g id="Grupo_42011" data-name="Grupo 42011" transform="translate(347.898 337.312)">
      <g id="Grupo_42010" data-name="Grupo 42010">
        <path id="Trazado_109624" data-name="Trazado 109624" d="M332.226,301.884c.178.091.282.242.489.314a2.638,2.638,0,0,0,.684.106,2.84,2.84,0,0,0,1.573-.259,1,1,0,0,0-.235-1.809,2.287,2.287,0,0,0-1.463.046c-.221.077-.434.167-.649.258-.266.115-.332.365-.5.551a.511.511,0,0,0,.1.793Z" transform="translate(-331.984 -300.138)" fill="#fff"/>
      </g>
    </g>
    <g id="Grupo_42013" data-name="Grupo 42013" transform="translate(342.527 362.062)" opacity="0.36">
      <g id="Grupo_42012" data-name="Grupo 42012">
        <path id="Trazado_109625" data-name="Trazado 109625" d="M328.633,316.071a17.232,17.232,0,0,0,.341,1.741,6.019,6.019,0,0,0,.573,1.9.692.692,0,0,0,.6.346.74.74,0,0,0,.352-.1.694.694,0,0,0,.344-.6,4.862,4.862,0,0,0-.445-1.94,5.08,5.08,0,0,0-.927-1.695.5.5,0,0,0-.841.348Z" transform="translate(-328.631 -315.587)" fill="#fff"/>
      </g>
    </g>
    <g id="Grupo_42015" data-name="Grupo 42015" transform="translate(330.495 366.575)" opacity="0.36">
      <g id="Grupo_42014" data-name="Grupo 42014">
        <path id="Trazado_109626" data-name="Trazado 109626" d="M321.463,320.9a2.585,2.585,0,0,0,2.155-.135,2.756,2.756,0,0,0,1.62-1.349.748.748,0,0,0-.349-.854,2.315,2.315,0,0,0-1.926.155,3.5,3.5,0,0,0-1.753,1.216.719.719,0,0,0,.253.966Z" transform="translate(-321.121 -318.404)" fill="#fff"/>
      </g>
    </g>
    <g id="Grupo_42017" data-name="Grupo 42017" transform="translate(353.714 360.219)" opacity="0.36">
      <g id="Grupo_42016" data-name="Grupo 42016">
        <path id="Trazado_109627" data-name="Trazado 109627" d="M336.048,316c1.485.242,3.395.764,4.8-.006a.674.674,0,0,0,0-1.153c-1.4-.771-3.314-.25-4.8-.008a.61.61,0,0,0,0,1.168Z" transform="translate(-335.614 -314.437)" fill="#fff"/>
      </g>
    </g>
    <g id="Grupo_42019" data-name="Grupo 42019" transform="translate(358.284 347.975)" opacity="0.36">
      <g id="Grupo_42018" data-name="Grupo 42018">
        <path id="Trazado_109628" data-name="Trazado 109628" d="M338.9,307.968a18.5,18.5,0,0,0,1.934.431,3.9,3.9,0,0,0,1.869.059.561.561,0,0,0,.244-.928c-.937-.779-2.574-.538-3.725-.727a.6.6,0,0,0-.322,1.165Z" transform="translate(-338.467 -306.794)" fill="#fff"/>
      </g>
    </g>
    <g id="Grupo_42021" data-name="Grupo 42021" transform="translate(368.848 354.565)" opacity="0.36">
      <g id="Grupo_42020" data-name="Grupo 42020">
        <path id="Trazado_109629" data-name="Trazado 109629" d="M345.139,311.435a5.543,5.543,0,0,0,.09,2.3c.192.681.62,1.535,1.421,1.544a.7.7,0,0,0,.67-.511c.141-.549-.2-1-.388-1.5a5.859,5.859,0,0,1-.357-1.637c-.055-.769-1.318-1.056-1.435-.194Z" transform="translate(-345.062 -310.908)" fill="#fff"/>
      </g>
    </g>
    <g id="Grupo_42023" data-name="Grupo 42023" transform="translate(366.138 366.057)" opacity="0.36">
      <g id="Grupo_42022" data-name="Grupo 42022">
        <path id="Trazado_109630" data-name="Trazado 109630" d="M343.758,318.469c-.614,1.237-.578,3.346.686,4.168a.862.862,0,0,0,1.283-.737,5.028,5.028,0,0,0-.244-1.527c-.119-.574-.133-1.15-.274-1.716a.8.8,0,0,0-1.451-.189Z" transform="translate(-343.37 -318.081)" fill="#fff"/>
      </g>
    </g>
    <g id="Grupo_42025" data-name="Grupo 42025" transform="translate(378.335 365.594)" opacity="0.36">
      <g id="Grupo_42024" data-name="Grupo 42024">
        <path id="Trazado_109631" data-name="Trazado 109631" d="M351.3,318.662a23.182,23.182,0,0,1,2.307.45,4.059,4.059,0,0,0,1.935.271.354.354,0,0,0,.21-.517c-.812-1.2-3.063-1.068-4.336-1.07-.482,0-.618.8-.115.867Z" transform="translate(-350.984 -317.792)" fill="#fff"/>
      </g>
    </g>
    <g id="Grupo_42027" data-name="Grupo 42027" transform="translate(380.079 351.678)" opacity="0.36">
      <g id="Grupo_42026" data-name="Grupo 42026">
        <path id="Trazado_109632" data-name="Trazado 109632" d="M352.488,310.854c1.49.207,4.534,1.431,5.581-.215a.677.677,0,0,0,0-.687c-1.048-1.647-4.091-.421-5.581-.216a.584.584,0,0,0,0,1.118Z" transform="translate(-352.072 -309.105)" fill="#fff"/>
      </g>
    </g>
    <g id="Grupo_42029" data-name="Grupo 42029" transform="translate(392.868 346.529)" opacity="0.36">
      <g id="Grupo_42028" data-name="Grupo 42028">
        <path id="Trazado_109633" data-name="Trazado 109633" d="M360.24,307.086c.562.692,1.094,1.408,1.636,2.115.5.66.865,1.352,1.676,1.671a.553.553,0,0,0,.668-.378c.745-1.805-1.86-3.457-2.981-4.407a.707.707,0,0,0-1,1Z" transform="translate(-360.056 -305.891)" fill="#fff"/>
      </g>
    </g>
    <g id="Grupo_42031" data-name="Grupo 42031" transform="translate(391.338 358.284)" opacity="0.36">
      <g id="Grupo_42030" data-name="Grupo 42030">
        <path id="Trazado_109634" data-name="Trazado 109634" d="M359.218,313.788a3.046,3.046,0,0,0,.147,2.044c.258.7.822,2.039,1.805,1.765.849-.236.639-1.235.362-1.831a7.154,7.154,0,0,1-.809-1.978c-.112-.822-1.294-.665-1.506,0Z" transform="translate(-359.101 -313.229)" fill="#fff"/>
      </g>
    </g>
    <g id="Grupo_42033" data-name="Grupo 42033" transform="translate(402.344 364.862)" opacity="0.36">
      <g id="Grupo_42032" data-name="Grupo 42032">
        <path id="Trazado_109635" data-name="Trazado 109635" d="M366.043,318.293c.253.5.468,1.027.735,1.525s.481,1.217,1.057,1.466a.732.732,0,0,0,.982-.259c.684-1.338-.969-2.654-1.786-3.5-.517-.535-1.3.143-.988.764Z" transform="translate(-365.971 -317.335)" fill="#fff"/>
      </g>
    </g>
    <g id="Grupo_42035" data-name="Grupo 42035" transform="translate(405.351 353.667)" opacity="0.36">
      <g id="Grupo_42034" data-name="Grupo 42034">
        <path id="Trazado_109636" data-name="Trazado 109636" d="M368.7,314.607a29.662,29.662,0,0,1,2.64-1.373c.844-.4,1.837-1.072,1.913-2.073a.818.818,0,0,0-.807-.806c-.913-.109-1.932.835-2.582,1.384a8.033,8.033,0,0,0-1.938,2.092.57.57,0,0,0,.775.775Z" transform="translate(-367.848 -310.347)" fill="#fff"/>
      </g>
    </g>
    <g id="Grupo_42037" data-name="Grupo 42037" transform="translate(408.496 346.545)" opacity="0.36">
      <g id="Grupo_42036" data-name="Grupo 42036">
        <path id="Trazado_109637" data-name="Trazado 109637" d="M370.282,307.48c1.019.227,2.464.655,3.326-.168a.661.661,0,0,0,0-.928c-.862-.822-2.307-.4-3.326-.168a.659.659,0,0,0,0,1.264Z" transform="translate(-369.811 -305.901)" fill="#fff"/>
      </g>
    </g>
    <g id="Grupo_42039" data-name="Grupo 42039" transform="translate(423.118 349.549)" opacity="0.36">
      <g id="Grupo_42038" data-name="Grupo 42038">
        <path id="Trazado_109638" data-name="Trazado 109638" d="M379.094,308.792c.109.138.122.138.04,0a.8.8,0,0,0,.207.356,3.872,3.872,0,0,0,.644.588,6.039,6.039,0,0,0,1.507.907,1.025,1.025,0,0,0,1.161-.473,1.064,1.064,0,0,0-.159-1.246,3.345,3.345,0,0,0-1.578-.984,2.2,2.2,0,0,0-.862-.167,1.433,1.433,0,0,0-.359.03c-.63.173.269.008-.219.058a.548.548,0,0,0-.383.926Z" transform="translate(-378.939 -307.776)" fill="#fff"/>
      </g>
    </g>
    <g id="Grupo_42041" data-name="Grupo 42041" transform="translate(418.189 356.499)" opacity="0.36">
      <g id="Grupo_42040" data-name="Grupo 42040">
        <path id="Trazado_109639" data-name="Trazado 109639" d="M376.1,312.6c-.243,1.185-.6,3.375.665,4.12a.511.511,0,0,0,.626-.082c.833-1.017.106-2.677.045-3.858-.035-.735-1.174-.964-1.336-.181Z" transform="translate(-375.862 -312.115)" fill="#fff"/>
      </g>
    </g>
    <g id="Grupo_42043" data-name="Grupo 42043" transform="translate(412.779 365.901)" opacity="0.36">
      <g id="Grupo_42042" data-name="Grupo 42042">
        <path id="Trazado_109640" data-name="Trazado 109640" d="M372.676,319.13a15.2,15.2,0,0,0,1.664,1.379,2.467,2.467,0,0,0,1.914.578.56.56,0,0,0,.417-.546c-.176-1.429-2.147-1.821-3.186-2.459a.67.67,0,0,0-.809,1.048Z" transform="translate(-372.485 -317.984)" fill="#fff"/>
      </g>
    </g>
    <g id="Grupo_42045" data-name="Grupo 42045" transform="translate(426.834 364.975)" opacity="0.36">
      <g id="Grupo_42044" data-name="Grupo 42044">
        <path id="Trazado_109641" data-name="Trazado 109641" d="M381.605,319.245a5.267,5.267,0,0,0,2.155,1.35c.82.191,1.99.407,2.594-.356a1.038,1.038,0,0,0,.155-1.213c-.642-1.158-2.5-.977-3.576-1.5s-2.284.828-1.328,1.722Z" transform="translate(-381.259 -317.406)" fill="#fff"/>
      </g>
    </g>
    <g id="Grupo_42047" data-name="Grupo 42047" transform="translate(432.965 353.067)" opacity="0.36">
      <g id="Grupo_42046" data-name="Grupo 42046">
        <path id="Trazado_109642" data-name="Trazado 109642" d="M386.569,312.516a5.021,5.021,0,0,1,.795-.215c.114-.021.229-.038.343-.059a1.151,1.151,0,0,0,.511-.3c.087-.07.09-.077.013-.013a.962.962,0,0,0,0-1.634,1.616,1.616,0,0,0-.524-.285,2.05,2.05,0,0,0-.849.011,4.478,4.478,0,0,0-.911.231,1.2,1.2,0,0,0-.817,1.443,1.175,1.175,0,0,0,1.44.817Z" transform="translate(-385.086 -309.972)" fill="#fff"/>
      </g>
    </g>
    <g id="Grupo_42077" data-name="Grupo 42077" transform="translate(321.891 238.381)">
      <g id="Grupo_42076" data-name="Grupo 42076" clip-path="url(#clip-path)">
        <g id="Grupo_42049" data-name="Grupo 42049" transform="translate(7.545 -5.462)" opacity="0.36">
          <g id="Grupo_42048" data-name="Grupo 42048">
            <path id="Trazado_109643" data-name="Trazado 109643" d="M320.816,235.416a62.666,62.666,0,0,0-.344,8.1c-.034,3,0,6,.07,9,.066,2.821.112,5.645.178,8.468.063,2.581-.42,5.964.822,8.317a.788.788,0,0,0,1.35,0c1.245-2.187.811-5.37.763-7.787-.059-3-.229-6-.4-9-.165-2.821-.258-5.668-.57-8.474-.319-2.864-.263-5.775-.679-8.628a.62.62,0,0,0-1.189,0Z" transform="translate(-320.459 -234.972)" fill="#fff"/>
          </g>
        </g>
        <g id="Grupo_42051" data-name="Grupo 42051" transform="translate(13.039 -4.924)" opacity="0.36">
          <g id="Grupo_42050" data-name="Grupo 42050">
            <path id="Trazado_109644" data-name="Trazado 109644" d="M324.621,236.185c-.035,6.2-.021,12.4-.138,18.591-.054,2.956-.261,5.91-.426,8.86-.09,1.562-.2,3.125-.16,4.691a13.438,13.438,0,0,0,.562,4.367.838.838,0,0,0,1.6,0,19.662,19.662,0,0,0,.5-3.846c.171-1.554.171-3.129.247-4.691.152-3.129.338-6.246.3-9.381-.07-6.2-.623-12.388-.673-18.591a.908.908,0,0,0-1.815,0Z" transform="translate(-323.889 -235.308)" fill="#fff"/>
          </g>
        </g>
        <g id="Grupo_42053" data-name="Grupo 42053" transform="translate(19.639 -0.688)" opacity="0.36">
          <g id="Grupo_42052" data-name="Grupo 42052">
            <path id="Trazado_109645" data-name="Trazado 109645" d="M328.951,238.417c-.935,2.094-.839,4.431-.737,6.674.136,2.983.03,5.948-.05,8.931-.088,3.255-.2,6.509-.139,9.764.053,2.957-.13,6.727,1.943,9.043a.864.864,0,0,0,1.432-.378,9.611,9.611,0,0,0,.05-4.072c-.211-1.522-.317-3.058-.388-4.593-.144-3.076-.123-6.164-.208-9.243-.077-2.765-.062-5.543-.328-8.3-.221-2.3-.71-4.888.152-7.1.388-1-1.29-1.7-1.727-.729Z" transform="translate(-328.009 -237.952)" fill="#fff"/>
          </g>
        </g>
        <g id="Grupo_42055" data-name="Grupo 42055" transform="translate(26.845 -0.635)" opacity="0.36">
          <g id="Grupo_42054" data-name="Grupo 42054">
            <path id="Trazado_109646" data-name="Trazado 109646" d="M332.592,238.874c-.061,6.027-.168,12.034.027,18.062.093,3,.271,6,.484,8.99.2,2.818.08,6.5,1.655,8.957a1.057,1.057,0,0,0,1.911-.252c.894-2.658.032-5.991-.277-8.705-.343-2.992-.625-5.99-.892-8.99-.535-6-.987-12.042-1.07-18.062a.919.919,0,0,0-1.837,0Z" transform="translate(-332.507 -237.985)" fill="#fff"/>
          </g>
        </g>
        <g id="Grupo_42057" data-name="Grupo 42057" transform="translate(34.472 -2.394)" opacity="0.36">
          <g id="Grupo_42056" data-name="Grupo 42056">
            <path id="Trazado_109647" data-name="Trazado 109647" d="M337.377,237.653c-.394,6.981.362,13.806,1.012,20.745.268,2.843.261,5.721.618,8.55a18.5,18.5,0,0,0,.868,4.1,4.531,4.531,0,0,0,2.425,2.7.645.645,0,0,0,.79-.447,8.289,8.289,0,0,0-.173-3.093c-.211-1.378-.551-2.719-.715-4.106-.338-2.866-.593-5.737-.992-8.6-.915-6.565-2.453-13.2-2.246-19.856.03-1.027-1.533-1.016-1.589,0Z" transform="translate(-337.268 -236.887)" fill="#fff"/>
          </g>
        </g>
        <g id="Grupo_42059" data-name="Grupo 42059" transform="translate(44.686 -4.772)" opacity="0.36">
          <g id="Grupo_42058" data-name="Grupo 42058">
            <path id="Trazado_109648" data-name="Trazado 109648" d="M344.664,236.327a102.7,102.7,0,0,0-.761,22.1c.173,2.8.106,5.618.4,8.41a12.906,12.906,0,0,0,.908,4.045,10.032,10.032,0,0,0,1.035,1.729,2.512,2.512,0,0,0,.74.7c-.054-.034.921.292.6.146a.9.9,0,0,0,1.314-1.011c-.021-.1-.042-.192-.062-.287-.034.266-.069.532-.1.8.469-1.072-.159-1.954-.424-3.005a28.577,28.577,0,0,1-.78-3.862c-.285-2.541-.266-5.112-.485-7.659-.614-7.132-.969-14.317.072-21.426.232-1.6-2.2-2.3-2.454-.676Z" transform="translate(-343.644 -235.403)" fill="#fff"/>
          </g>
        </g>
        <g id="Grupo_42061" data-name="Grupo 42061" transform="translate(52.254 -4.543)" opacity="0.36">
          <g id="Grupo_42060" data-name="Grupo 42060">
            <path id="Trazado_109649" data-name="Trazado 109649" d="M348.409,237.116a140.755,140.755,0,0,0,1.1,19.381c.343,3.21.444,6.432.711,9.647a34.611,34.611,0,0,0,.722,4.835,7.164,7.164,0,0,0,1.854,3.962,1.047,1.047,0,0,0,1.727-.455,10.561,10.561,0,0,0,.016-3.994c-.139-1.608-.229-3.225-.333-4.836-.2-3.065-.372-6.111-.772-9.158-.851-6.441-1.87-12.862-1.775-19.381.029-2.1-3.183-2.087-3.252,0Z" transform="translate(-348.369 -235.546)" fill="#fff"/>
          </g>
        </g>
        <g id="Grupo_42063" data-name="Grupo 42063" transform="translate(62.003 -6.022)" opacity="0.36">
          <g id="Grupo_42062" data-name="Grupo 42062">
            <path id="Trazado_109650" data-name="Trazado 109650" d="M354.838,235.793c-.133,6.723-.484,13.453-.357,20.178.063,3.359.242,6.719.59,10.059a40.839,40.839,0,0,0,.763,4.947c.292,1.27.756,2.927,2.11,3.367a.966.966,0,0,0,.931-.245c.955-.871.726-2.446.593-3.612-.187-1.655-.479-3.3-.706-4.955-.461-3.34-.743-6.7-.937-10.065-.373-6.555-.44-13.112-.565-19.674a1.21,1.21,0,0,0-2.419,0Z" transform="translate(-354.454 -234.623)" fill="#fff"/>
          </g>
        </g>
        <g id="Grupo_42065" data-name="Grupo 42065" transform="translate(67.69 -10.553)" opacity="0.36">
          <g id="Grupo_42064" data-name="Grupo 42064">
            <path id="Trazado_109651" data-name="Trazado 109651" d="M358.106,233.194c-.343,7.323.263,14.626.569,21.937.149,3.545.2,7.089.474,10.629.258,3.4.433,7.71,2.512,10.555a1.309,1.309,0,0,0,2.417-.655,18.538,18.538,0,0,0-.338-4.918c-.237-1.65-.394-3.322-.554-4.982-.344-3.534-.46-7.089-.74-10.629-.575-7.307-1.618-14.594-1.442-21.937.046-1.877-2.811-1.857-2.9,0Z" transform="translate(-358.004 -231.794)" fill="#fff"/>
          </g>
        </g>
        <g id="Grupo_42067" data-name="Grupo 42067" transform="translate(77.194 -0.948)" opacity="0.36">
          <g id="Grupo_42066" data-name="Grupo 42066">
            <path id="Trazado_109652" data-name="Trazado 109652" d="M364.128,239.53q-.394,9.693.019,19.39c.13,3.074.375,6.137.572,9.208.112,1.711.381,6.586,3.092,6.236,1.033-.131,1.267-1.227,1.06-2.115a22.84,22.84,0,0,1-.5-3.7c-.215-3.212-.461-6.416-.6-9.633q-.442-9.686-.037-19.39c.091-2.324-3.51-2.315-3.6,0Z" transform="translate(-363.937 -237.79)" fill="#fff"/>
          </g>
        </g>
        <g id="Grupo_42069" data-name="Grupo 42069" transform="translate(87.315 -12.242)" opacity="0.36">
          <g id="Grupo_42068" data-name="Grupo 42068">
            <path id="Trazado_109653" data-name="Trazado 109653" d="M370.907,231.82c-1.134,7.5-.418,15.087-.546,22.632-.059,3.6-.127,7.193.037,10.792.154,3.37.6,7.183,2.115,10.235a1.052,1.052,0,0,0,1.948-.527c-.055-3.383-.439-6.794-.569-10.185-.135-3.433-.077-6.877-.112-10.315-.069-7.27-1.056-14.6,0-21.843.271-1.871-2.582-2.686-2.868-.79Z" transform="translate(-370.254 -230.74)" fill="#fff"/>
          </g>
        </g>
        <g id="Grupo_42071" data-name="Grupo 42071" transform="translate(94.936 -6.414)" opacity="0.36">
          <g id="Grupo_42070" data-name="Grupo 42070">
            <path id="Trazado_109654" data-name="Trazado 109654" d="M375.129,235.669c-.037,8.09-.205,16.181-.058,24.271.058,3.231-.072,6.461.075,9.692.107,2.382.394,7.335,3,8.428a.742.742,0,0,0,.854-.348c.508-1.112.125-2.651-.016-3.837-.186-1.559-.272-3.116-.362-4.681-.187-3.258-.058-6.523-.239-9.782-.439-7.91-.546-15.823-.583-23.744a1.336,1.336,0,0,0-2.67,0Z" transform="translate(-375.012 -234.378)" fill="#fff"/>
          </g>
        </g>
        <g id="Grupo_42073" data-name="Grupo 42073" transform="translate(101.917 -5.875)" opacity="0.36">
          <g id="Grupo_42072" data-name="Grupo 42072">
            <path id="Trazado_109655" data-name="Trazado 109655" d="M380.3,236.005c.2,6.836-.338,13.652-.445,20.484-.048,3.09-.306,6.161-.436,9.248-.114,2.635-.187,6.113,1.628,8.216a.838.838,0,0,0,1.391-.367,15.058,15.058,0,0,0,.125-3.683c-.05-1.546,0-3.092.04-4.638.082-2.93.292-5.846.284-8.777-.016-6.829.344-13.66.086-20.484-.066-1.716-2.722-1.727-2.672,0Z" transform="translate(-379.37 -234.714)" fill="#fff"/>
          </g>
        </g>
        <g id="Grupo_42075" data-name="Grupo 42075" transform="translate(109.2 -5.875)" opacity="0.36">
          <g id="Grupo_42074" data-name="Grupo 42074">
            <path id="Trazado_109656" data-name="Trazado 109656" d="M384.847,236.005c.2,6.836-.336,13.652-.445,20.484-.048,3.09-.306,6.161-.436,9.248-.114,2.635-.187,6.113,1.628,8.216a.838.838,0,0,0,1.39-.367,15.058,15.058,0,0,0,.125-3.683c-.048-1.546,0-3.092.04-4.638.082-2.93.293-5.846.285-8.777-.018-6.829.343-13.66.083-20.484-.064-1.716-2.72-1.727-2.67,0Z" transform="translate(-383.916 -234.714)" fill="#fff"/>
          </g>
        </g>
      </g>
    </g>
  </g>
</svg>
