<svg xmlns="http://www.w3.org/2000/svg" width="141.649" height="187.042" viewBox="0 0 141.649 187.042">
  <g id="Grupo_42081" data-name="Grupo 42081" transform="translate(-504.459 -2315.127)">
    <path id="Trazado_109658" data-name="Trazado 109658" d="M1205.4,2627.571l1.168-1.2s1.389-.221,1.42,1.578l-1.294,1.2Z" transform="translate(-592.842 -263.239)" fill="#6d4c1b"/>
    <path id="Trazado_109659" data-name="Trazado 109659" d="M1188.191,2594.623a4.571,4.571,0,0,1,2.809-2.02,4.273,4.273,0,0,1,1.925.063,5.566,5.566,0,0,1,3.093,2.146,5.763,5.763,0,0,1,1.231,3.219,4.221,4.221,0,0,1-.442,2.3,3.256,3.256,0,0,1-.694.978c-.284.245-.755.531-.726.789a2.125,2.125,0,0,1,.031.316c0,.054,0,.189,0,.189l-.431.473-.484.474-1.957-1.831-.126-.947.3-.378.868.378s.663.726,1.042.41a3.033,3.033,0,0,0,.9-1.077,3.452,3.452,0,0,0,.143-2.023,5.684,5.684,0,0,0-2.367-3.433,3.4,3.4,0,0,0-2.441-.873,2.1,2.1,0,0,0-1.3.674,1.526,1.526,0,0,0-.337.631,3.123,3.123,0,0,0-.052.737h0l.473.947-.631.695-.568-.158-1.673-1.894.915-1.042Z" transform="translate(-577.09 -234.615)" fill="#7f5a1f"/>
    <path id="Trazado_109660" data-name="Trazado 109660" d="M1199.051,2618.959l3.567,3.946,1.073-.979-3.661-4.1Z" transform="translate(-587.476 -256.015)" fill="#6d4c1b"/>
    <path id="Trazado_109661" data-name="Trazado 109661" d="M1200.074,2632.687l.758-.537a3.562,3.562,0,0,1,1.767,1.894l-.663.663-.646-.316h0Z" transform="translate(-588.341 -268.133)" fill="#7f5a1f"/>
    <path id="Trazado_109662" data-name="Trazado 109662" d="M694.183,2353.357l14.3-14.108s-1.515-.853-1.989-3.882,2.651-8.332,2.651-8.332,1.894-4.072,1.515-4.829c0,0,4.734-.284,7.48-2.177s5.965-2.462,6.249-3.314,3.409-1.42,3.409-1.42a7.031,7.031,0,0,1,4.829.663c2.462,1.325,11.173,12.593,11.173,12.593a66.648,66.648,0,0,0,6.439,5.693c2.746,1.977,10.662,14.38,10.662,14.38s4.961,10.889,6.76,12.782S694.183,2353.357,694.183,2353.357Z" transform="translate(-160.465)" fill="#cccdce"/>
    <path id="Trazado_109663" data-name="Trazado 109663" d="M588.6,2563.025s2.074,1.98.559,4-15.277,15.4-15.277,15.4-1.894,2.652-4.293,3.03,13.888,23.14,13.888,23.14l25.766-42.914Z" transform="translate(-54.882 -209.668)" fill="#cccdce"/>
    <path id="Trazado_109664" data-name="Trazado 109664" d="M518.983,2722.41l-11.11,9.469v36.361s6.186,4.419,8.207,6.186,10.1,11.11,10.1,11.11,6.818,8.207,7.954,9.722a8.306,8.306,0,0,0,6.565,3.661c3.283,0,5.429-1.641,9.848-2.273s9.6,1.389,11.236,1.136,2.651-2.146,5.05-1.263a31.088,31.088,0,0,0,6.565,1.641c1.894.253,14.9,1.641,14.9,1.641l26.134,7.2,3.914-25.5Z" transform="translate(-2.887 -344.474)" fill="#cccdce"/>
    <path id="Trazado_109665" data-name="Trazado 109665" d="M1224.226,2778.081s25.756,4.292,26.639,2.778l-1.01,28.912Z" transform="translate(-608.768 -391.56)" fill="#b7b7b7"/>
    <path id="Trazado_109666" data-name="Trazado 109666" d="M1140.533,2795.273a27.464,27.464,0,0,1,4.991,4.047c2.258,2.322,2.869,3.791,6.877,10.725,3.782,6.544,3.837,6.27,5.716,9.822,1.646,3.108,4.005,7.854,4.005,7.854h0l.351.289a11.358,11.358,0,0,1-1.894,1.894c-1.153.906-1.964,1.544-2.935,1.42-.51-.065-.736-.3-1.231-.19a2.146,2.146,0,0,0-1.235,1.005,16.281,16.281,0,0,0-1.89,3.161c-.814,2.287-2.478,2.873-4.923,6.06,0,0-1.047,1.364-5.309,10.475h0l-28.083-6.015Z" transform="translate(-516.364 -406.1)" fill="#cccdce"/>
    <path id="Trazado_109667" data-name="Trazado 109667" d="M1146.189,2913.279c-1.326.095-10.51,1.136-11.179-.852s4.835-4.645,4.835-4.645l-9.168-13.819-11.234,10.575-6.853,13.552c.887,2.183,1.723,5.317.454,8.124-1.953,4.317-7.841,5.553-7.575,6.313.191.546,3.344.214,6.439-.758,5.012-1.573,6-3.607,9.469-3.535,2.507.052,3.149,1.14,4.36.477,2.323-1.269,2.043-4.633,3.219-7.574.379-.947,3.5-.474,5.587-.474s7.291-3.125,9.563-3.408c.908-.113,1.151.634,1.115,1.573l.021-.058a16.271,16.271,0,0,1,1.89-3.161,2.143,2.143,0,0,1,1.235-1.005c.495-.108.721.125,1.231.189a1.882,1.882,0,0,0,.252.015c.235-.32.428-.584.565-.772C1151.516,2912.521,1147.514,2913.184,1146.189,2913.279Z" transform="translate(-508.318 -489.571)" fill="#b7b7b7"/>
    <path id="Trazado_109668" data-name="Trazado 109668" d="M811.455,2465.89l5.3-6.06s1.894-2.462,3.6-1.231,1.231,2.083,3.882,4.639,4.071,2.462,5.113,2.652,5.492-1.894,5.492-1.894l-4.718,8.616-13.84,2.84Z" transform="translate(-259.653 -121.055)" fill="#b7b7b7"/>
    <path id="Trazado_109669" data-name="Trazado 109669" d="M887.282,2518.744s1.373-1.8,2.888-1.894,5.208-.758,5.208,0-.7,4.25-.7,4.25h-7.4Z" transform="translate(-323.786 -170.311)" fill="#a8a8a8"/>
    <path id="Trazado_109670" data-name="Trazado 109670" d="M553.727,2979.767s1.136,5.555-.631,6.313-3.535-3.788-6.313-3.788-2.525-5.934-7.449-4.04-5.555,7.2-8.585,4.671,1.263,3.661,3.03,2.525,5.176-3.282,6.818-1.641,3.914,5.808,6.818,6.439,1.894-.631,4.293,0,4.8,4.924,6.187,3.156-3.535-2.525-3.535-4.419,4.04-2.4,4.545-2.4S553.727,2979.767,553.727,2979.767Z" transform="translate(-21.344 -560.546)" fill="#b7b7b7"/>
    <path id="Trazado_109671" data-name="Trazado 109671" d="M818.208,2489.219s1.42-2.178,3.314-2.557,5.113-.094,5.965,1.278,2.367,2.415,1.894,2.888-4.166,3.753-4.166,3.753Z" transform="translate(-265.364 -144.952)" fill="#a8a8a8"/>
    <path id="Trazado_109672" data-name="Trazado 109672" d="M626.08,2564.2a24.712,24.712,0,0,0-6.25-1.073,19.947,19.947,0,0,0-6.818.947c-.292.117-.567.252-.567.252h0a10.357,10.357,0,0,0-4.293,3.156c-.5.709-.275.7-.72,1.326-1.16,1.634-2.79,1.843-4.456,2.588-2.22.991-5.251,3.266-5.492,5.871-.166,1.792,1.139,2.125.821,3.6-.539,2.5-4.789,3.874-7.638,4.8-2.324.754-4.615,1.166-4.608,1.894,0,.176.137.278.694.757,1.9,1.633,1.749,1.677,2.083,1.831,1.225.565,2.017-.572,4.04-.758,2.069-.189,2.841,1.123,4.271.964,4.606-.508,7.092-6.141,7.092-6.141l13.446-14.267Z" transform="translate(-69.015 -209.749)" fill="#b7b7b7"/>
    <path id="Trazado_109673" data-name="Trazado 109673" d="M706.814,3160.485a77.366,77.366,0,0,0,12.5-1.641,59.364,59.364,0,0,1,11.489-1.389s8.08.631,9.469,0l1.389-.631h0l17.676-2.146,17.044.758,9.216-.758-9.343,9.6-27.4-2.146s-10.353-3.03-14.519-2.652l-4.166.379s-3.788.505-5.808.758-5.05,1.642-8.964,1.894S706.814,3160.485,706.814,3160.485Z" transform="translate(-171.149 -710.08)" fill="#b7b7b7"/>
    <path id="Trazado_109674" data-name="Trazado 109674" d="M614.23,2915.621s-6.944,4.924-9.6,3.282,1.01,2.778,1.01,2.778a1.247,1.247,0,0,0-.916-.324,1.287,1.287,0,0,0-1.057.829c-.237.706.39,1.42.585,1.641.6.688,1.5,1.051,3.661,1.262a35.569,35.569,0,0,0,6.313,0h0l2.273-2.146Z" transform="translate(-83.868 -507.889)" fill="#b7b7b7"/>
    <path id="Trazado_109675" data-name="Trazado 109675" d="M760.115,3088.364a3.732,3.732,0,0,0,1.894,4.292c2.778,1.768,5.05,3.914,8.585,3.914S760.115,3088.364,760.115,3088.364Z" transform="translate(-216.117 -653.992)" fill="#b7b7b7"/>
    <path id="Trazado_109676" data-name="Trazado 109676" d="M1281.346,2866.5a16.319,16.319,0,0,1,5.555,2.083c.936.587,1.465,1.1,1.389,1.578a1.158,1.158,0,0,1-.758.821c-.3.09-.543-.008-.568.063-.039.113.6.275,1.073.884a1.218,1.218,0,0,1,.321.864.745.745,0,0,1-.068.272c-.395.69-.928,2.383-1.991,2.548a1.984,1.984,0,0,1-1.026-.275,6.848,6.848,0,0,1-1.78-1.136,5.944,5.944,0,0,0-2.777-1.136Z" transform="translate(-656.546 -466.342)" fill="#b7b7b7"/>
    <path id="Trazado_109677" data-name="Trazado 109677" d="M959.289,2523s4.546-3.978,7.2-3.22,1.136,3.788,2.652,3.22,6.44-1.707,8.712-3.316-6.44,4.831-6.44,4.831Z" transform="translate(-384.688 -172.79)" fill="#b7b7b7"/>
    <path id="Trazado_109678" data-name="Trazado 109678" d="M590.022,2750.477l-12.69-16.288,4.924,11.743a10.136,10.136,0,0,0-.189,4.735c.579,2.745,2.253,4.318,1.641,6.629-.143.54-.362.886-.186,1.343.314.812,1.669,1.156,3.816,1.688a8.89,8.89,0,0,1,4.577,2.652Z" transform="translate(-61.635 -354.436)" fill="#b7b7b7"/>
    <g id="Grupo_42080" data-name="Grupo 42080" transform="translate(597.664 2405.608)">
      <g id="Grupo_42079" data-name="Grupo 42079" transform="translate(0)">
        <path id="Trazado_109679" data-name="Trazado 109679" d="M1135.957,2908.565c-.272-1.463-2.043-4.3-3.708-6.715l-9.942,9.359-6.853,13.552c-4.934,6.88-7.644,12.745-6.238,14.058s7.158-1.834,13.827-7.413a10.464,10.464,0,0,0,3.6-3.7c.682-1.228,1.027-2.529,2.4-3.788a7.417,7.417,0,0,1,1.641-1.136q1.066.119,2.146.253,3.226.4,6.313.884c-4.307-2.226-5.433-4.327-5.6-5.9C1133.194,2914.7,1136.677,2912.445,1135.957,2908.565Z" transform="translate(-1108.847 -2901.85)" fill="#a8a8a8"/>
        <path id="Trazado_109680" data-name="Trazado 109680" d="M1277.318,3042.624a.838.838,0,0,0,.524.236C1278.1,3042.86,1277.842,3042.765,1277.318,3042.624Z" transform="translate(-1251.337 -3020.915)" fill="#a8a8a8"/>
      </g>
    </g>
    <path id="Trazado_109681" data-name="Trazado 109681" d="M802.007,3154.678l-17.676,2.146-1.389.631c-1.389.631-9.469,0-9.469,0a59.363,59.363,0,0,0-11.489,1.389,42.553,42.553,0,0,1-4.719.9,27.06,27.06,0,0,0,7.118-.046l3.535-.852H783.16c1.424,0,10.514,2.146,12.282,1.894s10.5-1.35,12.625-3.914a12.819,12.819,0,0,0,1.2-1.824Z" transform="translate(-213.82 -710.08)" fill="#a8a8a8"/>
    <path id="Trazado_109682" data-name="Trazado 109682" d="M609.638,2785.726l-1.894-12.5-9.458-12.141,4.743,10.431a5.28,5.28,0,0,1,1.894,3.553c0,2.02-1.262.919,0,5.067a10.224,10.224,0,0,0,2.208,3.7A8.089,8.089,0,0,1,609.638,2785.726Z" transform="translate(-79.357 -377.185)" fill="#a8a8a8"/>
    <path id="Trazado_109683" data-name="Trazado 109683" d="M640.864,2607.11a13.871,13.871,0,0,0,3.189-4.307l13.446-14.267,4.917-3.364a16.052,16.052,0,0,0-2.745-.024,13.038,13.038,0,0,0-2.424.548c-3.383,1.156-5.217,5.109-9.974,7.7-2.21,1.2-4.431,1.777-5.383,4a3.175,3.175,0,0,0-.425,1.559c0,1.768,1.01,6.565-3.661,6.565h-4.671S638.951,2605.759,640.864,2607.11Z" transform="translate(-108.829 -228.339)" fill="#a8a8a8"/>
    <path id="Trazado_109684" data-name="Trazado 109684" d="M640.554,3013.111c-.923,1.76-2.445,4.226-3.962,4.757a1.567,1.567,0,0,1-1.026.031c-1.62-.531-4.547.169-6.625.813a5.607,5.607,0,0,0,2.414,1.333c2.789.607,1.968-.534,4.025-.065,1.116-.312,2.187-.608,2.983-.829a7.173,7.173,0,0,0,2.965-.747,7.089,7.089,0,0,0,1.641-1.136l-1.248-2.656Z" transform="translate(-105.285 -590.345)" fill="#a8a8a8"/>
    <path id="Trazado_109685" data-name="Trazado 109685" d="M750.038,2589.054c-.444,25.8-21.908,46.787-46.592,48.3-29,1.774-55.057-23.793-53.032-52.842,1.728-24.789,23.418-45.157,48.675-45.645C726.447,2538.336,750.516,2561.276,750.038,2589.054Z" transform="translate(-123.353 -189.226)" fill="#ddbd85"/>
    <path id="Trazado_109686" data-name="Trazado 109686" d="M765.711,2604.247c.031,25.275-20.987,46.665-46.782,46.4s-46.252-22.067-45.834-47.16c.4-23.935,19.673-43.907,43.183-45.456C742.242,2556.323,765.677,2577.59,765.711,2604.247Z" transform="translate(-142.624 -205.365)" fill="#cccdce"/>
    <path id="Trazado_109687" data-name="Trazado 109687" d="M1220.723,2600.338a4.224,4.224,0,0,0,.442-2.3,5.765,5.765,0,0,0-1.231-3.219,5.563,5.563,0,0,0-3.093-2.146,4.313,4.313,0,0,0-1.794-.088,5.2,5.2,0,0,1,2.489.656,5.875,5.875,0,0,1,3.136,7.193Z" transform="translate(-601.005 -234.617)" fill="#6d4c1b"/>
    <path id="Trazado_109688" data-name="Trazado 109688" d="M507.054,2374.776l15.413,1.935s10.416.379,13.445-.568,3.693-.436,3.693-.436,13.256-2.121,14.392-3.352c.043-.047.08-.066.111-.06.53.111-.619,7.408-2.1,16.724-.062.391-.112.7-.134.843l-7.44-7.566a87.054,87.054,0,0,0-17.8-1.64c-8.931.114-17.469,1.651-19.074-1.715a2.857,2.857,0,0,1-.253-1.389Z" transform="translate(-2.194 -48.351)" fill="#e5cda7"/>
    <path id="Trazado_109689" data-name="Trazado 109689" d="M504.554,2405.844l38.064,3.189a29.462,29.462,0,0,0,5.4,6.942,30.675,30.675,0,0,0,6.42,4.641,49.049,49.049,0,0,0,6.018,2.735c2.909,1.165,3.167,1.065,5.218,1.978,3.636,1.619,5.465,2.464,5.976,4.208a4.664,4.664,0,0,1-1.176,4.332,5.306,5.306,0,0,1-2.948,1.391,9.792,9.792,0,0,1-4.208-.211,22,22,0,0,1-4.545-1.431c-.809-.349-2.04-1.033-4.5-2.4,0,0-2.009-1.115-4.124-2.062a11.541,11.541,0,0,0-1.6-.589,11.229,11.229,0,0,0-1.978-.379,9.916,9.916,0,0,0-2.946.21,27.414,27.414,0,0,1-6.018.337,44.1,44.1,0,0,1-4.882-.463c-1.87-.241-2.082-.345-3.7-.505-1-.1-1.666-.132-2.778-.336-1-.183-1-.255-1.936-.421-1.456-.259-1.707-.13-2.988-.337a18.894,18.894,0,0,1-2.82-.715c-2.293-.714-2.465-1.082-2.988-.884-1.4.532-.95,3.481-2.273,3.83a9.216,9.216,0,0,1-1.978-.547c-1.543-.493-1.482-.5-1.852-.589a18.023,18.023,0,0,0-2.693-.294c-.714-.055-1.309-.1-1.726-.126-.22-3.154-.38-6.439-.463-9.847C504.425,2413.446,504.445,2409.554,504.554,2405.844Z" transform="translate(0 -76.727)" fill="#e5cda7"/>
    <path id="Trazado_109690" data-name="Trazado 109690" d="M694.967,2552.426q.333-.341.631-.673c.361.032.867.072,1.473.1,1.279.069,2.268.067,2.693.063a22.216,22.216,0,0,0,2.251-.084c1.7-.179,2.268-.533,2.439-.3.285.4-.651,2.26-2.272,2.84-1.928.691-5.579-.173-6-.292-.113-.032-.463-.146-.673.021-.1.075-.14.19-.232.189s-.165-.118-.21-.21l-.947-.842Q694.538,2552.863,694.967,2552.426Z" transform="translate(-160.416 -199.887)" fill="#a8a8a8"/>
    <path id="Trazado_109691" data-name="Trazado 109691" d="M576.511,2523.478l-1.3,3.787h-3.24a49.189,49.189,0,0,1-9.048.547c-3.577-.295-4.672-.084-7.112-1.263a7.715,7.715,0,0,1-3.451-3.661l3.367-3.24Z" transform="translate(-40.509 -172.981)" fill="#ceb597"/>
    <path id="Trazado_109692" data-name="Trazado 109692" d="M563.5,2453.194c-2.13.189-9.421-4.166-10.652-6.249s-7.953-3.977-9.184-4.64-2.462,0-4.924-.46-.189-2-.608-3.233-6.209-2.84-8.86-3.469-3.977.534-6.155,1.187-5.965-.653-10.226-3.02a22.527,22.527,0,0,0-8.412-2.381q-.044,3.783.048,7.79.124,5.112.463,9.848c.417.029,1.011.071,1.726.126a17.964,17.964,0,0,1,2.693.295c.37.086.309.1,1.852.589a9.214,9.214,0,0,0,1.978.547c1.323-.349.87-3.3,2.273-3.83.523-.2.695.169,2.988.884a19.017,19.017,0,0,0,2.82.715c1.281.207,1.532.078,2.988.336.932.166.938.238,1.936.421,1.112.2,1.773.238,2.778.337,1.621.16,1.833.263,3.7.505a44.036,44.036,0,0,0,4.882.463,27.413,27.413,0,0,0,6.018-.336,9.915,9.915,0,0,1,2.946-.211,11.226,11.226,0,0,1,1.978.379,11.564,11.564,0,0,1,1.6.589c2.115.948,4.124,2.062,4.124,2.062,2.463,1.366,3.694,2.05,4.5,2.4a22,22,0,0,0,4.545,1.431,9.78,9.78,0,0,0,4.208.21,5.3,5.3,0,0,0,2.948-1.391,4.73,4.73,0,0,0,.935-1.429C569.977,2452.638,565.378,2453.027,563.5,2453.194Z" transform="translate(-0.001 -97.943)" fill="#d8bf9c"/>
    <path id="Trazado_109693" data-name="Trazado 109693" d="M897.13,2545.471c-1.034.309-1.378,1.9-1.5,2.451a5.748,5.748,0,0,0-.018,2.3,6.421,6.421,0,0,0,.5.657,3.331,3.331,0,0,0,.973.689,5.222,5.222,0,0,0,1.347.379,14.361,14.361,0,0,0,1.6.21,3.766,3.766,0,0,0,1.852-1.6,4.006,4.006,0,0,0,.168-3.282,4.256,4.256,0,0,0-.678-1.212,8.84,8.84,0,0,0-1.131-.345,11.471,11.471,0,0,0-2.315-.252A3.8,3.8,0,0,0,897.13,2545.471Z" transform="translate(-330.743 -194.806)" fill="#c1a084"/>
    <path id="Trazado_109694" data-name="Trazado 109694" d="M507.873,3130.505q.063,4.055.126,8.11l1.01,3.914,4.671,1.389h35.233l16.759-13.413a25.721,25.721,0,0,1,3.138-2.243,46.088,46.088,0,0,1,4.8-2.44c.681-.309,1.236-.544,2.1-1,1.176-.617,1.376-.825,2.234-1.275a16.3,16.3,0,0,1,3.2-1.263,21.084,21.084,0,0,1,3.577-.463c1.446-.122,3.18-.264,5.471-.252a27.638,27.638,0,0,1,3.24.168c1.1.129,1.082.2,1.894.294,1.976.225,2.289-.183,5.008-.126a12.789,12.789,0,0,1,2.9.336c.626.152.829.257,1.263.379,1.606.453,2.178-.031,4.04.042,2.182.086,2.607.8,4.755.631a9.485,9.485,0,0,0,1.557-.253,11.39,11.39,0,0,0,2.357-1.3,17.906,17.906,0,0,0,2.273-2.1,23.077,23.077,0,0,1,3.577-2.736,38.081,38.081,0,0,1,4.419-2.567c.585-.41,1.417-1.009,2.4-1.768,1.033-.8.864-.715,1.641-1.3a13.068,13.068,0,0,0,2.736-2.23,3.705,3.705,0,0,0,.758-1.431,3.775,3.775,0,0,0,0-1.6,9.086,9.086,0,0,1,.421-3.367c1-4.849,1.492-7.273.884-9.048a21.864,21.864,0,0,0-1.81-3.535c-.56-.965-1.068-1.74-1.431-2.272a19.427,19.427,0,0,0-.589-2.693c-.294-1-.531-1.5-1.01-1.726a1.92,1.92,0,0,0-.758-.126,7.415,7.415,0,0,0-1.936.168,16.153,16.153,0,0,0-1.431-2.1,7.785,7.785,0,0,1-1.515-2.23c-.05-.13-.033-.1-.295-.842-.466-1.319-.469-1.265-.547-1.557-.171-.644-.117-.757-.294-.968a1.713,1.713,0,0,0-1.094-.463,5.2,5.2,0,0,0-1.641-.042l-.379-1.01a1.542,1.542,0,0,1-.505.21c-.816.176-1.276-.466-1.978-.505-.766-.043-1.374.657-1.936,1.305a5.856,5.856,0,0,0-1.347,3.072,10.449,10.449,0,0,0,.379,3.282c.148.8.347,1.879.589,3.156-1.934.994-3.392,1.747-4.166,2.146a34.965,34.965,0,0,1-5.6,2.609,18.7,18.7,0,0,1-3.2.8c-1.465.222-1.662.058-2.988.336a18.757,18.757,0,0,1-2.82.673,9.891,9.891,0,0,1-2.273-.21c-1.37-.157-2.262.1-4.419.632-5.456,1.334-4.832.906-6.4,1.473a52.182,52.182,0,0,0-5.471,2.82c-3.438,1.888-5.157,2.832-5.85,3.325-3.037,2.159-3.048,3.046-5.976,4.714-1.029.586-1.627.817-3.283,1.81-1.1.661-1.872,1.178-3.493,2.272-4.321,2.918-4.114,2.794-4.293,2.9-1.172.718-2.384,1.324-7.533,3.156-2.557.911-3.836,1.366-6.523,2.231-4.675,1.5-7.806,2.878-13.719,5.387C524.129,3123.759,517.273,3126.641,507.873,3130.505Z" transform="translate(-2.887 -641.748)" fill="#e5cda7"/>
    <path id="Trazado_109695" data-name="Trazado 109695" d="M1214.54,3191.513a33.121,33.121,0,0,0,6.376-4.292c.083.292.21.74.358,1.294a11.676,11.676,0,0,0,.337,1.168,3.329,3.329,0,0,0,.726,1.294,2.593,2.593,0,0,0,.579.442c-.777.009-1.087.217-1.22.421-.041.062-.05.1-.274.526s-.2.368-.252.473c-.226.485-.151.658-.358,1.063a1.313,1.313,0,0,1-.31.453c-.759.741-2.282.415-5.329,1.8-.526.239-2.654,1.235-3.888.8a1.238,1.238,0,0,1-.215-.1c-.106-.063-1.366-1.85-.568-3.072.234-.358.515-.468,1.294-.842C1212.724,3192.489,1213.6,3191.93,1214.54,3191.513Z" transform="translate(-596.936 -737.605)" fill="#d8bf9c"/>
    <path id="Trazado_109696" data-name="Trazado 109696" d="M1240.921,3077.21l.964-.4-.123.015-.379-1.01a1.538,1.538,0,0,1-.505.21,1.281,1.281,0,0,1-.146.023c-.062.388-.088.779.03.881C1241.016,3077.147,1240.921,3077.21,1240.921,3077.21Z" transform="translate(-622.686 -643.375)" fill="#c1a084"/>
    <path id="Trazado_109697" data-name="Trazado 109697" d="M1307.784,3134.855a1.013,1.013,0,0,0-.289-.081,11.706,11.706,0,0,0,.384,1.965l1.5,2.535a19.488,19.488,0,0,0-.589-2.693C1308.5,3135.583,1308.263,3135.084,1307.784,3134.855Z" transform="translate(-679.196 -693.246)" fill="#c1a084"/>
    <path id="Trazado_109698" data-name="Trazado 109698" d="M1260.867,3084.781c-.031-.252,1.331,1.745,1.331,1.745-.038-.11-.1-.28-.195-.556-.466-1.319-.469-1.265-.547-1.557-.171-.644-.117-.757-.294-.968a1.311,1.311,0,0,0-.779-.4s.453.5.453.757S1260.867,3084.781,1260.867,3084.781Z" transform="translate(-639.35 -649.494)" fill="#c1a084"/>
    <path id="Trazado_109699" data-name="Trazado 109699" d="M1160.368,3252.079c2.885-1.594,3.629-2.309,3.661-2.651,0-.047.014-.29.168-.379s.4.023.568.126a2.04,2.04,0,0,1,.315.126,2.109,2.109,0,0,1,.337.21l.9.506c.52.358.968.672,1.326.926,1.84,1.3,2.393,1.76,2.82,2.525.207.37.488,1,.343,1.111-.252.19-1.377-1.483-2.8-2.184-1.251-.615-3.3-.76-6.818,1.2Z" transform="translate(-554.758 -789.869)" fill="#d8bf9c"/>
    <path id="Trazado_109700" data-name="Trazado 109700" d="M1299.976,3134.491" transform="translate(-672.837 -693.006)" fill="none" stroke="#000" stroke-miterlimit="10" stroke-width="2"/>
    <path id="Trazado_109701" data-name="Trazado 109701" d="M1230.427,3084.885a4.027,4.027,0,0,0-1.957,2.241,10.308,10.308,0,0,0,0,3.788c0,.316.568,2.82.568,2.82" transform="translate(-612.192 -651.05)" fill="none" stroke="#ceb597" stroke-miterlimit="10" stroke-width="3"/>
    <path id="Trazado_109702" data-name="Trazado 109702" d="M1276.1,3182.513s.989,4.671,2.1,4.924c0,0-.955.063-1.245.631a9.01,9.01,0,0,0-.859,2.778c0,.694-.884,1.894,0,2.777a5.474,5.474,0,0,0,1.709,1.2" transform="translate(-652.314 -733.622)" fill="none" stroke="#ceb597" stroke-miterlimit="10" stroke-width="3"/>
    <path id="Trazado_109703" data-name="Trazado 109703" d="M1168.684,3209.53v1.136l-.821.852s-4.861,2.683-5.176,6.155c0,0-3.22-2.462-4.545-2.146s-3.914.631-3.914.631" transform="translate(-549.565 -756.473)" fill="none" stroke="#ceb597" stroke-miterlimit="10" stroke-width="3"/>
    <path id="Trazado_109704" data-name="Trazado 109704" d="M1147.269,3252.511s3.977,4.735,4.166,6.376-.063,3.219.568,4.418a4.594,4.594,0,0,1,.631,1.894" transform="translate(-543.679 -792.826)" fill="none" stroke="#ceb597" stroke-miterlimit="10" stroke-width="3"/>
    <path id="Trazado_109705" data-name="Trazado 109705" d="M1113.43,3263.405a19.427,19.427,0,0,0,6.018-4.208,23.673,23.673,0,0,1,1.641,2.1,13.836,13.836,0,0,1,1.157,1.936,6.322,6.322,0,0,1,.568,1.578,5.025,5.025,0,0,1,.042,1.536c-.142-.32-1.574-3.5-2.609-3.282-.377.078-.838.634-1.01.842-.374.452-.479.8-.943,1.063a1.821,1.821,0,0,1-.588.2c-.8.124-1.315-.614-2.215-1.136A4.979,4.979,0,0,0,1113.43,3263.405Z" transform="translate(-515.059 -798.481)" fill="#ceb597"/>
    <path id="Trazado_109706" data-name="Trazado 109706" d="M1116.154,3130.985l3.251-1.326a18.4,18.4,0,0,1,3.756-1.262,5.817,5.817,0,0,1,3.6.9,6.814,6.814,0,0,1,1.136,6.238,9.912,9.912,0,0,1-3.282,3.693c-2.146,1.326-2.115,1.894-4.545,2.967s-6.5,2.557-6.5,2.557a36.963,36.963,0,0,0-6.029,3.472c-1.925,1.578-3.22,3.409-5.555,4.387s-3.182-3.311-3.182-3.311a2.861,2.861,0,0,1,1.8-1.8c1.458-.514,7.859-1.8,8.616-3.977s1.326-7.007.095-7.1a1.84,1.84,0,0,1-1.583-1.218c1.458-.62,2.986-1.323,4.565-2.121C1113.662,3132.386,1114.949,3131.684,1116.154,3130.985Z" transform="translate(-502.685 -687.807)" fill="#d8bf9c"/>
    <path id="Trazado_109707" data-name="Trazado 109707" d="M1236.286,3134.06a4.82,4.82,0,0,1,2.935-2.367,4.5,4.5,0,0,1,1.7-.347c.126,0,3.346,2.43,2.335,5.65a3.509,3.509,0,0,1-2.094,1.564c-.645.162-1.066.279-1.183.285a3.122,3.122,0,0,1-1.426-.239c-.579-.258-.964-.835-1.736-1.989a2.986,2.986,0,0,1-.726-1.672A2.329,2.329,0,0,1,1236.286,3134.06Z" transform="translate(-618.809 -690.346)" fill="#c1a084"/>
    <line id="Línea_377" data-name="Línea 377" x1="1.12" y2="1.032" transform="translate(624.775 2441.652)" fill="none" stroke="#ceb597" stroke-miterlimit="10" stroke-width="3"/>
    <path id="Trazado_109708" data-name="Trazado 109708" d="M1191.4,3262.536a22.689,22.689,0,0,1-3.661-2.4c-1.263-1.136-3.851.505-3.851.505s-3.6,1.932-3.977,3.238c0,0-.505-.486-2.462,0a8.253,8.253,0,0,1-3.914-.271,25.06,25.06,0,0,0-2.525.434" transform="translate(-563.76 -798.937)" fill="none" stroke="#ceb597" stroke-miterlimit="10" stroke-width="3"/>
    <path id="Trazado_109709" data-name="Trazado 109709" d="M695.7,2553.291l-1.521,1.5.962,1.538,1.627-2.944Z" transform="translate(-160.466 -201.435)" fill="#a8a8a8"/>
    <path id="Trazado_109710" data-name="Trazado 109710" d="M716.274,3297.082c-4.282-4.356-7.272-4.167-11.06-3.978s-14.394-3.788-17.8-3.788-5.3,4.925-7.955,11.553c-2.062,5.155-27.033,19.245-38.034,25.255h20.446l16.759-13.413a25.692,25.692,0,0,1,3.138-2.242,46.175,46.175,0,0,1,4.8-2.441c.681-.308,1.236-.544,2.1-1,1.176-.617,1.376-.825,2.234-1.275a16.279,16.279,0,0,1,3.2-1.263,21.045,21.045,0,0,1,3.577-.463c1.446-.122,3.18-.264,5.471-.252a27.731,27.731,0,0,1,3.24.169c1.1.129,1.082.2,1.894.294,1.976.225,2.289-.183,5.008-.126a12.8,12.8,0,0,1,2.9.336c.626.153.829.257,1.263.379,1.606.453,2.178-.032,4.04.042.1,0,.2.01.289.017A32.121,32.121,0,0,0,716.274,3297.082Z" transform="translate(-115.84 -823.955)" fill="#d8bf9c"/>
    <path id="Trazado_109711" data-name="Trazado 109711" d="M1181.575,3262.142c-1.2,1.414-1.643,2.078-2.272,2.352-.678.295-1.115-.076-2.084.111a5.216,5.216,0,0,0-2.273,1.136,46.659,46.659,0,0,0-4.925,4.924c-2.866,2.946-5.625,1.561-9.28,3.6-1.833,1.021-3.954,2.939-5.592,6.847.253-.012.531-.016.847,0,2.182.086,2.607.8,4.755.631a9.5,9.5,0,0,0,1.557-.252,11.433,11.433,0,0,0,2.357-1.3,17.894,17.894,0,0,0,2.272-2.1,23.127,23.127,0,0,1,3.577-2.736,38.066,38.066,0,0,1,4.419-2.567c.585-.41,1.417-1.01,2.4-1.768,1.033-.8.864-.715,1.641-1.3a13.071,13.071,0,0,0,2.736-2.23,3.7,3.7,0,0,0,.758-1.431,3.777,3.777,0,0,0,0-1.6,8.554,8.554,0,0,1,.391-3.223A4.631,4.631,0,0,0,1181.575,3262.142Z" transform="translate(-550.344 -800.191)" fill="#d8bf9c"/>
    <path id="Trazado_109712" data-name="Trazado 109712" d="M531.616,2473.935c.03-.243-1.815-.363-4.545-1.515-1.494-.63-1.679-.9-3.661-1.767-1.742-.758-2.187-.8-3.283-1.263-3.3-1.389-2.941-2.538-5.555-3.661-2.825-1.214-3.99-.189-7.007-1.641a12.241,12.241,0,0,1-2.967-2.02q.01,1.481.042,2.988.11,5.073.463,9.848c.417.029,1.011.071,1.726.126a18,18,0,0,1,2.693.295c.092.021.679.21,1.852.589.755.244,1.523.444,2.283.674a1.675,1.675,0,0,0,.536.126,2.3,2.3,0,0,0,1.8-2.557c-.173-.572-.738-.764-.663-.915.116-.234,1.419.325,3.314.6a15.138,15.138,0,0,0,1.6.146,15.25,15.25,0,0,1,2.537-.3,32.343,32.343,0,0,1,4.545.379C529.215,2474.231,531.582,2474.208,531.616,2473.935Z" transform="translate(-0.117 -124.279)" fill="#ceb597"/>
    <path id="Trazado_109713" data-name="Trazado 109713" d="M741.02,2418.21a9.039,9.039,0,0,0-3.914,1.136l1.9,1.713h.006l.04.041,5.885,5.316,1.641,1.515.211-1.767q.347-1.912.668-3.895.3-1.864.56-3.677A31.281,31.281,0,0,0,741.02,2418.21Z" transform="translate(-196.769 -87.114)" fill="#d8bf9c"/>
    <path id="Trazado_109714" data-name="Trazado 109714" d="M781.8,2343.9a7.307,7.307,0,0,0,4.206-1.25c3.166-2.278,3.983-6.99,3.5-10.416s4.1-12.2,6.664-16.8a5.116,5.116,0,0,0-.793.132s-3.125.568-3.409,1.42-3.5,1.42-6.249,3.314-7.48,2.178-7.48,2.178c.379.757-1.515,4.829-1.515,4.829s-3.125,5.3-2.651,8.333,1.988,3.882,1.988,3.882l2.22,1.88Z" transform="translate(-227.996 -0.263)" fill="#cccdce"/>
    <path id="Trazado_109715" data-name="Trazado 109715" d="M825.412,2463.442a8.585,8.585,0,0,0,3.053-4.562c-.109-.092-.228-.186-.36-.281-1.7-1.231-3.6,1.231-3.6,1.231l-3.889,4.445.588.417A7.3,7.3,0,0,0,825.412,2463.442Z" transform="translate(-267.402 -121.055)" fill="#b7b7b7"/>
    <path id="Trazado_109716" data-name="Trazado 109716" d="M825.168,2486.663a5.262,5.262,0,0,0-2.649,1.718l.3.209a7.307,7.307,0,0,0,4.206-1.25,6.99,6.99,0,0,0,.9-.778A9.723,9.723,0,0,0,825.168,2486.663Z" transform="translate(-269.01 -144.953)" fill="#a8a8a8"/>
    <path id="Trazado_109717" data-name="Trazado 109717" d="M1165.553,3238.672c.546-.109.948-.172,1.22-.211a4.348,4.348,0,0,0,.631-.1,2.126,2.126,0,0,1,.547-.126,1.222,1.222,0,0,1,.421.063,1.813,1.813,0,0,1,.252-.4,1.855,1.855,0,0,1,.673-.505l.147-.842q-.951.463-1.957,1.01T1165.553,3238.672Z" transform="translate(-559.144 -779.324)" fill="#cccdce"/>
    <path id="Trazado_109718" data-name="Trazado 109718" d="M1184.635,3174.979a10.761,10.761,0,0,1-5.11,3.529c-2.965.887-4.748-.238-8.238,1.231a11.079,11.079,0,0,0-2.967,1.862c-1.25,1.093-2.762,2.921-2.367,3.472.52.726,4.276-.861,4.356-.883h0s4.072-1.484,6.5-2.557,2.4-1.641,4.545-2.967A9.9,9.9,0,0,0,1184.635,3174.979Z" transform="translate(-559.427 -727.25)" fill="#ceb597"/>
    <path id="Trazado_109719" data-name="Trazado 109719" d="M804.372,3341.928c-3.028-5.512-12.49-6.492-15.341-3.6-.646.655-1.831,1.858-1.711,3.245a4.822,4.822,0,0,1,0,1.936,2.176,2.176,0,0,1-.589,1.136,2.694,2.694,0,0,1-1.136.547,8.9,8.9,0,0,1-1.189.274,4.862,4.862,0,0,0-2.01,1.073c-1.088.821-10.678,8.754-23.736,19.7h2.366l16.759-13.413a25.726,25.726,0,0,1,3.138-2.243,46.091,46.091,0,0,1,4.8-2.441c.681-.308,1.236-.544,2.1-1,1.176-.618,1.376-.825,2.234-1.275a16.3,16.3,0,0,1,3.2-1.262,21.026,21.026,0,0,1,3.577-.463c1.446-.122,3.18-.264,5.471-.252a28.216,28.216,0,0,1,3.154.158C805.061,3343.237,804.679,3342.488,804.372,3341.928Z" transform="translate(-214.998 -864.067)" fill="#ceb597"/>
    <path id="Trazado_109720" data-name="Trazado 109720" d="M737.106,2426.045l6.755,6.081" transform="translate(-196.769 -93.812)" fill="none" stroke="#ceb597" stroke-miterlimit="10" stroke-width="3"/>
    <path id="Trazado_109721" data-name="Trazado 109721" d="M1169.7,3261.448s-4.3-1.042-7.181,2.167" transform="translate(-556.576 -800.248)" fill="none" stroke="#ceb597" stroke-miterlimit="10" stroke-width="3"/>
    <path id="Trazado_109722" data-name="Trazado 109722" d="M1273.646,3254.889s-1.023-.365-.914.7" transform="translate(-649.787 -794.786)" fill="none" stroke="#ceb597" stroke-miterlimit="10" stroke-width="3"/>
    <path id="Trazado_109723" data-name="Trazado 109723" d="M1047.662,2983.408a43.893,43.893,0,0,0,8.964-3.956,35.537,35.537,0,0,0,4.25-2.9,32.849,32.849,0,0,0,3.283-3.03l.379-.589" transform="translate(-459.433 -556.359)" fill="none" stroke="#2f3a22" stroke-linecap="round" stroke-miterlimit="10" stroke-width="7"/>
    <path id="Trazado_109724" data-name="Trazado 109724" d="M1092.537,3014.955c-1.06.376-1.953.672-2.609.884a16.065,16.065,0,0,1-4.377,1.052,9.878,9.878,0,0,1-1.9-.1" transform="translate(-489.874 -591.905)" fill="none" stroke="#2f3a22" stroke-linecap="round" stroke-miterlimit="10" stroke-width="7"/>
    <path id="Trazado_109725" data-name="Trazado 109725" d="M1130.5,3000.5c.1-.484.451-1.991,1.59-2.431a1.769,1.769,0,0,1,.267-.08.5.5,0,0,1,.114.241.522.522,0,0,1-.089.377c.385-.318.713-.577.959-.768.279-.216.427-.325.531-.274.184.089.095.6.081.68.316-.258.549-.467.71-.615a.856.856,0,0,1,.347-.221c.218-.065.5-.034.537.079.025.072-.053.161-.205.332a2.493,2.493,0,0,1-.3.289,4.74,4.74,0,0,1,1.155-.5,4.793,4.793,0,0,1,1.6-.173,5.987,5.987,0,0,1-1.729,1.413,1.173,1.173,0,0,1,.505.142c.282.156.587.482.521.679s-.56.285-1.2.173c.151.1.22.188.205.253q-.047.207-1.2.162a.4.4,0,0,1,.231.112.391.391,0,0,1,.1.182,1.6,1.6,0,0,1-.494.235,1.783,1.783,0,0,1-1.274-.16c.225.218.441.474.37.614-.119.237-.994.028-1.479-.088A9.818,9.818,0,0,1,1130.5,3000.5Z" transform="translate(-529.494 -577.033)" fill="#35203a"/>
    <path id="Trazado_109726" data-name="Trazado 109726" d="M1153.568,2946.8a3.025,3.025,0,0,1,.347-2.667,1.665,1.665,0,0,1,.189-.174l.268.5c.221-.437.382-.786.489-1.026.1-.225.189-.434.331-.442.114-.006.213.119.268.205a2.533,2.533,0,0,1,.253-.773c.094-.182.248-.478.38-.456.148.025.211.436.251.693a2.937,2.937,0,0,1,.031.316,4.38,4.38,0,0,1,2.02-1.673,3.3,3.3,0,0,1-1.026,1.815,1.761,1.761,0,0,1,.521,0c.2.03.357.054.395.142.084.2-.479.6-.568.663q.385-.073.426.016.077.164-1.026.884a.365.365,0,0,1,.237,0,.359.359,0,0,1,.158.11,1.475,1.475,0,0,1-.316.395,1.64,1.64,0,0,1-1.12.379c.274.091.555.218.552.363,0,.245-.814.422-1.263.521A8.959,8.959,0,0,1,1153.568,2946.8Z" transform="translate(-548.873 -529.614)" fill="#35203a"/>
    <path id="Trazado_109727" data-name="Trazado 109727" d="M1078.094,2986.7c-.285-.246,1.2-2.427,1.547-2.969a16.349,16.349,0,0,1,1.515-2.1,34.128,34.128,0,0,1,2.988-2.693,3.453,3.453,0,0,1,.042,1.262,5.035,5.035,0,0,1-1.347,2.4,16.151,16.151,0,0,1-1.515,1.6C1080.279,2985.169,1078.377,2986.943,1078.094,2986.7Z" transform="translate(-485.141 -561.438)" fill="#2f3a22"/>
    <path id="Trazado_109728" data-name="Trazado 109728" d="M1061.315,3035a33.823,33.823,0,0,1,4.375-.2,6,6,0,0,1,1.178.168,5.877,5.877,0,0,1,1.052.379c.671.314,1.381.646,1.352.963-.037.4-1.262.628-1.983.679a8.441,8.441,0,0,1-2.1-.21,8.092,8.092,0,0,1-2.441-.631A4.888,4.888,0,0,1,1061.315,3035Z" transform="translate(-470.981 -608.677)" fill="#2f3a22"/>
    <path id="Trazado_109729" data-name="Trazado 109729" d="M1148.244,2968.782a2.483,2.483,0,0,0,.539-1.23c.065-.509-.029-1.152-.21-1.178s-.487.6-.547,1.178A2.368,2.368,0,0,0,1148.244,2968.782Z" transform="translate(-544.309 -550.815)" fill="#2f3a22"/>
    <path id="Trazado_109730" data-name="Trazado 109730" d="M1149.4,2978.3a2.486,2.486,0,0,0,1.34.079c.5-.115,1.07-.427,1.032-.606s-.731-.249-1.295-.1A2.369,2.369,0,0,0,1149.4,2978.3Z" transform="translate(-545.477 -560.301)" fill="#2f3a22"/>
    <path id="Trazado_109731" data-name="Trazado 109731" d="M1126.8,3017.938a2.485,2.485,0,0,0,1.066.816c.479.184,1.126.246,1.194.076s-.466-.616-1.014-.812A2.361,2.361,0,0,0,1126.8,3017.938Z" transform="translate(-526.369 -594.386)" fill="#2f3a22"/>
    <path id="Trazado_109732" data-name="Trazado 109732" d="M1125.388,3008.855a2.481,2.481,0,0,0,1.077-.8c.308-.41.545-1.015.4-1.128s-.72.28-1.058.753A2.367,2.367,0,0,0,1125.388,3008.855Z" transform="translate(-525.173 -585.095)" fill="#2f3a22"/>
    <path id="Trazado_109733" data-name="Trazado 109733" d="M1191.2,2837.572s1.846,1.23,1.9,1.73" transform="translate(-580.84 -441.876)" fill="none" stroke="#515a56" stroke-linecap="round" stroke-miterlimit="10" stroke-width="7"/>
    <path id="Trazado_109734" data-name="Trazado 109734" d="M1200.937,2821.744s-1.218,1.665-1.1,1.958" transform="translate(-588.131 -428.489)" fill="none" stroke="#515a56" stroke-linecap="round" stroke-miterlimit="10" stroke-width="7"/>
    <path id="Trazado_109735" data-name="Trazado 109735" d="M1191.2,2858.039s1.993.381,1.954,1.305" transform="translate(-580.84 -459.187)" fill="none" stroke="#515a56" stroke-linecap="round" stroke-miterlimit="10" stroke-width="7"/>
    <line id="Línea_378" data-name="Línea 378" x2="1.469" y2="1.72" transform="translate(610.534 2402.072)" fill="none" stroke="#515a56" stroke-linecap="round" stroke-miterlimit="10" stroke-width="7"/>
    <path id="Trazado_109736" data-name="Trazado 109736" d="M1204.954,2859.677s-1.2,2.188-1.524,2.188" transform="translate(-591.18 -460.572)" fill="none" stroke="#515a56" stroke-linecap="round" stroke-miterlimit="10" stroke-width="7"/>
    <path id="Trazado_109737" data-name="Trazado 109737" d="M1189.3,2896.518s1.154,1.714.975,2.317" transform="translate(-579.224 -491.732)" fill="none" stroke="#515a56" stroke-linecap="round" stroke-miterlimit="10" stroke-width="7"/>
    <path id="Trazado_109738" data-name="Trazado 109738" d="M1201.237,2882.054a19.3,19.3,0,0,0-2.5,2.525l-.2.508h0" transform="translate(-587.042 -479.498)" fill="none" stroke="#515a56" stroke-linecap="round" stroke-miterlimit="10" stroke-width="7"/>
    <line id="Línea_379" data-name="Línea 379" x1="1.863" y2="1.719" transform="translate(610.985 2405.589)" fill="none" stroke="#515a56" stroke-linecap="round" stroke-miterlimit="10" stroke-width="7"/>
    <path id="Trazado_109739" data-name="Trazado 109739" d="M1190.209,2825.838a7.7,7.7,0,0,1,1.358,5.134,43.605,43.605,0,0,1-.421,5.134l-1.852,6.229" transform="translate(-579.224 -431.952)" fill="none" stroke="#515a56" stroke-linecap="round" stroke-miterlimit="10" stroke-width="7"/>
    <line id="Línea_380" data-name="Línea 380" x1="1.094" y2="2.82" transform="translate(612.343 2396.201)" fill="none" stroke="#515a56" stroke-linecap="round" stroke-miterlimit="10" stroke-width="7"/>
    <path id="Trazado_109740" data-name="Trazado 109740" d="M1203.923,2804.006a3.369,3.369,0,0,0-1.578,1.831,1.692,1.692,0,0,0,.063,1.431.441.441,0,0,0,.19.168c.431.174,1.235-.553,1.536-1.283A2.608,2.608,0,0,0,1203.923,2804.006Z" transform="translate(-590.149 -413.487)" fill="#515a56"/>
    <path id="Trazado_109741" data-name="Trazado 109741" d="M1184.3,2805.71a2.951,2.951,0,0,0,.184,2.578c.06.081.715.935,1.326.779a.641.641,0,0,0,.242-.123c.455-.374.338-1.381.019-2A2.609,2.609,0,0,0,1184.3,2805.71Z" transform="translate(-574.817 -414.928)" fill="#515a56"/>
    <path id="Trazado_109742" data-name="Trazado 109742" d="M1212.8,2826.7a2.69,2.69,0,0,0-2.42.358c-.447.4-.926,1.212-.652,1.725a.675.675,0,0,0,.273.274c.544.286,1.348-.337,1.586-.521A3.636,3.636,0,0,0,1212.8,2826.7Z" transform="translate(-596.441 -432.565)" fill="#515a56"/>
    <path id="Trazado_109743" data-name="Trazado 109743" d="M1174.286,2829.057a1.794,1.794,0,0,1,1.511-.4c.741.253,1.624.968,1.624,1.515,0,.522-1.522.6-2.231.168a2.023,2.023,0,0,1-.231-.168A2.152,2.152,0,0,1,1174.286,2829.057Z" transform="translate(-566.53 -434.287)" fill="#515a56" stroke="#515a56" stroke-miterlimit="10" stroke-width="0.25"/>
    <path id="Trazado_109744" data-name="Trazado 109744" d="M1211.541,2846.4a2.571,2.571,0,0,1,2.672-2.967,3.128,3.128,0,0,1-.589,1.725A3.225,3.225,0,0,1,1211.541,2846.4Z" transform="translate(-598.02 -446.827)" fill="#515a56" stroke="#515a56" stroke-miterlimit="10" stroke-width="0.25"/>
    <path id="Trazado_109745" data-name="Trazado 109745" d="M1174.286,2850.459a2.185,2.185,0,0,1,1.178-.589,2.088,2.088,0,0,1,2,.821,1.745,1.745,0,0,1,.253.589,2.3,2.3,0,0,1-1.789.379,2.2,2.2,0,0,1-1.115-.652Z" transform="translate(-566.53 -452.26)" fill="#515a56" stroke="#515a56" stroke-miterlimit="10" stroke-width="0.25"/>
    <path id="Trazado_109746" data-name="Trazado 109746" d="M1212.391,2871a1.873,1.873,0,0,1,.09-.891,2.039,2.039,0,0,1,.689-.9,2.686,2.686,0,0,1,1.62-.673,4.548,4.548,0,0,1,1.326.231h0a6.918,6.918,0,0,1-1.157,1.325,3.376,3.376,0,0,1-1.263.821A2.767,2.767,0,0,1,1212.391,2871Z" transform="translate(-598.743 -468.071)" fill="#515a56" stroke="#515a56" stroke-miterlimit="10" stroke-width="0.25"/>
    <path id="Trazado_109747" data-name="Trazado 109747" d="M1178.806,2870.763a1.985,1.985,0,0,0-.61-1.618,2.022,2.022,0,0,0-.947-.315,3.825,3.825,0,0,0-1.326.021,2.07,2.07,0,0,0,.568,1.368,2.119,2.119,0,0,0,1.052.547A2.644,2.644,0,0,0,1178.806,2870.763Z" transform="translate(-567.914 -468.273)" fill="#515a56" stroke="#515a56" stroke-miterlimit="10" stroke-width="0.25"/>
    <path id="Trazado_109748" data-name="Trazado 109748" d="M1205.243,2893.231a1.06,1.06,0,0,1,.065-.751,1.334,1.334,0,0,1,.493-.461,3.24,3.24,0,0,1,.568-.295,3.9,3.9,0,0,1,.694-.252,3.36,3.36,0,0,1,.484-.084,3.3,3.3,0,0,1,1.031.064,2.354,2.354,0,0,1-1.054,1.779,2.746,2.746,0,0,1-1.24.156A4.481,4.481,0,0,1,1205.243,2893.231Z" transform="translate(-592.68 -487.38)" fill="#515a56" stroke="#515a56" stroke-miterlimit="10" stroke-width="0.25"/>
    <path id="Trazado_109749" data-name="Trazado 109749" d="M1175.869,2884.769a2.428,2.428,0,0,0,.337,1.475,2.135,2.135,0,0,0,2.188,1.031,1.59,1.59,0,0,0,.042-.926,1.7,1.7,0,0,0-.484-.779,3.637,3.637,0,0,0-.8-.568h0Z" transform="translate(-567.86 -481.795)" fill="#515a56" stroke="#515a56" stroke-miterlimit="10" stroke-width="0.25"/>
    <path id="Trazado_109750" data-name="Trazado 109750" d="M1143.728,2741.547c-.072.194-.174.45-.316.742a8.393,8.393,0,0,1-.868,1.42c-.68.893-.828.689-1.042,1.167a3.707,3.707,0,0,0-.138,1.957h0s.406,1.1.8.929a3.77,3.77,0,0,0,1.562-2.05,2.891,2.891,0,0,0,.079-.647,2.157,2.157,0,0,0-.095-.647,2.013,2.013,0,0,0-.221-.473c-.157-.26-.175-.84.39-2.225Z" transform="translate(-538.624 -360.66)" fill="#8a393a"/>
    <path id="Trazado_109751" data-name="Trazado 109751" d="M1113.907,2690.951l1.894-.126a4.286,4.286,0,0,0,.694-.5c.61-.544.576-.829.979-1.01a2,2,0,0,1,1.484.126,3,3,0,0,1,.789.442,2.3,2.3,0,0,1-.916,1.641,2.355,2.355,0,0,1-1.483.316c-.616-.034-.581-.221-1.489-.379l-1.584-.145h0Z" transform="translate(-515.462 -316.392)" fill="#8a393a"/>
    <path id="Trazado_109752" data-name="Trazado 109752" d="M1113.465,2708.373l.242.187a4.585,4.585,0,0,0,0,1.757,1.752,1.752,0,0,1,.063.6c-.03.3-.139.434-.568,1.1-.445.7-.595.965-.915,1.057a.4.4,0,0,1-.3-.006c-.2-.1-.233-.4-.25-.562-.135-1.312-.2-1.969.079-2.257.328-.336.651-.135,1.073-.473A1.906,1.906,0,0,0,1113.465,2708.373Z" transform="translate(-513.523 -332.602)" fill="#8a393a"/>
    <path id="Trazado_109753" data-name="Trazado 109753" d="M1092.621,2685.978s6.029,4.1,7.733,6,3.377,3.188,3.882,6.06" transform="translate(-497.459 -313.66)" fill="none" stroke="#607a3e" stroke-linecap="round" stroke-miterlimit="10" stroke-width="6"/>
    <path id="Trazado_109754" data-name="Trazado 109754" d="M1161.589,2761.5a5.467,5.467,0,0,1,.536.789,5.866,5.866,0,0,1,.6,1.641,7.922,7.922,0,0,1,.252,3.409c-.024.133-.356,1.876-.915,1.894-.253.008-.475-.339-.631-.663a4.494,4.494,0,0,1-.6-.979,5.44,5.44,0,0,1-.284-3.188,7.869,7.869,0,0,1,.347-1.325A9.793,9.793,0,0,1,1161.589,2761.5Z" transform="translate(-554.812 -377.538)" fill="#607a3e"/>
    <path id="Trazado_109755" data-name="Trazado 109755" d="M1165.574,2755.277a8.332,8.332,0,0,1,3.742.9c.355.182,2.384,1.256,2.651,2.714a.38.38,0,0,1-.032.284c-.392.593-3.527-.141-4.577-1.8a7.931,7.931,0,0,0-.852-1.2A7.382,7.382,0,0,0,1165.574,2755.277Z" transform="translate(-559.161 -372.272)" fill="#607a3e"/>
    <path id="Trazado_109756" data-name="Trazado 109756" d="M1149.378,2728.968a2.062,2.062,0,0,0,.969.265c.664.005,1.017-.355,1.673-.6a4.381,4.381,0,0,1,1.894-.189c1.663.075,3.466.868,3.409,1.389-.026.233-.419.357-1.01.536a7.1,7.1,0,0,1-3.851.221A7.022,7.022,0,0,1,1149.378,2728.968Z" transform="translate(-545.463 -349.56)" fill="#607a3e"/>
    <path id="Trazado_109757" data-name="Trazado 109757" d="M1128.369,2720.773a2.492,2.492,0,0,1-.284,1.073,2.756,2.756,0,0,1-.6.726,3.709,3.709,0,0,0-.852,2.21c-.174,1.181-.016,2.827.505,2.935.313.064.659-.444.916-.821a6.078,6.078,0,0,0,.852-3.63c-.011-.584-.083-.595-.063-1.136.018-.482.089-.826-.126-1.1A.815.815,0,0,0,1128.369,2720.773Z" transform="translate(-526.168 -343.089)" fill="#607a3e"/>
    <path id="Trazado_109758" data-name="Trazado 109758" d="M1130.219,2704.693l-.347-.221a8.316,8.316,0,0,0,1.136-.126,6.316,6.316,0,0,0,1.1-.284,4.571,4.571,0,0,0,1.294-.758c.538-.419,1.78-.708,4.861-.158a4.306,4.306,0,0,1-1.42,1.389,4.513,4.513,0,0,1-2.493.6,18.429,18.429,0,0,1-2.02-.379A9.6,9.6,0,0,0,1130.219,2704.693Z" transform="translate(-528.965 -327.924)" fill="#607a3e"/>
    <line id="Línea_381" data-name="Línea 381" x1="2.258" y2="1.327" transform="translate(578.685 2368.53)" fill="none" stroke="#90b3b0" stroke-miterlimit="10" stroke-width="5"/>
    <line id="Línea_382" data-name="Línea 382" x1="1.974" y2="2.367" transform="translate(574.257 2368.53)" fill="none" stroke="#90b3b0" stroke-miterlimit="10" stroke-width="5"/>
    <path id="Trazado_109759" data-name="Trazado 109759" d="M998.046,2669.71s-5.208-1.1-6.123-.8" transform="translate(-412.29 -299.181)" fill="none" stroke="#90b3b0" stroke-miterlimit="10" stroke-width="5"/>
    <path id="Trazado_109760" data-name="Trazado 109760" d="M907.43,2669.195l-1.136.042a38.5,38.5,0,0,0-5.3,1.431l-8.88,3.956" transform="translate(-327.87 -299.465)" fill="none" stroke="#083029" stroke-linecap="round" stroke-miterlimit="10" stroke-width="6"/>
    <path id="Trazado_109761" data-name="Trazado 109761" d="M917.708,2673.834s-2.8,1.657-2.746,3.143" transform="translate(-347.197 -303.389)" fill="none" stroke="#083029" stroke-linecap="round" stroke-miterlimit="10" stroke-width="6"/>
    <line id="Línea_383" data-name="Línea 383" y2="1.882" transform="translate(569.138 2369.562)" fill="none" stroke="#083029" stroke-linecap="round" stroke-miterlimit="10" stroke-width="6"/>
    <line id="Línea_384" data-name="Línea 384" y1="0.166" x2="1.373" transform="translate(569.433 2371.034)" fill="none" stroke="#083029" stroke-linecap="round" stroke-miterlimit="10" stroke-width="6"/>
    <line id="Línea_385" data-name="Línea 385" x1="0.048" y2="0.821" transform="translate(568.191 2371.623)" fill="none" stroke="#083029" stroke-linecap="round" stroke-miterlimit="10" stroke-width="6"/>
    <line id="Línea_386" data-name="Línea 386" y1="2.273" transform="translate(574.257 2368.383)" fill="none" stroke="#083029" stroke-linecap="round" stroke-miterlimit="10" stroke-width="6"/>
    <path id="Trazado_109762" data-name="Trazado 109762" d="M939.75,2687.234c-1.81-1.936-6.291-1.494-6.291-1.494" transform="translate(-362.842 -313.422)" fill="none" stroke="#083029" stroke-linecap="round" stroke-miterlimit="10" stroke-width="6"/>
    <line id="Línea_387" data-name="Línea 387" x1="1.441" y2="0.534" transform="translate(574.415 2372.017)" fill="none" stroke="#083029" stroke-linecap="round" stroke-miterlimit="10" stroke-width="6"/>
    <line id="Línea_388" data-name="Línea 388" x1="1.389" y2="0.227" transform="translate(575.856 2372.816)" fill="none" stroke="#083029" stroke-linecap="round" stroke-miterlimit="10" stroke-width="6"/>
    <line id="Línea_389" data-name="Línea 389" x1="0.543" y1="1.627" transform="translate(575.313 2372.816)" fill="none" stroke="#083029" stroke-linecap="round" stroke-miterlimit="10" stroke-width="6"/>
    <path id="Trazado_109763" data-name="Trazado 109763" d="M911.713,2695.355a6.343,6.343,0,0,1,3.795.631" transform="translate(-344.449 -321.543)" fill="none" stroke="#083029" stroke-linecap="round" stroke-miterlimit="10" stroke-width="6"/>
    <line id="Línea_390" data-name="Línea 390" x2="1.75" y2="1.343" transform="translate(577.81 2369.857)" fill="none" stroke="#083029" stroke-linecap="round" stroke-miterlimit="10" stroke-width="6"/>
    <path id="Trazado_109764" data-name="Trazado 109764" d="M949.056,2628.823s-2.924-2.4-.494-7.112a7.1,7.1,0,0,1,1.373,3.556,11.156,11.156,0,0,1-.879,3.766" transform="translate(-374.799 -259.304)" fill="#083029"/>
    <path id="Trazado_109765" data-name="Trazado 109765" d="M934.683,2698.045s3.324-1.106,6.1,3.186C940.785,2701.232,935.525,2702.308,934.683,2698.045Z" transform="translate(-363.877 -323.758)" fill="#083029"/>
    <path id="Trazado_109766" data-name="Trazado 109766" d="M987.771,2675.684s3.428-.7,6.5,3.678C994.271,2679.363,988.383,2678.95,987.771,2675.684Z" transform="translate(-408.778 -304.919)" fill="#083029"/>
    <path id="Trazado_109767" data-name="Trazado 109767" d="M967.269,2627.542a6.153,6.153,0,0,1,.116-1.936,7.579,7.579,0,0,1,3.882-4.713,6.767,6.767,0,0,1-.474,2.993A7.146,7.146,0,0,1,967.269,2627.542Z" transform="translate(-391.413 -258.612)" fill="#90b3b0"/>
    <path id="Trazado_109768" data-name="Trazado 109768" d="M995.539,2638.1s.252-2.609,9.216-4.924C1004.755,2633.173,1003.83,2638.434,995.539,2638.1Z" transform="translate(-415.348 -268.999)" fill="#90b3b0"/>
    <path id="Trazado_109769" data-name="Trazado 109769" d="M1026.649,2671.924s6.313-.042,8.669,4.293a7.809,7.809,0,0,1-4.208-.253A8.113,8.113,0,0,1,1026.649,2671.924Z" transform="translate(-441.661 -301.774)" fill="#90b3b0"/>
    <path id="Trazado_109770" data-name="Trazado 109770" d="M969.858,2662.763" transform="translate(-393.628 -294.025)" fill="#90b3b0"/>
    <path id="Trazado_109771" data-name="Trazado 109771" d="M1023.238,2667.7a10.372,10.372,0,0,1,4.024-.752,14.366,14.366,0,0,1,2.509.367" transform="translate(-438.776 -297.547)" fill="none" stroke="#90b3b0" stroke-miterlimit="10" stroke-width="5"/>
    <line id="Línea_391" data-name="Línea 391" x1="1.105" y2="0.868" transform="translate(588.487 2368.53)" fill="none" stroke="#90b3b0" stroke-miterlimit="10" stroke-width="5"/>
    <line id="Línea_392" data-name="Línea 392" x1="1.326" y2="0.529" transform="translate(589.923 2368.964)" fill="none" stroke="#90b3b0" stroke-miterlimit="10" stroke-width="5"/>
    <path id="Trazado_109772" data-name="Trazado 109772" d="M931.22,2661.774a1.913,1.913,0,0,1,.084-1.025,2.2,2.2,0,0,1,1.515-1.241,1.8,1.8,0,0,1-.042,1.094A2.087,2.087,0,0,1,931.22,2661.774Z" transform="translate(-360.919 -291.271)" fill="#9f547e"/>
    <path id="Trazado_109773" data-name="Trazado 109773" d="M922.091,2658.064s-1.025-.706.574-1.968C922.665,2656.1,923.054,2657.655,922.091,2658.064Z" transform="translate(-352.953 -288.386)" fill="#9f547e"/>
    <path id="Trazado_109774" data-name="Trazado 109774" d="M916.163,2673.834a1.035,1.035,0,0,0-.313.737c.009.247.128.576.289.589s.392-.343.384-.673A.9.9,0,0,0,916.163,2673.834Z" transform="translate(-347.948 -303.389)" fill="#9f547e"/>
    <path id="Trazado_109775" data-name="Trazado 109775" d="M935.142,2674.332a1.142,1.142,0,0,0-1.683.333A1.046,1.046,0,0,0,935.142,2674.332Z" transform="translate(-362.842 -303.608)" fill="#9f547e"/>
    <circle id="Elipse_1045" data-name="Elipse 1045" cx="0.542" cy="0.542" r="0.542" transform="matrix(0.23, -0.973, 0.973, 0.23, 568.339, 2367.476)" fill="#9f547e"/>
    <path id="Trazado_109776" data-name="Trazado 109776" d="M934.3,2652.389a.421.421,0,1,1-.421-.42A.421.421,0,0,1,934.3,2652.389Z" transform="translate(-362.842 -284.896)" fill="#9f547e"/>
    <path id="Trazado_109777" data-name="Trazado 109777" d="M947.156,2667.293a.437.437,0,1,1-.437-.437A.437.437,0,0,1,947.156,2667.293Z" transform="translate(-373.686 -297.487)" fill="#9f547e"/>
    <path id="Trazado_109778" data-name="Trazado 109778" d="M942.33,2671.013a.276.276,0,1,1-.276-.276A.276.276,0,0,1,942.33,2671.013Z" transform="translate(-369.878 -300.77)" fill="#9f547e"/>
    <ellipse id="Elipse_1046" data-name="Elipse 1046" cx="0.633" cy="0.509" rx="0.633" ry="0.509" transform="translate(574.046 2371.2)" fill="#9f547e"/>
    <circle id="Elipse_1047" data-name="Elipse 1047" cx="0.673" cy="0.673" r="0.673" transform="translate(578.591 2373.812)" fill="#9f547e"/>
    <circle id="Elipse_1048" data-name="Elipse 1048" cx="0.484" cy="0.484" r="0.484" transform="translate(580.053 2375.642) rotate(-45)" fill="#9f547e"/>
    <ellipse id="Elipse_1049" data-name="Elipse 1049" cx="0.522" cy="0.41" rx="0.522" ry="0.41" transform="translate(578.685 2376.337)" fill="#9f547e"/>
    <path id="Trazado_109779" data-name="Trazado 109779" d="M975.052,2707.255a.4.4,0,1,1-.4-.4A.4.4,0,0,1,975.052,2707.255Z" transform="translate(-397.345 -331.318)" fill="#9f547e"/>
    <path id="Trazado_109780" data-name="Trazado 109780" d="M969.34,2709.447" transform="translate(-393.189 -333.51)" fill="#9f547e"/>
    <path id="Trazado_109781" data-name="Trazado 109781" d="M967.491,2675.89s-1.889-.812-1.828,1.22C965.662,2677.11,967.533,2677.206,967.491,2675.89Z" transform="translate(-390.078 -304.993)" fill="#9f547e"/>
    <path id="Trazado_109782" data-name="Trazado 109782" d="M969.34,2709.447" transform="translate(-393.189 -333.51)" fill="#9f547e"/>
    <path id="Trazado_109783" data-name="Trazado 109783" d="M987.771,2684.136" transform="translate(-408.778 -312.102)" fill="none" stroke="#083029" stroke-linecap="round" stroke-miterlimit="10" stroke-width="6"/>
    <path id="Trazado_109784" data-name="Trazado 109784" d="M976.774,2682.963s-1.989-.845-2.005.824A1.4,1.4,0,0,0,976.774,2682.963Z" transform="translate(-397.781 -310.929)" fill="#9f547e"/>
    <path id="Trazado_109785" data-name="Trazado 109785" d="M985.772,2705.627" transform="translate(-407.087 -330.279)" fill="#9f547e"/>
    <path id="Trazado_109786" data-name="Trazado 109786" d="M975.726,2696.922a1.593,1.593,0,0,0-.362-1.046,1.7,1.7,0,0,0-1.435-.532,1.358,1.358,0,0,0,1.8,1.578Z" transform="translate(-397.041 -321.573)" fill="#9f547e"/>
    <path id="Trazado_109787" data-name="Trazado 109787" d="M965.072,2700.174a1.069,1.069,0,0,0,.349-.592,1.318,1.318,0,0,0-.786-1.323,1.074,1.074,0,0,0-.426.674A1.231,1.231,0,0,0,965.072,2700.174Z" transform="translate(-388.841 -324.048)" fill="#9f547e"/>
    <path id="Trazado_109788" data-name="Trazado 109788" d="M1056.265,2651.184s-1.7.274-1.557,1.789C1054.708,2652.973,1056.791,2653.372,1056.265,2651.184Z" transform="translate(-465.384 -284.232)" fill="#9f547e"/>
    <path id="Trazado_109789" data-name="Trazado 109789" d="M1068.313,2657.81s-1.651-.328-1.783,1C1066.53,2658.814,1068.018,2659.767,1068.313,2657.81Z" transform="translate(-475.391 -289.806)" fill="#9f547e"/>
    <path id="Trazado_109790" data-name="Trazado 109790" d="M1066.13,2670.467s.524-1.547-1.348-1.341C1064.781,2669.126,1064.551,2671.077,1066.13,2670.467Z" transform="translate(-473.903 -299.391)" fill="#9f547e"/>
    <circle id="Elipse_1050" data-name="Elipse 1050" cx="0.419" cy="0.419" r="0.419" transform="translate(590.867 2366.005)" fill="#9f547e"/>
    <ellipse id="Elipse_1051" data-name="Elipse 1051" cx="0.442" cy="0.548" rx="0.442" ry="0.548" transform="translate(592.606 2366.424)" fill="#9f547e"/>
    <circle id="Elipse_1052" data-name="Elipse 1052" cx="0.442" cy="0.442" r="0.442" transform="translate(593.489 2368.151)" fill="#9f547e"/>
    <ellipse id="Elipse_1053" data-name="Elipse 1053" cx="0.526" cy="0.405" rx="0.526" ry="0.405" transform="translate(592.606 2369.194)" fill="#9f547e"/>
    <ellipse id="Elipse_1054" data-name="Elipse 1054" cx="0.505" cy="0.37" rx="0.505" ry="0.37" transform="translate(592.921 2370.455)" fill="#9f547e"/>
    <path id="Trazado_109791" data-name="Trazado 109791" d="M829.149,2684.808c.049-2.481-.009-2.255.042-2.862.138-1.659.6-3.754,1.052-3.745.16,0,.275.274.337.421a2.613,2.613,0,0,1-.168,1.936c-.011.03-.274,1.409-.8,4.166a14.7,14.7,0,0,1-.461,2.257A12,12,0,0,1,829.149,2684.808Z" transform="translate(-274.588 -307.082)" fill="#987b4e"/>
    <path id="Trazado_109792" data-name="Trazado 109792" d="M834.292,2686.6l1-3.058s1.094-3.065,1.768-2.476c0,0,.842-.067-.842,3l-1.683,3.064Z" transform="translate(-278.968 -309.44)" fill="#987b4e"/>
    <path id="Trazado_109793" data-name="Trazado 109793" d="M839.472,2696.415l1.679-2.357s1.094-1.767,1.894-1.683-.758,1.852-.758,1.852l-2.525,2.436Z" transform="translate(-283.349 -319.068)" fill="#987b4e"/>
    <path id="Trazado_109794" data-name="Trazado 109794" d="M841.524,2703.3l2.67-1.6s2.23-1.6,1.809-1.852-2.213,1.023-2.213,1.023l-2.711,2.428Z" transform="translate(-284.708 -325.366)" fill="#987b4e"/>
    <path id="Trazado_109795" data-name="Trazado 109795" d="M868.166,2723.243l1.715-2.777s1.01-2.03,1.557-1.772-1.3,2.825-1.3,2.825l-1.967,2.23Z" transform="translate(-307.618 -341.311)" fill="#987b4e"/>
    <path id="Trazado_109796" data-name="Trazado 109796" d="M865.913,2732.129l3.746-2.37s1.639-1.26,1.935-.967a.225.225,0,0,1,.043.181c-.067.7-4.121,3.1-5.513,3.914Z" transform="translate(-305.712 -349.834)" fill="#987b4e"/>
    <path id="Trazado_109797" data-name="Trazado 109797" d="M870.279,2742.374l3.872-1.136c.964-.378,2.274-.82,2.494-.47a.267.267,0,0,1,.024.189c-.117.751-2.033,1.122-2.265,1.165l-3.409.673Z" transform="translate(-309.405 -359.893)" fill="#987b4e"/>
    <path id="Trazado_109798" data-name="Trazado 109798" d="M873.058,2753.795l3.777.211s2.924-.084,2.64-.463a.621.621,0,0,0-.223-.245,6.057,6.057,0,0,0-2.88-.429c-1.056.085-4.205.531-3.156.379h0Z" transform="translate(-311.711 -370.22)" fill="#987b4e"/>
    <line id="Línea_393" data-name="Línea 393" x1="2.02" y2="6.717" transform="translate(552.962 2381.825)" fill="none" stroke="#1a241a" stroke-miterlimit="10" stroke-width="6"/>
    <path id="Trazado_109799" data-name="Trazado 109799" d="M803.912,2763.89a7.276,7.276,0,0,0-1.262.463,8.984,8.984,0,0,0-3.241,2.778c-2.08,2.617-3.47,4.368-4.166,7.238a14.194,14.194,0,0,0-.379,4.04" transform="translate(-245.605 -379.557)" fill="none" stroke="#1a241a" stroke-miterlimit="10" stroke-width="6"/>
    <path id="Trazado_109800" data-name="Trazado 109800" d="M803.42,2756.6s.884.7.631,3.566-.8,4.545-.293,4.882" transform="translate(-252.857 -373.388)" fill="none" stroke="#1a241a" stroke-miterlimit="10" stroke-width="6"/>
    <path id="Trazado_109801" data-name="Trazado 109801" d="M805.553,2792.544a13.233,13.233,0,0,0-6.781,3.7c-2.568,2.937-2.639,3.32-2.639,3.32" transform="translate(-246.694 -403.792)" fill="none" stroke="#1a241a" stroke-miterlimit="10" stroke-width="6"/>
    <path id="Trazado_109802" data-name="Trazado 109802" d="M785.135,2796.774a3.9,3.9,0,0,1,.884,1.241,6,6,0,0,1,.379,2.651,5.113,5.113,0,0,0,.084,1.725c.029.109.184.7.344.691.061,0,.106-.093.136-.173" transform="translate(-237.391 -407.37)" fill="none" stroke="#1a241a" stroke-miterlimit="10" stroke-width="6"/>
    <line id="Línea_394" data-name="Línea 394" x1="0.742" y2="2.351" transform="translate(553.972 2388.399)" fill="none" stroke="#1a241a" stroke-miterlimit="10" stroke-width="6"/>
    <path id="Trazado_109803" data-name="Trazado 109803" d="M834.087,2784.385a5.629,5.629,0,0,1-2.036,2.694" transform="translate(-277.072 -396.891)" fill="none" stroke="#1a241a" stroke-miterlimit="10" stroke-width="6"/>
    <path id="Trazado_109804" data-name="Trazado 109804" d="M828.193,2804.2a5.991,5.991,0,0,0-1.356-.253,6.058,6.058,0,0,0-2.462.351" transform="translate(-270.581 -413.423)" fill="none" stroke="#1a241a" stroke-miterlimit="10" stroke-width="6"/>
    <path id="Trazado_109805" data-name="Trazado 109805" d="M816.926,2812.04a3.948,3.948,0,0,0-3.682.484" transform="translate(-261.166 -420.069)" fill="none" stroke="#1a241a" stroke-miterlimit="10" stroke-width="6"/>
    <path id="Trazado_109806" data-name="Trazado 109806" d="M829.919,2779.309a2.24,2.24,0,0,0-.945.481,1.615,1.615,0,0,0-.633,1.018,1.387,1.387,0,0,0,.126.742,2.347,2.347,0,0,0,1.25-1.155A2.245,2.245,0,0,0,829.919,2779.309Z" transform="translate(-273.927 -392.598)" fill="#1a241a"/>
    <path id="Trazado_109807" data-name="Trazado 109807" d="M843.454,2772.043a2.086,2.086,0,0,0-.933,2.537,1.591,1.591,0,0,0,.759-.343,1.523,1.523,0,0,0,.174-2.194Z" transform="translate(-285.82 -386.453)" fill="#1a241a"/>
    <path id="Trazado_109808" data-name="Trazado 109808" d="M854.841,2787.915s-2.131-1.263-3.07.552C851.771,2788.468,854.036,2789.414,854.841,2787.915Z" transform="translate(-293.751 -399.516)" fill="#1a241a"/>
    <path id="Trazado_109809" data-name="Trazado 109809" d="M846.094,2804.147s2.067-.594,2.572.763A1.872,1.872,0,0,1,846.094,2804.147Z" transform="translate(-288.95 -413.496)" fill="#1a241a"/>
    <path id="Trazado_109810" data-name="Trazado 109810" d="M836.6,2812.609s-.247-1.239-3.106-.85C833.492,2811.759,834.02,2813.082,836.6,2812.609Z" transform="translate(-278.291 -419.98)" fill="#1a241a"/>
    <path id="Trazado_109811" data-name="Trazado 109811" d="M808.535,2755.976a7.894,7.894,0,0,1-.728,2.352" transform="translate(-256.567 -372.864)" fill="none" stroke="#1a241a" stroke-miterlimit="10" stroke-width="6"/>
    <path id="Trazado_109812" data-name="Trazado 109812" d="M795.233,2771.224s1.692,1.137,1.848,1.784" transform="translate(-245.932 -385.76)" fill="none" stroke="#1a241a" stroke-miterlimit="10" stroke-width="6"/>
    <path id="Trazado_109813" data-name="Trazado 109813" d="M808.514,2765.118q-.321.7-.652,1.41-.378.808-.757,1.6" transform="translate(-255.973 -380.596)" fill="none" stroke="#1a241a" stroke-miterlimit="10" stroke-width="6"/>
    <line id="Línea_395" data-name="Línea 395" x2="1.501" y2="0.9" transform="translate(549.648 2384.138)" fill="none" stroke="#1a241a" stroke-miterlimit="10" stroke-width="6"/>
    <path id="Trazado_109814" data-name="Trazado 109814" d="M795.991,2738.17a2.647,2.647,0,0,1,1.168,1.152,1.04,1.04,0,1,1-1.168-1.152Z" transform="translate(-246.422 -357.803)" fill="#1a241a"/>
    <path id="Trazado_109815" data-name="Trazado 109815" d="M810.164,2739.807a2.874,2.874,0,0,0-.305,3.093S811.474,2741.306,810.164,2739.807Z" transform="translate(-258.007 -359.188)" fill="#1a241a"/>
    <path id="Trazado_109816" data-name="Trazado 109816" d="M815.4,2755.26s-1.474-.016-1.416,2.036A1.639,1.639,0,0,0,815.4,2755.26Z" transform="translate(-261.786 -372.258)" fill="#1a241a"/>
    <path id="Trazado_109817" data-name="Trazado 109817" d="M782.952,2754.179s2.681-.381,2.793,1.609A2.143,2.143,0,0,1,782.952,2754.179Z" transform="translate(-235.545 -371.319)" fill="#1a241a"/>
    <path id="Trazado_109818" data-name="Trazado 109818" d="M784.692,2764.511s1.768-.205,1.973,1.152C786.665,2765.663,785.134,2766.452,784.692,2764.511Z" transform="translate(-237.017 -380.073)" fill="#1a241a"/>
    <path id="Trazado_109819" data-name="Trazado 109819" d="M778.808,2784.392a1.741,1.741,0,0,1,1.062,2.393S777.719,2786.033,778.808,2784.392Z" transform="translate(-231.78 -396.892)" fill="#1a241a"/>
    <path id="Trazado_109820" data-name="Trazado 109820" d="M787.455,2773.68" transform="translate(-239.354 -387.837)" fill="#1a241a"/>
    <path id="Trazado_109821" data-name="Trazado 109821" d="M794.037,2782.79a2.615,2.615,0,0,0-.407,2.761S795.252,2783.626,794.037,2782.79Z" transform="translate(-244.389 -395.542)" fill="#1a241a"/>
    <path id="Trazado_109822" data-name="Trazado 109822" d="M766.107,2789.133a2.57,2.57,0,0,1,2.43,2.715S765.9,2790.853,766.107,2789.133Z" transform="translate(-221.288 -400.907)" fill="#1a241a"/>
    <path id="Trazado_109823" data-name="Trazado 109823" d="M767.471,2803.939s1.594-.307,2.051,1.934C769.522,2805.874,767.345,2805.414,767.471,2803.939Z" transform="translate(-222.447 -413.418)" fill="#1a241a"/>
    <path id="Trazado_109824" data-name="Trazado 109824" d="M779.575,2804.017s1.884,1.292,2.1,1.392" transform="translate(-232.689 -413.496)" fill="none" stroke="#1a241a" stroke-miterlimit="10" stroke-width="6"/>
    <path id="Trazado_109825" data-name="Trazado 109825" d="M792.163,2797.934s-.173.963-.56,1.215" transform="translate(-242.862 -408.351)" fill="none" stroke="#1a241a" stroke-miterlimit="10" stroke-width="6"/>
    <path id="Trazado_109826" data-name="Trazado 109826" d="M777.938,2813.284a11.132,11.132,0,0,0,2.344,1.9" transform="translate(-231.304 -421.334)" fill="none" stroke="#1a241a" stroke-miterlimit="10" stroke-width="6"/>
    <path id="Trazado_109827" data-name="Trazado 109827" d="M823.607,2719.377a2.309,2.309,0,0,1-.694,1.4,2.707,2.707,0,0,1-1.973,1.2,2.3,2.3,0,0,1-2.115-1.31,2.123,2.123,0,0,1-.142-1.231,2.744,2.744,0,0,1,1.1-1.578,2.163,2.163,0,0,1,3.819,1.515Z" transform="translate(-265.736 -339.989)" fill="#471410"/>
    <path id="Trazado_109828" data-name="Trazado 109828" d="M851.454,2745.575a2.493,2.493,0,0,1-1.562,1.531,2.575,2.575,0,0,1-3-1.783c-.361-1.638,1.742-3.523,3.188-3.093A2.711,2.711,0,0,1,851.454,2745.575Z" transform="translate(-289.591 -361.184)" fill="#471410"/>
    <path id="Trazado_109829" data-name="Trazado 109829" d="M794.846,2868.41c.033,1.514.114,2.769.186,3.661a33.475,33.475,0,0,0,2.146,9.848,6.252,6.252,0,0,0,1.294,2.036,5.82,5.82,0,0,0,2.7,1.625h0" transform="translate(-245.605 -467.958)" fill="none" stroke="#486057" stroke-miterlimit="10" stroke-width="5"/>
    <line id="Línea_396" data-name="Línea 396" y1="2.939" x2="1.44" transform="translate(547.943 2403.531)" fill="none" stroke="#486057" stroke-miterlimit="10" stroke-width="5"/>
    <line id="Línea_397" data-name="Línea 397" x1="0.701" y2="2.248" transform="translate(549.241 2408.198)" fill="none" stroke="#486057" stroke-miterlimit="10" stroke-width="5"/>
    <path id="Trazado_109830" data-name="Trazado 109830" d="M805.092,2931.327s-3.345-1.723-3.614-2.361" transform="translate(-251.214 -519.176)" fill="none" stroke="#486057" stroke-miterlimit="10" stroke-width="5"/>
    <path id="Trazado_109831" data-name="Trazado 109831" d="M809.278,2958.628a9.736,9.736,0,0,0-.307,2.931" transform="translate(-257.524 -544.264)" fill="none" stroke="#486057" stroke-miterlimit="10" stroke-width="5"/>
    <path id="Trazado_109832" data-name="Trazado 109832" d="M775.874,2900.471s-2.845-.949-2.5,6.343C773.376,2906.813,777.772,2901.736,775.874,2900.471Z" transform="translate(-227.421 -495.041)" fill="#486057"/>
    <path id="Trazado_109833" data-name="Trazado 109833" d="M796.656,2898.464s2.779-.929,7.324,3.889C803.98,2902.354,799.148,2902.539,796.656,2898.464Z" transform="translate(-247.136 -493.317)" fill="#486057"/>
    <path id="Trazado_109834" data-name="Trazado 109834" d="M784.7,2930.271s-2.986.045-1.692,8.251C783.011,2938.522,787.026,2931.993,784.7,2930.271Z" transform="translate(-235.32 -520.28)" fill="#486057"/>
    <path id="Trazado_109835" data-name="Trazado 109835" d="M802.865,2969.859s-3.281,1.673,1.453,8.112C804.318,2977.971,805.862,2970.3,802.865,2969.859Z" transform="translate(-251.451 -553.763)" fill="#486057"/>
    <path id="Trazado_109836" data-name="Trazado 109836" d="M822.614,2972.766s3.875-1.316,7.158,5.943C829.771,2978.709,821.832,2975.313,822.614,2972.766Z" transform="translate(-269.045 -556.143)" fill="#486057"/>
    <path id="Trazado_109837" data-name="Trazado 109837" d="M820.4,2940.306s1.8-1.673,9.312,3.219C829.715,2943.525,822.233,2945.356,820.4,2940.306Z" transform="translate(-267.221 -528.533)" fill="#486057"/>
    <path id="Trazado_109838" data-name="Trazado 109838" d="M861.546,3018.98a23.707,23.707,0,0,0,6.24,3.765l.294.117a18.83,18.83,0,0,0,4.608,1.2,17.126,17.126,0,0,0,3.188.063,41.655,41.655,0,0,0,5.555-1.136h0" transform="translate(-302.019 -595.309)" fill="none" stroke="#4b7668" stroke-miterlimit="10" stroke-width="6"/>
    <path id="Trazado_109839" data-name="Trazado 109839" d="M886,3027.167a27.188,27.188,0,0,1-4.956.979,12.459,12.459,0,0,1-3.283.063s-.623-.086-3.349-.815h0" transform="translate(-312.905 -602.233)" fill="none" stroke="#4b7668" stroke-miterlimit="10" stroke-width="6"/>
    <path id="Trazado_109840" data-name="Trazado 109840" d="M909.84,3050.332s-3.188-2.841-4.8-4.072-4.123-3.311-4.123-3.311" transform="translate(-335.32 -615.582)" fill="none" stroke="#4b7668" stroke-miterlimit="10" stroke-width="6"/>
    <path id="Trazado_109841" data-name="Trazado 109841" d="M992.6,3016.115s-3.222,2.932-2.873,4.606" transform="translate(-410.407 -592.885)" fill="none" stroke="#4b7668" stroke-miterlimit="10" stroke-width="6"/>
    <path id="Trazado_109842" data-name="Trazado 109842" d="M995.508,3024.916s-3.945,1.8-5.018,3.093" transform="translate(-411.078 -600.329)" fill="none" stroke="#4b7668" stroke-miterlimit="10" stroke-width="6"/>
    <path id="Trazado_109843" data-name="Trazado 109843" d="M994.771,3044.195s-5.093-.647-6.161-1.7l6.35-.535" transform="translate(-409.488 -614.747)" fill="none" stroke="#4b7668" stroke-miterlimit="10" stroke-width="6"/>
    <path id="Trazado_109844" data-name="Trazado 109844" d="M991.518,3048.98a6.754,6.754,0,0,1-4.067-3.265" transform="translate(-408.507 -617.921)" fill="none" stroke="#4b7668" stroke-miterlimit="10" stroke-width="6"/>
    <path id="Trazado_109845" data-name="Trazado 109845" d="M988.429,3022.732a7.684,7.684,0,0,1-2.566-4.61,6.312,6.312,0,0,1,.23-3.029,19.765,19.765,0,0,1,.947-2.051h0" transform="translate(-407.091 -590.286)" fill="none" stroke="#4b7668" stroke-miterlimit="10" stroke-width="6"/>
    <line id="Línea_398" data-name="Línea 398" x2="0.726" y2="3.277" transform="translate(569.334 2430.378)" fill="none" stroke="#4b7668" stroke-miterlimit="10" stroke-width="6"/>
    <path id="Trazado_109846" data-name="Trazado 109846" d="M918.036,3072.611s1.22-2.714,2.735-.726" transform="translate(-349.797 -639.439)" fill="none" stroke="#4b7668" stroke-miterlimit="10" stroke-width="6"/>
    <path id="Trazado_109847" data-name="Trazado 109847" d="M931.681,3068.033a7.546,7.546,0,0,0,3.809.589" transform="translate(-361.338 -636.797)" fill="none" stroke="#4b7668" stroke-miterlimit="10" stroke-width="6"/>
    <line id="Línea_399" data-name="Línea 399" x1="1.312" y2="1.339" transform="translate(571.872 2430.378)" fill="none" stroke="#4b7668" stroke-miterlimit="10" stroke-width="6"/>
    <line id="Línea_400" data-name="Línea 400" x1="2.4" y2="0.236" transform="translate(572.993 2433.172)" fill="none" stroke="#4b7668" stroke-miterlimit="10" stroke-width="6"/>
    <path id="Trazado_109848" data-name="Trazado 109848" d="M913.5,3016s-1.466-.44-2.122,2.773C911.376,3018.775,914.34,3017.991,913.5,3016Z" transform="translate(-344.164 -592.773)" fill="#4b7668"/>
    <path id="Trazado_109849" data-name="Trazado 109849" d="M932.462,3009.47s-1.515-.275-1.873,3.324C930.589,3012.794,933.388,3011.343,932.462,3009.47Z" transform="translate(-360.414 -587.262)" fill="#4b7668"/>
    <path id="Trazado_109850" data-name="Trazado 109850" d="M946.483,3018.117a3.1,3.1,0,0,0-3.745,1.551A2.876,2.876,0,0,0,946.483,3018.117Z" transform="translate(-370.69 -594.445)" fill="#4b7668"/>
    <path id="Trazado_109851" data-name="Trazado 109851" d="M933.872,3033.854s.779-1.834-3.283-1.645A2.934,2.934,0,0,0,933.872,3033.854Z" transform="translate(-360.414 -606.486)" fill="#4b7668"/>
    <path id="Trazado_109852" data-name="Trazado 109852" d="M915.524,3036.87s.542-1.564-2.946-1.925C912.578,3034.945,914.7,3037.859,915.524,3036.87Z" transform="translate(-345.181 -608.811)" fill="#4b7668"/>
    <path id="Trazado_109853" data-name="Trazado 109853" d="M949.566,3053.723s-1.307-.593-1.677,1.637C947.888,3055.36,950.291,3054.754,949.566,3053.723Z" transform="translate(-375.046 -624.633)" fill="#4b7668"/>
    <path id="Trazado_109854" data-name="Trazado 109854" d="M912.584,3081.654s-1.738-2.483.383-3.114C912.967,3078.54,914.246,3078.961,912.584,3081.654Z" transform="translate(-344.619 -645.684)" fill="#4b7668"/>
    <path id="Trazado_109855" data-name="Trazado 109855" d="M926.359,3081.642s-.971-1.393.03-2.3C926.389,3079.346,928.526,3079.39,926.359,3081.642Z" transform="translate(-356.479 -646.365)" fill="#4b7668"/>
    <path id="Trazado_109856" data-name="Trazado 109856" d="M953.846,3066.147s-1.473-.885-3.746.715C950.1,3066.862,952.016,3068.42,953.846,3066.147Z" transform="translate(-376.917 -634.995)" fill="#4b7668"/>
    <path id="Trazado_109857" data-name="Trazado 109857" d="M964.692,3079.085s-.4-2.026-3.534-.687C961.158,3078.4,961.3,3079.528,964.692,3079.085Z" transform="translate(-386.269 -645.177)" fill="#4b7668"/>
    <path id="Trazado_109858" data-name="Trazado 109858" d="M935.83,3075.915s-.679-1.911-1.669-1.842C934.161,3074.073,933.894,3075.576,935.83,3075.915Z" transform="translate(-363.425 -641.904)" fill="#4b7668"/>
    <path id="Trazado_109859" data-name="Trazado 109859" d="M944.85,3086.608s-.295-2.252.779-2.883A1.9,1.9,0,0,1,944.85,3086.608Z" transform="translate(-372.445 -650.069)" fill="#4b7668"/>
    <path id="Trazado_109860" data-name="Trazado 109860" d="M957.708,3090.126s-.652-2.8-2-2.462C955.709,3087.664,954.846,3090.084,957.708,3090.126Z" transform="translate(-381.557 -653.377)" fill="#4b7668"/>
    <path id="Trazado_109861" data-name="Trazado 109861" d="M978.755,3000.041a2.507,2.507,0,0,1,1.915.4,1.3,1.3,0,0,1,1.073-1.178s.568.685-.295,1.573c0,0,.9.173.947.783,0,0-.968.526-1.326,0,0,0,.23.611-1.232,1.115a1.107,1.107,0,0,1-.125-.917,1.1,1.1,0,0,1,.578-.64,1.807,1.807,0,0,1-1.536-1.136Z" transform="translate(-401.153 -578.632)" fill="#8c2e35"/>
    <path id="Trazado_109862" data-name="Trazado 109862" d="M1001.559,3001.446s.652-.01.947,1.236c0,0,.842-1.678,1.368-1.089,0,0,.505.232-.358,1.347,0,0,.484.653.189,1.052a.725.725,0,0,1-.316.074.515.515,0,0,1-.339-.083.792.792,0,0,0-.158-.118.625.625,0,0,0-.1-.042,1.693,1.693,0,0,1-1.136.863,1.43,1.43,0,0,1-.053-.547,1.523,1.523,0,0,1,.463-.926,1.354,1.354,0,0,1-.547-.619A1.42,1.42,0,0,1,1001.559,3001.446Z" transform="translate(-420.316 -580.478)" fill="#8c2e35"/>
    <path id="Trazado_109863" data-name="Trazado 109863" d="M1011.53,3012.177a3.126,3.126,0,0,1,.368-1.656s.663.215.41,1.5c0,0,.295-.607,1.241-.2,0,0,.174.658-.925.916a.793.793,0,0,1,.146.946s-1.432-.085-1.052-.863a1.886,1.886,0,0,1-1.851.169A1.376,1.376,0,0,1,1011.53,3012.177Z" transform="translate(-427.467 -588.153)" fill="#8c2e35"/>
    <path id="Trazado_109864" data-name="Trazado 109864" d="M1020.372,3029.579a1.792,1.792,0,0,1,1.452-.073,2.7,2.7,0,0,1,1.094-.905s.715.295-.126,1.241c0,0,.947.363.758.8,0,0-.066.313-.947.169,0,0-.211.743-.779.9,0,0-.631-.983-.274-1.215C1021.55,3030.494,1020.583,3030.283,1020.372,3029.579Z" transform="translate(-436.352 -603.445)" fill="#8c2e35"/>
    <path id="Trazado_109865" data-name="Trazado 109865" d="M1020.2,3047.154s1.178-.056,1.368.845a2.066,2.066,0,0,1,1.557-.74s.463.379-.715,1.115c0,0,1.2.547.61,1.325a2.007,2.007,0,0,1-.823-.279,1.256,1.256,0,0,1-.174-.158,1.611,1.611,0,0,1-.119-.158c-.037-.054-.067-.1-.087-.134a.664.664,0,0,1-.01.426.94.94,0,0,1-1.018.467s-.226-1.342.518-1.3C1021.308,3048.563,1019.948,3047.448,1020.2,3047.154Z" transform="translate(-436.18 -619.137)" fill="#8c2e35"/>
    <path id="Trazado_109866" data-name="Trazado 109866" d="M1008.813,3057.592s-.18-1.076.537-1.157a.733.733,0,0,1,.031,1.157s.779-.358.989.631a.9.9,0,0,1-.989,0s.232.409-.715,1.152c0,0-.484-.5-.211-.74,0,0-.842.156-1.073-.1C1007.382,3058.539,1007.214,3057.277,1008.813,3057.592Z" transform="translate(-425.361 -626.988)" fill="#8c2e35"/>
    <path id="Trazado_109867" data-name="Trazado 109867" d="M993.155,3070.15a3.383,3.383,0,0,1,1.6.45s.424-.755.844-.616a.713.713,0,0,1,0,.716s.524-.1.587,1.141a1.02,1.02,0,0,1-1.242-.118s-.463,1.055-1.22.721c0,0-.417-1.067.318-1.206C994.04,3071.238,992.9,3070.422,993.155,3070.15Z" transform="translate(-413.301 -638.433)" fill="#8c2e35"/>
    <path id="Trazado_109868" data-name="Trazado 109868" d="M991.052,3011.586a.247.247,0,1,1-.247-.247A.247.247,0,0,1,991.052,3011.586Z" transform="translate(-411.135 -588.846)" fill="#999"/>
    <path id="Trazado_109869" data-name="Trazado 109869" d="M1008.347,3011.586a.247.247,0,1,1-.247-.247A.247.247,0,0,1,1008.347,3011.586Z" transform="translate(-425.763 -588.846)" fill="#999"/>
    <path id="Trazado_109870" data-name="Trazado 109870" d="M1023.527,3021.192a.247.247,0,1,1-.247-.247A.247.247,0,0,1,1023.527,3021.192Z" transform="translate(-438.602 -596.971)" fill="#999"/>
    <path id="Trazado_109871" data-name="Trazado 109871" d="M1031.84,3037.773a.247.247,0,1,1-.218-.274A.247.247,0,0,1,1031.84,3037.773Z" transform="translate(-445.634 -610.971)" fill="#999"/>
    <path id="Trazado_109872" data-name="Trazado 109872" d="M1030.239,3053.9a.247.247,0,1,1-.247-.248A.247.247,0,0,1,1030.239,3053.9Z" transform="translate(-444.278 -624.633)" fill="#999"/>
    <path id="Trazado_109873" data-name="Trazado 109873" d="M1002.821,3076.853a.247.247,0,1,1-.247-.247A.247.247,0,0,1,1002.821,3076.853Z" transform="translate(-421.089 -644.048)" fill="#999"/>
    <path id="Trazado_109874" data-name="Trazado 109874" d="M1016.534,3065.458a.247.247,0,1,1-.247-.248A.247.247,0,0,1,1016.534,3065.458Z" transform="translate(-432.688 -634.41)" fill="#999"/>
    <path id="Trazado_109876" data-name="Trazado 109876" d="M1289.039,3155.7l4.24,2.336-4.219-1.936q-.005-.089-.01-.179C1289.045,3155.847,1289.042,3155.774,1289.039,3155.7Z" transform="translate(-663.586 -710.945)" fill="#6d6a6d"/>
    <line id="Línea_401" data-name="Línea 401" x2="16" y2="25" transform="translate(603.735 2426.122)" fill="none" stroke="#2f3a22" stroke-linecap="round" stroke-width="3"/>
  </g>
</svg>
