<svg xmlns="http://www.w3.org/2000/svg" width="154.903" height="192.694" viewBox="0 0 154.903 192.694">
  <g id="Grupo_41939" data-name="Grupo 41939" transform="translate(-495.929 -228)">
    <g id="Grupo_41870" data-name="Grupo 41870" transform="translate(577.154 228.482)">
      <path id="Trazado_109537" data-name="Trazado 109537" d="M631.851,247.756c-.052-.11-3.88-8.091-4.156-9.2A10.712,10.712,0,0,1,627.2,234c.555-3.068,5.025-6.164,8.263-4.921,1.746.671,4.647,3.869,6.6.739,0,0,.619-2.483,1.094.211.593,3.37-.742,5-.742,5s5.211,8.391-.392,12.454C638.015,250.387,633.066,250.314,631.851,247.756Z" transform="translate(-627.104 -228.778)" fill="#ff5e4d"/>
    </g>
    <g id="Grupo_41871" data-name="Grupo 41871" transform="translate(576.563 228)">
      <path id="Trazado_109538" data-name="Trazado 109538" d="M631.488,247.46c-1.411-2.376-2.7-4.808-3.9-7.3a11.255,11.255,0,0,1-.824-1.98,19.744,19.744,0,0,1-.495-2.061,7.7,7.7,0,0,1-.062-2.219,5.592,5.592,0,0,1,.776-2.165,8.488,8.488,0,0,1,3.268-2.938,6.411,6.411,0,0,1,4.353-.652,6.027,6.027,0,0,1,1.963,1,16.229,16.229,0,0,0,1.706,1.078,2.349,2.349,0,0,0,3.429-.7,2.742,2.742,0,0,1-1.513,1.438,3.282,3.282,0,0,1-2.161-.189c-1.332-.507-2.45-1.523-3.624-1.7a5.794,5.794,0,0,0-3.612.758,7.481,7.481,0,0,0-2.765,2.553,4.365,4.365,0,0,0-.633,1.679,7.119,7.119,0,0,0,.022,1.893,18.692,18.692,0,0,0,.388,1.967,15.56,15.56,0,0,0,.646,1.869c.5,1.275,1.027,2.544,1.55,3.816C630.485,244.891,631.019,246.16,631.488,247.46Z" transform="translate(-626.15 -228)" fill="#fc877e"/>
    </g>
    <g id="Grupo_41873" data-name="Grupo 41873" transform="translate(575.556 285.987)">
      <g id="Grupo_41872" data-name="Grupo 41872">
        <path id="Trazado_109539" data-name="Trazado 109539" d="M658.129,321.646c.069.35,5.565,7.035,10.693,15.328,5.67,9.169,4.909,18.708,4.969,34.189.063,16.324-8.794,65.576-9.307,80.949-.069,2.074-1.069,2.682-1.441.147-2.337-15.912-14.871-101.739-14.871-101.739l-5.58,99.167s-5.8,2.619-5.77,0c.185-17.529-13.642-89.224-12.192-97.819,3.044-18.029,6.5-23.019,6.924-27.9C634.745,325.11,652.42,324.914,658.129,321.646Z" transform="translate(-624.524 -321.646)" fill="#295a6e"/>
      </g>
    </g>
    <g id="Grupo_41875" data-name="Grupo 41875" transform="translate(594.929 285.987)">
      <g id="Grupo_41874" data-name="Grupo 41874">
        <path id="Trazado_109540" data-name="Trazado 109540" d="M670.043,321.646c.069.35,5.565,7.035,10.693,15.328,5.67,9.169,4.909,18.708,4.969,34.189.063,16.324-8.794,65.576-9.307,80.949-.069,2.074-1.069,2.682-1.441.147-2.337-15.912-14.871-101.739-14.871-101.739l-4.274-26.059.352-.02C661.588,324.109,667.248,323.245,670.043,321.646Z" transform="translate(-655.811 -321.646)" fill="#184056"/>
      </g>
    </g>
    <g id="Grupo_41880" data-name="Grupo 41880" transform="translate(578.946 414.028)">
      <g id="Grupo_41877" data-name="Grupo 41877" transform="translate(0 2.076)">
        <g id="Grupo_41876" data-name="Grupo 41876">
          <path id="Trazado_109541" data-name="Trazado 109541" d="M630.024,535.418c-.372-3.638,3.352-2.466,5.645-3.361-.668.5-1.313,1.181-.187,1.41,1.649.337,5.15-.443,6.109-1.688a7.462,7.462,0,0,1,.7,2.869C642.361,535.718,630.234,537.476,630.024,535.418Z" transform="translate(-629.998 -531.78)" fill="#3b2b5b"/>
        </g>
      </g>
      <g id="Grupo_41879" data-name="Grupo 41879" transform="translate(4.87)">
        <g id="Grupo_41878" data-name="Grupo 41878">
          <path id="Trazado_109542" data-name="Trazado 109542" d="M638.477,532.192c-1.126-.23-.481-.915.187-1.411,1.422-.555,2.62-.962,2.882-1.1a1.72,1.72,0,0,0,.835-1.039l.725-.211s-.4,1.053,1.009,1.452c.237.067.337.38.471.624C643.627,531.749,640.126,532.528,638.477,532.192Z" transform="translate(-637.864 -528.428)" fill="#ff97a6"/>
        </g>
      </g>
    </g>
    <g id="Grupo_41882" data-name="Grupo 41882" transform="translate(564.17 253.859)">
      <g id="Grupo_41881" data-name="Grupo 41881">
        <path id="Trazado_109543" data-name="Trazado 109543" d="M627.131,269.762s-18.193,5.1-20.976,16.643c-.476,1.973,7.634,4.432,7.634,4.432l10.221-12.577Z" transform="translate(-606.135 -269.762)" fill="#f1edff"/>
      </g>
    </g>
    <g id="Grupo_41884" data-name="Grupo 41884" transform="translate(562.349 267.758)">
      <g id="Grupo_41883" data-name="Grupo 41883">
        <path id="Trazado_109544" data-name="Trazado 109544" d="M604.119,298.989c-.555,3.956-.819,12.428-.923,17.812-.092,4.782,7.715,3.457,7.715,3.457s2.952-5.281,3-7.625c.072-3.234-.177-14.344-.177-14.344S606.2,284.15,604.119,298.989Z" transform="translate(-603.196 -292.208)" fill="#f1edff"/>
      </g>
    </g>
    <g id="Grupo_41886" data-name="Grupo 41886" transform="translate(579.162 250.278)">
      <g id="Grupo_41885" data-name="Grupo 41885" transform="translate(0)">
        <path id="Trazado_109545" data-name="Trazado 109545" d="M630.577,269.883c3.375-1.773,13.439-6.458,24.588-5.851,5.729.311,10.819,4.175,10.819,4.175s-6.282,28.21-5.637,31.479c-5.709,3.268-23.384,3.464-26.575,2.32a1.58,1.58,0,0,0-.105-.775C629.1,290.583,630.577,269.883,630.577,269.883Z" transform="translate(-630.348 -263.978)" fill="#f1edff"/>
      </g>
    </g>
    <g id="Grupo_41888" data-name="Grupo 41888" transform="translate(591.698 247.665)">
      <g id="Grupo_41887" data-name="Grupo 41887">
        <path id="Trazado_109546" data-name="Trazado 109546" d="M650.593,259.759h0Z" transform="translate(-650.593 -259.759)" fill="#3b2b5b"/>
      </g>
    </g>
    <g id="Grupo_41889" data-name="Grupo 41889" transform="translate(528.767 337.587)">
      <rect id="Rectángulo_32107" data-name="Rectángulo 32107" width="3.337" height="82.947" fill="#dbcffd"/>
    </g>
    <g id="Grupo_41890" data-name="Grupo 41890" transform="translate(532.104 337.587)">
      <rect id="Rectángulo_32108" data-name="Rectángulo 32108" width="2.233" height="82.947" transform="translate(0)" fill="#cbb3fc"/>
    </g>
    <g id="Grupo_41891" data-name="Grupo 41891" transform="translate(640.843 337.587)">
      <rect id="Rectángulo_32109" data-name="Rectángulo 32109" width="3.391" height="82.947" transform="translate(0)" fill="#dbcffd"/>
    </g>
    <g id="Grupo_41892" data-name="Grupo 41892" transform="translate(644.234 337.587)">
      <rect id="Rectángulo_32110" data-name="Rectángulo 32110" width="2.268" height="82.947" transform="translate(0)" fill="#cbb3fc"/>
    </g>
    <g id="Grupo_41893" data-name="Grupo 41893" transform="translate(500.962 337.587)">
      <rect id="Rectángulo_32111" data-name="Rectángulo 32111" width="2.233" height="82.947" fill="#cbb3fc"/>
    </g>
    <g id="Grupo_41894" data-name="Grupo 41894" transform="translate(497.624 415.902)">
      <rect id="Rectángulo_32112" data-name="Rectángulo 32112" width="36.713" height="4.632" fill="#cbb3fc"/>
    </g>
    <g id="Grupo_41895" data-name="Grupo 41895" transform="translate(612.594 337.587)">
      <rect id="Rectángulo_32113" data-name="Rectángulo 32113" width="2.268" height="82.947" transform="translate(0)" fill="#cbb3fc"/>
    </g>
    <g id="Grupo_41896" data-name="Grupo 41896" transform="translate(609.204 415.902)">
      <rect id="Rectángulo_32114" data-name="Rectángulo 32114" width="37.298" height="4.632" fill="#cbb3fc"/>
    </g>
    <g id="Grupo_41897" data-name="Grupo 41897" transform="translate(497.624 337.587)">
      <rect id="Rectángulo_32115" data-name="Rectángulo 32115" width="3.337" height="82.947" fill="#dbcffd"/>
    </g>
    <g id="Grupo_41898" data-name="Grupo 41898" transform="translate(609.204 337.587)">
      <rect id="Rectángulo_32116" data-name="Rectángulo 32116" width="3.391" height="82.947" fill="#dbcffd"/>
    </g>
    <g id="Grupo_41899" data-name="Grupo 41899" transform="translate(505.175 312.327)">
      <rect id="Rectángulo_32117" data-name="Rectángulo 32117" width="10.15" height="7.724" fill="#cbb3fc"/>
    </g>
    <g id="Grupo_41900" data-name="Grupo 41900" transform="translate(501.608 312.328)">
      <path id="Trazado_109547" data-name="Trazado 109547" d="M512.236,367.754a3.568,3.568,0,1,1-3.568-3.568A3.568,3.568,0,0,1,512.236,367.754Z" transform="translate(-505.1 -364.186)" fill="#dbcffd"/>
    </g>
    <g id="Grupo_41901" data-name="Grupo 41901" transform="translate(511.758 312.328)">
      <path id="Trazado_109548" data-name="Trazado 109548" d="M528.628,367.836a3.569,3.569,0,1,1-3.568-3.65A3.61,3.61,0,0,1,528.628,367.836Z" transform="translate(-521.492 -364.186)" fill="#cbb3fc"/>
    </g>
    <g id="Grupo_41902" data-name="Grupo 41902" transform="translate(605.044 319.273)">
      <path id="Rectángulo_32118" data-name="Rectángulo 32118" d="M0,0H42.348a3.44,3.44,0,0,1,3.44,3.44V4.989a3.44,3.44,0,0,1-3.44,3.44H0a0,0,0,0,1,0,0V0A0,0,0,0,1,0,0Z" transform="translate(0)" fill="#30193b"/>
    </g>
    <g id="Grupo_41903" data-name="Grupo 41903" transform="translate(584.315 327.701)">
      <rect id="Rectángulo_32119" data-name="Rectángulo 32119" width="62.188" height="13.668" transform="translate(0)" fill="#f99680"/>
    </g>
    <g id="Grupo_41904" data-name="Grupo 41904" transform="translate(495.929 319.273)">
      <rect id="Rectángulo_32120" data-name="Rectángulo 32120" width="126.2" height="8.429" rx="3.44" fill="#3b2b5b"/>
    </g>
    <g id="Grupo_41905" data-name="Grupo 41905" transform="translate(497.624 327.701)">
      <path id="Trazado_109549" data-name="Trazado 109549" d="M593.288,389.014H498.667v13.668H627.955V389.014Z" transform="translate(-498.667 -389.014)" fill="#ffad96"/>
    </g>
    <g id="Grupo_41906" data-name="Grupo 41906" transform="translate(503.498 314.218)">
      <path id="Trazado_109550" data-name="Trazado 109550" d="M511.508,368.916a1.677,1.677,0,1,1-1.677-1.677A1.678,1.678,0,0,1,511.508,368.916Z" transform="translate(-508.153 -367.239)" fill="#cbb3fc"/>
    </g>
    <g id="Grupo_41907" data-name="Grupo 41907" transform="translate(633.94 287.272)">
      <rect id="Rectángulo_32121" data-name="Rectángulo 32121" width="3.907" height="32" fill="#3b2b5b"/>
    </g>
    <g id="Grupo_41908" data-name="Grupo 41908" transform="translate(636.282 289.226)">
      <rect id="Rectángulo_32122" data-name="Rectángulo 32122" width="3.669" height="30.047" transform="translate(0 0)" fill="#30193b"/>
    </g>
    <g id="Grupo_41909" data-name="Grupo 41909" transform="translate(519.772 312.327)">
      <rect id="Rectángulo_32123" data-name="Rectángulo 32123" width="4.205" height="6.945" fill="#3b2b5b"/>
    </g>
    <g id="Grupo_41910" data-name="Grupo 41910" transform="translate(523.977 312.327)">
      <rect id="Rectángulo_32124" data-name="Rectángulo 32124" width="6.945" height="41.209" transform="translate(41.209 0) rotate(90)" fill="#30193b"/>
    </g>
    <g id="Grupo_41917" data-name="Grupo 41917" transform="translate(510.251 292.397)">
      <g id="Grupo_41911" data-name="Grupo 41911" transform="translate(34.739 13.315)">
        <path id="Trazado_109551" data-name="Trazado 109551" d="M595.128,353.5,575.215,374.75a.189.189,0,0,0,.257.277l21.209-16.806.241-2.318,1.654-2.143Z" transform="translate(-575.16 -353.502)" fill="#aacbe8"/>
      </g>
      <g id="Grupo_41912" data-name="Grupo 41912" transform="translate(0 21.821)">
        <path id="Trazado_109552" data-name="Trazado 109552" d="M598.4,372.157H519.058l27.222-4.2,65.656-.713Z" transform="translate(-519.058 -367.239)" fill="#61bdd6"/>
      </g>
      <g id="Grupo_41913" data-name="Grupo 41913" transform="translate(54.629)">
        <path id="Trazado_109553" data-name="Trazado 109553" d="M614.278,332.157a4.4,4.4,0,0,0-4.5,1.248,5.318,5.318,0,0,0-.636,5.718l.492.763a2.93,2.93,0,0,1-.03,1.559,15.628,15.628,0,0,1-1.141,2.045l-1.177,1.954,3.452.225,3.56-4.927s2.585-1.323,3.069-3.4a4.526,4.526,0,0,0-.344-3A4.089,4.089,0,0,0,614.278,332.157Zm-.053,6.836c-1.331.964-2.859.876-3.622-.308-.869-1.347-.552-3.85.829-4.739a2.975,2.975,0,0,1,4,.788C616.195,335.918,615.964,337.734,614.225,338.993Z" transform="translate(-607.282 -331.998)" fill="#c43b72"/>
      </g>
      <g id="Grupo_41914" data-name="Grupo 41914" transform="translate(57.485 11.715)">
        <path id="Trazado_109554" data-name="Trazado 109554" d="M625.827,352.393a4.53,4.53,0,0,0-2.65-1.438c-2.11-.326-4.3,1.578-4.3,1.578l-5.742,1.314-1.238,3.435,2.252-.362a15.622,15.622,0,0,1,2.323-.3,2.935,2.935,0,0,1,1.457.554l.524.741a5.319,5.319,0,0,0,5.542,1.545,4.4,4.4,0,0,0,2.839-3.713A4.088,4.088,0,0,0,625.827,352.393Zm-1.717,5.332c-1.341.949-3.78.309-4.707-1-.813-1.15-.324-2.6,1.066-3.476,1.817-1.144,3.589-.679,4.4.47A2.974,2.974,0,0,1,624.11,357.725Z" transform="translate(-611.894 -350.917)" fill="#c43b72"/>
      </g>
      <g id="Grupo_41915" data-name="Grupo 41915" transform="translate(28.988 14.493)">
        <path id="Trazado_109555" data-name="Trazado 109555" d="M594.519,358.966l-28.436,7.66a.158.158,0,0,1-.12-.291l24.57-10.932,2.463.975,2.612-.824Z" transform="translate(-565.872 -355.403)" fill="#d5eaf5"/>
      </g>
      <g id="Grupo_41916" data-name="Grupo 41916" transform="translate(53.427 16.302)">
        <path id="Trazado_109556" data-name="Trazado 109556" d="M605.516,359.806a.935.935,0,1,0,.215-1.305A.936.936,0,0,0,605.516,359.806Z" transform="translate(-605.341 -358.325)" fill="#aacbe8"/>
      </g>
    </g>
    <g id="Grupo_41919" data-name="Grupo 41919" transform="translate(566.973 292.032)">
      <g id="Grupo_41918" data-name="Grupo 41918" transform="translate(0 0)">
        <path id="Trazado_109557" data-name="Trazado 109557" d="M610.667,333.184s2.489,1.711,2.239,1.026-.034-.591-.034-.591,1.1,1.014,1.308.483a1.026,1.026,0,0,0,.031-.85s1.515,1.065,1.747.48-.9-2.094-1.212-2.3S610.51,332.8,610.667,333.184Z" transform="translate(-610.663 -331.409)" fill="#ff97a6"/>
      </g>
    </g>
    <g id="Grupo_41921" data-name="Grupo 41921" transform="translate(579.989 305.451)">
      <g id="Grupo_41920" data-name="Grupo 41920" transform="translate(0 0)">
        <path id="Trazado_109558" data-name="Trazado 109558" d="M637.309,354.489a4.8,4.8,0,0,1-2.288,2.224c-1,.334-2.063.328-2.1-.133s.835-.287.835-.287-1.689.446-1.743-.328c-.015-.219,1.133-.6,1.133-.6s-1.578.319-1.456-.05,2.208-.9,2.687-.9,1.73-1.281,2.694-1.337C637.427,353.061,637.69,353.716,637.309,354.489Z" transform="translate(-631.683 -353.081)" fill="#ff97a6"/>
      </g>
    </g>
    <g id="Grupo_41923" data-name="Grupo 41923" transform="translate(584.687 254.507)">
      <g id="Grupo_41922" data-name="Grupo 41922" transform="translate(0 0)">
        <path id="Trazado_109559" data-name="Trazado 109559" d="M669.382,311.7c-5.1,8.6-14.173,17.894-25.058,14.759-4.05-1.167-5.053-6.54-5.053-6.54l18.442-13.727,7.3-27.505,4.374-7.879S676.953,298.936,669.382,311.7Z" transform="translate(-639.27 -270.808)" fill="#dbcffd"/>
      </g>
    </g>
    <g id="Grupo_41924" data-name="Grupo 41924" transform="translate(510.251 319.136)">
      <path id="Trazado_109560" data-name="Trazado 109560" d="M598.4,433.25l-79.347-.87v-57.2H598.4V433.25Z" transform="translate(-519.058 -375.181)" fill="#76d8df"/>
    </g>
    <g id="Grupo_41926" data-name="Grupo 41926" transform="translate(591.698 250.278)">
      <g id="Grupo_41925" data-name="Grupo 41925" transform="translate(0)">
        <path id="Trazado_109561" data-name="Trazado 109561" d="M650.592,265.265s.526-.125.792-.185a42.2,42.2,0,0,1,11.489-1.048c5.729.311,10.819,4.175,10.819,4.175s-6.282,28.21-5.637,31.479c-2.7,1.544-8.066,2.4-13.316,2.757-.306.021-.916.057-.916.057s-2.355-13.721-2.75-18.638C650.713,279.376,650.592,265.265,650.592,265.265Z" transform="translate(-650.592 -263.978)" fill="#dbcffd"/>
      </g>
    </g>
    <g id="Grupo_41931" data-name="Grupo 41931" transform="translate(587.42 246.041)">
      <g id="Grupo_41928" data-name="Grupo 41928" transform="translate(0)">
        <g id="Grupo_41927" data-name="Grupo 41927">
          <path id="Trazado_109562" data-name="Trazado 109562" d="M646.334,257.136s3.061,6.12,2.834,6.987-1.617,2.357-3.126,1.064-2.359-7.217-2.359-7.217Z" transform="translate(-643.683 -257.136)" fill="#ff97a6"/>
        </g>
      </g>
      <g id="Grupo_41930" data-name="Grupo 41930" transform="translate(0.268 1.405)">
        <g id="Grupo_41929" data-name="Grupo 41929">
          <path id="Trazado_109563" data-name="Trazado 109563" d="M648.583,262.508a4.2,4.2,0,0,1-3.551,1.408,26.765,26.765,0,0,1-.916-3.546l3.068-.966C647.605,260.292,648.146,261.459,648.583,262.508Z" transform="translate(-644.115 -259.405)" fill="#c95d77"/>
        </g>
      </g>
    </g>
    <g id="Grupo_41933" data-name="Grupo 41933" transform="translate(581.943 239.734)">
      <g id="Grupo_41932" data-name="Grupo 41932" transform="translate(0)">
        <path id="Trazado_109564" data-name="Trazado 109564" d="M637.07,256.162c-.9-.72-2.77-4.084-2.082-5.876a4.007,4.007,0,0,1,3.367-2.657,9.912,9.912,0,0,1,3.6-.642c1.3.2,1.978,1.632,2.507,2.683a8.466,8.466,0,0,1,.863,4.309,5.4,5.4,0,0,1-2.574,3.035C639.806,258.3,638.627,257.932,637.07,256.162Z" transform="translate(-634.839 -246.95)" fill="#ff97a6"/>
      </g>
    </g>
    <g id="Grupo_41934" data-name="Grupo 41934" transform="translate(603.765 259.83)">
      <path id="Trazado_109565" data-name="Trazado 109565" d="M670.081,307.561c.474-4.789,1.312-9.5,2.238-14.2.963-4.688,2.017-9.357,3.44-13.959-.471,4.784-1.309,9.5-2.239,14.2C672.555,298.292,671.5,302.965,670.081,307.561Z" transform="translate(-670.081 -279.405)" fill="#eeeafe"/>
    </g>
    <g id="Grupo_41935" data-name="Grupo 41935" transform="translate(580.763 306)">
      <path id="Trazado_109566" data-name="Trazado 109566" d="M636.133,354.034a18.66,18.66,0,0,0-2.99,0c-1,.15,1.923,1.045,1.923,1.045l1.311-1.045Z" transform="translate(-632.933 -353.967)" fill="#ff97a6"/>
    </g>
    <g id="Grupo_41936" data-name="Grupo 41936" transform="translate(601.662 287.272)">
      <rect id="Rectángulo_32125" data-name="Rectángulo 32125" width="5.239" height="38.288" transform="translate(38.288 0) rotate(90)" fill="#30193b"/>
    </g>
    <g id="Grupo_41937" data-name="Grupo 41937" transform="translate(597.755 287.272)">
      <rect id="Rectángulo_32126" data-name="Rectángulo 32126" width="3.907" height="32" fill="#3b2b5b"/>
    </g>
    <g id="Grupo_41938" data-name="Grupo 41938" transform="translate(601.662 289.226)">
      <rect id="Rectángulo_32127" data-name="Rectángulo 32127" width="3.669" height="30.047" transform="translate(0 0)" fill="#30193b"/>
    </g>
  </g>
</svg>
