<svg xmlns="http://www.w3.org/2000/svg" width="131" height="66" viewBox="0 0 131 66">
  <g id="Grupo_42557" data-name="Grupo 42557" transform="translate(-508 -2416)">
    <g id="Grupo_37778" data-name="Grupo 37778" transform="translate(508.094 2416)">
      <rect id="Rectángulo_31688" data-name="Rectángulo 31688" width="131" height="66" rx="15" transform="translate(-0.094)" fill="#58a5f8"/>
    </g>
    <path id="Trazado_110680" data-name="Trazado 110680" d="M4.277,15H1.289V.605H4.277ZM18.75,4.121a3.705,3.705,0,0,1,1.387.273,3.094,3.094,0,0,1,1.24.957,3.058,3.058,0,0,1,.605,1.367,9.45,9.45,0,0,1,.1,1.572L22.061,15H19.209V8.223a2.224,2.224,0,0,0-.2-1,1.388,1.388,0,0,0-1.367-.742,1.6,1.6,0,0,0-1.592.957,3.005,3.005,0,0,0-.225,1.221V15h-2.8V8.662a3.56,3.56,0,0,0-.2-1.377,1.363,1.363,0,0,0-1.377-.771,1.643,1.643,0,0,0-1.6.771,2.973,2.973,0,0,0-.225,1.309V15H6.807V4.375H9.512V5.928a4.479,4.479,0,0,1,.977-1.182,3.342,3.342,0,0,1,2.1-.625,3.321,3.321,0,0,1,1.973.537,3.124,3.124,0,0,1,.918,1.279,3.539,3.539,0,0,1,1.357-1.377A4.142,4.142,0,0,1,18.75,4.121ZM31.973,9.678A4.189,4.189,0,0,0,31.411,7.5a1.955,1.955,0,0,0-1.821-.947,2.072,2.072,0,0,0-2.08,1.436,5.445,5.445,0,0,0-.293,1.934,3.084,3.084,0,0,0,.986,2.607,2.246,2.246,0,0,0,1.387.439,2.009,2.009,0,0,0,1.772-.9A4.19,4.19,0,0,0,31.973,9.678ZM30.391,4.121A4.17,4.17,0,0,1,33.55,5.5a5.7,5.7,0,0,1,1.294,4.043,6.412,6.412,0,0,1-1.265,4.287A4.094,4.094,0,0,1,30.322,15.3a3.4,3.4,0,0,1-2.109-.635,4.092,4.092,0,0,1-.9-1.025v5.547H24.561V4.355h2.666V5.928a4.468,4.468,0,0,1,.957-1.094A3.516,3.516,0,0,1,30.391,4.121ZM39.7,15H36.914V.605H39.7ZM42.451,4.355h2.822V15H42.451ZM47.246,0,44.277,2.92H42.266L44.141,0Zm7.08,8.174a2.47,2.47,0,0,0-.4-1.074,1.679,1.679,0,0,0-1.455-.645,1.916,1.916,0,0,0-1.924,1.4,5.839,5.839,0,0,0-.273,1.973,5.368,5.368,0,0,0,.273,1.885,1.857,1.857,0,0,0,1.875,1.328,1.653,1.653,0,0,0,1.387-.527,2.625,2.625,0,0,0,.5-1.367h2.842a4.656,4.656,0,0,1-.918,2.4,4.462,4.462,0,0,1-3.877,1.826,4.535,4.535,0,0,1-3.779-1.523,6.164,6.164,0,0,1-1.211-3.955A6.255,6.255,0,0,1,48.7,5.625,4.657,4.657,0,0,1,52.393,4.1a5.558,5.558,0,0,1,3.276.9,4.179,4.179,0,0,1,1.509,3.174Zm7.627-5.088H59.131V.518h2.822Zm-2.822,1.27h2.822V15H59.131Zm4.424,2.08V4.453h1.484V1.484h2.754V4.453h1.729V6.436H67.793v5.625a1.267,1.267,0,0,0,.166.815,1.828,1.828,0,0,0,1.016.161q.127,0,.269,0t.278-.015V15.1l-1.318.049a3.538,3.538,0,0,1-2.7-.684,2.035,2.035,0,0,1-.469-1.475V6.436Zm12.529,6.6a2.206,2.206,0,0,0,1.875-.869A4.043,4.043,0,0,0,78.613,9.7a4.021,4.021,0,0,0-.654-2.466,2.471,2.471,0,0,0-3.755,0A4,4,0,0,0,73.545,9.7a4.021,4.021,0,0,0,.659,2.471A2.219,2.219,0,0,0,76.084,13.037ZM81.533,9.7a6.171,6.171,0,0,1-1.348,4.009,5.86,5.86,0,0,1-8.184,0A6.171,6.171,0,0,1,70.654,9.7,6.212,6.212,0,0,1,72,5.7a5.8,5.8,0,0,1,8.184,0A6.212,6.212,0,0,1,81.533,9.7Zm4.16,1.9a1.859,1.859,0,0,0,.381,1.055,2.575,2.575,0,0,0,1.914.557,2.918,2.918,0,0,0,1.3-.244.819.819,0,0,0,.093-1.445,15.891,15.891,0,0,0-2.9-.84,6.041,6.041,0,0,1-2.549-1.123,2.435,2.435,0,0,1-.742-1.914,3.32,3.32,0,0,1,1.157-2.534,4.648,4.648,0,0,1,3.257-1.06,5.975,5.975,0,0,1,3.247.8A3.409,3.409,0,0,1,92.295,7.6H89.512a1.646,1.646,0,0,0-.3-.85,1.9,1.9,0,0,0-1.562-.566,2.245,2.245,0,0,0-1.294.283.815.815,0,0,0-.386.664.727.727,0,0,0,.41.693,17.756,17.756,0,0,0,2.9.771,5.327,5.327,0,0,1,2.49,1.182,2.683,2.683,0,0,1,.82,2,3.235,3.235,0,0,1-1.177,2.583,5.529,5.529,0,0,1-3.638,1,5.476,5.476,0,0,1-3.706-1.06,3.447,3.447,0,0,1-1.2-2.7Z" transform="translate(526 2436.466)" fill="#fff"/>
  </g>
</svg>
