<svg xmlns="http://www.w3.org/2000/svg" width="210" height="182.299" viewBox="0 0 210 182.299">
  <g id="Grupo_39961" data-name="Grupo 39961" transform="translate(-797.583 -715.484)">
    <g id="Grupo_39950" data-name="Grupo 39950" transform="translate(797.583 731.043)">
      <g id="Grupo_39940" data-name="Grupo 39940" transform="translate(36.376 114.397)">
        <path id="Trazado_107618" data-name="Trazado 107618" d="M997.123,1426.747a1.888,1.888,0,0,1-1.061-.325,1.136,1.136,0,0,1-.371-1.607,6.261,6.261,0,0,0,.728-2.246l.223.015a6.308,6.308,0,0,1-.749,2.311.969.969,0,0,0,.314,1.39,1.555,1.555,0,0,0,1.592.113l.128.149A1.632,1.632,0,0,1,997.123,1426.747Z" transform="translate(-995.5 -1422.568)" fill="#f99746"/>
      </g>
      <path id="Trazado_107619" data-name="Trazado 107619" d="M999.147,993.733v116.739a8.271,8.271,0,0,1-8.272,8.271H806.019a8.377,8.377,0,0,1-8.392-7.425c-.022-.208-.035-.419-.04-.632,0-.072,0-.142,0-.214v-28.521c0-.222.01-.442.027-.66a8.478,8.478,0,0,1,6.421-2.911H917.4a10.382,10.382,0,0,0,10.34-8.8,10.111,10.111,0,0,0,.1-1.447v-26.624a9.507,9.507,0,0,0-.564-3.235,9.886,9.886,0,0,0-9.329-6.469H877.6c-8.711,0-16.327,6.046-20.459,13.876a28.719,28.719,0,0,0-2.651,7.132,4.244,4.244,0,0,1-2.576.864H815.8a6.94,6.94,0,0,1-7.006-6.87V994.061a10.916,10.916,0,0,1,.158-1.863,11.574,11.574,0,0,1,9.378-4.734H989.94a11.235,11.235,0,0,1,9.074,4.555A10.919,10.919,0,0,1,999.147,993.733Z" transform="translate(-797.583 -953.036)" fill="#9db0f4" opacity="0.3"/>
      <path id="Trazado_107620" data-name="Trazado 107620" d="M999.147,972.851V1089.59a8.271,8.271,0,0,1-8.272,8.27H805.857a8.272,8.272,0,0,1-8.23-7.425q-.032-.313-.04-.632c0-.072,0-.142,0-.214v-28.521c0-.222.01-.442.027-.66a8.269,8.269,0,0,1,8.247-7.612H917.033a10.245,10.245,0,0,0,10.243-10.243v-26.626a9.7,9.7,0,0,0-9.7-9.7H878c-10.189,0-18.853,8.607-22.011,18.578a27.886,27.886,0,0,0-1.016,4.4,4.218,4.218,0,0,1-1.586,2.733,4.1,4.1,0,0,1-2.525.864H815.448a6.871,6.871,0,0,1-6.87-6.87V973.18a11.291,11.291,0,0,1,11.3-11.3h168.3a10.964,10.964,0,0,1,10.97,10.97Z" transform="translate(-797.583 -932.154)" fill="#6fd8d8" opacity="0.439"/>
      <rect id="Rectángulo_32069" data-name="Rectángulo 32069" width="3.919" height="13.842" transform="translate(36.668 100.564)" fill="#2b478b"/>
      <rect id="Rectángulo_32070" data-name="Rectángulo 32070" width="4.591" height="2.463" transform="translate(40.587 103.89)" fill="#2b478b"/>
      <path id="Trazado_107621" data-name="Trazado 107621" d="M1040.851,1361.817a2.315,2.315,0,1,1,2.315,2.315A2.315,2.315,0,0,1,1040.851,1361.817Z" transform="translate(-996.14 -1256.696)" fill="#2b478b"/>
      <rect id="Rectángulo_32071" data-name="Rectángulo 32071" width="2.575" height="2.029" transform="translate(34.652 109.867)" fill="#2b478b"/>
      <rect id="Rectángulo_32072" data-name="Rectángulo 32072" width="5.972" height="3.882" transform="translate(44.04 25.765)" fill="#2b478b"/>
      <path id="Trazado_107622" data-name="Trazado 107622" d="M1715.011,827.319H1701.8a2.262,2.262,0,0,1-2.26-2.391l.215-3.705,0-.035.145-2.5.4-6.961.128-2.193.307-5.321.113-1.944a2.261,2.261,0,0,1,2.256-2.131h10.36a2.237,2.237,0,0,1,1.021.244,2.269,2.269,0,0,1,1.237,1.864l.107,1.561.305,4.492.048.709.5,7.395.4,5.916.177,2.585A2.262,2.262,0,0,1,1715.011,827.319Z" transform="translate(-1533.767 -800.14)" fill="#f99746"/>
      <g id="Grupo_39941" data-name="Grupo 39941" transform="translate(38.441 29.577)" opacity="0.3">
        <path id="Trazado_107623" data-name="Trazado 107623" d="M1015.51,1022.465h-8.772V961.137h.373v60.955h8.026V961.067h.373Z" transform="translate(-1006.739 -961.067)" fill="#9db0f4"/>
      </g>
      <path id="Rectángulo_32073" data-name="Rectángulo 32073" d="M0,0H0A8.435,8.435,0,0,1,8.435,8.435V24.591A8.435,8.435,0,0,1,0,33.026H0a0,0,0,0,1,0,0V0A0,0,0,0,1,0,0Z" transform="translate(201.565 46.922)" fill="#ed7d2b"/>
      <rect id="Rectángulo_32074" data-name="Rectángulo 32074" width="27.92" height="0.659" transform="translate(24.164 119.903)" fill="#9db0f4"/>
      <path id="Trazado_107624" data-name="Trazado 107624" d="M995.818,984.142l-2.687-3.135V961.448h2.688Z" transform="translate(-957.191 -931.801)" fill="#2b478b"/>
      <g id="Grupo_39942" data-name="Grupo 39942" transform="translate(38.441 90.788)" opacity="0.3">
        <rect id="Rectángulo_32075" data-name="Rectángulo 32075" width="0.373" height="9.776" fill="#9db0f4"/>
      </g>
      <g id="Grupo_39943" data-name="Grupo 39943" transform="translate(0.001 157.168)" opacity="0.3">
        <rect id="Rectángulo_32076" data-name="Rectángulo 32076" width="201.564" height="0.373" fill="#9db0f4"/>
      </g>
      <g id="Grupo_39944" data-name="Grupo 39944" transform="translate(57.459 38.008)">
        <path id="Trazado_107625" data-name="Trazado 107625" d="M1110.213,1008.433a1.493,1.493,0,1,1,1.493,1.493A1.493,1.493,0,0,1,1110.213,1008.433Z" transform="translate(-1110.213 -1006.94)" fill="#2b478b"/>
        <path id="Trazado_107626" data-name="Trazado 107626" d="M1142.1,1008.433a1.493,1.493,0,1,1,1.493,1.493A1.493,1.493,0,0,1,1142.1,1008.433Z" transform="translate(-1136.239 -1006.94)" fill="#2b478b"/>
        <path id="Trazado_107627" data-name="Trazado 107627" d="M1173.984,1008.433a1.493,1.493,0,1,1,1.493,1.493A1.493,1.493,0,0,1,1173.984,1008.433Z" transform="translate(-1162.263 -1006.94)" fill="#2b478b"/>
      </g>
      <rect id="Rectángulo_32077" data-name="Rectángulo 32077" width="0.97" height="5.226" transform="translate(46.56 21.92)" fill="#2b478b"/>
      <path id="Trazado_107628" data-name="Trazado 107628" d="M1006.8,1428.113h-.091l-.306-5.5h.717Z" transform="translate(-968.026 -1308.21)" fill="#2b478b"/>
      <path id="Trazado_107629" data-name="Trazado 107629" d="M1012.937,1428.113h-.091l-.306-5.5h.717Z" transform="translate(-973.033 -1308.21)" fill="#2b478b"/>
      <g id="Grupo_39945" data-name="Grupo 39945" transform="translate(37.525 118.904)">
        <path id="Trazado_107630" data-name="Trazado 107630" d="M1004.516,1448.087h-2.056a.74.74,0,0,1-.706-.769.213.213,0,1,1,.424,0,.3.3,0,0,0,.282.307h2.056a.3.3,0,0,0,.282-.307.213.213,0,1,1,.424,0A.74.74,0,0,1,1004.516,1448.087Z" transform="translate(-1001.754 -1447.088)" fill="#35488b"/>
      </g>
      <g id="Grupo_39949" data-name="Grupo 39949" transform="translate(163.617 110.884)">
        <g id="Grupo_39947" data-name="Grupo 39947" transform="translate(0 7.934)">
          <path id="Trazado_107631" data-name="Trazado 107631" d="M1698.153,1453.376h-6.459a2.878,2.878,0,0,1-2.87-2.87h0a2.878,2.878,0,0,1,2.87-2.87h6.459a2.878,2.878,0,0,1,2.87,2.87h0A2.878,2.878,0,0,1,1698.153,1453.376Z" transform="translate(-1688.637 -1447.45)" fill="#f99746"/>
          <g id="Grupo_39946" data-name="Grupo 39946">
            <path id="Trazado_107632" data-name="Trazado 107632" d="M1710.351,1452.734H1690.8a2.99,2.99,0,0,1-2.986-2.986v-.14a2.99,2.99,0,0,1,2.986-2.986h19.556a2.99,2.99,0,0,1,2.986,2.986v.14A2.99,2.99,0,0,1,1710.351,1452.734ZM1690.8,1447a2.616,2.616,0,0,0-2.613,2.613v.14a2.616,2.616,0,0,0,2.613,2.613h19.556a2.616,2.616,0,0,0,2.613-2.613v-.14a2.616,2.616,0,0,0-2.613-2.613Z" transform="translate(-1687.809 -1446.622)" fill="#ed7d2b"/>
          </g>
        </g>
        <g id="Grupo_39948" data-name="Grupo 39948" transform="translate(1.933)">
          <path id="Trazado_107633" data-name="Trazado 107633" d="M1699.119,1407.647h0a.8.8,0,0,1-.793-.793v-2.611a.8.8,0,0,1,.793-.793h0a.8.8,0,0,1,.793.793v2.611A.8.8,0,0,1,1699.119,1407.647Z" transform="translate(-1698.326 -1403.451)" fill="#2b478b"/>
          <path id="Trazado_107634" data-name="Trazado 107634" d="M1756.449,1407.647h0a.8.8,0,0,1-.793-.793v-2.611a.8.8,0,0,1,.793-.793h0a.8.8,0,0,1,.793.793v2.611A.8.8,0,0,1,1756.449,1407.647Z" transform="translate(-1745.119 -1403.451)" fill="#2b478b"/>
          <path id="Trazado_107635" data-name="Trazado 107635" d="M1813.779,1407.647h0a.8.8,0,0,1-.793-.793v-2.611a.8.8,0,0,1,.793-.793h0a.8.8,0,0,1,.792.793v2.611A.8.8,0,0,1,1813.779,1407.647Z" transform="translate(-1791.912 -1403.451)" fill="#2b478b"/>
        </g>
      </g>
      <path id="Trazado_107636" data-name="Trazado 107636" d="M1701.93,847.972s7.013.812,15.833-3.428l.273,4.017s-4.213,5.215-16.508,6.371Z" transform="translate(-1535.389 -836.383)" fill="#ed7d2b" opacity="0.3"/>
      <path id="Trazado_107637" data-name="Trazado 107637" d="M1717.093,894.547a21.917,21.917,0,0,1-7.023,5H1701.8a2.262,2.262,0,0,1-2.26-2.391l.215-3.705,0-.035a51.409,51.409,0,0,0,16.931-4.784Z" transform="translate(-1533.767 -872.367)" fill="#ed7d2b" opacity="0.5"/>
      <path id="Trazado_107638" data-name="Trazado 107638" d="M1719.813,804.89c-1.487,1.371-6.013,4.737-15.4,5.727l.307-5.321a22.686,22.686,0,0,0,13.75-3.832,2.268,2.268,0,0,1,1.237,1.864Z" transform="translate(-1537.745 -801.221)" fill="#ed7d2b" opacity="0.5"/>
    </g>
    <g id="Grupo_39956" data-name="Grupo 39956" transform="translate(836.153 715.484)">
      <g id="Grupo_39951" data-name="Grupo 39951" transform="translate(0 28.863)">
        <path id="Trazado_107639" data-name="Trazado 107639" d="M1007.553,888.929l-.116-.12,7.955-7.749h.031c27.728-1.364,53.943-8.462,54.2-8.533l.044.161c-.262.072-26.474,7.169-54.209,8.537Z" transform="translate(-1007.437 -872.526)" fill="#f99746"/>
      </g>
      <g id="Grupo_39953" data-name="Grupo 39953" transform="translate(46.643 0)">
        <g id="Grupo_39952" data-name="Grupo 39952">
          <path id="Trazado_107640" data-name="Trazado 107640" d="M1403.57,1029.046a.8.8,0,0,1,.143.855.006.006,0,0,1,0,0,5.309,5.309,0,0,1-1.678,1.841c-.1.082-.191.156-.269.225l-.06.054-.047.042c-.738.68-.46.836-1.786,2.216-1.511,1.573-2.552,1.6-2.848,1.458-.25-.122.258-.956.822-1.894l.082-.136c.075-.125.15-.251.224-.376.661-1.128.491-1.657.334-3.336-.127-1.365-2.122-7.622-2.122-7.622l2.9-.5s.872,4.983,1.833,5.75c.514.409,1.089.414,1.583.718.035.021.069.043.1.065A3.8,3.8,0,0,1,1403.57,1029.046Z" transform="translate(-1371.524 -965.564)" fill="#ffb27d"/>
          <path id="Trazado_107641" data-name="Trazado 107641" d="M1406.208,1057.769a.8.8,0,0,1,.142.855.006.006,0,0,1,0,0,6.15,6.15,0,0,1-1.681,1.836c-.1.083-.188.159-.267.23l-.061.054-.047.042c-.738.68-.46.836-1.786,2.216-1.511,1.573-2.552,1.6-2.848,1.458-.25-.122.258-.956.822-1.894a6.442,6.442,0,0,0,2.694-1.985c.91-1.161,1.517-2.654,2.136-3.518.035.021.069.043.1.065A3.8,3.8,0,0,1,1406.208,1057.769Z" transform="translate(-1374.162 -994.287)" fill="#233862"/>
          <path id="Trazado_107642" data-name="Trazado 107642" d="M1269.91,1023.322c-.179.894-1.453.745-2.877.4s-1.085.066-3.111-.159-2.64-.98-2.7-1.281c-.055-.267.946-.361,2.02-.485l.406-.049a8.763,8.763,0,0,0,3.2-1.577,12.865,12.865,0,0,0,2.6-3.088l2.779.22s-1.458,2.215-2.022,3.178a3.358,3.358,0,0,0-.273,1.894A3.565,3.565,0,0,1,1269.91,1023.322Z" transform="translate(-1261.217 -961.649)" fill="#ffb27d"/>
          <path id="Trazado_107643" data-name="Trazado 107643" d="M1267.033,1044.654c-1.424-.348-1.085.066-3.111-.159s-2.64-.98-2.7-1.281c-.055-.267.946-.362,2.02-.485l.01.021a5.713,5.713,0,0,0,2.9.9c1.375.033,2.831-.361,3.78-.345a3.565,3.565,0,0,1-.021.951C1269.731,1045.151,1268.456,1045,1267.033,1044.654Z" transform="translate(-1261.217 -982.584)" fill="#233862"/>
          <path id="Trazado_107644" data-name="Trazado 107644" d="M1366.455,934.583l2.6,6.99,3.392,9.127a5.489,5.489,0,0,0,1.8-.165,7.817,7.817,0,0,0,1.743-.848s-.942-9.8-2.7-15.426a10.016,10.016,0,0,0-1.511-3.269C1369.055,927.775,1366.455,934.583,1366.455,934.583Z" transform="translate(-1347.113 -890.679)" fill="#ed7d2b"/>
          <path id="Trazado_107645" data-name="Trazado 107645" d="M1312.607,887.765c1.7-.549,6.556.156,11.432,1.11l1.021-1.684,10.532-.823s3.475,7.707,1.573,12.618a1.78,1.78,0,0,1-1.782,1.2h-.154l-8.3,0c-5.237,0-11.084-3.6-11.841-3.752-1.238-.248-1.733,2.229-2.971,4.828s-11.638,11.514-11.638,11.514a9.157,9.157,0,0,1-2.259-.232,2.223,2.223,0,0,1-.97-.612S1308.769,889,1312.607,887.765Z" transform="translate(-1290.624 -854.962)" fill="#f99746"/>
          <path id="Trazado_107646" data-name="Trazado 107646" d="M1429.762,732.123a115.139,115.139,0,0,0,10.967,7.946s2.48,1.668,4.266,1.007c2.977-1.1,5.442-5.376,1.67-10.445-1.881-2.528-3.5-3.414-2.945-6.614.606-3.468-.74-7.938-4.747-8.333a11.1,11.1,0,0,0-3.831-.031C1431.381,716.62,1424.473,730.054,1429.762,732.123Z" transform="translate(-1397.216 -715.484)" fill="#a9453d"/>
          <path id="Trazado_107647" data-name="Trazado 107647" d="M1463.738,774.233a5.259,5.259,0,0,0,3.1.883,5.113,5.113,0,0,0,2.461-1.875c-.513-.146-.888-.77-.624-3.848l-.24.027-4.028.46s-.012,1.255-.106,2.43C1464.221,773.3,1463.973,774.147,1463.738,774.233Z" transform="translate(-1426.516 -759.485)" fill="#ffb27d"/>
          <path id="Trazado_107648" data-name="Trazado 107648" d="M1466.9,770s-.012,1.255-.106,2.43c2.223.119,3.561-1.808,4.133-2.89Z" transform="translate(-1429.007 -759.606)" fill="#ed975d"/>
          <path id="Trazado_107649" data-name="Trazado 107649" d="M1457.048,739.011s5.24.517,5.511-2.752,1.131-5.4-2.2-5.871-4.089.725-4.444,1.794S1455.692,738.792,1457.048,739.011Z" transform="translate(-1419.991 -727.564)" fill="#ffb27d"/>
          <path id="Trazado_107650" data-name="Trazado 107650" d="M1465.894,725.748s.66,3.992,3.644,4.94c2.177.691,3.163.236,3.163.236a8.872,8.872,0,0,1-1.421-3.322,1.6,1.6,0,0,0-1.066-1.219C1468.668,725.874,1466.793,724.482,1465.894,725.748Z" transform="translate(-1428.276 -723.44)" fill="#a9453d"/>
          <path id="Trazado_107651" data-name="Trazado 107651" d="M1457.468,728.615a3.467,3.467,0,0,0-1.863,1.494,6.688,6.688,0,0,0-.938,3.229s-.917-3.7.42-5.07A1.391,1.391,0,0,1,1457.468,728.615Z" transform="translate(-1418.862 -725.455)" fill="#a9453d"/>
          <path id="Trazado_107652" data-name="Trazado 107652" d="M1455.626,800.976c-.094.4-.173.762-.239,1.1-.107.544-.18,1.012-.232,1.426-.16,1.289-.112,2.053-.22,2.888a7.216,7.216,0,0,1-.392,1.572c-.217.6-5.911,1.132-9.151.917a4.443,4.443,0,0,1-2.091-.452c-1.156-1-1.041,1.2-1.2-9.359-.077-5.152,4.372-9.741,4.372-9.741s.355,2.2,4.767-.419c.157-.092,1.894,2.481,3.567,5.649C1456.651,798.056,1456.146,798.8,1455.626,800.976Z" transform="translate(-1408.857 -775.411)" fill="#aec3ff"/>
          <path id="Trazado_107653" data-name="Trazado 107653" d="M1380.589,959.93l3.391,9.127a5.492,5.492,0,0,0,1.8-.165,7.812,7.812,0,0,0,1.743-.848s-.942-9.8-2.7-15.425Z" transform="translate(-1358.649 -909.035)" fill="#f99746"/>
          <path id="Trazado_107654" data-name="Trazado 107654" d="M1424.644,791.19s-4.54.77-5.073,2.724-4.216,12.886-4.216,12.886,2.854.974,3.92-.092,3.71-9.891,3.71-9.891Z" transform="translate(-1387.026 -777.276)" fill="#aec3ff"/>
          <path id="Trazado_107655" data-name="Trazado 107655" d="M1344.536,860.228l-1.076-.427a2.564,2.564,0,0,0-1-.033c-.35.11-1.224.1-1.228.242s1,.589,1,.589l.031-.012c-.38.861-2.281,1.352-2.373,1.668-.111.383.773.581,1.255.7a2.658,2.658,0,0,0,2.244-.506c.426-.448,1.145-1.065,1.145-1.065Z" transform="translate(-1325.424 -833.216)" fill="#ffb27d"/>
          <path id="Trazado_107656" data-name="Trazado 107656" d="M1461.135,766.8a.9.9,0,0,1-.8.537c-.58,0-.737-.087-.847-.21a1.82,1.82,0,0,1-.219-.36A4.926,4.926,0,0,1,1461.135,766.8Z" transform="translate(-1422.869 -757.282)" fill="#fff"/>
          <path id="Trazado_107657" data-name="Trazado 107657" d="M1373.275,848.478l-10.99.839a3.426,3.426,0,0,0,.479,2.274s9.915,1.938,12.5.948,2.3-5.659,2.3-5.659Z" transform="translate(-1343.68 -822.731)" fill="#aec3ff"/>
          <path id="Trazado_107658" data-name="Trazado 107658" d="M1436.825,848.51l-.73-.9a2.567,2.567,0,0,0-.853-.516c-.359-.075-1.116-.512-1.189-.388s.582,1,.582,1l.033,0c-.752.566-2.651.066-2.886.3-.284.28.391.884.753,1.224a2.659,2.659,0,0,0,2.206.654c.59-.184,1.519-.371,1.519-.371Z" transform="translate(-1400.378 -822.573)" fill="#ffb27d"/>
          <path id="Trazado_107659" data-name="Trazado 107659" d="M1469.37,867.008c-.16,1.289-.112,2.053-.22,2.888-4.122.013-9.633-3.183-9.633-3.183Z" transform="translate(-1423.071 -838.918)" fill="#94b0ed"/>
          <path id="Trazado_107660" data-name="Trazado 107660" d="M1459.517,828.568s6.421-.191,7.5-3.841c1.189-4.01,2.521,1.649,2.521,1.649l-.709,3.612h-7.045Z" transform="translate(-1423.071 -803.477)" fill="#94b0ed"/>
          <path id="Trazado_107661" data-name="Trazado 107661" d="M1461.248,788.922s4.168.273,5.21,1.9,2.334,9.879,1.792,12.714-13.89-.542-13.89-.542l.426-2.459s7.7.045,8.143-.959C1463.513,798.24,1461.248,788.922,1461.248,788.922Z" transform="translate(-1418.863 -775.425)" fill="#aec3ff"/>
        </g>
      </g>
      <g id="Grupo_39954" data-name="Grupo 39954" transform="translate(80.393 23.079)">
        <path id="Trazado_107662" data-name="Trazado 107662" d="M1459.06,844.831a58.28,58.28,0,0,1-14.148-1.431.083.083,0,0,1,.042-.161c4.582,1.2,13.483,2.257,29.867.487,9.8-1.059,17.741-2.653,17.82-2.668a.083.083,0,0,1,.033.163c-.079.016-8.025,1.611-17.835,2.671A150.684,150.684,0,0,1,1459.06,844.831Z" transform="translate(-1444.85 -841.055)" fill="#f99746"/>
      </g>
      <g id="Grupo_39955" data-name="Grupo 39955" transform="translate(62.68 26.579)">
        <path id="Trazado_107663" data-name="Trazado 107663" d="M1353.618,861.959a49.44,49.44,0,0,1-5.068-.268.083.083,0,0,1,.017-.166c10.324,1.065,15.939-1.394,15.994-1.419a.083.083,0,0,1,.068.152C1364.584,860.279,1360.748,861.959,1353.618,861.959Z" transform="translate(-1348.475 -860.099)" fill="#f99746"/>
      </g>
    </g>
    <g id="Grupo_39957" data-name="Grupo 39957" transform="translate(956.867 796.063)">
      <circle id="Elipse_1037" data-name="Elipse 1037" cx="15.17" cy="15.17" r="15.17" transform="translate(0 4.86) rotate(-9.217)" fill="#2a4e96"/>
      <path id="Trazado_107664" data-name="Trazado 107664" d="M1696.754,1199.149a11.428,11.428,0,1,1,11.428,11.428A11.428,11.428,0,0,1,1696.754,1199.149Z" transform="translate(-1690.778 -1181.506)" fill="#fff"/>
    </g>
    <g id="Grupo_39958" data-name="Grupo 39958" transform="translate(961.121 771.289)">
      <circle id="Elipse_1038" data-name="Elipse 1038" cx="9.269" cy="9.269" r="9.269" transform="matrix(0.169, -0.986, 0.986, 0.169, 0, 18.272)" fill="#2a4e96"/>
      <path id="Trazado_107665" data-name="Trazado 107665" d="M1707.612,1047.123a6.982,6.982,0,1,1,6.982,6.982A6.982,6.982,0,0,1,1707.612,1047.123Z" transform="translate(-1703.894 -1036.277)" fill="#fff"/>
    </g>
    <g id="Grupo_39960" data-name="Grupo 39960" transform="translate(924.314 792.179)">
      <path id="Trazado_107666" data-name="Trazado 107666" d="M1584.434,1218.826s5.445,1.49,8.265.79,8.246-3.682,8.246-3.682l.855,1.494s-4.438,6.612-8.541,7.363S1584.434,1218.826,1584.434,1218.826Z" transform="translate(-1566.547 -1200.649)" fill="#ed7d2b"/>
      <path id="Trazado_107667" data-name="Trazado 107667" d="M1722.1,1324.972s2.821,1.124,3.772.824,2.591-1.218,2.886-1.972-1.935.2-2.689,0a4.946,4.946,0,0,0-3.05,0C1721.544,1324.25,1722.1,1324.972,1722.1,1324.972Z" transform="translate(-1678.828 -1288.469)" fill="#ffb27d"/>
      <path id="Trazado_107668" data-name="Trazado 107668" d="M1583.063,1678.1s.213,3.431.85,4.237h9.8a1.744,1.744,0,0,0-1.565-1.4c-1.549-.269-4.142-1.358-5.079-3.405C1586.084,1675.376,1583.063,1678.1,1583.063,1678.1Z" transform="translate(-1565.428 -1576.731)" fill="#163560"/>
      <path id="Trazado_107669" data-name="Trazado 107669" d="M1487.352,1675.715s-.646,4.271.193,4.348c.112.01,4.039,0,5.106.163a26.784,26.784,0,0,0,4.652.033.461.461,0,0,0,.417-.693,1.858,1.858,0,0,0-1.332-.854c-1.544-.3-4.117-1.431-5.019-3.494C1490.421,1673.047,1487.352,1675.715,1487.352,1675.715Z" transform="translate(-1487.115 -1574.826)" fill="#163560"/>
      <path id="Trazado_107670" data-name="Trazado 107670" d="M1510.414,1398.354s-2.465,8.626-9.53,23.6-7.61,21.8-7.61,21.8l-4.867-.229s.458-17.828,3.795-25.387,4.017-28.243,4.017-28.243Z" transform="translate(-1488.17 -1342.644)" fill="#94b0ed"/>
      <path id="Trazado_107671" data-name="Trazado 107671" d="M1558.33,1395.5a215.083,215.083,0,0,1-2.114,29.755c-2.311,16.4-1.528,23.36-1.528,23.36l-5.535.184s-3.307-16.405-2.359-24.613-4.529-28.166-4.529-28.166Z" transform="translate(-1532.129 -1347.216)" fill="#aec3ff"/>
      <path id="Trazado_107672" data-name="Trazado 107672" d="M1570.256,1196.123l2.61,1.934,3.772-.794c-.052-.344-.3-1.77-.528-3.061l-.04-.227c-.194-1.1-.362-2.043-.362-2.043l-3.524-1.756-1.314-.655c0,.023.1,1.22.116,1.394A11.28,11.28,0,0,1,1570.256,1196.123Z" transform="translate(-1554.975 -1179.09)" fill="#ffb27d"/>
      <path id="Trazado_107673" data-name="Trazado 107673" d="M1548.468,1252.166c.238,2.383-18.833,5.2-18.906,1.206-.063-3.517,2.031-22.87,2.68-25.638,1.147-4.9,2.178-7.7,4.363-8.342.807-.234,3.781.537,5.929,1.161a3.538,3.538,0,0,1,.443.153,4.558,4.558,0,0,1,2.67,2.924c.331,1.116.712,2.545,1.021,4.121a31.481,31.481,0,0,1,.579,4.475c.018.317.028.634.03.948.012,1.169.114,2.68.258,4.359.09,1.059.2,2.185.311,3.332.033.329.067.659.1.992.024.23.39,7.791.5,9.816,0,.03,0,.055,0,.081a.018.018,0,0,0,0,.01c0,.027,0,.057,0,.084C1548.46,1252.03,1548.466,1252.14,1548.468,1252.166Z" transform="translate(-1521.759 -1203.436)" fill="#f99746"/>
      <path id="Trazado_107674" data-name="Trazado 107674" d="M1575.224,1193.875c.774,1.481,3.657,2.761,4.86,3.232l-.04-.227c-.194-1.1-.362-2.043-.362-2.043l-3.524-1.756C1575.379,1193.069,1574.905,1193.266,1575.224,1193.875Z" transform="translate(-1558.948 -1181.996)" fill="#fca56b"/>
      <path id="Trazado_107675" data-name="Trazado 107675" d="M1569.87,1155.052s-6.357,1.983-7.531-1.995-2.785-6.4,1.224-7.835,5.249-.15,5.964,1.082S1571.493,1154.433,1569.87,1155.052Z" transform="translate(-1547.424 -1142.417)" fill="#ffb27d"/>
      <path id="Trazado_107676" data-name="Trazado 107676" d="M1557.11,1136.275s-.405,4.629-1.363,4.428-1.825-.35-1.685,1.045,1.468,3.007-1.482,3.253-7.191-7.361-6.381-8.8C1548.537,1132.044,1560.49,1131.2,1557.11,1136.275Z" transform="translate(-1535.257 -1132.772)" fill="#163560"/>
      <g id="Grupo_39959" data-name="Grupo 39959" transform="translate(34.398 11.797)">
        <path id="Trazado_107677" data-name="Trazado 107677" d="M1674.271,1200.446a12.012,12.012,0,0,1,2.105-3.011,4.845,4.845,0,0,1,3.448-.283c.276.58-1.987,1.423-2.258,1.944s.805.492-.041,1.389a8.87,8.87,0,0,1-2.4,1.456Z" transform="translate(-1674.271 -1196.958)" fill="#ffb27d"/>
        <path id="Trazado_107678" data-name="Trazado 107678" d="M1683.82,1209.021c.016,0,.767-.088,1.5-.168.54-.059,1.068-.3,1.29-.309.523-.026.155.8-.976,1.218-.958.35-1.23.917-2.134,1.07C1682.408,1211.017,1683.82,1209.021,1683.82,1209.021Z" transform="translate(-1681.466 -1206.414)" fill="#ffb27d"/>
      </g>
      <path id="Trazado_107679" data-name="Trazado 107679" d="M1574.444,1214.1c-.083-.035-5.132-1.525-5.681-1.344s-.874,1.242-.874,1.242l7.8,2.221S1575.5,1214.548,1574.444,1214.1Z" transform="translate(-1553.044 -1198.047)" fill="#ed7d2b"/>
      <path id="Trazado_107680" data-name="Trazado 107680" d="M1727.556,1318.17a4.955,4.955,0,0,1,1.689-.935c.787-.172,1.476-.886,1.476-.541s-.59,1.181-.59,1.476S1727.556,1318.17,1727.556,1318.17Z" transform="translate(-1683.365 -1282.815)" fill="#ffb27d"/>
      <path id="Trazado_107681" data-name="Trazado 107681" d="M1595.74,1284.945c-4.05-1.537-7.12-7.51-7.12-7.51l6.833,2.2c.018.317.027.634.029.948C1595.494,1281.755,1595.6,1283.266,1595.74,1284.945Z" transform="translate(-1569.964 -1250.847)" fill="#ed7d2b"/>
      <path id="Trazado_107682" data-name="Trazado 107682" d="M1593.225,1253.007l.009-.033a1.5,1.5,0,0,0-.8-1.727c-2.545-1.226-9.136-4.4-9.871-4.8-.776-.416-8.492-7.835-10.8-10.062a1.5,1.5,0,0,0-1.508-.346l-6.393,2.089a1.5,1.5,0,0,0-.383,2.665c4.7,3.223,14.539,9.929,16.307,10.833,3.118,1.593,9.426,2.427,11.754,2.69a1.5,1.5,0,0,0,1.547-.9A2.993,2.993,0,0,0,1593.225,1253.007Z" transform="translate(-1548.909 -1217)" fill="#f99746"/>
    </g>
  </g>
</svg>
