<svg xmlns="http://www.w3.org/2000/svg" width="243.646" height="175.453" viewBox="0 0 243.646 175.453">
  <g id="Grupo_39939" data-name="Grupo 39939" transform="translate(-210.75 -591.005)">
    <g id="Grupo_39925" data-name="Grupo 39925" transform="translate(274.373 596.122)">
      <g id="Grupo_39921" data-name="Grupo 39921" transform="translate(0 0)">
        <rect id="Rectángulo_32066" data-name="Rectángulo 32066" width="82.129" height="59.031" fill="#e4dad8"/>
        <rect id="Rectángulo_32067" data-name="Rectángulo 32067" width="73.584" height="49.851" transform="translate(4.272 4.59)" fill="#055f63"/>
        <path id="Trazado_107521" data-name="Trazado 107521" d="M1203.069,719.825h.37v49.851h-.37V719.825Zm10.23,0h.37v49.851h-.37V719.825Zm-3.41,0h.37v49.851h-.37V719.825Zm-3.41,0h.37v49.851h-.37V719.825Zm-6.814,0h.37v49.851h-.37V719.825Zm-3.41,0h.37v49.851h-.37V719.825Zm-3.41,0h.37v49.851h-.37V719.825Zm-3.41,0h.371v49.851h-.371V719.825Zm-3.41,0h.371v49.851h-.371V719.825Zm-3.41,0h.371v49.851h-.371V719.825Zm-3.41,0h.37v49.851h-.37V719.825Zm-3.41,0h.37v49.851h-.37V719.825Zm-3.41,0h.37v49.851h-.37V719.825Zm-3.41,0h.371v49.851h-.371V719.825Zm-3.41,0h.371v49.851h-.371V719.825Zm-3.41,0h.371v49.851h-.371V719.825Zm-3.41,0h.37v49.851h-.37V719.825Zm-3.41,0h.37v49.851h-.37V719.825Zm-3.41,0h.371v49.851h-.371V719.825Zm-3.41,0h.371v49.851h-.371V719.825Zm-3.41,0h.37v49.851h-.37Z" transform="translate(-1138.323 -715.235)" fill="#00b195" fill-rule="evenodd"/>
        <path id="Trazado_107522" data-name="Trazado 107522" d="M1185.361,798.333v.371h-73.586v-.371Zm0-3.41v.37h-73.586v-.37Zm0-3.41v.371h-73.586v-.371Zm0-3.41v.371h-73.586V788.1Zm0-3.41v.37h-73.586v-.37Zm0-3.41v.37h-73.586v-.37Zm0-3.41v.371h-73.586v-.371Zm0-3.41v.37h-73.586v-.37Zm0-3.41v.37h-73.586v-.37Zm0-3.41v.371h-73.586v-.371Zm0-3.41v.371h-73.586v-.371Zm0-3.41v.371h-73.586v-.371Zm0-3.41v.37h-73.586v-.37Zm0-3.41v.371h-73.586V754Z" transform="translate(-1107.504 -746.838)" fill="#00b195" fill-rule="evenodd"/>
        <g id="Grupo_39920" data-name="Grupo 39920" transform="translate(1.091 1.245)">
          <path id="Trazado_107523" data-name="Trazado 107523" d="M1071.084,678.444a1.506,1.506,0,1,0-1.506-1.506A1.509,1.509,0,0,0,1071.084,678.444Z" transform="translate(-1069.578 -675.432)" fill="#a39691" fill-rule="evenodd"/>
          <path id="Trazado_107524" data-name="Trazado 107524" d="M1071.084,1388.828a1.506,1.506,0,1,0-1.506-1.506A1.509,1.509,0,0,0,1071.084,1388.828Z" transform="translate(-1069.578 -1332.288)" fill="#a39691" fill-rule="evenodd"/>
          <path id="Trazado_107525" data-name="Trazado 107525" d="M2092.1,678.444a1.506,1.506,0,1,0-1.506-1.506A1.509,1.509,0,0,0,2092.1,678.444Z" transform="translate(-2013.662 -675.432)" fill="#a39691" fill-rule="evenodd"/>
          <path id="Trazado_107526" data-name="Trazado 107526" d="M2092.1,1388.828a1.506,1.506,0,1,0-1.506-1.506A1.509,1.509,0,0,0,2092.1,1388.828Z" transform="translate(-2013.662 -1332.288)" fill="#a39691" fill-rule="evenodd"/>
        </g>
      </g>
      <g id="Grupo_39924" data-name="Grupo 39924" transform="translate(16.005 6.973)">
        <g id="Grupo_39922" data-name="Grupo 39922" transform="translate(0 4.167)">
          <path id="Trazado_107527" data-name="Trazado 107527" d="M1268.3,836.333c-.126.079-.393-.019-.595-.219s-.263-.425-.137-.5a9.483,9.483,0,0,0,1.108-.905,15.569,15.569,0,0,1,2.25-1.759c3.111-1.886,6.41-2.017,8.871-2.114a8.057,8.057,0,0,0,3.129-.451c.575-.33,1.43-2.609,1.979-4.072.163-.436.3-.8.4-1.024.059-.136.294-.112.525.055s.372.412.313.548c-.1.222-.23.582-.392,1.012-.561,1.5-1.436,3.83-2.1,4.21a8.208,8.208,0,0,1-3.314.5c-2.412.1-5.646.224-8.678,2.061a15.41,15.41,0,0,0-2.21,1.729A9.5,9.5,0,0,1,1268.3,836.333Z" transform="translate(-1267.503 -823.807)" fill="#fff" fill-rule="evenodd"/>
          <path id="Trazado_107528" data-name="Trazado 107528" d="M1356,810.387a2.231,2.231,0,0,0,1.053,1.7,1.9,1.9,0,0,0,.9.213,1.992,1.992,0,0,0,1.022-.291,2.7,2.7,0,0,0,1.177-2.126l0-.015a2.033,2.033,0,0,0-1.129-2.03,2.7,2.7,0,0,0-1.168-.308,1.908,1.908,0,0,0-1.16.322,2.415,2.415,0,0,0-.7,2.536Zm1.062,2.327a3.667,3.667,0,0,1-1.919-2.7c-.24-1.488.149-2.4.811-2.872a2.325,2.325,0,0,1,1.41-.385,3.834,3.834,0,0,1,1.649.451,3.327,3.327,0,0,1,2,3.167v.019a2.979,2.979,0,0,1-1.307,2.344,2.4,2.4,0,0,1-1.236.343A3,3,0,0,1,1357.063,812.713Z" transform="translate(-1348.474 -806.75)" fill="#fff" fill-rule="evenodd"/>
          <path id="Trazado_107529" data-name="Trazado 107529" d="M1305.195,844.619c.059-.136.294-.112.526.055s.371.412.313.548a8.912,8.912,0,0,0-.561,2.282,5.554,5.554,0,0,1-3.363,4.928c-.791.424-1.8.908-2.875,1.424-.791.38-1.619.778-2.441,1.191.206.017.383.036.519.054a9.372,9.372,0,0,0,3.136-.1,2,2,0,0,0,1.481-1.011c.057-.137.29-.115.522.049s.373.41.317.547a2.273,2.273,0,0,1-1.685,1.178,10.005,10.005,0,0,1-3.349.111c-.126-.016-.319-.036-.568-.055-.445-.035-1.042-.067-1.707-.077a20.394,20.394,0,0,0-3.907,2.573l.273.025a40.491,40.491,0,0,0,8.7-.8l.225-.041a7.5,7.5,0,0,1,4.479.573,8.149,8.149,0,0,1,2.981,2.353,7.013,7.013,0,0,1,1.428,3.08,4.89,4.89,0,0,1-.332,2.912c-.63,1.372-1.27,1.585-1.92,1.305l-.037-.016a4.292,4.292,0,0,1-1.311-1.127,3.271,3.271,0,0,0-.742-.7c-.408-.18-.9.128-1.592,1.7-.382.866-.866,1-1.4.764a4.334,4.334,0,0,1-1.456-1.367,3.853,3.853,0,0,0-.674-.751c-.155-.061-.335.1-.564.679-.693,1.761-1.314,2.129-1.835,1.925a2.713,2.713,0,0,1-1.276-1.713c-.028-.072.545.122.249,0-.682-.286-1.04.584-1.332,1.292-.181.441-.342.829-.6.938-1.109.474-1.683.074-2.017-.683l-.014-.031a3.687,3.687,0,0,1-.2-1.226c-.017-.337.367-.627.166-.641-.937-.064-1.047.894-1.144,1.746a4.788,4.788,0,0,1-.167.941c-.156.462-.464.706-1.156.472a3.257,3.257,0,0,1-.936-.5,4.588,4.588,0,0,1-1.535-3.755,13.883,13.883,0,0,1,.771-4.406,10.127,10.127,0,0,1,1.308-2.688,1.743,1.743,0,0,1-1.11-1.785l.01-.074c.145-.982,1.6-1.44,3.3-1.629a22.951,22.951,0,0,1,2.733-.116c1.219-.651,2.5-1.267,3.7-1.842,1.041-.5,2.016-.968,2.861-1.421a5.315,5.315,0,0,0,3.223-4.716,9.227,9.227,0,0,1,.58-2.362Zm-14.246,14.3q-.116.133-.218.267a9.741,9.741,0,0,0-1.291,2.647,13.513,13.513,0,0,0-.753,4.283,3.614,3.614,0,0,0,.932,2.84,1.551,1.551,0,0,0,.449.232c.3.1.445-.056.538-.33a4.655,4.655,0,0,0,.15-.871c.112-.989.239-2.1,1.536-2.012,1.074.073,1.12.937,1.168,1.856a3.359,3.359,0,0,0,.138.983l.537-.227c.151-.065.291-.4.449-.789.353-.856.786-1.908,2.036-1.384.412.173.539.5.7.922.124.323.289.778.295.781.215.084.565-.3,1.16-1.817.323-.823.753-.979,1.239-.787a3.978,3.978,0,0,1,1.45,1.339,3.806,3.806,0,0,0,.735.8c.183.081.4-.071.671-.691.806-1.827,1.575-2.1,2.319-1.772a4.355,4.355,0,0,1,1.39,1.181,3.283,3.283,0,0,0,.682.655l.017.008c.311.13.681-.113,1.2-1.236a4.488,4.488,0,0,0,.311-2.672,5.9,5.9,0,0,0-1.189-2.6,6.218,6.218,0,0,0-2.279-1.8,6.625,6.625,0,0,0-3.96-.47l-.224.039a40.916,40.916,0,0,1-8.848.809,9.308,9.308,0,0,1-1.336-.192Zm-.616-.865a14.345,14.345,0,0,1,3.022-2.265c-.229.016-.456.036-.679.061-1.561.174-2.9.568-3.016,1.377l0,.049C1289.627,857.634,1289.887,857.885,1290.333,858.056Z" transform="translate(-1286.292 -841.684)" fill="#fff" fill-rule="evenodd"/>
          <path id="Trazado_107530" data-name="Trazado 107530" d="M1391.492,1121.658c.089.208-.017.333-.238.28a.923.923,0,0,1-.562-.473,18.811,18.811,0,0,1-.685-2.646c-.278-1.324-.57-2.921-.8-4.366a27.178,27.178,0,0,1-.042-6.719,8.837,8.837,0,0,1,.883-3.053,2.188,2.188,0,0,1,2.021-1.3,3.322,3.322,0,0,1,1.238.317c2.206.99,2.017,5.5,1.87,8.98a13.67,13.67,0,0,0,.067,3.618c.1.21,0,.342-.219.3a.925.925,0,0,1-.57-.464,12.389,12.389,0,0,1-.139-3.931c.134-3.166.307-7.28-.906-7.824a2.278,2.278,0,0,0-.849-.217,1.883,1.883,0,0,0-1.69,1.147,8.562,8.562,0,0,0-.843,2.943,26.6,26.6,0,0,0,.039,6.584c.229,1.464.518,3.048.787,4.332A18.572,18.572,0,0,0,1391.492,1121.658Z" transform="translate(-1379.826 -1081.033)" fill="#fff" fill-rule="evenodd"/>
        </g>
        <g id="Grupo_39923" data-name="Grupo 39923" transform="translate(27.766)">
          <path id="Trazado_107531" data-name="Trazado 107531" d="M1730.4,758.827a3.774,3.774,0,0,1-3.088-2,3.651,3.651,0,0,1-.38-1.759,4.718,4.718,0,0,1,.364-1.679,2.9,2.9,0,0,1,2-1.911,3.344,3.344,0,0,1,3.446,2.23,5.349,5.349,0,0,1,.49,2.017,3.932,3.932,0,0,1-.34,1.858,2.237,2.237,0,0,1-2.488,1.243Zm-2.318-1.871a2.275,2.275,0,0,0,1.892,1.1,1.889,1.889,0,0,0,2.082-1.087,3.558,3.558,0,0,0,.311-1.684,4.609,4.609,0,0,0-.415-1.739,1.979,1.979,0,0,0-2.07-1.294,2.618,2.618,0,0,0-1.749,1.736,4.377,4.377,0,0,0-.339,1.554A2.944,2.944,0,0,0,1728.077,756.955Z" transform="translate(-1720.074 -751.449)" fill="#fff" fill-rule="evenodd"/>
          <path id="Trazado_107532" data-name="Trazado 107532" d="M1636.348,797.555c-.235-.153-.4-.4-.357-.549s.26-.147.495.006a13.847,13.847,0,0,0,4.968,2.155,12.324,12.324,0,0,0,5.6-.313,21.7,21.7,0,0,0,6.737-3.75c1.835-1.457,3.337-3.1,3.691-4.512.038-.15.26-.147.495.006s.4.4.357.549c-.371,1.48-1.909,3.172-3.785,4.662a22.033,22.033,0,0,1-6.854,3.807,12.9,12.9,0,0,1-5.871.314A15.26,15.26,0,0,1,1636.348,797.555Z" transform="translate(-1635.986 -787.54)" fill="#fff" fill-rule="evenodd"/>
          <path id="Trazado_107533" data-name="Trazado 107533" d="M1790.614,859.927c-.037-.19.124-.264.359-.165a.868.868,0,0,1,.493.524.566.566,0,0,0,.032.106c.2.478,1.388.794,2.753.97a15.476,15.476,0,0,0,4.3-.029,3.8,3.8,0,0,0,.372-.089,1.183,1.183,0,0,1,.11-.053.2.2,0,0,1,.114-.031c.458,0,.7.2.705.624a.144.144,0,0,1-.088.152q-.093.038-.207.073l-.268.2a9.547,9.547,0,0,0-.921.827c-1.415,1.438-3.172,3.985-1.248,5.878.356.35.688.669.991.96,3,2.883,3.477,3.341,2.341,8.978-.323,1.6-1.648,5.81-2.425,8.035-.158.454-.3.828-.4,1.08a1.863,1.863,0,0,1-.142.291c.009.042,0,.054-.029.045-.24.348-.513.258-.816-.356a.426.426,0,0,1-.045-.215c.008-.121.117-.168.268-.132-.058-.1-.091-.187-.075-.228.1-.247.234-.617.391-1.068.775-2.22,2.1-6.41,2.414-7.991,1.061-5.266.652-5.659-1.923-8.133-.306-.294-.641-.616-1.008-.977-2.467-2.429-.624-5.279.921-6.849l.1-.1a18.232,18.232,0,0,1-3.014-.124c-1.834-.236-3.5-.826-3.974-1.932l-.007-.016A1.323,1.323,0,0,1,1790.614,859.927Z" transform="translate(-1778.958 -851.56)" fill="#fff" fill-rule="evenodd"/>
          <path id="Trazado_107534" data-name="Trazado 107534" d="M1700.546,967.468c-.067.13-.307.1-.536-.074s-.361-.415-.294-.546c.256-.5,1.114-3.2,1.942-5.961.885-2.951,1.737-5.967,1.784-6.449.36-3.683.262-6.093-.679-8.074-.906-1.907-2.665-3.476-5.645-5.518l-.006,0a17.461,17.461,0,0,0-2.071-.976c-1.068-.457-1.985-.849-1.985-1.31,0-.172.2-.208.433-.08a41.417,41.417,0,0,1,3.788,1.84l.016.01c3.262,2.235,5.2,3.986,6.252,6.194,1.014,2.134,1.129,4.639.758,8.422-.049.5-.906,3.549-1.8,6.516C1701.675,964.233,1700.81,966.948,1700.546,967.468Z" transform="translate(-1688.756 -924.313)" fill="#fff" fill-rule="evenodd"/>
        </g>
      </g>
    </g>
    <path id="Trazado_107535" data-name="Trazado 107535" d="M1200.18,1608.93c29.568,3.041,55.037,1.271,80.932,0a4.8,4.8,0,0,1,0,6.136H1200.18C1202.939,1612.968,1201.406,1610.952,1200.18,1608.93Z" transform="translate(-914.875 -941.223)" fill="#a2ebdc" fill-rule="evenodd"/>
    <g id="Grupo_39929" data-name="Grupo 39929" transform="translate(210.75 591.005)">
      <path id="Trazado_107536" data-name="Trazado 107536" d="M588.2,1155.013c2.387,6.919,7.9,17.991,14.691,23.005,6.479,4.783,17.511,3.75,25.4,3.924h11.048c.332-.873-.041-1.8-1.256-2.6a8.392,8.392,0,0,0-6.121-1.268c-1.337.22-2.558.6-3.191.634-18.337.868-22.5-17.56-23.547-28.135-1.51-15.2-13.211-12.6-17.191-5.2C586.567,1148.1,587.068,1151.737,588.2,1155.013Z" transform="translate(-558.766 -1098.143)" fill="#feceb4" fill-rule="evenodd"/>
      <path id="Trazado_107537" data-name="Trazado 107537" d="M580.811,1148.368c2.66,7.71,8.274,18.383,14.875,23.255a20.833,20.833,0,0,0,9.391,3.451h14.846q0-.33.016-.666a13.905,13.905,0,0,1,.5-3.081,17.944,17.944,0,0,1-14.051-6.386c-4.782-5.621-6.738-13.986-7.465-21.3-.3-3.03-1.1-6.373-3.03-8.737a7.341,7.341,0,0,0-5.543-2.837c-3.993-.135-7.8,2.741-9.664,6.214C579.031,1141.363,579.763,1145.33,580.811,1148.368Z" transform="translate(-551.909 -1091.294)" fill="#00b195" fill-rule="evenodd"/>
      <path id="Trazado_107538" data-name="Trazado 107538" d="M802.227,1465.772a19.131,19.131,0,0,1-10.185-6.347,25.883,25.883,0,0,1-3.214-4.833c-1.783-3.423-1.985-6.318-4.322-2.454-3.073,5.082-5.829,7.9-.9,11.537,4.668,3.446,12.365,4.1,18.456,3.943C807.4,1467.484,805.364,1466.542,802.227,1465.772Z" transform="translate(-737.947 -1385.547)" fill="#8acc59" fill-rule="evenodd"/>
      <path id="Trazado_107539" data-name="Trazado 107539" d="M580.811,1148.368c2.212,6.412,6.467,14.871,11.633,20.341a31.049,31.049,0,0,1,3.894-12.734,32.415,32.415,0,0,0,3.1-8.331c-.218-1.354-.387-2.7-.517-4-.3-3.03-1.1-6.373-3.03-8.737a7.341,7.341,0,0,0-5.543-2.837c-3.993-.135-7.8,2.741-9.664,6.214C579.031,1141.363,579.763,1145.33,580.811,1148.368Z" transform="translate(-551.909 -1091.294)" fill="#059a88" fill-rule="evenodd"/>
      <path id="Trazado_107540" data-name="Trazado 107540" d="M435.486,1828.061a17.3,17.3,0,0,1,5.24.186,14.318,14.318,0,0,0,4.761.175c-2.479-1.751-6.579-6.749-7.612-9.394-5.076-13.006-6.58-18.084-8.5-31.235-.531-3.642,1.34-9.393,1.977-15.1.7-6.279,1.2-12.966,1.374-18.237.264-8.147-20.915-16.083-22.345-1.38-.447,4.595.264,9.11,1.514,14.643,1.925,8.516,4.919,16.877,4.593,19.224-.963,6.936,1.239,13.322,4.463,19.118C422.707,1809.2,435.841,1826.458,435.486,1828.061Z" transform="translate(-395.22 -1657.916)" fill="#feceb4" fill-rule="evenodd"/>
      <path id="Trazado_107541" data-name="Trazado 107541" d="M430.137,1812.99c-4.118-5.412-5.246-14.563-6.9-20.667-1.76-6.477-3.679-14.5-2.579-20.848,1.659-9.586,1.228-16.9,1.56-27.093.307-9.44-23.922-18.287-24.342.441a52.666,52.666,0,0,0,1.66,12.778c.908,4.016,2.055,7.982,3.152,11.97.39,1.419,1.61,5.6,1.426,6.922-.95,6.844,1.037,13.348,4.584,19.723.774,1.391,1.917,2.929,2.844,4.247,1.529,2.172,3.079,4.332,4.614,6.5.616.87,2.911,4.087,4.7,6.807.642,1.234,7.216.891,9.3.292C430.776,1813.885,430.469,1813.426,430.137,1812.99Z" transform="translate(-383.765 -1647.702)" fill="#033" fill-rule="evenodd"/>
      <path id="Trazado_107542" data-name="Trazado 107542" d="M523.063,2362.189c-1.149-3.891-1.873-7.944-2.89-11.5-4.388-16.144-15.338-19.062-14.235-9.57a32.1,32.1,0,0,0,4.126,11.785,44.093,44.093,0,0,0,2.561,3.812c1.434,2.037,2.887,4.062,4.326,6.1C520.669,2368.064,525.961,2372.008,523.063,2362.189Z" transform="translate(-483.624 -2204.25)" fill="#124545" fill-rule="evenodd"/>
      <path id="Trazado_107543" data-name="Trazado 107543" d="M422.093,1749.517c.027-1.642.062-3.344.12-5.136.005-.156,0-.312-.005-.467q-.278-1.1-.513-2.143c-3.5-8.243-23.444-13.925-23.823,3.052a35.78,35.78,0,0,0,.218,4.665,154.935,154.935,0,0,0,22.365.2A8.945,8.945,0,0,0,422.093,1749.517Z" transform="translate(-383.764 -1647.702)" fill="#002525" fill-rule="evenodd"/>
      <path id="Trazado_107544" data-name="Trazado 107544" d="M405.2,1737.465c-4,.894-7.174,4.064-7.324,10.733a52.665,52.665,0,0,0,1.66,12.778c.908,4.016,2.055,7.982,3.152,11.97.39,1.419,1.61,5.6,1.426,6.923a26.143,26.143,0,0,0,.631,10.137c.208-2.339-.261-4.489-.339-6.8a11.435,11.435,0,0,1,.135-2.34c1.024-5.934,4.883-11.861,6.362-17.72,1.41-5.586,2.76-12.752,1.864-18.4C412.287,1741.741,408.475,1738.349,405.2,1737.465Z" transform="translate(-383.765 -1651.078)" fill="#002525" fill-rule="evenodd"/>
      <g id="Grupo_39926" data-name="Grupo 39926" transform="translate(36.735 169.007)">
        <path id="Trazado_107545" data-name="Trazado 107545" d="M713.531,2835.3c-6.332,0-10.991-1.385-11.966-1.385a3.141,3.141,0,0,0-3.3,3.039,3.027,3.027,0,0,0,1.488,2.5h17.506a2.429,2.429,0,0,0,.246-1.1C717.482,2836.671,715.7,2835.3,713.531,2835.3Z" transform="translate(-698.269 -2833.919)" fill="#df4157" fill-rule="evenodd"/>
        <path id="Trazado_107546" data-name="Trazado 107546" d="M736.726,2835.3c-6.331,0-10.991-1.385-11.966-1.385a3.577,3.577,0,0,0-1.406.283c3.3,3.288,10.792,4.54,17.289,4.737a2.4,2.4,0,0,0,.061-.581C740.677,2836.671,738.9,2835.3,736.726,2835.3Z" transform="translate(-721.464 -2833.919)" fill="#c22c44" fill-rule="evenodd"/>
        <path id="Trazado_107547" data-name="Trazado 107547" d="M732.463,2908.368H715.917a.592.592,0,0,1-.588-.579l-.005-.326h17.7l.005.326A.569.569,0,0,1,732.463,2908.368Z" transform="translate(-714.038 -2901.922)" fill="#254b4b" fill-rule="evenodd"/>
      </g>
      <path id="Trazado_107548" data-name="Trazado 107548" d="M261.711,1833.37h7.646a34.893,34.893,0,0,1-1.389-7.634c-.6-7.335,1.186-15.863,1.838-24.187.26-3.316-1.031-6.4-.632-9.669.767-6.275,1.763-12.35,2.866-17.806,8.045-39.786-20.407-25.112-16.984,1.085.861,6.586,3.236,11.639,1.691,15.262-5.454,12.786.7,25.955,4.672,36.621C262.3,1829.4,262.677,1830.773,261.711,1833.37Z" transform="translate(-251.289 -1662.232)" fill="#feceb4" fill-rule="evenodd"/>
      <path id="Trazado_107549" data-name="Trazado 107549" d="M246.646,1813.5c-2.255-6.039-4.743-11.923-6.026-18.279-1.309-6.484-1.217-12.876,1.417-19.052.743-1.741.348-4.07-.011-5.862-.593-2.964-1.366-5.8-1.76-8.817-.875-6.7.173-13.97,3.7-19.811,2.1-3.48,6.313-7.985,10.867-6.935,3.371.777,7.536,4.263,8.178,7.334,1.181,5.651.191,12.817-.938,18.4-1.185,5.859-4.745,11.786-5.471,17.72a11.392,11.392,0,0,0-.017,2.34c.208,2.472.851,4.755.654,7.28-.122,1.564-.283,3.125-.461,4.683-.382,3.353-.846,6.7-1.162,10.061a53.192,53.192,0,0,0-.215,9.265c.044.536.1,1.061.157,1.579-1.77.088-3.655.136-5.613.136C248.816,1813.55,247.715,1813.534,246.646,1813.5Z" transform="translate(-237.606 -1648.422)" fill="#124545" fill-rule="evenodd"/>
      <path id="Trazado_107550" data-name="Trazado 107550" d="M260.165,2015.946c.318-3.375.783-6.733,1.167-10.1.175-1.534.334-3.071.454-4.611.178-2.274-.461-4.672-.653-6.948a13.408,13.408,0,0,1,.025-2.761,42.1,42.1,0,0,1,2.851-9.81c4.392-11.456-17.609-25.952-15.123-6.919.382,2.926,1.158,5.789,1.737,8.68.456,2.28.829,4.859-.113,7.067-2.464,5.776-2.521,11.764-1.293,17.844a66.382,66.382,0,0,0,2.5,8.769C255.427,2027.771,259.118,2027.08,260.165,2015.946Z" transform="translate(-245.593 -1861.991)" fill="#2a5858" fill-rule="evenodd"/>
      <path id="Trazado_107551" data-name="Trazado 107551" d="M260.55,1747.548a26.479,26.479,0,0,1,2.605-5.865c2.1-3.48,6.313-7.985,10.867-6.935,3.371.777,7.536,4.263,8.178,7.334a32.781,32.781,0,0,1,.439,8.621C270.564,1750.7,263.1,1749.42,260.55,1747.548Z" transform="translate(-256.797 -1648.422)" fill="#033" fill-rule="evenodd"/>
      <g id="Grupo_39927" data-name="Grupo 39927" transform="translate(6.663 170.342)">
        <path id="Trazado_107552" data-name="Trazado 107552" d="M302.676,2851.636c1.368,0,2.737.147,3.969.194,1.232-.047,2.6-.194,3.969-.194a3.311,3.311,0,0,1,3.5,3.084,2.756,2.756,0,0,1-.235,1.114H299.412a2.755,2.755,0,0,1-.235-1.114A3.311,3.311,0,0,1,302.676,2851.636Z" transform="translate(-299.177 -2851.636)" fill="#c22c44" fill-rule="evenodd"/>
        <path id="Trazado_107553" data-name="Trazado 107553" d="M301.318,2908.258h13.534a.586.586,0,0,0,.585-.585v-.329h-14.7v.329A.586.586,0,0,0,301.318,2908.258Z" transform="translate(-300.616 -2903.147)" fill="#254b4b" fill-rule="evenodd"/>
        <path id="Trazado_107554" data-name="Trazado 107554" d="M305.629,2855.051a61.957,61.957,0,0,0-6.35.41,2.747,2.747,0,0,1-.1-.741,3.311,3.311,0,0,1,3.5-3.084c1.368,0,2.737.147,3.969.194,1.232-.047,2.6-.194,3.969-.194a3.965,3.965,0,0,1,.78.077C311.415,2853.352,310.625,2855.051,305.629,2855.051Z" transform="translate(-299.177 -2851.636)" fill="#df4157" fill-rule="evenodd"/>
      </g>
      <path id="Trazado_107555" data-name="Trazado 107555" d="M286.2,1116.015c-19.888,1.011-31.321-.708-33.531-3.409,4.346-13.612,3.8-30.344,9.305-44.018,3.5-8.692,10.666-20.144,23.9-15.7,5.907,1.983,10.7,12.731,9.964,17.959a30.739,30.739,0,0,1-4.37,11c-6.275,10.378-6.569,17.951-2.634,31.64C289.533,1115.9,287.843,1115.932,286.2,1116.015Z" transform="translate(-249.514 -1017.168)" fill="#8acc59" fill-rule="evenodd"/>
      <path id="Trazado_107556" data-name="Trazado 107556" d="M269.867,1153.981c-9.87-.371-15.684-1.758-17.194-3.6,4.346-13.612,3.8-30.344,9.305-44.018,1.9-4.72,4.881-10.252,9.328-13.613a103.951,103.951,0,0,1,3.617,28.481C274.923,1134.253,272.969,1145.949,269.867,1153.981Z" transform="translate(-249.514 -1054.94)" fill="#8acc59" fill-rule="evenodd"/>
      <path id="Trazado_107557" data-name="Trazado 107557" d="M286.364,1145.731c1.975-11.165,2.68-23.253,6.84-33.592a39.022,39.022,0,0,1,5.763-10.146,12.749,12.749,0,0,1,3.783-2.292,10.323,10.323,0,0,1,7.823.135,6.458,6.458,0,0,1,1.844,1.2c3.635,3.4,2.135,10.257.239,14.114a48.063,48.063,0,0,1-5.878,8.519,69.552,69.552,0,0,0-5.888,7.681c-3.988,6.694,10.421,9.473,15.606,10.885a44.548,44.548,0,0,0-.37,4.568h-6.959C302.5,1146.964,292.8,1148.1,286.364,1145.731Z" transform="translate(-280.666 -1060.72)" fill="#00b195" fill-rule="evenodd"/>
      <path id="Trazado_107558" data-name="Trazado 107558" d="M601.805,929.938c-2.066,3.372-2.387,6.592-.9,7.87.791.679-.089.917-.829.867-3.922-.266-7.934-2.839-10.848-5.532-.7-.649-1.164-1.594-.1-1.472,4.309.494,5.2-5.781,7.556-10.759C599.473,922.357,598.336,927.8,601.805,929.938Z" transform="translate(-560.039 -896.053)" fill="#fea682" fill-rule="evenodd"/>
      <path id="Trazado_107559" data-name="Trazado 107559" d="M642.293,1057.3c-1.048,2.548-1,4.768.175,5.777.791.679-.089.917-.829.866a16.635,16.635,0,0,1-8.189-3.362C634.237,1055.713,640.97,1055.791,642.293,1057.3Z" transform="translate(-601.598 -1021.323)" fill="#febea0" fill-rule="evenodd"/>
      <g id="Grupo_39928" data-name="Grupo 39928" transform="translate(25.818 0)">
        <path id="Trazado_107560" data-name="Trazado 107560" d="M681.448,789.495c1.209,3.59-.325,10.814-1.173,13.13-1.223,3.344-1.592,4.443-4.525,4.391-4.037-.071-9.081-4.214-8.985-9.664.111-6.309,2.289-10.716,9.455-10.394C678.6,787.065,680.87,787.779,681.448,789.495Z" transform="translate(-658.22 -772.177)" fill="#feceb4" fill-rule="evenodd"/>
        <path id="Trazado_107561" data-name="Trazado 107561" d="M739.067,898.228a32.853,32.853,0,0,1-1.357,6.082c-1.223,3.344-1.593,4.443-4.525,4.391a7.921,7.921,0,0,1-3.3-.86,6.394,6.394,0,0,1-1-3.519c.079-4.49,1.629-7.626,6.728-7.4A4.576,4.576,0,0,1,739.067,898.228Z" transform="translate(-715.656 -873.862)" fill="#fedfcd" fill-rule="evenodd"/>
        <path id="Trazado_107562" data-name="Trazado 107562" d="M575.421,693.2c.421,2.28-1.454,5.716-8.713,6.035-1.3,1-2.9,3.418-2.3,5.284-.966,3.467-5.879,3.512-8.587.262-3.7-4.444-3.1-11.89,1.222-16.789,3.043-3.449,8.227-4.924,14.43-4.692,1.974.074,2.7,2.412,5.9,2.723,3.894.379,4.583,3.254,4.92,5.779.526,3.928-1.362,8.032-5.44,8.46C577.491,695.363,576.317,691.9,575.421,693.2Z" transform="translate(-553.381 -676.322)" fill="#033" fill-rule="evenodd"/>
        <path id="Trazado_107563" data-name="Trazado 107563" d="M664.833,879.734a4.433,4.433,0,0,0,.332,4.165c.633,1.028,1.569,1.761,2.252,1.123a21.821,21.821,0,0,1,2.086-5.179C668.53,878.078,665.691,877.917,664.833,879.734Z" transform="translate(-656.088 -856.784)" fill="#feceb4" fill-rule="evenodd"/>
        <path id="Trazado_107564" data-name="Trazado 107564" d="M684.232,894.824c-.81-.231-2.469,2.038-.848,3.584a3.913,3.913,0,0,1,.181-1.3,5.089,5.089,0,0,1,.94-1.8C684.837,894.955,684.831,895,684.232,894.824Z" transform="translate(-672.955 -871.916)" fill="#fea682" fill-rule="evenodd"/>
        <path id="Trazado_107565" data-name="Trazado 107565" d="M597.976,591.829c4.419-1.781,8.25-.538,9.37,2.422s-1.425,4.481-5.843,6.263-7.641,2.761-8.761-.2S593.558,593.61,597.976,591.829Z" transform="translate(-589.488 -591.005)" fill="#033" fill-rule="evenodd"/>
        <path id="Trazado_107566" data-name="Trazado 107566" d="M602.534,603.652c3.413-1.376,6.373-.416,7.238,1.871s-1.1,3.462-4.514,4.838-5.9,2.132-6.768-.154S599.12,605.028,602.534,603.652Z" transform="translate(-594.868 -602.111)" fill="#254b4b" fill-rule="evenodd"/>
      </g>
      <path id="Trazado_107567" data-name="Trazado 107567" d="M232.937,1154.989c5.566.838,18.519.608,23.447.718h11.832a1.847,1.847,0,0,0-.108-2.784c-1.377-1.286-3.42-1.747-5.952-1.358-1.536.236-3.027.647-3.718.678a45.978,45.978,0,0,1-11.956-1.274c-18.068-4.333.842-16.252,6.253-26.731,3.515-6.807,2.016-11.009-1.4-12.427-4.188-1.737-10.116-.658-14.387,6.277-2.732,4.435-8.511,13.557-11.509,20.182C220.262,1149.7,222.132,1153.363,232.937,1154.989Z" transform="translate(-221.775 -1071.89)" fill="#feceb4" fill-rule="evenodd"/>
      <path id="Trazado_107568" data-name="Trazado 107568" d="M218.047,1144c-2.585-.67-5.17-1.806-6.431-3.951-2.224-3.783.35-9.756,1.963-13.322,1.314-2.9,2.872-5.747,4.453-8.511,2.28-3.985,4.7-7.866,7.11-11.774a15.577,15.577,0,0,1,7.691-6.77,10.8,10.8,0,0,1,7.823.128,6.494,6.494,0,0,1,1.844,1.147c3.635,3.243,1.917,8.87.021,12.543a45.8,45.8,0,0,1-5.878,8.115,86.78,86.78,0,0,0-5.888,7.316c-1,1.479-2.367,3.8-1.955,5.663.579,2.621,4.673,3.8,6.87,4.331a45.025,45.025,0,0,0,10.91,1.275,40.449,40.449,0,0,0-.37,4.35H239.25C233.4,1144.668,223.259,1145.346,218.047,1144Z" transform="translate(-210.75 -1060.719)" fill="#3ed1b4" fill-rule="evenodd"/>
      <path id="Trazado_107569" data-name="Trazado 107569" d="M233.118,1166.7a5.563,5.563,0,0,1-2.649-3.478c-.534-2.417.893-5.015,2.2-6.959a87.207,87.207,0,0,1,6-7.463,43.8,43.8,0,0,0,5.668-7.8c1.5-2.9,3.28-7.912.352-10.525a4.823,4.823,0,0,0-1.37-.849,9.134,9.134,0,0,0-6.611-.1,13.959,13.959,0,0,0-6.836,6.073c-2.395,3.888-4.814,7.763-7.082,11.727-1.563,2.731-3.083,5.5-4.381,8.37-2.347,5.186-3.023,8.981-1.183,11.554,2.468,3.453,8.795,4.752,15.305,4.683C244.611,1171.673,238,1169.763,233.118,1166.7Z" transform="translate(-215.763 -1088.417)" fill="#8acc59" fill-rule="evenodd"/>
      <path id="Trazado_107570" data-name="Trazado 107570" d="M265.462,1781.636c-7.208-.572-11.52-1.8-12.789-3.351a61.923,61.923,0,0,0,1.7-6.462C254.515,1777.582,255.7,1778.794,265.462,1781.636Z" transform="translate(-249.514 -1682.848)" fill="#8de6d4" fill-rule="evenodd"/>
    </g>
    <g id="Grupo_39931" data-name="Grupo 39931" transform="translate(234.621 673.843)">
      <rect id="Rectángulo_32068" data-name="Rectángulo 32068" width="174.204" height="4.109" transform="translate(0 0)" fill="#e58f60"/>
      <g id="Grupo_39930" data-name="Grupo 39930" transform="translate(20.109 4.109)">
        <path id="Trazado_107571" data-name="Trazado 107571" d="M2531.4,1744.9h3.1v86.955a1.555,1.555,0,0,1-1.551,1.551h0a1.555,1.555,0,0,1-1.551-1.551Z" transform="translate(-2400.513 -1744.895)" fill="#e58f60" fill-rule="evenodd"/>
        <path id="Trazado_107572" data-name="Trazado 107572" d="M794.419,1744.9h3.1v86.955a1.556,1.556,0,0,1-1.551,1.551h0a1.556,1.556,0,0,1-1.551-1.551Z" transform="translate(-794.419 -1744.895)" fill="#e58f60" fill-rule="evenodd"/>
      </g>
    </g>
    <g id="Grupo_39935" data-name="Grupo 39935" transform="translate(360.104 601.314)">
      <path id="Trazado_107573" data-name="Trazado 107573" d="M2474.453,824.639a7.4,7.4,0,0,0,.379-7.488,7.173,7.173,0,0,0-6.127-3.77c-3.621-.133-1.412-.019-3.094-3.2a6.251,6.251,0,0,0-4.742-3.251c-3.3-.438-1.6.085-3.362-3.247a6.218,6.218,0,0,0-4.187-3.153c-2.34-.518-2.148-.651-2.537-2.973a6.1,6.1,0,0,0-.628-1.854,6.317,6.317,0,0,0-5.908-3.3c-2.021.089-1.772-.526-2.052-2.182a11.58,11.58,0,0,0-9.941-9.248c-4.693,1.383-8.1,7.592-5.167,11.648a6.967,6.967,0,0,0-1.49,5.012c.314,3.034.85,1.4-1,3.774a8.23,8.23,0,0,0-1.045,8.613,7.932,7.932,0,0,0,2.146,2.734c2.21,1.806,1.806,1.453.538,4.087a8.091,8.091,0,0,0-.052,7.022,7.94,7.94,0,0,0,1.207,1.83c1.544,1.753,1.386,1.562.1,3.357a8.176,8.176,0,0,0-.805,8.294,7.941,7.941,0,0,0,1.484,2.128c8.641,6.528,22.615-2.988,40.486-2.988,4.306,0,7.8-3.178,7.8-7.1A6.729,6.729,0,0,0,2474.453,824.639Z" transform="translate(-2405.455 -776.971)" fill="#033" fill-rule="evenodd"/>
      <path id="Trazado_107574" data-name="Trazado 107574" d="M2364.312,959.712c1.593-1.566,1.783-1.028,1.974-.88.243.188-.019.754-.929,1.905a27.8,27.8,0,0,1-4.215,4.486c-.367.311-2.944-.325-3.384-1.568a13.78,13.78,0,0,0,.392-2.207c-.032-.9-.08-2.034-.191-3.145a25.217,25.217,0,0,0-.656-3.634c-.269-1.144.066-1.263.5-.738a5,5,0,0,1,.495.756c-.028-.2-.06-.4-.1-.595-.833-4.266,1.94-1.335,2.4,1.97C2360.846,957.822,2362.166,961.675,2364.312,959.712Z" transform="translate(-2344.821 -935.075)" fill="#feceb4" fill-rule="evenodd"/>
      <g id="Grupo_39932" data-name="Grupo 39932" transform="translate(82.554 147.962)">
        <path id="Trazado_107575" data-name="Trazado 107575" d="M3288.435,2699.317l.313-7.878a27.185,27.185,0,0,0,6.251,5.245c1.631,1.025,1.392,9.734-.313,7.878A17.992,17.992,0,0,0,3288.435,2699.317Z" transform="translate(-3288.435 -2691.439)" fill="#feceb4" fill-rule="evenodd"/>
        <path id="Trazado_107576" data-name="Trazado 107576" d="M3299.705,2737.915c.586,0,1.153-.016,1.7-.044a57.64,57.64,0,0,0,.991-8.325,2.537,2.537,0,0,1,3.04-1.9,2.437,2.437,0,0,1,1.691,1.594l-.07.273q-1.516,5.9-3.019,11.783h-7.175a2.078,2.078,0,0,1-.205-.9A2.81,2.81,0,0,1,3299.705,2737.915Z" transform="translate(-3296.036 -2724.847)" fill="#16c0a1" fill-rule="evenodd"/>
        <path id="Trazado_107577" data-name="Trazado 107577" d="M3299.705,2749.843c.586,0,1.153-.016,1.7-.044a57.712,57.712,0,0,0,.991-8.325,2.71,2.71,0,0,1,.5-1c1.1,1.741,1.438,4.349,1.332,7.17-.2,5.422-2.785,5.009-7.51,5.159a2.038,2.038,0,0,1-.055-.472A2.81,2.81,0,0,1,3299.705,2749.843Z" transform="translate(-3296.036 -2736.775)" fill="#36ceb0" fill-rule="evenodd"/>
        <path id="Trazado_107578" data-name="Trazado 107578" d="M3299.91,2760.632h7.271l3.152-12.305a.472.472,0,0,0-.338-.573l-.257-.066-3.128,12.208h-7.17v.265A.472.472,0,0,0,3299.91,2760.632Z" transform="translate(-3298.611 -2743.449)" fill="#254b4b" fill-rule="evenodd"/>
      </g>
      <path id="Trazado_107579" data-name="Trazado 107579" d="M2736.771,2304.4c.9.784,2.068-.76,3.022-2.652.783-1.555,1.72-3.161.864-4.233a45.991,45.991,0,0,1-4.376-6.515c-7.852-12.994-13.6-17.841-23.91-24.124s-28.779-4.876-15.637,8.363C2706.95,2285.537,2727.918,2296.162,2736.771,2304.4Z" transform="translate(-2654.558 -2147.576)" fill="#033" fill-rule="evenodd"/>
      <path id="Trazado_107580" data-name="Trazado 107580" d="M3123.179,2569.617c-.694-1.071-1.337-2.182-2-3.274q-.9-1.494-1.834-2.948c-7.155-11.127-13.15,1.21-4.984,6.74,2.211,1.5,4.5,3.079,6.658,4.773C3126.136,2578.929,3126,2573.972,3123.179,2569.617Z" transform="translate(-3041.293 -2420.921)" fill="#124545" fill-rule="evenodd"/>
      <path id="Trazado_107581" data-name="Trazado 107581" d="M2942.991,2327.6c-4.034-4.345-8.288-7.425-13.9-10.881a125.41,125.41,0,0,1-2.469,15.1c-.244,1.012-.51,2.093-.8,3.218,3.225,2.216,6.594,4.405,9.875,6.539q.721-1.062,1.439-2.126a49.391,49.391,0,0,0,2.713-4.247A41.374,41.374,0,0,0,2942.991,2327.6Z" transform="translate(-2870.59 -2196.989)" fill="#002525" fill-rule="evenodd"/>
      <path id="Trazado_107582" data-name="Trazado 107582" d="M2916.736,2297.386a72.05,72.05,0,0,0-11.974-8.688,23.344,23.344,0,0,0-3.746-1.827,10.835,10.835,0,0,1,.232,2.068,122.037,122.037,0,0,1-.749,15.277c-.076.6-.158,1.231-.246,1.878,3.472,2.448,7.175,4.869,10.8,7.228q.416-.737.829-1.475a42.792,42.792,0,0,0,2.229-4.247A34.731,34.731,0,0,0,2916.736,2297.386Z" transform="translate(-2846.949 -2169.394)" fill="#002525" fill-rule="evenodd"/>
      <path id="Trazado_107583" data-name="Trazado 107583" d="M2707.04,1724.189c2.591-4.154,8.641-11.11,12.008-15.669,9.261-12.539,10.976-26.128,3.583-32.081-5.6-4.507-15.928.859-19.149,12.078-3.6,12.55-7.574,22.347-10.41,34.2C2692.011,1727.151,2702.806,1730.977,2707.04,1724.189Z" transform="translate(-2655.312 -1603.485)" fill="#033" fill-rule="evenodd"/>
      <path id="Trazado_107584" data-name="Trazado 107584" d="M2802.411,1689.879c-4.11,1.956-8.043,6.359-9.817,12.54-1.055,3.673-2.141,7.11-3.221,10.433a5.89,5.89,0,0,0,2.346-.065c6.038-1.128,10.9-2.071,14.684-2.964C2806.293,1707.2,2804.894,1699.112,2802.411,1689.879Z" transform="translate(-2744.424 -1617.386)" fill="#002525" fill-rule="evenodd"/>
      <path id="Trazado_107585" data-name="Trazado 107585" d="M2820.72,1727.431c2.966-3.965,7.112-8.856,9.688-12.344a43.985,43.985,0,0,0,7.223-14.35,33.724,33.724,0,0,0-5.127-16.163c-.865-1.469-3.191-2.156-4.746-2.43a15.984,15.984,0,0,0-1.612-.2c-4.62,1.52-9.316,6.214-11.3,13.137-.464,1.616-.935,3.187-1.408,4.722.975,5,2.138,10,3.4,14.922.178.694.373,1.384.578,2.071.728,2.429,1.6,4.81,2.367,7.225A33.75,33.75,0,0,1,2820.72,1727.431Z" transform="translate(-2766.673 -1610.052)" fill="#002525" fill-rule="evenodd"/>
      <path id="Trazado_107586" data-name="Trazado 107586" d="M2798.207,1780.788a17.129,17.129,0,0,0-5.221.185,14.172,14.172,0,0,1-4.743.175c2.3-1.751,5.873-6.749,6.629-9.394,3.715-13.006,4.688-18.084,5.229-31.235.149-3.642-2.323-9.393-3.557-15.1-1.358-6.279-2.559-12.967-3.282-18.237-2.179-15.887,16.493-14.791,18.437-11.249,4.815,8.776,4.912,15.2,3.781,24.512-1.034,8.516-3.153,16.877-2.583,19.224,1.689,6.936.155,13.322-2.464,19.118C2809.014,1761.931,2797.685,1779.185,2798.207,1780.788Z" transform="translate(-2743.379 -1620.952)" fill="#feceb4" fill-rule="evenodd"/>
      <path id="Trazado_107587" data-name="Trazado 107587" d="M2828.986,1764.5c3.552-5.412,5.193-14.054,6.214-20.158a123.094,123.094,0,0,0,1.364-15.276,19.845,19.845,0,0,0-.966-5.572c-.67-2.416-1.446-4.8-2.076-7.225-.178-.687-.345-1.377-.5-2.071-1.3-6.031-2.455-12.185-3.294-18.306-.908-6.622,1.607-12.1,8.363-13.949a16.755,16.755,0,0,1,7.167-.328c1.542.274,3.841.96,4.647,2.43,4.813,8.771,5.074,15.293,3.887,25.067-.488,4.016-1.22,7.982-1.9,11.97-.242,1.419-1.024,5.6-.7,6.922,1.666,6.844.359,13.348-2.521,19.723a44.911,44.911,0,0,1-2.4,4.247c-1.3,2.172-2.626,4.332-3.935,6.5-.525.87-2.483,4.087-3.986,6.807-.513,1.234-7.123.891-9.272.292C2828.441,1765.391,2828.7,1764.933,2828.986,1764.5Z" transform="translate(-2780.772 -1609.517)" fill="#124545" fill-rule="evenodd"/>
      <path id="Trazado_107588" data-name="Trazado 107588" d="M2890.628,2042.373c1.172-2.168,2.359-4.326,3.526-6.5a42.668,42.668,0,0,0,2.072-4.075c2.429-5.994,3.589-12.143,2.171-18.637-.382-1.75.32-5.71.609-7.6,1.291-8.45.218-18.666-10.44-15.636-3.847,1.093-4.345,5.35-3.105,10.686.562,2.416,1.256,4.792,1.855,7.2a22.944,22.944,0,0,1,.92,6.089,139,139,0,0,1-1.243,15.484,109.638,109.638,0,0,1-2.315,11.9C2882.041,2051.143,2887.093,2048.91,2890.628,2042.373Z" transform="translate(-2831.869 -1894.322)" fill="#2a5858" fill-rule="evenodd"/>
      <path id="Trazado_107589" data-name="Trazado 107589" d="M2841.787,1704.453q-.765-4.277-1.361-8.565c-.908-6.622,1.607-12.1,8.363-13.949a16.755,16.755,0,0,1,7.167-.328c1.543.274,3.841.96,4.647,2.43a33.041,33.041,0,0,1,4.371,13.862C2862.713,1700.275,2855.424,1701.892,2841.787,1704.453Z" transform="translate(-2791.465 -1609.517)" fill="#033" fill-rule="evenodd"/>
      <g id="Grupo_39933" data-name="Grupo 39933" transform="translate(39.171 158.698)">
        <path id="Trazado_107590" data-name="Trazado 107590" d="M2716.671,2835.3c6.331,0,10.99-1.385,11.966-1.385a3.141,3.141,0,0,1,3.3,3.039,3.027,3.027,0,0,1-1.488,2.5h-17.506a2.419,2.419,0,0,1-.246-1.1C2712.72,2836.671,2714.5,2835.3,2716.671,2835.3Z" transform="translate(-2712.692 -2833.919)" fill="#16c0a1" fill-rule="evenodd"/>
        <path id="Trazado_107591" data-name="Trazado 107591" d="M2716.671,2835.3c6.331,0,10.99-1.385,11.966-1.385a3.579,3.579,0,0,1,1.406.283c-3.3,3.288-10.792,4.54-17.289,4.737a2.377,2.377,0,0,1-.061-.581C2712.72,2836.671,2714.5,2835.3,2716.671,2835.3Z" transform="translate(-2712.692 -2833.919)" fill="#36ceb0" fill-rule="evenodd"/>
        <path id="Trazado_107592" data-name="Trazado 107592" d="M2716.537,2908.368h16.546a.592.592,0,0,0,.588-.579l.005-.326h-17.7l-.005.326A.568.568,0,0,0,2716.537,2908.368Z" transform="translate(-2715.721 -2901.922)" fill="#254b4b" fill-rule="evenodd"/>
      </g>
      <path id="Trazado_107593" data-name="Trazado 107593" d="M2284.112,1104.148c-4.287,0-7.781,1.938-8.861,5.881-1.684,6.144,1.37,12.215-.091,17.849-1.4,5.4-5.759,4.691-7.575,1.069-3.035-6.051-.867-18.68,1.633-24.858a9.485,9.485,0,0,1-4.829-1.978c-3.666,7.092-7.931,17.712-7.758,27.059.282,15.248,14.8,24.165,27.213,13.672,4.637-3.92,8.972-10.276,10.1-15.873,1.529-7.573.122-15.553-1.954-18.474A9.724,9.724,0,0,0,2284.112,1104.148Z" transform="translate(-2251.819 -1073.909)" fill="#58a5f8" fill-rule="evenodd"/>
      <path id="Trazado_107594" data-name="Trazado 107594" d="M2272.568,1122.113c-2.871,6.61-5.15,14.177-5.026,20.905a18.926,18.926,0,0,0,3.36,10.744,7.754,7.754,0,0,0,6.069,3.01c4.6-.446,7.839-6.408,1.233-10.081a7.337,7.337,0,0,1-2.881-3.114c-1.991-3.971-1.846-9.82-1.337-14.135a56.241,56.241,0,0,1,1.146-6.465C2276.515,1117.226,2274.852,1116.855,2272.568,1122.113Z" transform="translate(-2261.909 -1088.973)" fill="#58a5f8" fill-rule="evenodd"/>
      <path id="Trazado_107595" data-name="Trazado 107595" d="M2497.4,1135.172l-.012.044c-1.614,5.887,1.122,11.707.069,17.139,1.932,5.024,7.077,4.095,14.084,9.551a26.79,26.79,0,0,0,4.541-9.75c1.529-7.574.122-15.553-1.954-18.474a9.818,9.818,0,0,0-7.345-4.332,21.637,21.637,0,0,0-6.894,3.053A7.294,7.294,0,0,0,2497.4,1135.172Z" transform="translate(-2473.96 -1099.095)" fill="#58a5f8" fill-rule="evenodd"/>
      <path id="Trazado_107596" data-name="Trazado 107596" d="M2530.329,1160.942c16.588-3.1,24.29-4.8,25.267-7.9.554-1.755-4.277-28.457-12.762-43.655-9.047-16.2-26.308-15.431-34.579-9.708-4.135,2.862-3.307,6.9-3.153,14.185.26,12.244,7.484,6.624,17.912,17.495,5.854,6.1,4.679,22.03,3.823,27.655C2526.478,1161.378,2528.77,1161.233,2530.329,1160.942Z" transform="translate(-2481.416 -1068.214)" fill="#58a5f8" fill-rule="evenodd"/>
      <path id="Trazado_107597" data-name="Trazado 107597" d="M2530.329,1198.488c6.037-1.128,10.9-2.071,14.684-2.964-.211-5.028-5.159-30.147-13.4-44.907-5.653-10.125-14.368-13.918-22.318-14.058-.361.213-.709.434-1.041.664-4.135,2.862-3.307,6.9-3.153,14.185.26,12.244,7.484,6.624,17.912,17.495,5.854,6.1,4.679,22.03,3.823,27.655C2526.478,1198.925,2528.77,1198.78,2530.329,1198.488Z" transform="translate(-2481.416 -1105.761)" fill="#58a5f8" fill-rule="evenodd"/>
      <path id="Trazado_107598" data-name="Trazado 107598" d="M2637.862,1158.666a29.551,29.551,0,0,1,8.066,6.08,12.572,12.572,0,0,1,2.487,4.051c4.913-5.467,8.749-13.983,10.629-20.429.887-3.039,1.408-7.005-.412-10.087-2.052-3.473-6.009-6.349-10-6.214a6.906,6.906,0,0,0-5.392,2.837c-1.8,2.363-2.425,5.706-2.565,8.737A48.459,48.459,0,0,1,2637.862,1158.666Z" transform="translate(-2604.33 -1101.603)" fill="#58a5f8" fill-rule="evenodd"/>
      <circle id="Elipse_1036" data-name="Elipse 1036" cx="11.404" cy="11.404" r="11.404" transform="translate(9.041 20.551) rotate(-64.297)" fill="#033"/>
      <path id="Trazado_107599" data-name="Trazado 107599" d="M2512.388,989.778c2.065,3.372,2.386,6.591.9,7.87-.792.679.089.917.829.867,3.922-.266,7.934-2.839,10.848-5.532.7-.649,1.165-1.594.1-1.472-4.31.494-5.2-5.781-7.556-10.759C2514.72,982.2,2515.857,987.638,2512.388,989.778Z" transform="translate(-2488.31 -961.693)" fill="#fea682" fill-rule="evenodd"/>
      <path id="Trazado_107600" data-name="Trazado 107600" d="M2520.353,1091.62c1.337,2.817,1.389,5.334.113,6.428-.791.679.089.917.83.866a16.638,16.638,0,0,0,8.189-3.362c-1.122-5.738-3.56-8.457-9.061-3.991Z" transform="translate(-2495.492 -1062.094)" fill="#febea0" fill-rule="evenodd"/>
      <path id="Trazado_107601" data-name="Trazado 107601" d="M2400.719,842.464c-.4,4.119,2.552,18.272,7.286,16.649,3.189-1.094,6.534-6.645,5.6-12.247-1.085-6.485-3.508-10.484-9.139-8.341C2402.594,839.235,2400.906,840.547,2400.719,842.464Z" transform="translate(-2385.022 -829.645)" fill="#feceb4" fill-rule="evenodd"/>
      <path id="Trazado_107602" data-name="Trazado 107602" d="M2406.725,945c.976,5.553,3.46,12.554,6.867,11.386,1.645-.564,3.331-2.314,4.45-4.644-1.112-6.293-3.546-10.124-9.083-8.017A7.711,7.711,0,0,0,2406.725,945Z" transform="translate(-2390.609 -926.922)" fill="#fedfcd" fill-rule="evenodd"/>
      <g id="Grupo_39934" data-name="Grupo 39934" transform="translate(27.217 15.908)">
        <path id="Trazado_107603" data-name="Trazado 107603" d="M2557.735,940.9a3.637,3.637,0,0,1-1.178,3.576c-.876.9-1.981,1.448-2.5.677.194-1.352.605-4.71.358-5.694C2555.257,938.452,2557.33,938.913,2557.735,940.9Z" transform="translate(-2554.056 -938.942)" fill="#feceb4" fill-rule="evenodd"/>
        <path id="Trazado_107604" data-name="Trazado 107604" d="M2568.227,954.573c.843.121,1.308,2.916-.875,3.679a4.139,4.139,0,0,0,.432-1.283,5.145,5.145,0,0,0-.028-2.06C2567.616,954.443,2567.6,954.483,2568.227,954.573Z" transform="translate(-2566.349 -953.343)" fill="#fea682" fill-rule="evenodd"/>
      </g>
      <path id="Trazado_107605" data-name="Trazado 107605" d="M2245.386,1155.013c-2.723,6.919-8.772,17.991-15.808,23.005-6.712,4.783-17.693,3.75-25.593,3.924h-11.048c-.29-.873.128-1.8,1.382-2.6a8.625,8.625,0,0,1,6.183-1.268c1.326.22,2.528.6,3.16.634,18.295.868,23.348-17.56,24.912-28.135,2.247-15.2,13.823-12.6,17.444-5.2C2247.352,1148.1,2246.675,1151.737,2245.386,1155.013Z" transform="translate(-2192.85 -1108.452)" fill="#feceb4" fill-rule="evenodd"/>
      <path id="Trazado_107606" data-name="Trazado 107606" d="M2397,1148.368c-3.034,7.71-9.167,18.383-16,23.255a21.817,21.817,0,0,1-9.558,3.451h-14.846q.016-.33.016-.666a13.634,13.634,0,0,0-.35-3.081,18.883,18.883,0,0,0,14.361-6.386c5.055-5.621,7.417-13.986,8.5-21.3.448-3.03,1.411-6.373,3.454-8.737a7.756,7.756,0,0,1,5.68-2.837c4-.135,7.665,2.741,9.363,6.214C2399.122,1141.363,2398.2,1145.33,2397,1148.368Z" transform="translate(-2343.946 -1101.603)" fill="#4090e6" fill-rule="evenodd"/>
      <path id="Trazado_107607" data-name="Trazado 107607" d="M2432.873,1187.9c15.12-1.887,20.922-11.215,26.414-25.171.98-2.49,1.9-6.023.655-8.567-1.377-2.816-4.387-5.282-7.649-5.172a5.971,5.971,0,0,0-4.382,2.214c-1.78,2.059-2.613,5.089-3,7.732-1.114,7.533-3.546,15.97-8.735,21.74a21.221,21.221,0,0,1-4.392,3.688C2428.531,1186.406,2420.486,1189.451,2432.873,1187.9Z" transform="translate(-2408.617 -1117.256)" fill="#58a5f8" fill-rule="evenodd"/>
      <path id="Trazado_107608" data-name="Trazado 107608" d="M2429.7,780.214c-2.4,3.6,2.718,12.445,9.763,10.613a6.253,6.253,0,0,0,4.479-7.625C2442.119,776.182,2430.525,778.964,2429.7,780.214Z" transform="translate(-2411.3 -774.78)" fill="#254b4b" fill-rule="evenodd"/>
      <path id="Trazado_107609" data-name="Trazado 107609" d="M2304.852,786.448c2.427,3.464-2.745,11.972-9.861,10.209a6,6,0,0,1-4.523-7.335C2292.312,782.569,2304.021,785.245,2304.852,786.448Z" transform="translate(-2282.923 -780.6)" fill="#254b4b" fill-rule="evenodd"/>
    </g>
    <g id="Grupo_39938" data-name="Grupo 39938" transform="translate(342.059 715.921)">
      <g id="Grupo_39936" data-name="Grupo 39936" transform="translate(10.756)">
        <path id="Trazado_107610" data-name="Trazado 107610" d="M2183.957,2249.749a1.168,1.168,0,0,1,1.734-.781c1.641,1.19,4.449,4.452,9.308,2.847a187.3,187.3,0,0,0-6.884,22.607c-1.3,5.448-2.328,10.827-3.11,16.09-1.286-.076-2.58-.1-3.885-.072-.562-15.878,7.758-36.308,6.806-36.6C2185.382,2253.06,2183.6,2251.228,2183.957,2249.749Z" transform="translate(-2174.689 -2248.785)" fill="#85e4d1" fill-rule="evenodd"/>
        <path id="Trazado_107611" data-name="Trazado 107611" d="M2096.127,2302.24c.244-1.027,1.2-2.161,2.157-4.934,1.473-4.272,3.12-10.606,4.052-14.521,2.073-8.715,2.521-16.822,3.007-19.25h0c-.206,1.451,1.537,3.189,4,3.943,2.29.7,4.419.313,5.08-.849-.146.6-.443,1.075-.758,1.95-1.555,4.313-4.452,13.578-6.047,20.283-1.3,5.478-2.036,15.2-2.275,16.2s-1.379,1.578-2.876,1.614a7.258,7.258,0,0,1-4.1-1.177C2096.834,2304.484,2095.944,2303.01,2096.127,2302.24Z" transform="translate(-2096.103 -2262.425)" fill="#a2ebdc" fill-rule="evenodd"/>
        <path id="Trazado_107612" data-name="Trazado 107612" d="M2096.127,2315.606c.244-1.027,1.2-2.161,2.157-4.934,1.473-4.272,3.12-10.605,4.052-14.521a158.012,158.012,0,0,0,2.834-18.161,1.611,1.611,0,0,1,.5.286,4.093,4.093,0,0,0,.652.834c2.282,4.166,1.284,18.662-2.685,35.346q-.682,2.866-1.425,5.591a7.264,7.264,0,0,1-3.847-1.178C2096.834,2317.849,2095.944,2316.375,2096.127,2315.606Z" transform="translate(-2096.103 -2275.79)" fill="#bbf1e6" fill-rule="evenodd"/>
        <path id="Trazado_107613" data-name="Trazado 107613" d="M2296.792,2282.19a2.593,2.593,0,0,1-.178.439c-.5.856-1.816,1.284-3.4,1.154h0l-.056-.005a4.268,4.268,0,0,0,.7-2.932C2295.016,2280.63,2296.98,2281.577,2296.792,2282.19Z" transform="translate(-2278.31 -2278.401)" fill="#62ddc4" fill-rule="evenodd"/>
      </g>
      <g id="Grupo_39937" data-name="Grupo 39937" transform="translate(0 1.628)">
        <path id="Trazado_107614" data-name="Trazado 107614" d="M1961.843,2274.6c-.159-.811.448-1.712,1.234-1.554,1.993.4,5.252,1.137,8.959-2.65a214.763,214.763,0,0,0,3.443,25.09c1.158,5.88,2.526,11.573,4.068,17.037-1.195.516-2.376,1.084-3.543,1.713-7.3-15.146-8.511-38.783-9.5-38.63C1963.874,2276.013,1962.157,2276.192,1961.843,2274.6Z" transform="translate(-1961.18 -2270.392)" fill="#7ce2ce" fill-rule="evenodd"/>
        <path id="Trazado_107615" data-name="Trazado 107615" d="M1961.609,2324.305c-.218-1.108.161-2.646-.16-5.777-.494-4.82-1.714-11.72-2.545-15.946-1.852-9.406-4.913-17.477-5.512-20.055-.576-1.766,8.22-3.464,9.43-1.836a14.47,14.47,0,0,1,.247,2.912c.439,4.9,1.781,15.215,3.206,22.453,1.164,5.913,4.658,15.681,4.871,16.762s-.572,2.164-1.91,2.885a6.825,6.825,0,0,1-4.212.741C1963.208,2326.156,1961.773,2325.135,1961.609,2324.305Z" transform="translate(-1953.365 -2279.308)" fill="#a2ebdc" fill-rule="evenodd"/>
        <path id="Trazado_107616" data-name="Trazado 107616" d="M1961.037,2280.067a2.1,2.1,0,0,1,.271,1.433c-1.2,8.123.911,19.458,3.646,30.183,1.259,4.938,3.231,9.977,4.036,14.1a5.833,5.833,0,0,1-1.748.625l-.061.011h0a5.713,5.713,0,0,1-2.177-.034,5.361,5.361,0,0,1-3.41-2.174c-.178-1.1.17-2.64-.142-5.678-.494-4.82-1.714-11.72-2.545-15.946-1.852-9.406-4.914-17.476-5.512-20.055C1952.946,2281.167,1958.118,2279.841,1961.037,2280.067Z" transform="translate(-1953.365 -2279.314)" fill="#bbf1e6" fill-rule="evenodd"/>
      </g>
      <path id="Trazado_107617" data-name="Trazado 107617" d="M1965.254,2474.008H1988.7l.643-4.149a.624.624,0,0,0,.007-.094.425.425,0,0,0-.1-.287.438.438,0,0,0-.269-.134.684.684,0,0,0-.092-.006h-23.82a.611.611,0,0,0-.091.006.438.438,0,0,0-.269.134.424.424,0,0,0-.1.287.64.64,0,0,0,.007.094l.644,4.15Zm24.972.86a.75.75,0,0,1-.012.079l-.987,6.362h0v0c0,.023-.006.047-.011.069l-1.884,12.146-.21,1.357-.748,4.821a2.434,2.434,0,0,1-.867,1.479v0a2.619,2.619,0,0,1-1.658.611H1970.1a2.619,2.619,0,0,1-1.658-.611l-.054-.05a2.425,2.425,0,0,1-.813-1.433l-.742-4.784a.692.692,0,0,1-.011-.074l-.787-5.075-.2-1.292a.7.7,0,0,1-.011-.07l-2.843-18.328a2.1,2.1,0,0,1-.026-.321,1.942,1.942,0,0,1,.5-1.308,2.1,2.1,0,0,1,1.281-.668,2.4,2.4,0,0,1,.33-.024h23.82a2.4,2.4,0,0,1,.33.024,2.1,2.1,0,0,1,1.281.668,1.944,1.944,0,0,1,.5,1.308,2.1,2.1,0,0,1-.026.321l-.742,4.783Zm-4.874,20.689H1968.6l.608,3.922a.865.865,0,0,0,.284.5l.035.028a.919.919,0,0,0,.576.224h13.75a.918.918,0,0,0,.575-.224l0,0a.882.882,0,0,0,.318-.526l.608-3.923Zm-19.855-19.977h22.953l-.717,4.622-.038.245h-21.443l-.422-2.72-.577-3.719Zm2.1,13.539.755,4.866H1985.6l.631-4.067.124-.8Zm19.855-7.1H1966.5l.734,4.736.122.79H1986.6l.122-.79Z" transform="translate(-1962.232 -2451.264)" fill="#e58f60" fill-rule="evenodd"/>
    </g>
  </g>
</svg>
