<svg xmlns="http://www.w3.org/2000/svg" xmlns:xlink="http://www.w3.org/1999/xlink" width="589.063" height="416.964" viewBox="0 0 589.063 416.964">
  <defs>
    <linearGradient id="linear-gradient" x1="0.244" y1="-32.692" x2="1.246" y2="97.182" gradientUnits="objectBoundingBox">
      <stop offset="0.007" stop-color="#a68df8"/>
      <stop offset="1" stop-color="#bc8eed"/>
    </linearGradient>
    <linearGradient id="linear-gradient-2" x1="-6.865" y1="-14.105" x2="59.542" y2="115.783" xlink:href="#linear-gradient"/>
    <linearGradient id="linear-gradient-3" x1="-12.663" y1="-24.055" x2="57.482" y2="105.834" xlink:href="#linear-gradient"/>
    <linearGradient id="linear-gradient-4" x1="-16.857" y1="-32.534" x2="51.781" y2="97.354" xlink:href="#linear-gradient"/>
    <linearGradient id="linear-gradient-5" x1="-21.023" y1="-41.815" x2="45.355" y2="88.073" xlink:href="#linear-gradient"/>
    <linearGradient id="linear-gradient-6" x1="0.786" y1="0.617" x2="1.617" y2="0.462" gradientUnits="objectBoundingBox">
      <stop offset="0" stop-color="#11112e"/>
      <stop offset="1" stop-color="#0f1642"/>
    </linearGradient>
    <linearGradient id="linear-gradient-7" x1="3.82" y1="3.097" x2="4.664" y2="2.967" xlink:href="#linear-gradient-6"/>
    <linearGradient id="linear-gradient-8" x1="0.5" y1="0.977" x2="0.5" y2="0.053" gradientUnits="objectBoundingBox">
      <stop offset="0.007" stop-color="#fff"/>
      <stop offset="1" stop-color="#fff"/>
    </linearGradient>
    <linearGradient id="linear-gradient-9" x1="5.714" y1="0.946" x2="6.772" y2="0.946" gradientUnits="objectBoundingBox">
      <stop offset="0.002" stop-color="#421f05"/>
      <stop offset="1" stop-color="#301704"/>
    </linearGradient>
  </defs>
  <g id="Grupo_37776" data-name="Grupo 37776" transform="translate(-2098.727 -760.548)">
    <g id="clothes_and_woman" data-name="clothes and woman" transform="translate(2098.727 760.548)">
      <g id="Grupo_37716" data-name="Grupo 37716" transform="translate(11.738)">
        <g id="Grupo_37706" data-name="Grupo 37706" transform="translate(47.357)">
          <path id="Trazado_102201" data-name="Trazado 102201" d="M2715.709,1133.005h-8.526V773.189a4.12,4.12,0,0,0-4.115-4.115H2376.5a4.119,4.119,0,0,0-4.115,4.115v359.816h-8.527V773.189a12.656,12.656,0,0,1,12.642-12.641h326.568a12.656,12.656,0,0,1,12.642,12.641Z" transform="translate(-2363.858 -760.548)" fill="#58a5f8"/>
        </g>
        <g id="Grupo_37709" data-name="Grupo 37709" transform="translate(0 372.654)">
          <g id="Grupo_37707" data-name="Grupo 37707" transform="translate(4.184)">
            <path id="Trazado_102202" data-name="Trazado 102202" d="M2260.559,2460.721a2.511,2.511,0,0,1-2.51-2.511V2439.6a2.113,2.113,0,0,0-2.111-2.111H2177.3a2.114,2.114,0,0,0-2.111,2.111v18.607a2.511,2.511,0,1,1-5.021,0V2439.6a7.141,7.141,0,0,1,7.133-7.133h78.642a7.14,7.14,0,0,1,7.132,7.133v18.607A2.511,2.511,0,0,1,2260.559,2460.721Z" transform="translate(-2170.163 -2432.47)" fill="#58a5f8"/>
          </g>
          <g id="Grupo_37708" data-name="Grupo 37708" transform="translate(0 24.088)">
            <circle id="Elipse_1027" data-name="Elipse 1027" cx="6.695" cy="6.695" r="6.695" fill="#58a5f8"/>
            <circle id="Elipse_1028" data-name="Elipse 1028" cx="6.695" cy="6.695" r="6.695" transform="translate(87.885)" fill="#58a5f8"/>
          </g>
        </g>
        <g id="Grupo_37712" data-name="Grupo 37712" transform="translate(343.325 372.654)">
          <g id="Grupo_37710" data-name="Grupo 37710" transform="translate(4.184)">
            <path id="Trazado_102203" data-name="Trazado 102203" d="M3800.9,2460.721a2.511,2.511,0,0,1-2.511-2.511V2439.6a2.114,2.114,0,0,0-2.111-2.111h-78.641a2.113,2.113,0,0,0-2.111,2.111v18.607a2.511,2.511,0,0,1-5.021,0V2439.6a7.14,7.14,0,0,1,7.132-7.133h78.641a7.141,7.141,0,0,1,7.133,7.133v18.607A2.511,2.511,0,0,1,3800.9,2460.721Z" transform="translate(-3710.5 -2432.47)" fill="#58a5f8"/>
          </g>
          <g id="Grupo_37711" data-name="Grupo 37711" transform="translate(0 24.088)">
            <circle id="Elipse_1029" data-name="Elipse 1029" cx="6.695" cy="6.695" r="6.695" fill="#58a5f8"/>
            <circle id="Elipse_1030" data-name="Elipse 1030" cx="6.695" cy="6.695" r="6.695" transform="translate(87.885)" fill="#58a5f8"/>
          </g>
        </g>
        <g id="Grupo_37713" data-name="Grupo 37713" transform="translate(50.638 336.178)">
          <rect id="Rectángulo_31997" data-name="Rectángulo 31997" width="343.325" height="6.139" fill="#58a5f8"/>
        </g>
        <g id="Grupo_37714" data-name="Grupo 37714" transform="translate(52.002 22.724)">
          <rect id="Rectángulo_31998" data-name="Rectángulo 31998" width="343.325" height="2.954" fill="url(#linear-gradient)"/>
        </g>
        <g id="Grupo_37715" data-name="Grupo 37715" transform="translate(110.8 22.088)">
          <path id="Trazado_102204" data-name="Trazado 102204" d="M2653.679,862.6h-3.093a4.817,4.817,0,0,0-1.208-2.208,4.679,4.679,0,0,0-.88-.746h4.148A6.794,6.794,0,0,1,2653.679,862.6Z" transform="translate(-2648.498 -859.646)" fill="url(#linear-gradient-2)"/>
          <path id="Trazado_102205" data-name="Trazado 102205" d="M2919.466,862.6h-2.985a4.646,4.646,0,0,0-1.213-2.327,4.587,4.587,0,0,0-.708-.627h3.944A6.674,6.674,0,0,1,2919.466,862.6Z" transform="translate(-2855.259 -859.646)" fill="url(#linear-gradient-3)"/>
          <path id="Trazado_102206" data-name="Trazado 102206" d="M3145.282,862.6h-3.027a4.716,4.716,0,0,0-1.213-2.282,4.667,4.667,0,0,0-.772-.671h4.022A6.709,6.709,0,0,1,3145.282,862.6Z" transform="translate(-3030.659 -859.646)" fill="url(#linear-gradient-4)"/>
          <path id="Trazado_102207" data-name="Trazado 102207" d="M3391.3,859.646a6.841,6.841,0,0,1,1.035,2.953h-3.095a4.842,4.842,0,0,0-1.211-2.208,4.651,4.651,0,0,0-.878-.746Z" transform="translate(-3222.517 -859.646)" fill="url(#linear-gradient-5)"/>
        </g>
      </g>
      <g id="Grupo_37719" data-name="Grupo 37719" transform="translate(300.28 19.358)">
        <path id="Trazado_102208" data-name="Trazado 102208" d="M3573.558,978.833H3609s-10.807,37.8-11.242,40.959-2.392,20.228-7.177,15.334-4.676,1.849-12.833-16.313S3573.558,978.833,3573.558,978.833Z" transform="translate(-3544.365 -949.537)" fill="#402454"/>
        <g id="Grupo_37718" data-name="Grupo 37718" transform="translate(9.513)">
          <path id="Trazado_102209" data-name="Trazado 102209" d="M3560.45,962.3a3.1,3.1,0,0,1-1.492-.385L3539.3,951.088a27.384,27.384,0,0,0-26.418,0l-19.662,10.826a3.1,3.1,0,0,1-2.99-5.43l34.365-18.923.023-.012.095-.049.054-.026.077-.035.076-.032.054-.021.1-.036.026-.009c.047-.016.085-.028.124-.039l.017,0c.044-.013.088-.024.131-.035s.1-.023.146-.031l.145-.024h.013c.043-.006.087-.011.131-.015l.03,0c.038,0,.076-.006.114-.008l.056,0,.085,0h.079l.065,0c.038,0,.075,0,.113.008l.031,0c.044,0,.087.009.13.015l.014,0c.046.006.092.014.138.023s.1.02.144.031l.012,0,.125.033.011,0c.046.013.084.025.121.038l.037.012.094.035.058.023.073.031.08.036.051.025.1.051.025.013,34.362,18.921a3.1,3.1,0,0,1-1.5,5.815Z" transform="translate(-3488.621 -917.166)" fill="#edb69c"/>
          <g id="Grupo_37717" data-name="Grupo 37717" transform="translate(29.902)">
            <path id="Trazado_102210" data-name="Trazado 102210" d="M3637.858,853.716a6.8,6.8,0,0,0-1.033-2.953,7.272,7.272,0,0,0-6.6-3.367,7.289,7.289,0,0,0-5.327,1.972,6.9,6.9,0,0,0-1.1,1.395h4.072a4.226,4.226,0,0,1,2.4-.692,4.28,4.28,0,0,1,2.4.692,4.664,4.664,0,0,1,.88.746,4.817,4.817,0,0,1,1.208,2.208,4.881,4.881,0,0,1,.128,1.127,4.173,4.173,0,0,1-.456,1.934,10.776,10.776,0,0,1-1.983,2.376,23.157,23.157,0,0,0-2.113,2.268,7.693,7.693,0,0,0-1.157,2.113,9.956,9.956,0,0,0-.49,3.308v.007c0,.451.012.777.034,1.006.1,1.112.44-.038.84-.038h1.11c.408,0,.683,1.035.826-.184.022-.191.042-.438.059-.755a10.644,10.644,0,0,1,.215-1.88,4.882,4.882,0,0,1,.651-1.536,15.417,15.417,0,0,1,1.878-2.078,14.85,14.85,0,0,0,2.87-3.562,7.027,7.027,0,0,0,.735-3.2A7.561,7.561,0,0,0,3637.858,853.716Zm-13.733,1.543a1.538,1.538,0,0,0,1.646-1.206c.031-.115.063-.227.1-.337h-3.088A1.636,1.636,0,0,0,3624.125,855.259Z" transform="translate(-3622.779 -847.396)" fill="#edb69c"/>
          </g>
        </g>
        <path id="Trazado_102211" data-name="Trazado 102211" d="M3515.8,1034.826c-1.305-10.681,12.073-42.177,9.79-47.725s-15.015-8.268-15.015-8.268c-13.146,11.368-16.729,40.8-17.485,48.993q-.125.826-.238,1.666-.114-.841-.238-1.666c-.756-8.189-4.339-37.625-17.485-48.993,0,0-12.731,2.719-15.014,8.268s11.094,37.044,9.789,47.725-26.1,90.405-23.819,111.559h93.533C3541.907,1125.231,3517.11,1045.508,3515.8,1034.826Z" transform="translate(-3445.942 -949.537)" fill="#96c9e3"/>
        <path id="Trazado_102212" data-name="Trazado 102212" d="M3515.8,1034.826c-1.305-10.681,12.073-42.177,9.79-47.725s-15.015-8.268-15.015-8.268c-13.146,11.368-16.729,40.8-17.485,48.993q-.125.826-.238,1.666-.114-.841-.238-1.666c-.756-8.189-4.339-37.625-17.485-48.993,0,0-12.731,2.719-15.014,8.268s11.094,37.044,9.789,47.725-26.1,90.405-23.819,111.559h93.533C3541.907,1125.231,3517.11,1045.508,3515.8,1034.826Z" transform="translate(-3445.942 -949.537)" fill="#6fd8d8"/>
      </g>
      <g id="Grupo_37722" data-name="Grupo 37722" transform="translate(239.001 19.358)">
        <path id="Trazado_102213" data-name="Trazado 102213" d="M3309.671,978.833h35.445s-10.807,37.8-11.242,40.959-2.393,20.228-7.177,15.334-4.676,1.849-12.833-16.313S3309.671,978.833,3309.671,978.833Z" transform="translate(-3278.017 -949.537)" fill="#5f50a1"/>
        <g id="Grupo_37721" data-name="Grupo 37721" transform="translate(11.974)">
          <path id="Trazado_102214" data-name="Trazado 102214" d="M3296.563,962.3a3.1,3.1,0,0,1-1.492-.385l-19.661-10.826a27.384,27.384,0,0,0-26.418,0l-19.661,10.826a3.1,3.1,0,0,1-2.99-5.43l34.365-18.923.023-.012.095-.049.054-.026.077-.035.076-.032.054-.021.1-.036.026-.009.124-.039.017,0c.045-.013.088-.024.132-.035s.1-.023.146-.031l.145-.024h.013c.043-.006.087-.011.131-.015l.03,0c.038,0,.076-.006.114-.008l.056,0,.085,0h.079l.065,0c.038,0,.075,0,.113.008l.031,0c.044,0,.087.009.131.015l.014,0c.045.006.092.014.138.023s.1.02.144.031l.012,0c.039.009.083.021.125.033l.012,0c.046.013.083.025.121.038l.037.012.094.035.058.023.073.031.079.036.052.025.1.051.025.013,34.362,18.921a3.1,3.1,0,0,1-1.5,5.815Z" transform="translate(-3224.734 -917.166)" fill="#edb69c"/>
          <g id="Grupo_37720" data-name="Grupo 37720" transform="translate(29.903)">
            <path id="Trazado_102215" data-name="Trazado 102215" d="M3358.9,853.716a1.635,1.635,0,0,0,1.345,1.543,1.537,1.537,0,0,0,1.646-1.206c.03-.115.061-.227.1-.337Zm15.081,0a6.834,6.834,0,0,0-1.035-2.953,7.274,7.274,0,0,0-6.6-3.367,7.293,7.293,0,0,0-5.327,1.972,7.09,7.09,0,0,0-1.1,1.395h4.072a4.237,4.237,0,0,1,2.4-.692,4.292,4.292,0,0,1,2.4.692,4.668,4.668,0,0,1,.878.746,4.74,4.74,0,0,1,1.338,3.335,4.145,4.145,0,0,1-.458,1.934,10.687,10.687,0,0,1-1.981,2.376,22.92,22.92,0,0,0-2.113,2.268,7.754,7.754,0,0,0-1.159,2.113,10,10,0,0,0-.49,3.308v.007c0,.454.013.779.034,1.009.108,1.107.442-.041.842-.041h1.107c.409,0,.685,1.035.827-.184.022-.191.042-.438.058-.755a11.1,11.1,0,0,1,.216-1.88,4.885,4.885,0,0,1,.654-1.536,15.5,15.5,0,0,1,1.875-2.078,14.8,14.8,0,0,0,2.873-3.562,7.03,7.03,0,0,0,.734-3.2A7.565,7.565,0,0,0,3373.976,853.716Z" transform="translate(-3358.895 -847.396)" fill="#edb69c"/>
          </g>
        </g>
        <path id="Trazado_102216" data-name="Trazado 102216" d="M3267.3,1226.724H3233.67l-13.215-128.346-13.06,128.346h-36.381l25.938-184.266a12.8,12.8,0,0,0,.393-3.185,37.377,37.377,0,0,0-.187-4.191c-1.518-16.22-11.418-47.86-9.5-52.511,2.282-5.547,17.5-9.565,17.5-9.565s14.239,42.1,15,50.292c.083.55.393.55.476,0l17.484-48.994s12.732,2.72,15.016,8.267c2.039,4.961-7.508,37.938-8.626,52.511a24.068,24.068,0,0,0-.025,4.191c.007.049.011.1.018.146C3245.8,1050.1,3268.706,1226.724,3267.3,1226.724Z" transform="translate(-3171.014 -945.009)" fill="#58a5f8"/>
        <path id="Trazado_102217" data-name="Trazado 102217" d="M3335.63,1255.7H3288.5a37.428,37.428,0,0,0-.186-4.191h47.343A24.042,24.042,0,0,0,3335.63,1255.7Z" transform="translate(-3262.167 -1161.44)" fill="#5f50a1"/>
      </g>
      <g id="Grupo_37728" data-name="Grupo 37728" transform="translate(196.215 19.358)">
        <path id="Trazado_102218" data-name="Trazado 102218" d="M3054.585,1075.03a23.615,23.615,0,0,1-12.851-.016c-.025,0-.05-.011-.074-.018-1.9-.478-3.479-1.031-4.613-1.365a9.2,9.2,0,0,0-1.081-.267,9.535,9.535,0,0,0-3.007.361c-.314.072-.645.148-.99.234l-.218.054c-3.672.914-8.86,2.506-13.195,3.171a.116.116,0,0,1-.027,0c-.721.11-1.419.2-2.082.247-.227.018-.447.031-.665.041-.166.007-.332.011-.5.013s-.335,0-.5,0c-.582-.009-1.145-.047-1.7-.108a22.96,22.96,0,0,1-3.593-.719l-.027-.007c-3.638-1.009-6.778-2.556-10.273-2.437l-.18.007c-.1,0-.2.007-.3.011-.753.031-1.375.07-1.912.117a27.724,27.724,0,0,0-3.681.6,37.694,37.694,0,0,1-3.757.53,9.18,9.18,0,0,1-.927.045c-.042,0-.086,0-.128,0-4.813-.069-9.26-3.6-9.26-3.6-.249-22.12,18.531-86.754,18.531-86.754s33.261-4.207,35.37,0C3035.115,989.486,3056.411,1074.459,3054.585,1075.03Z" transform="translate(-2979.049 -953.008)" fill="#d268cc"/>
        <g id="Grupo_37723" data-name="Grupo 37723" transform="translate(14.075 62.002)">
          <path id="Trazado_102219" data-name="Trazado 102219" d="M3045.879,1248.935a27.722,27.722,0,0,0-3.681.6c.07-10.542.429-32.2,2.139-41.091.013-.072.026-.144.04-.213.1-.514.389-.238.344.328-.207,2.744-.384,6.309-.384,10.41C3044.336,1228.239,3045.223,1240.857,3045.879,1248.935Z" transform="translate(-3042.198 -1189.592)" fill="#d268cc"/>
          <path id="Trazado_102220" data-name="Trazado 102220" d="M3134.837,1187.993c-.227.018-.447.031-.665.041-.167.007-.333.011-.5.013s-.335,0-.5,0c-.582-.009-1.145-.047-1.7-.108-.182-11.225-.173-34.472,1.184-47.9,1.8-17.85,1.92-16.945,1.722-9.258C3134.264,1135.442,3133.579,1173.368,3134.837,1187.993Z" transform="translate(-3111.513 -1125.568)" fill="#d268cc"/>
          <path id="Trazado_102221" data-name="Trazado 102221" d="M3224.3,1248.213a9.217,9.217,0,0,0-1.081-.267,9.549,9.549,0,0,0-3.007.362c.079-13.233-.453-31.563-.047-39C3220.594,1201.517,3222.88,1229.125,3224.3,1248.213Z" transform="translate(-3180.381 -1189.593)" fill="#d268cc"/>
        </g>
        <path id="Trazado_102222" data-name="Trazado 102222" d="M3097.568,977.018H3062.2l.217-3.784a.454.454,0,0,1,.448-.424h34.076a.449.449,0,0,1,.444.424Z" transform="translate(-3043.665 -944.857)" fill="#cc6080"/>
        <g id="Grupo_37727" data-name="Grupo 37727" transform="translate(15.492)">
          <g id="Grupo_37724" data-name="Grupo 37724" transform="translate(13.168)">
            <path id="Trazado_102223" data-name="Trazado 102223" d="M3107.633,853.716a1.587,1.587,0,0,0,1.307,1.4,1.508,1.508,0,0,0,1.615-1.186c.02-.074.038-.146.061-.216Zm14.807,0a6.708,6.708,0,0,0-.99-2.953,7.145,7.145,0,0,0-6.518-3.367,7.164,7.164,0,0,0-5.231,1.936,6.808,6.808,0,0,0-1.114,1.431h3.946a4.419,4.419,0,0,1,4.894,0,4.651,4.651,0,0,1,.773.671,4.711,4.711,0,0,1,1.213,2.282,4.816,4.816,0,0,1,.1.992,4.077,4.077,0,0,1-.447,1.9,10.572,10.572,0,0,1-1.947,2.333,22.859,22.859,0,0,0-2.075,2.228,7.534,7.534,0,0,0-1.136,2.077,9.775,9.775,0,0,0-.481,3.247v0c0,.267,0,.489.011.673.072,1.6.422.279.847.279h1.089c.411,0,.685,1.069.822-.279.016-.173.031-.384.045-.644a10.744,10.744,0,0,1,.213-1.844,4.814,4.814,0,0,1,.64-1.509,15.384,15.384,0,0,1,1.842-2.042,14.573,14.573,0,0,0,2.821-3.495,6.913,6.913,0,0,0,.721-3.142C3122.478,854.23,3122.465,853.97,3122.44,853.716Z" transform="translate(-3107.633 -847.396)" fill="#edb69c"/>
          </g>
          <rect id="Rectángulo_31999" data-name="Rectángulo 31999" width="41.161" height="3.355" rx="1.678" transform="translate(0 19.774)" fill="#edb69c"/>
          <g id="Grupo_37725" data-name="Grupo 37725" transform="translate(1.269 21.612)">
            <path id="Trazado_102224" data-name="Trazado 102224" d="M3054.249,944.787v3.232a2.028,2.028,0,0,0,2.154,1.864h34.315a2.028,2.028,0,0,0,2.154-1.864V944.36Zm37.875,3.232a1.289,1.289,0,0,1-1.406,1.116H3056.4a1.288,1.288,0,0,1-1.406-1.116v-2.493l37.127-.409Z" transform="translate(-3054.249 -944.36)" fill="#edb69c"/>
          </g>
          <g id="Grupo_37726" data-name="Grupo 37726" transform="translate(3.85 25.052)">
            <rect id="Rectángulo_32000" data-name="Rectángulo 32000" width="2.136" height="3.916" fill="#edb69c"/>
            <rect id="Rectángulo_32001" data-name="Rectángulo 32001" width="2.136" height="3.916" transform="translate(31.325)" fill="#edb69c"/>
          </g>
        </g>
      </g>
      <g id="Grupo_37732" data-name="Grupo 37732" transform="translate(140.1 19.358)">
        <g id="Grupo_37730" data-name="Grupo 37730" transform="translate(18.341 79.882)">
          <rect id="Rectángulo_32002" data-name="Rectángulo 32002" width="45.802" height="134.767" fill="#ffeac9"/>
          <g id="Grupo_37729" data-name="Grupo 37729" transform="translate(1.523)">
            <rect id="Rectángulo_32003" data-name="Rectángulo 32003" width="1.318" height="134.767" fill="#ffc34f"/>
            <rect id="Rectángulo_32004" data-name="Rectángulo 32004" width="1.318" height="134.767" transform="translate(5.18)" fill="#ffc34f"/>
            <rect id="Rectángulo_32005" data-name="Rectángulo 32005" width="1.318" height="134.767" transform="translate(10.359)" fill="#ffc34f"/>
            <rect id="Rectángulo_32006" data-name="Rectángulo 32006" width="1.318" height="134.767" transform="translate(15.539)" fill="#ffc34f"/>
            <rect id="Rectángulo_32007" data-name="Rectángulo 32007" width="1.318" height="134.767" transform="translate(20.719)" fill="#ffc34f"/>
            <rect id="Rectángulo_32008" data-name="Rectángulo 32008" width="1.318" height="134.767" transform="translate(25.898)" fill="#ffc34f"/>
            <rect id="Rectángulo_32009" data-name="Rectángulo 32009" width="1.318" height="134.767" transform="translate(31.078)" fill="#ffc34f"/>
            <rect id="Rectángulo_32010" data-name="Rectángulo 32010" width="1.318" height="134.767" transform="translate(36.258)" fill="#ffc34f"/>
            <rect id="Rectángulo_32011" data-name="Rectángulo 32011" width="1.318" height="134.767" transform="translate(41.438)" fill="#ffc34f"/>
          </g>
        </g>
        <g id="Grupo_37731" data-name="Grupo 37731">
          <path id="Trazado_102225" data-name="Trazado 102225" d="M2827.428,958.725a259,259,0,0,1,37.509,0s1.121,12.517-.912,14.566-14.936,6.955-22.208,7.54-6.334,6.955-10.479-1.245S2827.428,958.725,2827.428,958.725Z" transform="translate(-2805.106 -933.381)" fill="#db9a1b"/>
          <path id="Trazado_102226" data-name="Trazado 102226" d="M2880.718,877.065a1.557,1.557,0,0,1-1.28-1.314h2.917l-.041.144a1.512,1.512,0,0,1-1.422,1.181A1.492,1.492,0,0,1,2880.718,877.065Z" transform="translate(-2845.526 -869.431)" fill="#edb69c"/>
          <path id="Trazado_102227" data-name="Trazado 102227" d="M2821.444,889.657a3,3,0,0,1-4.087,1.183l-1.974-1.087-11.187-6.16-5.927-3.263c-.175-.1-.352-.191-.53-.283a26.585,26.585,0,0,0-24.79.106c-.11.058-.218.117-.328.177l-5.26,2.9-5.808,3.2h0l-2.439,1.345-3.987,2.194-1.594.878a3.009,3.009,0,0,1-4.341-3.472,3.147,3.147,0,0,1,.22-.555,2.988,2.988,0,0,1,1.22-1.244l4.685-2.581,1.426-.786,9.914-5.458,2.181-1.2,5.945-3.272h0l9.1-5.011c-.02-.222-.033-.539-.033-.979v0a9.706,9.706,0,0,1,.476-3.211,7.494,7.494,0,0,1,1.123-2.053,22.744,22.744,0,0,1,2.053-2.2,10.47,10.47,0,0,0,1.925-2.307,4.053,4.053,0,0,0,.442-1.877,4.844,4.844,0,0,0-.085-.91,4.645,4.645,0,0,0-1.213-2.327,4.577,4.577,0,0,0-.708-.626,4.157,4.157,0,0,0-2.477-.768,4.082,4.082,0,0,0-2.473.768h-3.872a6.852,6.852,0,0,1,1.125-1.453,7.083,7.083,0,0,1,5.172-1.914,7.079,7.079,0,0,1,6.468,3.367,6.672,6.672,0,0,1,.961,2.953c.022.229.031.46.031.7a6.848,6.848,0,0,1-.712,3.106,14.4,14.4,0,0,1-2.79,3.456,14.867,14.867,0,0,0-1.821,2.019,4.691,4.691,0,0,0-.633,1.491,10.6,10.6,0,0,0-.209,1.824c-.015.308-.036.546-.056.732a.017.017,0,0,0,.009,0l.072.031.076.034.05.025c.034.016.065.034.1.049l.025.013,9.206,5.069,5.74,3.16,2.448,1.347,12.743,7.019,3.223,1.774a3.012,3.012,0,0,1,1.183,4.088Z" transform="translate(-2744.216 -847.396)" fill="#edb69c"/>
          <path id="Trazado_102228" data-name="Trazado 102228" d="M2794.5,998.384l-.043.018.57,10.387,1.409,25.631h-54.589l1.356-33.746.131-3.26h0l-.006,0h-.008l-.01,0-2.041-.815c-3.506-1.4-10.563-4.232-13.976-5.67.323-1.326.657-2.624.989-3.875.462-1.737.925-3.381,1.368-4.878.764-2.575,1.473-4.712,2.031-6.127,2.659-6.752,14.241-12.791,17.933-14.932l.5.616c1.74,2.157,3.665,4.456,5.743,6.622a17.093,17.093,0,0,0,9.988,5.044l2.568,5.689,2.775-5.733a17.06,17.06,0,0,0,9.7-5c2.076-2.166,4-4.465,5.743-6.622l.5-.616c3.692,2.141,15.274,8.18,17.932,14.932a123.187,123.187,0,0,1,3.8,12.519c.314,1.218.624,2.47.926,3.74h0c-3.836,1.577-10.878,4.357-13.9,5.548l-1.295.509Z" transform="translate(-2727.291 -935.76)" fill="#ffc74a"/>
          <path id="Trazado_102229" data-name="Trazado 102229" d="M3043.366,1088.006h0c-3.836,1.577-10.878,4.357-13.9,5.548l-.626.247-.107.042-.561.221-.076.03q-.07-1.561-.137-3.072-.039-.894-.077-1.768l1.02-.327c2.963-.958,9.012-2.947,13.542-4.661C3042.754,1085.484,3043.064,1086.736,3043.366,1088.006Z" transform="translate(-2960.881 -1031.47)" fill="#ffc34f"/>
          <path id="Trazado_102230" data-name="Trazado 102230" d="M2743.644,1082.811c-.1,1.607-.208,3.292-.32,5.028h-.006l-.01,0-2.041-.815c-3.506-1.4-10.563-4.232-13.976-5.671.323-1.326.657-2.624.989-3.875l13.851,4.813Z" transform="translate(-2727.291 -1026.191)" fill="#ffc34f"/>
          <path id="Trazado_102231" data-name="Trazado 102231" d="M3027.364,1054.944l-.626.247-.108.042-.561.221-.075.03q-.07-1.561-.137-3.072-.038-.894-.076-1.768c-.323-7.584-.529-13.79-.6-16.062.164,3.231,1.012,10.654,1.621,15.735.016.14.033.278.049.414C3027.077,1052.629,3027.265,1054.157,3027.364,1054.944Z" transform="translate(-2958.783 -992.859)" fill="#db9a1b"/>
          <path id="Trazado_102232" data-name="Trazado 102232" d="M2793.215,1035.1c-.011.968-.351,6.94-.845,14.782-.1,1.607-.207,3.292-.32,5.028h-.006l-.011,0-2.041-.815c.177-.959.5-2.689.865-4.733C2791.827,1044.006,2793.15,1036.507,2793.215,1035.1Z" transform="translate(-2776.017 -993.265)" fill="#db9a1b"/>
        </g>
      </g>
      <g id="woman" transform="translate(0 19.358)">
        <g id="Grupo_37734" data-name="Grupo 37734" transform="translate(26.778 190.292)">
          <path id="Trazado_102233" data-name="Trazado 102233" d="M2229.691,1771.334c1.56,6.672,2.879,12.639,1.623,21.923-6.194,45.79,4.433,97.735,4.433,97.735l7.953.683s7.917-89.592,7.94-92.607c.032-3.979.221-72.9-2.809-89.64s-26.367-2.925-26.367-2.925a92.425,92.425,0,0,0-3.559,18.476C2218.115,1733.553,2229.362,1769.928,2229.691,1771.334Z" transform="translate(-2218.866 -1701.147)" fill="#ffb08c"/>
          <g id="Grupo_37733" data-name="Grupo 37733" transform="translate(16.331 188.307)">
            <path id="Trazado_102234" data-name="Trazado 102234" d="M2292.613,2564.438s-2.144,10.03,2.665,10.682c3.678.5,26.619,3.179,29.54.091,1.886-2-1.313-4.061-5.134-4.83s-12.952-3.545-15.086-4.984C2304.6,2565.4,2303.754,2568.323,2292.613,2564.438Z" transform="translate(-2292.137 -2560.326)" fill="url(#linear-gradient-6)"/>
            <path id="Trazado_102235" data-name="Trazado 102235" d="M2294.322,2547.267s.056,1.018-.011,2.625a1.878,1.878,0,0,0,1.053,1.771,27.337,27.337,0,0,0,7.311,2.5c3.7.5,12.436,2.3,13.019,1.01.289-.638-3.4-1.912-4.14-2.2s-8.241-2.961-9.2-5.73C2301.374,2544.409,2294.322,2547.267,2294.322,2547.267Z" transform="translate(-2293.825 -2545.991)" fill="#ffb08c"/>
          </g>
        </g>
        <g id="Grupo_37737" data-name="Grupo 37737" transform="translate(0 193.978)">
          <g id="Grupo_37735" data-name="Grupo 37735" transform="translate(1.139)">
            <path id="Trazado_102236" data-name="Trazado 102236" d="M2103.937,1903.914c2.668.357,4.974,1.076,7.949.665,3.329-19.858,22.94-83.839,24.737-89.684a4.051,4.051,0,0,0,.167-.877c1.622-20.488,5.6-63.641,3.914-86.064-1.292-17.175-23.388-7.8-24.032-7.023-8.065,9.684-5.9,9.924-8.085,20.75-2.352,11.682,4.781,33.31,5.4,44.993s3.877,4.734,1.5,15.239C2108.607,1832.284,2103.007,1885.921,2103.937,1903.914Z" transform="translate(-2103.836 -1717.684)" fill="#ffb08c"/>
          </g>
          <g id="Grupo_37736" data-name="Grupo 37736" transform="translate(0 185.067)">
            <path id="Trazado_102237" data-name="Trazado 102237" d="M2099.687,2564.264s-3.037,9.8,1.693,10.879c3.618.827,26.225,5.559,29.412,2.745,2.058-1.817-.943-4.162-4.679-5.272s-12.581-4.7-14.577-6.32C2111.536,2566.3,2110.433,2569.135,2099.687,2564.264Z" transform="translate(-2098.727 -2560.637)" fill="url(#linear-gradient-7)"/>
            <path id="Trazado_102238" data-name="Trazado 102238" d="M2103.35,2548.8s-.035,1.019-.247,2.613a1.878,1.878,0,0,0,.889,1.858,27.346,27.346,0,0,0,7.057,3.148c3.644.831,12.179,3.4,12.875,2.177.346-.61-3.213-2.209-3.926-2.561s-7.941-3.69-8.646-6.534C2110.629,2546.585,2103.35,2548.8,2103.35,2548.8Z" transform="translate(-2102.115 -2547.994)" fill="#ffb08c"/>
          </g>
        </g>
        <g id="Grupo_37739" data-name="Grupo 37739" transform="translate(5.033 41.712)">
          <path id="Trazado_102239" data-name="Trazado 102239" d="M2166.037,1149.6c4.156-22.927-33.241-10.064-29.158-22.8s1.451-25.6-4.563-29.545-10.444-17.417-10.967-25.971c-.506-8.256,3.784-26.69,13.223-32.433,0,0,.01-.007.012-.007.341-.209.685-.4,1.035-.573a31.286,31.286,0,0,1,7.957-2.935,27.283,27.283,0,0,1,21,3.209c8.543,5.363,12.258,17.127,9.817,24.817s10.612,14.771,14.78,23.384,5.076,13.289,1.824,21.529,2.656,14.406,2.223,23.934C2192.618,1145.392,2162.112,1171.257,2166.037,1149.6Z" transform="translate(-2121.309 -1034.536)" fill="#1f2047"/>
          <g id="Grupo_37738" data-name="Grupo 37738" transform="translate(20.823 8.036)">
            <path id="Trazado_102240" data-name="Trazado 102240" d="M2226.834,1070.59a21.271,21.271,0,0,0-3.941,2.173,21.582,21.582,0,0,0-3.389,2.9,18.438,18.438,0,0,0-1.452,1.692,22.151,22.151,0,0,0-1.278,1.834,29.287,29.287,0,0,0-2.042,4.021,16.982,16.982,0,0,1,4.29-8.008,18.127,18.127,0,0,1,1.7-1.56,17.354,17.354,0,0,1,1.891-1.314A13.938,13.938,0,0,1,2226.834,1070.59Z" transform="translate(-2214.73 -1070.59)" fill="#1a0c02"/>
          </g>
        </g>
        <g id="Grupo_37740" data-name="Grupo 37740" transform="translate(44.616 99.252)">
          <path id="Trazado_102241" data-name="Trazado 102241" d="M2315.459,1316.749c-.059,1.26-1.719,14.958-1.6,21.544a50.639,50.639,0,0,0-3.591,20.621,151.641,151.641,0,0,0,2.387,21.452c-5.6-13.537-11.906-30.462-12.985-37.017-1.693-10.271-.457-35.681,2.51-48.679.568-2.482,3.32-3.6,8.181,2.639C2312.9,1300.577,2315.738,1310.686,2315.459,1316.749Z" transform="translate(-2298.9 -1292.691)" opacity="0.1"/>
        </g>
        <path id="Trazado_102242" data-name="Trazado 102242" d="M2222.51,1173.909s-5.953,3.055-6.26,1.446c-.294-1.546,4.99-7.716,8.2-9.729,6.544-4.108,33.9-5.959,38.937-7.643s25.875-24.569,28.324-27.567,9.831,1.256,7.966,3.231c-2.191,2.32-24.815,29.6-29.517,33.431S2234.265,1180.268,2222.51,1173.909Z" transform="translate(-2190.046 -1066.527)" fill="#ffb08c"/>
        <path id="Trazado_102243" data-name="Trazado 102243" d="M2561.492,1098.258a25.92,25.92,0,0,1,4.215-4.241c2.787-2.135,2.682-2.456,2.626-4.443s-2.279-8.79-4.969-7.782c-3,1.125-3.971,4.936-4.108,4.777s.4-3.894-.667-4.168-1.755,5.747-1.781,6.894a5.93,5.93,0,0,1-1.659,3.89C2554.067,1094.506,2561.492,1098.258,2561.492,1098.258Z" transform="translate(-2453.333 -1029.469)" fill="#ffb08c"/>
        <g id="Grupo_37741" data-name="Grupo 37741" transform="translate(8.771 95.463)">
          <path id="Trazado_102244" data-name="Trazado 102244" d="M2140.851,1365.995c-1.362,5.944-2.771,10.262-2.771,10.262a18.351,18.351,0,0,0,4.275,3.234c15.532,8.637,45.631.01,45.631.01s-6.583-5.807-4.446-18.924c2.315-14.21,6.116-41.273,6.766-55.16.348-7.443-1.271-18.781-7.311-24.219a21.91,21.91,0,0,0-8.838-4.229c-.363-.1-.726-.188-1.092-.273h0a38.867,38.867,0,0,0-5.555-.878,34.636,34.636,0,0,0-12.637,1.257q-.445.123-.888.262a58.445,58.445,0,0,0-5.527,2.027c-3.272,1.373-6.793,5.57-8.88,8.824a5.268,5.268,0,0,0-.824,3.225c.679,9.409,4.02,56.311,3.841,65.391C2142.511,1360.924,2141.333,1363.893,2140.851,1365.995Z" transform="translate(-2138.08 -1275.694)" fill="url(#linear-gradient-8)"/>
        </g>
        <g id="Grupo_37743" data-name="Grupo 37743" transform="translate(3.902 176.574)">
          <g id="Grupo_37742" data-name="Grupo 37742">
            <path id="Trazado_102245" data-name="Trazado 102245" d="M2125.118,1741.234c13.515,2.394,46.31,2.409,46.781,1.194,0,0,3.38-53.471,1.8-64.331-3.811-26.2-6.248-29.22-7.133-34.723l-40.948-3.773s-5.406,18.433-8.45,31.653a36.547,36.547,0,0,0-.706,12.26C2118.212,1699.181,2123.06,1740.868,2125.118,1741.234Z" transform="translate(-2116.235 -1639.601)" fill="#47285e"/>
          </g>
        </g>
        <g id="Grupo_37744" data-name="Grupo 37744" transform="translate(10.921 42.393)">
          <path id="Trazado_102246" data-name="Trazado 102246" d="M2231.6,1238.467c-3.9.7-12.292-2.468-12.537-4.86a41.528,41.528,0,0,1,.757-6.758c.69-4.251,1.586-8.829,1.586-8.829s11.093,2.239,11.317,4.09c.13,1.071.687,4.779,1.3,7.908a18.223,18.223,0,0,0,1.258,4.669C2236.1,1235.691,2235.492,1237.772,2231.6,1238.467Z" transform="translate(-2203.146 -1177.805)" fill="#ffb08c"/>
          <path id="Trazado_102247" data-name="Trazado 102247" d="M2236.708,1230.017a4.644,4.644,0,0,1-1.7.716c-3.169.615-7.858-.79-12.5-3.885.69-4.251,1.586-8.829,1.586-8.829s11.092,2.239,11.317,4.09C2235.542,1223.181,2236.1,1226.889,2236.708,1230.017Z" transform="translate(-2205.84 -1177.805)" fill="#ffa780"/>
          <path id="Trazado_102248" data-name="Trazado 102248" d="M2183.467,1052.124c2.04,2.972,4.069,10.66,4.5,14.3.97,8.259-1.606,24.2-8.007,25.442-5.885,1.144-17.009-4.679-23.365-15.367-8.637-14.525-4.363-27.228.978-30.645C2162.308,1042.826,2172.2,1035.718,2183.467,1052.124Z" transform="translate(-2150.785 -1040.784)" fill="#ffb08c"/>
          <path id="Trazado_102249" data-name="Trazado 102249" d="M2185.725,1061.688c-1.247-5.725-3.638-9.222-5.934-11.344a8.523,8.523,0,0,0-10.5-.811c-9.558,6.311-9.9,17.8-9.9,17.8s-2.14-3.67-4.705-2.522c-2.724,1.219-1.473,4.438.7,7.582s4.51,11.609,4.51,11.609c-15.375-14.89-15.25-34.708-4.786-42.768,0,0,.009-.007.011-.007.341-.209.685-.4,1.035-.573a31.289,31.289,0,0,1,7.957-2.935q.859-.094,1.759-.117C2185.869,1037.086,2185.725,1061.688,2185.725,1061.688Z" transform="translate(-2147.724 -1037.595)" fill="#1f2047"/>
          <path id="Trazado_102250" data-name="Trazado 102250" d="M2212,1285.126c3.649,3.822,12.492,5.344,16.946,1.743,4.063-3.286,1.349-6.92.043-8.287-.363-.1-.726-.188-1.092-.273h0a37.375,37.375,0,0,0-5.644-.47c-4.564-.374-8.3.879-12.548.849,0,0-.593.17-.888.263C2208.308,1280.28,2208.784,1281.758,2212,1285.126Z" transform="translate(-2195.065 -1224.237)" fill="#fff"/>
          <path id="Trazado_102251" data-name="Trazado 102251" d="M2219.371,1285.947c3.436,3.595,7.6,3.705,11.391-.128,3.389-3.431.846-9.122.846-9.122h0a38.867,38.867,0,0,0-5.555-.878,34.637,34.637,0,0,0-12.637,1.257C2213.905,1279.056,2215.938,1282.352,2219.371,1285.947Z" transform="translate(-2198.772 -1222.625)" fill="#ffb08c"/>
          <circle id="Elipse_1031" data-name="Elipse 1031" cx="1.652" cy="1.652" r="1.652" transform="translate(7.343 36.834) rotate(-45)" fill="#fff"/>
        </g>
        <g id="Grupo_37748" data-name="Grupo 37748" transform="translate(61.838)">
          <path id="Trazado_102252" data-name="Trazado 102252" d="M2450.271,1471.427c.838.383,79.537,0,79.537,0s-22.919-24.885-23.573-25.375-11.121-8.832-11.529-8.913a25.99,25.99,0,0,0-13.574,4.743c-6.46,4.5-7.932,3.925-11.612,10.549S2450.271,1471.427,2450.271,1471.427Z" transform="translate(-2433.754 -1305.683)" fill="#291e5c"/>
          <path id="Trazado_102253" data-name="Trazado 102253" d="M2530.675,943.163s16.558-1.472,27.965,0l9.935,21.341-18.95,80.929s-15.822-4.739-15.822-5.947-15.822-65.6-14.718-70.015S2530.675,943.163,2530.675,943.163Z" transform="translate(-2487.187 -921.309)" fill="#291e5c"/>
          <path id="Trazado_102254" data-name="Trazado 102254" d="M2597.031,877.065a1.559,1.559,0,0,1-1.282-1.314h2.917c-.013.047-.025.094-.038.144a1.512,1.512,0,0,1-1.422,1.181A1.492,1.492,0,0,1,2597.031,877.065Z" transform="translate(-2546.807 -869.431)" fill="#edb69c"/>
          <path id="Trazado_102255" data-name="Trazado 102255" d="M2537.76,889.657a3,3,0,0,1-4.087,1.183l-8.97-4.939-1.763-.97-6.834-3.764-1.521-.838a26.59,26.59,0,0,0-24.995-.348c-.22.112-.438.229-.656.348l-5.817,3.2-1.033.57-5.5,3.03-3.586,1.976-2.753,1.516-.393.216a3.009,3.009,0,0,1-2.9-5.271l3.483-1.918,1.1-.609,11.773-6.482,3.012-1.66,2.79-1.534,8.4-4.627,2.688-1.48c-.023-.222-.034-.539-.034-.979v0a9.715,9.715,0,0,1,.474-3.211,7.575,7.575,0,0,1,1.125-2.053,22.724,22.724,0,0,1,2.051-2.2,10.344,10.344,0,0,0,1.925-2.307,4.025,4.025,0,0,0,.445-1.877,4.864,4.864,0,0,0-.085-.91,4.944,4.944,0,0,0-1.922-2.953,4.157,4.157,0,0,0-2.475-.768,4.081,4.081,0,0,0-2.473.768h-3.872a6.867,6.867,0,0,1,1.125-1.453,7.076,7.076,0,0,1,5.172-1.914,7.082,7.082,0,0,1,6.468,3.367,6.677,6.677,0,0,1,.961,2.953c.022.229.032.46.032.7a6.821,6.821,0,0,1-.714,3.106,14.3,14.3,0,0,1-2.787,3.456,14.885,14.885,0,0,0-1.821,2.019,4.707,4.707,0,0,0-.633,1.491,10.342,10.342,0,0,0-.211,1.824c-.016.308-.034.546-.056.732,0,0,.007,0,.012,0,.022.011.047.02.069.031l.079.034.049.025.094.049.025.013,2.542,1.4,10.971,6.041,3.676,2.024,2.417,1.332,13.753,7.573a3.009,3.009,0,0,1,1.186,4.088Z" transform="translate(-2445.499 -847.396)" fill="#edb69c"/>
          <path id="Trazado_102256" data-name="Trazado 102256" d="M2432.692,1046.711c-.755,19.916-2.288,42.792-2.288,42.792l-37.72-.17,8.664-89.115c-1.52,13.365-10.044,51.909-10.044,51.909l-15.137.924,17.695-90.409L2414.315,949l5.339-3.561c0,21.713,12.774,90.673,12.774,90.673.018.516.061,1.264.109,2.167C2432.655,1040.523,2432.806,1043.717,2432.692,1046.711Z" transform="translate(-2376.166 -923.59)" fill="#58a5f8"/>
          <path id="Trazado_102257" data-name="Trazado 102257" d="M2665.07,1053.825s-8.84-40.185-10.371-53.644l8.668,89.152-37.544.17s-3.843-40.207-3.681-52.469c0-.3,1.47-.675,1.479-.917,0,0,.015-.068.043-.2.884-4.045,14.945-68.719,15.1-90.122,0-.119,0-.237,0-.353l5.458,3.055,17.812,9.973,17.8,94.535Z" transform="translate(-2567.313 -923.59)" fill="#58a5f8"/>
          <path id="Trazado_102258" data-name="Trazado 102258" d="M2645.419,989.272c-.826,3.118-20.328,56.257-20.328,56.257l-.8-5.489-.347-1.819c.013-.231,1.122-.849,1.062-1.3,0-.3.01-.564.019-.807,0,0,.015-.068.042-.2.885-4.045,14.945-68.719,15.1-90.122,0-.119,0-.237,0-.353l5.458,3.055C2646.515,951.78,2646.235,986.193,2645.419,989.272Z" transform="translate(-2568.72 -923.59)" fill="#403185"/>
          <path id="Trazado_102259" data-name="Trazado 102259" d="M2563.492,1038.285v4.093l-.7,4.025s-16.784-53.861-17.523-56.989-.829-37.893,0-40.41l5.339-3.561c0,21.713,12.773,90.673,12.773,90.673C2563.4,1036.634,2563.444,1037.382,2563.492,1038.285Z" transform="translate(-2507.121 -923.59)" fill="#403185"/>
          <g id="Grupo_37745" data-name="Grupo 37745" transform="translate(26.771 124.523)">
            <rect id="Rectángulo_32012" data-name="Rectángulo 32012" width="15.455" height="2.006" fill="#403185"/>
          </g>
          <g id="Grupo_37746" data-name="Grupo 37746" transform="translate(68.219 124.523)">
            <rect id="Rectángulo_32013" data-name="Rectángulo 32013" width="15.455" height="2.006" fill="#403185"/>
          </g>
          <g id="Grupo_37747" data-name="Grupo 37747" transform="translate(52.896 116.428)">
            <path id="Trazado_102260" data-name="Trazado 102260" d="M2615.04,1419.3l-1.555-.125c1.264-15.688,2.682-49.085,2.7-49.421l1.559.066C2617.726,1370.155,2616.306,1403.582,2615.04,1419.3Z" transform="translate(-2613.485 -1369.753)" fill="#403185"/>
          </g>
        </g>
        <g id="Grupo_37749" data-name="Grupo 37749" transform="translate(8.838 103.051)">
          <path id="Trazado_102261" data-name="Trazado 102261" d="M2138.562,1319.1c-.938-2.88,1.7-12.679,9.393-8.223,8.833,5.118,21.86,25.816,28.545,28.569,6.3,2.594,28.451-8.8,33.3-12.259s13.667-.316,6.323,5.107c-8.628,6.372-29.909,23.619-40.252,21.417C2167.981,1352.034,2142.665,1331.7,2138.562,1319.1Z" transform="translate(-2138.38 -1309.737)" fill="#ffb08c"/>
          <path id="Trazado_102262" data-name="Trazado 102262" d="M2464.529,1360.076a24.36,24.36,0,0,1,5.38-2.911,9.207,9.207,0,0,0,5.067-5.466c.656-2.4-1.3-6.27-4-6.657-3.01-.432-5.914-.1-8.418,5.128a8.969,8.969,0,0,1-2.636,3.546c-.127.106-1.108.805-1.108.805C2458.823,1356.224,2463.43,1359.136,2464.529,1360.076Z" transform="translate(-2387.395 -1337.068)" fill="#ffb08c"/>
        </g>
      </g>
    </g>
    <g id="couple" transform="translate(2445.922 808.764)">
      <g id="man" transform="translate(0)">
        <g id="Grupo_37751" data-name="Grupo 37751" transform="translate(0 63.037)">
          <g id="Grupo_37750" data-name="Grupo 37750" transform="translate(0 59.157)">
            <path id="Trazado_102263" data-name="Trazado 102263" d="M3682.981,1542.579s-9.414-1.588-11.121-1.06-8.3,1.532-12.276-1.934a9.827,9.827,0,0,1-3.109-8.463,11.1,11.1,0,0,1,.676-3.027c1-2.543,2.47-3.519,4.449-2.724,1.829.738,11.108,2.917,12.984,4.023,2.134,1.259,8.144.281,8.144.281Z" transform="translate(-3656.428 -1525.101)" fill="#15579f"/>
          </g>
          <path id="Trazado_102264" data-name="Trazado 102264" d="M3830.214,1295.19c-.264.812-.663,1.932-1.177,3.29-.309.818-.661,1.72-1.051,2.694-2.916,7.263-8.008,18.4-13.883,26.7q-.541.765-1.093,1.5a39.143,39.143,0,0,1-5.323,5.9c-9.479,8.293-55.977,2.669-55.977,2.669a10.182,10.182,0,0,1-.413-1.51c-.059-.29-.1-.583-.139-.879-.531-4.427,1.225-9.428,2.216-11.812.1-.241.193-.457.275-.642.214-.489.352-.764.352-.764,2.916-.885,23.8-3.069,34.682-4.192,2.006-.208,4.8.119,5.69-.424,3.927-2.4,8.213-17.55,8.985-20.887,2.482-10.725,5.663-18.418,8.917-23.888.115-.193.231-.382.346-.569l.019-.031c.522-.85,1.045-1.641,1.567-2.381q.173-.246.346-.485a28.591,28.591,0,0,1,15.372-9.777,9.512,9.512,0,0,1,1.9.252,8.851,8.851,0,0,1,3.375,1.594,8.529,8.529,0,0,1,2.981,4.383C3841.441,1277.04,3832.981,1286.712,3830.214,1295.19Z" transform="translate(-3729.969 -1259.69)" fill="#15579f"/>
        </g>
        <g id="Grupo_37752" data-name="Grupo 37752" transform="translate(78.328 65.605)">
          <path id="Trazado_102265" data-name="Trazado 102265" d="M4028.093,1281.827c-2.866,10.385-1.039,15.775-.556,28.3-2.916,7.263-8.008,18.4-13.883,26.7q-.541.765-1.093,1.5c-.021-.571-.052-1.12-.1-1.647-.663-7.649-3.094-15.464-4.615-23.8.027-3.764.031-8.222.029-13.578,0-7.977,1.857-13.788,4.3-17.982l.019-.031a25.974,25.974,0,0,1,1.567-2.381,21.721,21.721,0,0,1,9.846-7.694,8.663,8.663,0,0,1,6.55,4.773A40.426,40.426,0,0,0,4028.093,1281.827Z" transform="translate(-4007.847 -1271.211)" fill="#edb69c"/>
        </g>
        <g id="Grupo_37753" data-name="Grupo 37753" transform="translate(52.544 336.007)">
          <path id="Trazado_102266" data-name="Trazado 102266" d="M4032.85,2484.38l-.088,8.313s-1.095,5.328-4.667,3.991-5.526-6.377-7.458-7.137l.873-5.167Z" transform="translate(-3992.003 -2484.38)" fill="#d37b4f"/>
          <path id="Trazado_102267" data-name="Trazado 102267" d="M3932.989,2578.417s.428,3.738-2.167,4.184-8.415-.35-12,1.236-13.652,2.877-18.97,1.462-9.243-2.8-7.07-5.881l34.113-1.785Z" transform="translate(-3892.168 -2556.849)" fill="#fff"/>
          <path id="Trazado_102268" data-name="Trazado 102268" d="M3894.892,2515.987c3.8,5.021,15.37,4.169,19.514,3.189s9.251-3.2,14.056-2.727,6.975-.616,7.409-3.338-1.252-6.058-.439-8.1a3.412,3.412,0,0,0-.366-3.411c-1.3.225-1.026,3.378-3.2,3.2-2.014-.168-5.243-2.707-6.234-4a2.641,2.641,0,0,1-.194-.285c-.656-1.155-.6-2.61-2.367-3.96s-3.165-.064-4.776,2.6-13.69,12.719-18.707,12.9a7.463,7.463,0,0,0-1.935.3h0A3.608,3.608,0,0,0,3894.892,2515.987Z" transform="translate(-3894.281 -2493.416)" fill="#302217"/>
          <path id="Trazado_102269" data-name="Trazado 102269" d="M3907.28,2512.361c4.7,2.671,13.883,1.863,13.914,1.282a29.261,29.261,0,0,1,1.621-5.7c.7-1.481,5.949-5.466,7.434-6.834s5.01-.315,5.01-.315a2.641,2.641,0,0,1-.194-.285c-.656-1.155-.6-2.61-2.367-3.96s-3.165-.064-4.776,2.6-13.69,12.719-18.707,12.9A7.468,7.468,0,0,0,3907.28,2512.361Z" transform="translate(-3903.912 -2493.416)" fill="#2b100f"/>
          <path id="Trazado_102270" data-name="Trazado 102270" d="M3993.1,2513.305l2.435,2.25a.453.453,0,0,0,.69-.1l.219-.306a.616.616,0,0,0-.059-.789l-2.435-2.25a.453.453,0,0,0-.69.1l-.218.306A.614.614,0,0,0,3993.1,2513.305Z" transform="translate(-3970.465 -2505.839)" fill="#fff"/>
          <path id="Trazado_102271" data-name="Trazado 102271" d="M3984.705,2521.085l2.435,2.25a.453.453,0,0,0,.69-.1l.218-.306a.615.615,0,0,0-.059-.789l-2.435-2.25a.453.453,0,0,0-.69.1l-.219.306A.615.615,0,0,0,3984.705,2521.085Z" transform="translate(-3963.944 -2511.885)" fill="#fff"/>
          <path id="Trazado_102272" data-name="Trazado 102272" d="M3975.831,2529.368l2.435,2.25a.453.453,0,0,0,.69-.1l.219-.306a.616.616,0,0,0-.059-.789l-2.435-2.25a.453.453,0,0,0-.691.1l-.218.306A.615.615,0,0,0,3975.831,2529.368Z" transform="translate(-3957.048 -2518.322)" fill="#fff"/>
        </g>
        <g id="Grupo_37754" data-name="Grupo 37754" transform="translate(106.239 338.34)">
          <path id="Trazado_102273" data-name="Trazado 102273" d="M4274.783,2494.847l.281,11.226s-1.2,4.206-4.75,2.808-5.416-6.47-7.336-7.263l.961-5.151Z" transform="translate(-4234.023 -2494.847)" fill="#d37b4f"/>
          <path id="Trazado_102274" data-name="Trazado 102274" d="M4173.931,2596.641s.364,3.744-2.238,4.146-8.408-.494-12.022,1.031-13.7,2.643-18.992,1.138-9.193-2.954-6.969-6l34.138-1.2Z" transform="translate(-4133.072 -2573.262)" fill="#fff"/>
          <path id="Trazado_102275" data-name="Trazado 102275" d="M4135.925,2533.1c3.71,5.085,15.3,4.43,19.457,3.521s9.3-3.04,14.1-2.487,6.984-.5,7.464-3.212-1.148-6.078-.3-8.106a3.411,3.411,0,0,0-.308-3.416c-1.3.2-1.083,3.36-3.257,3.142-2.011-.2-5.2-2.8-6.165-4.109a2.639,2.639,0,0,1-.189-.289c-.637-1.166-.552-2.619-2.3-4s-3.163-.118-4.82,2.522-13.9,12.483-18.924,12.583a7.447,7.447,0,0,0-1.94.271h0A3.607,3.607,0,0,0,4135.925,2533.1Z" transform="translate(-4135.287 -2509.402)" fill="#302217"/>
          <path id="Trazado_102276" data-name="Trazado 102276" d="M4148.582,2529.517c4.651,2.751,13.849,2.1,13.891,1.519a29.212,29.212,0,0,1,1.718-5.672c.723-1.469,6.041-5.363,7.549-6.706s5.015-.23,5.015-.23a2.8,2.8,0,0,1-.19-.289c-.636-1.166-.551-2.619-2.3-4s-3.163-.118-4.82,2.522-13.905,12.483-18.924,12.583A7.448,7.448,0,0,0,4148.582,2529.517Z" transform="translate(-4145.125 -2509.402)" fill="#2b100f"/>
          <path id="Trazado_102277" data-name="Trazado 102277" d="M4235.291,2530.54l2.4,2.292a.453.453,0,0,0,.692-.084l.224-.3a.616.616,0,0,0-.045-.79l-2.4-2.292a.453.453,0,0,0-.692.084l-.224.3A.614.614,0,0,0,4235.291,2530.54Z" transform="translate(-4212.377 -2521.573)" fill="#fff"/>
          <path id="Trazado_102278" data-name="Trazado 102278" d="M4226.768,2538.175l2.4,2.292a.453.453,0,0,0,.692-.084l.223-.3a.615.615,0,0,0-.045-.79l-2.4-2.292a.453.453,0,0,0-.692.084l-.224.3A.616.616,0,0,0,4226.768,2538.175Z" transform="translate(-4205.754 -2527.507)" fill="#fff"/>
          <path id="Trazado_102279" data-name="Trazado 102279" d="M4217.752,2546.306l2.4,2.292a.453.453,0,0,0,.692-.084l.224-.3a.615.615,0,0,0-.046-.79l-2.4-2.292a.453.453,0,0,0-.692.084l-.224.3A.616.616,0,0,0,4217.752,2546.306Z" transform="translate(-4198.749 -2533.825)" fill="#fff"/>
        </g>
        <g id="Grupo_37755" data-name="Grupo 37755" transform="translate(73.597 175.039)">
          <path id="Trazado_102280" data-name="Trazado 102280" d="M3991.66,1923.666l12.656.606,3.2.2c-.059-2.485,4.617-59.188,6.143-76.414.8-9.068,26.246-85.872,26.246-85.872h-42.2c-5.375,12.268-10.175,74.2-11,83.639S3991.66,1923.666,3991.66,1923.666Z" transform="translate(-3986.623 -1762.189)" fill="#2e2016"/>
          <path id="Trazado_102281" data-name="Trazado 102281" d="M4024.8,1783.171s3.317,2.881,6.372,5.306c0,0,2.881-.4,4.136-4.737,0,0-6.653-1.008-9.392-5.484Z" transform="translate(-4016.289 -1774.675)" fill="#edb69c"/>
        </g>
        <g id="Grupo_37756" data-name="Grupo 37756" transform="translate(107.918 172.098)">
          <path id="Trazado_102282" data-name="Trazado 102282" d="M4140.68,1760.878c.076,1.545.232,3.4.458,5.507.021.2.043.4.067.609,2.631,23.651,26.368,152.79,26.368,152.79h12.871c-.046-6.631,2.539-47.522,2.539-62.132,0-10.049,1.117-77.242.812-89.563a46.773,46.773,0,0,0-2.089-11.556c-.887-2.973-1.714-5.022-1.714-5.022s-5.092-1.043-11.61-1.784c-11.222-1.281-26.672-1.677-27.632,5.647A33.564,33.564,0,0,0,4140.68,1760.878Z" transform="translate(-4140.606 -1748.993)" fill="#2e2016"/>
        </g>
        <path id="Trazado_102283" data-name="Trazado 102283" d="M4018.45,1299.667c6.442,21.494,1.992,57.913.6,67.8-.229,1.634-.375,2.542-.375,2.542,16.337,16.7,64.622-2.361,64.622-2.361a19.8,19.8,0,0,1-.682-3.388c-.272-1.674-.628-4.154-1.081-7.822-.561-4.518-1.267-10.833-2.14-19.656-.006-.038-.008-.078-.013-.121-2.364-23.939,7.7-44.6,8.9-58.428.493-5.712-.526-10.256-4.556-13.391a59.648,59.648,0,0,0-15.7-8.615,53.894,53.894,0,0,0-29.322-2.418C4013.14,1258.871,4012,1278.149,4018.45,1299.667Z" transform="translate(-3935.187 -1191.294)" fill="#f2f3ff"/>
        <g id="Grupo_37757" data-name="Grupo 37757" transform="translate(95.643)">
          <path id="Trazado_102284" data-name="Trazado 102284" d="M4133.83,1193.408a4.185,4.185,0,0,0,.923,2.134,12.1,12.1,0,0,0,10.126,4.182c8.557-.588,13.365-6.542,12.721-8.038-.545-1.262-.045-11.333.31-17.32.153-2.6.278-4.435.278-4.435s-2.758.278-6.331.714c-6.6.8-16,2.142-15.934,3.259.038.7.041,1.46.013,2.271a113.857,113.857,0,0,1-1.527,12.653A36.817,36.817,0,0,0,4133.83,1193.408Z" transform="translate(-4123.063 -1126.9)" fill="#d37b4f"/>
          <path id="Trazado_102285" data-name="Trazado 102285" d="M4136.434,1188.827c5.244.135,12.5-1.606,19.5-9.435a53.384,53.384,0,0,0,4-5.026c.152-2.6.278-4.435.278-4.435s-2.758.278-6.331.714a8.331,8.331,0,0,1-.923,1.291c-1.592,1.806-4.124,2.682-6.83,3.78-1.94.788-5.017.786-8.168.458A113.626,113.626,0,0,1,4136.434,1188.827Z" transform="translate(-4125.088 -1126.9)" fill="#c46e45"/>
          <path id="Trazado_102286" data-name="Trazado 102286" d="M4094.665,1030.35c-1.538,3.012-3.232,16.088-3.464,21.6-.219,5.221,1.24,11.307,4.633,14.488,1.561,1.463,6.363,2.09,8.415,2.14a21.6,21.6,0,0,0,15.407-6.509c2.009-2.119,6.709-8.7,8.1-12.188,5.815-14.613-5.348-24.629-11.3-26.809C4111.173,1021.133,4103.155,1013.723,4094.665,1030.35Z" transform="translate(-4089.921 -1010.192)" fill="#d37b4f"/>
          <path id="Trazado_102287" data-name="Trazado 102287" d="M4116.063,998.909s-18.782,3.88-27.229-4.381c-2.678-2.619-5.5-12.533-.714-16.22,4.913-3.789,6.8,1.04,13.8,1.744,3.637.365,6.525-.541,9.056-.577,10.216-.142,10.287,6.792,12.792,10.262s4.3,5.809,4.459,9.963c.179,4.545-.279,16.574-12.884,26.649,0,0,1.022-7.27,2.992-7.209,2,.062,4.8-4.088,4.031-6.016-1.424-3.584-5.646,3.661-6.718,3.608S4119.833,1005.6,4116.063,998.909Z" transform="translate(-4085.533 -976.873)" fill="url(#linear-gradient-9)"/>
        </g>
        <g id="Grupo_37758" data-name="Grupo 37758" transform="translate(76.777 61.938)">
          <path id="Trazado_102288" data-name="Trazado 102288" d="M4140.606,1399.13s44.215,1.064,45.372,0c0,0-.663-9.687-1.452-22.58-.078-1.285-.157-2.6-.238-3.946-.333-5.559-.678-11.555-1-17.531-.865-16.166-1.536-32.2-1.273-39.088a21.723,21.723,0,0,1,.229-2.722c.007-.038.013-.076.022-.115s.013-.065.02-.1c3.153-14.01,6.679-24.545,5.01-30.879a20.22,20.22,0,0,0-.754-2.289c-3.461-8.633-12.925-12.772-23.835-16.022.047.031-.086.146.085.586.485,1.276-8.243,8.42-14.106,19.544-1.242,2.356-3.124,34.425-4.8,64.14-.537,9.541-1.053,18.839-1.516,26.834C4141.61,1388.154,4140.977,1397.8,4140.606,1399.13Z" transform="translate(-4109.465 -1261.831)" fill="#15579f"/>
          <path id="Trazado_102289" data-name="Trazado 102289" d="M4031.095,1254.758l-.088.81-.086.768a6.779,6.779,0,0,0-1.576,1.368c-1.475,1.613-4.4,7.351-6.085,13.781-.342,1.3-4.6,119.374-4.6,119.374l-17.763-3.743s4.2-60.046,4.192-60.1c-1.215-14.017-5.21-31.714-1.818-49.01a30.632,30.632,0,0,1,3.156-8.91,25.833,25.833,0,0,1,2.278-3.466,28.59,28.59,0,0,1,15.372-9.776A30.685,30.685,0,0,1,4031.095,1254.758Z" transform="translate(-4000.892 -1254.758)" fill="#15579f"/>
          <circle id="Elipse_1032" data-name="Elipse 1032" cx="2.224" cy="2.224" r="2.224" transform="translate(37.434 101.622) rotate(-13.283)" fill="#15579f" opacity="0.5"/>
        </g>
        <path id="Trazado_102290" data-name="Trazado 102290" d="M4334.223,1778.1l.034-.422C4334.145,1778.034,4334.127,1778.187,4334.223,1778.1Z" transform="translate(-4183.101 -1599.186)" fill="#202e6e"/>
        <path id="Trazado_102291" data-name="Trazado 102291" d="M4148.557,1517.74c13.43-4.135,30.541-12.4,32.367-13.415a43.1,43.1,0,0,0,8.548-6.477c-.865-16.166-1.536-32.2-1.273-39.088a11.9,11.9,0,0,1,.229-2.722c.007-.038.014-.076.022-.115s.014-.065.021-.1a16.26,16.26,0,0,0-4.272-2.884c-3.268-1.181-17.009-5.355-17.009-5.355s3.234,30.976-3.925,34.518c-2.612,1.291-7.737,4.828-13.192,8.8C4149.535,1500.447,4149.019,1509.745,4148.557,1517.74Z" transform="translate(-4038.866 -1342.67)" fill="#6353c2"/>
        <path id="Trazado_102292" data-name="Trazado 102292" d="M4232.557,1560.9a24.423,24.423,0,0,0-5.108,1.789c-4.29,2.112-6.446,2.657-8.087,2.019s-2.192-6.35-.292-8.342c2.121-2.223,5.017-.957,4.938-1.121s1.694-1.684,2.627-1.287a8.578,8.578,0,0,0,4.454-.188C4232.656,1553.359,4232.557,1560.9,4232.557,1560.9Z" transform="translate(-4092.729 -1425.172)" fill="#f8ab88"/>
        <g id="Grupo_37759" data-name="Grupo 37759" transform="translate(69.538 71.192)">
          <path id="Trazado_102293" data-name="Trazado 102293" d="M3993.528,1701.659s-15.775,3.52-17.877,4.169c-5.577,1.721-7.253,3.936-7.24,6.738s1.592,6.06,6.733,7.734,11.074-1.915,12.506-3.1,11.063-3.463,11.063-3.463Z" transform="translate(-3968.411 -1611.304)" fill="#d37b4f"/>
          <path id="Trazado_102294" data-name="Trazado 102294" d="M4128.311,1299.5a8.7,8.7,0,0,0-8.38-3.091c-2.458.415-5.01,1.786-7.658,4.87-4.24,4.94-9.3,16.9-5.5,41.353.538,3.459,2.233,19.479-.612,23.318-.644.868-3.449,1.681-5.292,2.682-9.993,5.424-29.176,15.866-31.63,17.873,0,0-.881,10.545,3.78,15.646,0,0,46.714-13.349,52.622-24.979,6.655-13.1,6.678-40.147,6.242-46.854C4131.291,1321.21,4135.694,1308.688,4128.311,1299.5Z" transform="translate(-4046.715 -1296.276)" fill="#15579f"/>
        </g>
        <path id="Trazado_102295" data-name="Trazado 102295" d="M4229.679,1569.464s1.053-.434,1.838-2.485c.892-2.33.835-7.152-1.009-7.146s-3.236,2.377-3.236,2.377Z" transform="translate(-4100.036 -1429.897)" fill="#f8ab88"/>
        <g id="Grupo_37760" data-name="Grupo 37760" transform="translate(97.014 29.841)">
          <path id="Trazado_102296" data-name="Trazado 102296" d="M4120.429,1119.518a12.159,12.159,0,0,1-2.246,4.535c-1.591,1.8-4.123,2.68-6.83,3.778-5.413,2.2-19.67-1.751-19.67-1.751s.723,12.168,2.533,13.2,14.757,5.851,26.937-7.776,8.2-20.753,8.2-20.753Z" transform="translate(-4091.683 -1110.755)" fill="#2e1603"/>
          <ellipse id="Elipse_1033" data-name="Elipse 1033" cx="6.12" cy="3.79" rx="6.12" ry="3.79" transform="translate(28.455 15.899) rotate(-70.748)" fill="#d37b4f"/>
        </g>
      </g>
      <g id="woman_2" data-name="woman 2" transform="translate(142.115 17.026)">
        <path id="Trazado_102297" data-name="Trazado 102297" d="M4533.474,1061.851c11.042,4.218,22.771,16.592,19.987,35.844-3.223,22.286,9.527,28.207,13.7,47.707,2.266,10.584-2.083,27.154-13.417,31.882-13.029,5.436-13.484-2.128-18.323-14.336-5.935-14.973-14.448-33.337-16.856-49C4515.7,1095.3,4522.09,1076.848,4533.474,1061.851Z" transform="translate(-4467.99 -1059.936)" fill="#471b19"/>
        <path id="Trazado_102298" data-name="Trazado 102298" d="M4344.166,1360.452c6.313-2.67,12.431-5.839,16.975-9.563a22.232,22.232,0,0,0,4.545-5.341c.53-.833,1.029-1.7,1.5-2.6a68.54,68.54,0,0,0,3.072-6.807,93.5,93.5,0,0,0,4.3-14.405c1.161-6.457,2.295-13.325.251-19.645-.337-.072,4.96-5.479,2.049-4.794-3.079.728-8,2.092-11.179,6.141-6.484,8.267-7.176,28.554-12,38.088-1.479,2.913-4.582,5.554-8.351,7.881C4345.082,1352.989,4344.712,1356.76,4344.166,1360.452Z" transform="translate(-4332.992 -1242.86)" fill="#f8ab88"/>
        <g id="Grupo_37761" data-name="Grupo 37761" transform="translate(52.387 148.348)">
          <path id="Trazado_102299" data-name="Trazado 102299" d="M4562.122,1902.918v.018a.076.076,0,0,1,0,.023c-.008.063-.016.128-.021.188-.01.084-.023.193-.036.321-.034.295-.065.582-.1.859-.023.219-.047.431-.073.637-.028.253-.279,2.141-.281,2.155a6.291,6.291,0,0,1-1.4,2.783l-7.829-.258s-.035-.326-.1-.935c-.76-7.129-5.817-53.126-11.407-71.5-6.066-19.94-4.061-18.8-4.353-24.808-.026-.532-.124-1.454-.281-2.707-.648-5.2-2.293-16.139-3.84-28.677-2.291-18.51-4.372-40.512-2.745-52.731.527-3.958,2.371-6.392,4.89-7.8,7.134-3.989,19.7.28,23.271,1.666.616.237.964.388.969.4a59.363,59.363,0,0,1,2.624,7,107.026,107.026,0,0,1,3.15,12.173c2.078,10.7-2.821,40.612-3.05,47.556-.161,4.871-2.817,10.57-3.681,16.76a22.815,22.815,0,0,0,.2,8.14c2.041,9.331,6.8,15.107,7.413,25.46C4566.09,1850.745,4563.642,1889.373,4562.122,1902.918Z" transform="translate(-4529.07 -1718.83)" fill="#f8ab88"/>
        </g>
        <g id="Grupo_37762" data-name="Grupo 37762" transform="translate(25.395 146.21)">
          <path id="Trazado_102300" data-name="Trazado 102300" d="M4438.287,1773.567c-.143.332-.282.659-.413.98-1.162,2.782-2.078,5.026-2.56,6.419-2.193,6.342-6.6,12.668-6.515,21.563,0,.373.013.755.032,1.137.5,9.5,5.008,20.5,3.926,30.817a186.954,186.954,0,0,1-3.558,18.476c-4.746,20.738-12.386,48.52-12.386,48.52l-8.843.007s1.232-27.8,1.35-52.936v0c.063-13.6,1.551-25.595.589-32.81-.036-.263.261-3.91.227-4.167-.068-8.824-1-11.179-.872-20.344,0,0-.227-5.074-.227-5.076.982-12.527,2.744-54.282,7.011-69.323,3.278-11.557,16.553-7.413,24.381-3.787a58.234,58.234,0,0,1,5.856,3.1,36.474,36.474,0,0,1,6.587,19.11C4453.112,1743.733,4443.2,1762.086,4438.287,1773.567Z" transform="translate(-4407.97 -1709.238)" fill="#f8ab88"/>
        </g>
        <g id="Grupo_37763" data-name="Grupo 37763" transform="translate(28.84 56.178)">
          <path id="Trazado_102301" data-name="Trazado 102301" d="M4424.882,1342.062c.379,1.364,1.535,6.406,2.4,9.752.529-.833,1.028-1.7,1.5-2.6.429-4.559.555-9.967,1.229-12.161a17.4,17.4,0,0,1,2.142-4.052c1-5.7,1.608-10.715,1.784-11.36.782-2.872-.013-16.341-.013-16.341s-.735.357-1.972,1.031c-.115.061-.231.124-.353.191a.408.408,0,0,0-.049.043,9.267,9.267,0,0,0-.712.712c-5.167,5.887-6.176,12.784-7.362,23.281C4423.143,1333.47,4424.595,1341.027,4424.882,1342.062Z" transform="translate(-4423.422 -1305.304)" fill="#f89575"/>
        </g>
        <g id="Grupo_37765" data-name="Grupo 37765" transform="translate(25.595 54.054)">
          <g id="Grupo_37764" data-name="Grupo 37764">
            <path id="Trazado_102302" data-name="Trazado 102302" d="M4471.747,1530.32c-22.056,5.219-29.587,2.707-41.851,1.332-12.9-1.446-19.879-4.41-19.879-4.41v0c-.795-9.231-1.15-61.7-1.15-61.7.3-21.12.165-40.981.011-53.429a83.463,83.463,0,0,1,3.84-26.071l8.84-28.107s-9.164-24.536-8.263-33.413,2.076-19.812,7.243-25.7a4.838,4.838,0,0,1,3.677-1.859,1.175,1.175,0,0,1,.1.135c6.11-2.5,14.553-.682,14.553-.682,7.979-.2,14,.623,18.349,3.344a.019.019,0,0,1,.007,0c12.791,8.008,11.955,25.448,9.416,33.5-.642,2.028-2.494,2.212-3.144,5.764-2.805,15.348-2.771,18.412-2.771,18.412,2.414,6.424,6.719,20.862,9.752,31.294a83.475,83.475,0,0,1,3.314,24.139C4473.474,1445.09,4472.549,1530.13,4471.747,1530.32Z" transform="translate(-4408.867 -1295.774)" fill="#d268cc"/>
          </g>
        </g>
        <g id="Grupo_37769" data-name="Grupo 37769" transform="translate(40.768 156.074)">
          <path id="Trazado_102303" data-name="Trazado 102303" d="M4476.94,1829.761s7.217,2.665,8.021,3.058a40.257,40.257,0,0,0,4.763.718c1.109.137,2.356.284,3.678.436h.01c4.357.5,9.542,1.074,13.367,1.544,7.734.952,13.033.3,13.793-.377s6.826-6.49,6.826-6.49a82.992,82.992,0,0,0-11.878-1.207c-1.177-.054-2.441-.1-3.79-.124l-.38-.008q-1.707-.031-3.591-.023c-1.164,0-12.31.452-13.685.554-.865.066-1.75.136-2.65.215l-1.092.095c-.865.08-1.742.165-2.636.26Q4482.626,1828.931,4476.94,1829.761Z" transform="translate(-4476.94 -1810.84)" fill="#e69e12"/>
          <path id="Trazado_102304" data-name="Trazado 102304" d="M4483.47,1898.314l-1.844-1.178-4.686-58.758,1.387.144,7.6,24.029,1.786,23.284Z" transform="translate(-4476.939 -1819.459)" fill="#e69e12"/>
          <g id="Grupo_37767" data-name="Grupo 37767" transform="translate(1.387 17.849)">
            <path id="Trazado_102305" data-name="Trazado 102305" d="M4532.291,1833.573a210.2,210.2,0,0,1-49.128,1.215q2.572,29.9,5.144,59.792a73.772,73.772,0,0,0,47.369-3.667Q4533.984,1862.244,4532.291,1833.573Z" transform="translate(-4483.163 -1833.573)" fill="#ffc34f"/>
            <path id="Trazado_102306" data-name="Trazado 102306" d="M4567.795,1948.042c.77-2.87-2.382-5.828-4.147-6.981-3.756-2.454-7.916-1.106-8.856-.773a22.257,22.257,0,0,0,2.438,5.216c1.617,2.53,3.713,5.81,6.548,5.679A4.554,4.554,0,0,0,4567.795,1948.042Z" transform="translate(-4538.826 -1915.983)" fill="#fff"/>
            <path id="Trazado_102307" data-name="Trazado 102307" d="M4629.641,1939.69c.2,4.247-1.133,7.461-3,7.973a3.023,3.023,0,0,1-2.837-.769,3.568,3.568,0,0,1-.9-2.684C4623.094,1942.115,4625.8,1940.217,4629.641,1939.69Z" transform="translate(-4591.748 -1916.038)" fill="#fff"/>
            <path id="Trazado_102308" data-name="Trazado 102308" d="M4621.39,1964.85a10,10,0,0,1-1.682,3.763,9.177,9.177,0,0,1-1.608,1.7l-.222-.14s2.656-3.276,3.017-5.407S4621.39,1964.85,4621.39,1964.85Z" transform="translate(-4587.853 -1934.804)" fill="#fff"/>
            <g id="Grupo_37766" data-name="Grupo 37766" transform="translate(26.678 32.037)">
              <path id="Trazado_102309" data-name="Trazado 102309" d="M4608.441,1986.869h.021a.478.478,0,0,0,.409-.531,12.228,12.228,0,0,0-1.713-5.281,11.162,11.162,0,0,0-3.626-3.683.434.434,0,0,0-.618.181.516.516,0,0,0,.172.67,10.19,10.19,0,0,1,3.316,3.368,11.207,11.207,0,0,1,1.566,4.829A.471.471,0,0,0,4608.441,1986.869Z" transform="translate(-4602.856 -1977.308)" fill="#fff"/>
            </g>
          </g>
          <path id="Trazado_102310" data-name="Trazado 102310" d="M4536.933,1776.5l3.264.1h.009c.5.014,1,.031,1.495.045a26.094,26.094,0,0,1-.991-7.406c.006-.44.02-.881.049-1.313a17.636,17.636,0,0,1,2.674-8.842,8.179,8.179,0,0,1,2.554-2.43,5.168,5.168,0,0,1,2.8-.743,4.6,4.6,0,0,1,1.652.37,5.817,5.817,0,0,1,1.611,1.037,9.64,9.64,0,0,1,1.929,2.482,15.353,15.353,0,0,1,.933,1.995,23.142,23.142,0,0,1,1.436,7.055,26.591,26.591,0,0,1-.343,5.92c-.044.249-.09.5-.141.739q-.054.267-.115.535,1.985.44,3.973.878a33.968,33.968,0,0,0-.014-7.871,24.7,24.7,0,0,0-3.909-11.193,9.5,9.5,0,0,0-6.128-4.27,6.956,6.956,0,0,0-3.224.228,6.042,6.042,0,0,0-.744.276,7.254,7.254,0,0,0-.866.455,8.815,8.815,0,0,0-1.377,1.04,12.057,12.057,0,0,0-1.519,1.672,22.3,22.3,0,0,0-3.351,6.916c-.314,1.029-.589,2.111-.818,3.246-.143.694-.268,1.409-.374,2.141a44.516,44.516,0,0,0-.456,5.545c-.006.306-.011.611-.011.92C4536.93,1776.184,4536.933,1776.341,4536.933,1776.5Z" transform="translate(-4523.56 -1753.494)" fill="#ffc34f"/>
          <g id="Grupo_37768" data-name="Grupo 37768" transform="translate(13.68 31.188)">
            <path id="Trazado_102311" data-name="Trazado 102311" d="M4554.511,1928.259a15.443,15.443,0,0,1-10.946-4.63,18.055,18.055,0,0,1-5.232-12.1h0c-.411-9.6,6.471-17.714,15.341-18.093a15.4,15.4,0,0,1,11.6,4.616,18.053,18.053,0,0,1,5.232,12.1c.411,9.6-6.471,17.714-15.341,18.093C4554.946,1928.254,4554.728,1928.259,4554.511,1928.259Zm-15.733-16.749a17.611,17.611,0,0,0,5.1,11.8,14.965,14.965,0,0,0,11.266,4.488c8.624-.369,15.315-8.277,14.915-17.629a17.613,17.613,0,0,0-5.1-11.8,14.97,14.97,0,0,0-11.267-4.487c-8.624.369-15.315,8.277-14.915,17.628Z" transform="translate(-4538.314 -1893.422)" fill="#fff"/>
          </g>
        </g>
        <g id="Grupo_37770" data-name="Grupo 37770" transform="translate(60.123 59.678)">
          <path id="Trazado_102312" data-name="Trazado 102312" d="M4604.522,1321.354s-6.29-2.478-7.132,5.876,10.556,35.9,11.347,41.62-11.44,37.045-13.178,40.875,5.968,8.974,6.991,6.206c1.2-3.252,16.848-38.434,18.313-44.861S4616.387,1329.745,4604.522,1321.354Z" transform="translate(-4588.277 -1321.01)" fill="#f8ab88"/>
          <path id="Trazado_102313" data-name="Trazado 102313" d="M4578.966,1722.679a28.176,28.176,0,0,0-2.1,6.149,10.8,10.8,0,0,1-5.534,7.329c-1.961.9-7.186-.618-7.5-3.725a9.527,9.527,0,0,1,1.137-5.822c2.559-5.2,5.229-5.981,5.994-7.67S4578.966,1722.679,4578.966,1722.679Z" transform="translate(-4563.776 -1629.992)" fill="#f8ab88"/>
        </g>
        <g id="Grupo_37771" data-name="Grupo 37771" transform="translate(35.079)">
          <path id="Trazado_102314" data-name="Trazado 102314" d="M4498.515,1251.166c0,.009-2.182,3.652-2.182,3.652-.653,1.08-4.343,9.929-18.113,8.831-16.953-1.354-8.833-13.046-8.547-13.278,0,0,.091-.142.091-.142a24.088,24.088,0,0,1,7.218-1.435c.11-.544.223-1.116.331-1.7.182-.975.357-1.983.512-2.933.327-1.967.577-3.686.658-4.366.227-1.877,11.47-4.155,11.47-4.155s.292,1.483.672,3.549c.074.418.155.86.237,1.318.526,2.92,1.13,6.5,1.377,8.844C4496.4,1250.007,4498.923,1251.09,4498.515,1251.166Z" transform="translate(-4463.9 -1194.988)" fill="#f8ab88"/>
          <path id="Trazado_102315" data-name="Trazado 102315" d="M4526.688,1239.187a21.672,21.672,0,0,1-12.8,4.972c.328-1.967.578-3.686.658-4.366.227-1.877,11.47-4.155,11.47-4.155S4526.308,1237.12,4526.688,1239.187Z" transform="translate(-4499.964 -1194.988)" fill="#eb9a75"/>
          <path id="Trazado_102316" data-name="Trazado 102316" d="M4458.391,1063.482a22.366,22.366,0,0,0-3.819,5.848,47.633,47.633,0,0,0-2.383,8.031c-1.9,8.219-.453,22.872,6.048,24.928,6.472,2.046,16.383,1.132,25.37-10.776,10.34-13.7,6.841-25.41,1.677-29.537C4480.7,1058.311,4471.83,1048.338,4458.391,1063.482Z" transform="translate(-4451.416 -1054.887)" fill="#f8ab88"/>
          <path id="Trazado_102317" data-name="Trazado 102317" d="M4462.97,1063.773c-2.747,1.637-3.226,2.917-5.468,9.492,0,0,1.052-10.729,7.976-17.3,3.407-3.231,9.172-3.052,15.872-2.107,20.313,2.863,22.9,26.569,3.7,40.033,0,0-.37-7.315,2.206-10.265s4.194-1.845,1.563-3.4c-2.479-1.468-5.088,2.019-5.088,2.019a10.82,10.82,0,0,1-7.729-6.091c-1.544-3.312-1.68-7.391-3.229-9.994-1.319-2.218-2.134-3.3-4.828-3.921A9.173,9.173,0,0,0,4462.97,1063.773Z" transform="translate(-4456.146 -1053.261)" fill="#471b19"/>
          <ellipse id="Elipse_1034" data-name="Elipse 1034" cx="5.322" cy="3.523" rx="5.322" ry="3.523" transform="matrix(0.545, -0.838, 0.838, 0.545, 24.878, 32.708)" fill="#f8ab88"/>
          <path id="Trazado_102318" data-name="Trazado 102318" d="M4578.712,1204.109a1.648,1.648,0,1,1-1.075-2.068A1.648,1.648,0,0,1,4578.712,1204.109Z" transform="translate(-4547.837 -1168.82)" fill="#fff"/>
        </g>
        <path id="Trazado_102319" data-name="Trazado 102319" d="M4576.186,1211.871l-1.441,9.728s3.816.282,3.816,0-1.557-10.7-1.557-10.7Z" transform="translate(-4512.177 -1175.766)" fill="#fff"/>
        <g id="Grupo_37772" data-name="Grupo 37772" transform="translate(48.136 73.881)">
          <path id="Trazado_102320" data-name="Trazado 102320" d="M4513.048,1386.255a1.526,1.526,0,1,1-1.525-1.526A1.525,1.525,0,0,1,4513.048,1386.255Z" transform="translate(-4509.997 -1384.729)" fill="#fff"/>
          <path id="Trazado_102321" data-name="Trazado 102321" d="M4513.048,1439.909a1.526,1.526,0,1,1-1.525-1.526A1.525,1.525,0,0,1,4513.048,1439.909Z" transform="translate(-4509.997 -1426.424)" fill="#fff"/>
          <path id="Trazado_102322" data-name="Trazado 102322" d="M4513.048,1493.562a1.526,1.526,0,1,1-1.525-1.526A1.525,1.525,0,0,1,4513.048,1493.562Z" transform="translate(-4509.997 -1468.118)" fill="#fff"/>
          <path id="Trazado_102323" data-name="Trazado 102323" d="M4513.048,1547.216a1.526,1.526,0,1,1-1.525-1.526A1.525,1.525,0,0,1,4513.048,1547.216Z" transform="translate(-4509.997 -1509.813)" fill="#fff"/>
          <path id="Trazado_102324" data-name="Trazado 102324" d="M4513.048,1600.869a1.526,1.526,0,1,1-1.525-1.526A1.525,1.525,0,0,1,4513.048,1600.869Z" transform="translate(-4509.997 -1551.508)" fill="#fff"/>
        </g>
        <g id="Grupo_37775" data-name="Grupo 37775" transform="translate(0 331.624)">
          <g id="Grupo_37773" data-name="Grupo 37773" transform="translate(0 0)">
            <path id="Trazado_102325" data-name="Trazado 102325" d="M4327.084,2545.888c-1.824,1.668-9.195,3.116-17.206,6.078s-5.837,7.209-5.837,7.209h26.293c3.521,0,6.595.341,5.678-5.711a30.749,30.749,0,0,1,.256-7.456c.717-5.042-2.015-4.905-2.015-4.905Z" transform="translate(-4301.602 -2541.104)" fill="#f8ab88"/>
            <path id="Trazado_102326" data-name="Trazado 102326" d="M4294.262,2611.34c3.74.166,32.1-.011,34.88-.029a.2.2,0,0,1,.219.189v2.728a.206.206,0,0,1-.219.189h-33.288a.225.225,0,0,1-.195-.1l-1.6-2.7C4293.98,2611.486,4294.094,2611.333,4294.262,2611.34Z" transform="translate(-4294.033 -2595.662)" fill="#2b100f"/>
            <path id="Trazado_102327" data-name="Trazado 102327" d="M4324.794,2582.693l2.912,4.3h11.73l-6.6-7.1S4327.372,2580.8,4324.794,2582.693Z" transform="translate(-4317.938 -2571.245)" fill="#2b100f"/>
          </g>
          <g id="Grupo_37774" data-name="Grupo 37774" transform="translate(50.274 0)">
            <path id="Trazado_102328" data-name="Trazado 102328" d="M4552.64,2545.888c-1.824,1.668-9.194,3.116-17.205,6.078s-5.837,7.209-5.837,7.209h26.293c3.521,0,6.6.341,5.679-5.711a30.749,30.749,0,0,1,.256-7.456c.717-5.042-2.015-4.905-2.015-4.905Z" transform="translate(-4527.157 -2541.104)" fill="#f8ab88"/>
            <path id="Trazado_102329" data-name="Trazado 102329" d="M4519.817,2611.34c3.739.166,32.1-.011,34.88-.029a.2.2,0,0,1,.219.189v2.728a.206.206,0,0,1-.219.189H4521.41a.225.225,0,0,1-.195-.1l-1.6-2.7C4519.536,2611.486,4519.649,2611.333,4519.817,2611.34Z" transform="translate(-4519.588 -2595.662)" fill="#2b100f"/>
            <path id="Trazado_102330" data-name="Trazado 102330" d="M4550.35,2582.693l2.912,4.3h11.73l-6.6-7.1S4552.927,2580.8,4550.35,2582.693Z" transform="translate(-4543.494 -2571.245)" fill="#2b100f"/>
          </g>
        </g>
      </g>
    </g>
  </g>
</svg>
