<svg xmlns="http://www.w3.org/2000/svg" width="231" height="62" viewBox="0 0 231 62">
  <g id="Grupo_42559" data-name="Grupo 42559" transform="translate(-710 -6422)">
    <g id="Grupo_42167" data-name="Grupo 42167" transform="translate(125.5 42)">
      <g id="Rectángulo_32160" data-name="Rectángulo 32160" transform="translate(584.5 6380)" fill="#fff" stroke="#15579f" stroke-width="3">
        <rect width="231" height="62" rx="15" stroke="none"/>
        <rect x="1.5" y="1.5" width="228" height="59" rx="13.5" fill="none"/>
      </g>
      <path id="Trazado_110695" data-name="Trazado 110695" d="M4,3.295V11.75H6.5A2.7,2.7,0,0,0,9.167,9.86a6.665,6.665,0,0,0,.413-2.47,6.08,6.08,0,0,0-.62-3.037A2.616,2.616,0,0,0,6.5,3.295Zm2.953-2.25a6.809,6.809,0,0,1,2,.281A4.277,4.277,0,0,1,11.162,2.97a5.765,5.765,0,0,1,.923,2.092,10.042,10.042,0,0,1,.246,2.145,8.611,8.611,0,0,1-1.037,4.377A4.68,4.68,0,0,1,6.952,14H1.371V1.045Zm17,2.294H17.095V6.09h6.293V8.34H17.095v3.331h7.172V14H14.449V1.045h9.5ZM28.336,10a2.66,2.66,0,0,0,.483,1.327,2.781,2.781,0,0,0,2.259.8,4.767,4.767,0,0,0,1.556-.211,1.5,1.5,0,0,0,1.134-1.5,1.109,1.109,0,0,0-.562-.993,6.049,6.049,0,0,0-1.767-.606l-1.371-.308a8.664,8.664,0,0,1-2.795-.993,3.159,3.159,0,0,1-1.31-2.8,3.744,3.744,0,0,1,1.266-2.892A5.351,5.351,0,0,1,30.946.667,5.653,5.653,0,0,1,34.44,1.752,3.876,3.876,0,0,1,35.956,4.9h-2.6a1.858,1.858,0,0,0-1.02-1.661,3.419,3.419,0,0,0-1.573-.325,2.937,2.937,0,0,0-1.67.422,1.343,1.343,0,0,0-.624,1.178,1.115,1.115,0,0,0,.615,1.037,7.531,7.531,0,0,0,1.688.536L33,6.626a5.772,5.772,0,0,1,2.215.94,3.168,3.168,0,0,1,1.16,2.646,3.734,3.734,0,0,1-1.358,2.949,5.689,5.689,0,0,1-3.836,1.173A6.223,6.223,0,0,1,27.2,13.178,3.841,3.841,0,0,1,25.752,10ZM45.967,1.045h2.813L44.358,14H41.8L37.424,1.045h2.892l2.813,9.835Zm14,2.294H53.112V6.09h6.293V8.34H53.112v3.331h7.172V14H50.467V1.045h9.5ZM62.35,1.045h2.839l5.159,9.044V1.045H72.87V14H70.163L64.872,4.8V14H62.35Zm22.456,0V3.339H80.93V14H78.205V3.339H74.312V1.045ZM88.6,9.1H91.89l-1.617-5.1Zm.167-8.06h3.059L96.416,14H93.48l-.835-2.663H87.873L86.977,14h-2.83ZM99.642,9.087v.3a5.642,5.642,0,0,0,.33,2.114,1.569,1.569,0,0,0,2.527-.057,3.439,3.439,0,0,0,.185-1.336V1.045h2.707v9.018a5.139,5.139,0,0,1-.571,2.619,3.71,3.71,0,0,1-3.489,1.635q-2.522,0-3.384-1.323a6.554,6.554,0,0,1-.861-3.608v-.3Zm11.971.018H114.9l-1.617-5.1Zm.167-8.06h3.059L119.426,14H116.49l-.835-2.663h-4.772l-.9,2.663h-2.83ZM123.029,10a2.66,2.66,0,0,0,.483,1.327,2.781,2.781,0,0,0,2.259.8,4.767,4.767,0,0,0,1.556-.211,1.5,1.5,0,0,0,1.134-1.5,1.109,1.109,0,0,0-.562-.993,6.049,6.049,0,0,0-1.767-.606l-1.371-.308a8.664,8.664,0,0,1-2.795-.993,3.159,3.159,0,0,1-1.31-2.8,3.744,3.744,0,0,1,1.266-2.892A5.351,5.351,0,0,1,125.64.667a5.653,5.653,0,0,1,3.494,1.085A3.876,3.876,0,0,1,130.649,4.9h-2.6a1.858,1.858,0,0,0-1.02-1.661,3.419,3.419,0,0,0-1.573-.325,2.937,2.937,0,0,0-1.67.422,1.343,1.343,0,0,0-.624,1.178,1.115,1.115,0,0,0,.615,1.037,7.531,7.531,0,0,0,1.688.536l2.232.536a5.772,5.772,0,0,1,2.215.94,3.168,3.168,0,0,1,1.16,2.646,3.734,3.734,0,0,1-1.358,2.949,5.689,5.689,0,0,1-3.836,1.173,6.223,6.223,0,0,1-3.981-1.156A3.841,3.841,0,0,1,120.445,10Z" transform="translate(632 6400.5)" fill="#15579f"/>
    </g>
  </g>
</svg>
