<svg xmlns="http://www.w3.org/2000/svg" width="231" height="62" viewBox="0 0 231 62">
  <g id="Grupo_42558" data-name="Grupo 42558" transform="translate(-252 -6415)">
    <g id="Grupo_42168" data-name="Grupo 42168" transform="translate(0 35)">
      <g id="Rectángulo_32159" data-name="Rectángulo 32159" transform="translate(252 6380)" fill="#fff" stroke="#15579f" stroke-width="3">
        <rect width="231" height="62" rx="15" stroke="none"/>
        <rect x="1.5" y="1.5" width="228" height="59" rx="13.5" fill="none"/>
      </g>
      <path id="Trazado_110694" data-name="Trazado 110694" d="M8.956,1.045h2.813L7.348,14H4.79L.413,1.045H3.3L6.117,10.88Zm14,2.294H16.1V6.09h6.293V8.34H16.1v3.331h7.172V14H13.456V1.045h9.5Zm2.382-2.294h2.839l5.159,9.044V1.045h2.522V14H33.152L27.861,4.8V14H25.339Zm22.456,0V3.339H43.919V14H41.194V3.339H37.3V1.045Zm3.8,8.06h3.287l-1.617-5.1Zm.167-8.06h3.059L59.405,14H56.47l-.835-2.663H50.862L49.966,14h-2.83ZM62.631,9.087v.3a5.642,5.642,0,0,0,.33,2.114,1.569,1.569,0,0,0,2.527-.057,3.439,3.439,0,0,0,.185-1.336V1.045h2.707v9.018a5.139,5.139,0,0,1-.571,2.619,3.71,3.71,0,0,1-3.489,1.635q-2.522,0-3.384-1.323a6.554,6.554,0,0,1-.861-3.608v-.3ZM74.6,9.1h3.287l-1.617-5.1Zm.167-8.06h3.059L82.415,14H79.479l-.835-2.663H73.872L72.976,14h-2.83ZM86.019,10a2.66,2.66,0,0,0,.483,1.327,2.781,2.781,0,0,0,2.259.8,4.767,4.767,0,0,0,1.556-.211,1.5,1.5,0,0,0,1.134-1.5,1.109,1.109,0,0,0-.562-.993,6.049,6.049,0,0,0-1.767-.606L87.75,8.507a8.664,8.664,0,0,1-2.795-.993,3.159,3.159,0,0,1-1.31-2.8,3.744,3.744,0,0,1,1.266-2.892A5.351,5.351,0,0,1,88.629.667a5.653,5.653,0,0,1,3.494,1.085A3.876,3.876,0,0,1,93.639,4.9h-2.6a1.858,1.858,0,0,0-1.02-1.661,3.419,3.419,0,0,0-1.573-.325,2.937,2.937,0,0,0-1.67.422,1.343,1.343,0,0,0-.624,1.178,1.115,1.115,0,0,0,.615,1.037,7.531,7.531,0,0,0,1.688.536l2.232.536a5.772,5.772,0,0,1,2.215.94,3.168,3.168,0,0,1,1.16,2.646A3.734,3.734,0,0,1,92.7,13.161a5.689,5.689,0,0,1-3.836,1.173,6.223,6.223,0,0,1-3.981-1.156A3.841,3.841,0,0,1,83.435,10Z" transform="translate(318 6400.5)" fill="#15579f"/>
    </g>
  </g>
</svg>
