<svg xmlns="http://www.w3.org/2000/svg" width="380" height="203.481" viewBox="0 0 380 203.481">
  <g id="Grupo_42552" data-name="Grupo 42552" transform="translate(-345.002 -157.53)">
    <path id="Trazado_110562" data-name="Trazado 110562" d="M802.783,289.8c-14.943-12.747-32.958-89.619-94.672-49.582-31.885,20.686-85.65-17.758-130.151-4.48-40.869,12.195-44.809,52.373-40.854,65.465,7.988,26.446-16.87,30.381-39.93,41.744-36.171,17.823-9.573,80.46,24.6,80.76s241.19-.6,241.19-.6,49.641.126,70.285-27.273C855.463,366.356,841.381,322.727,802.783,289.8Z" transform="translate(-118.809 -62.758)" fill="#ebf2f9"/>
    <g id="Grupo_42544" data-name="Grupo 42544" transform="translate(381.08 157.53)">
      <g id="Grupo_42528" data-name="Grupo 42528" transform="translate(237.256 22.218)">
        <rect id="Rectángulo_32165" data-name="Rectángulo 32165" width="85.075" height="142.94" transform="translate(87.742 142.94) rotate(180)" fill="#aed3ff"/>
        <rect id="Rectángulo_32166" data-name="Rectángulo 32166" width="85.075" height="142.94" fill="#d2e4ff"/>
        <rect id="Rectángulo_32167" data-name="Rectángulo 32167" width="73.69" height="49.788" transform="translate(5.794 7.985)" fill="#f3f9ff"/>
        <rect id="Rectángulo_32168" data-name="Rectángulo 32168" width="39.549" height="26.583" transform="translate(38.664 104.495)" fill="#f3f9ff"/>
        <path id="Trazado_110563" data-name="Trazado 110563" d="M2713.473,623.263s12.582-1.568,20.27,5.515,22.011.627,27.778,0c10.026-1.091,17.887,2.189,20.218,5.795V645.39h-68.266Z" transform="translate(-2704.64 -589.866)" fill="#ee9849"/>
        <rect id="Rectángulo_32169" data-name="Rectángulo 32169" width="0.527" height="16.891" transform="translate(18.584 15.988)" fill="#a6c7f9"/>
        <rect id="Rectángulo_32170" data-name="Rectángulo 32170" width="0.527" height="16.891" transform="translate(39.275 23.236)" fill="#a6c7f9"/>
        <rect id="Rectángulo_32171" data-name="Rectángulo 32171" width="0.527" height="16.891" transform="translate(60.624 19.414)" fill="#a6c7f9"/>
        <path id="Trazado_110564" data-name="Trazado 110564" d="M2816.037,493.486H2812a.441.441,0,0,1-.439-.439h0a.441.441,0,0,1,.439-.439h4.042a.44.44,0,0,1,.439.439h0A.44.44,0,0,1,2816.037,493.486Z" transform="translate(-2791.038 -474.907)" fill="#a6c7f9"/>
        <path id="Trazado_110565" data-name="Trazado 110565" d="M2816.037,506.761H2812a.441.441,0,0,1-.439-.439h0a.441.441,0,0,1,.439-.439h4.042a.44.44,0,0,1,.439.439h0A.44.44,0,0,1,2816.037,506.761Z" transform="translate(-2791.038 -486.6)" fill="#a6c7f9"/>
        <path id="Trazado_110566" data-name="Trazado 110566" d="M2987.129,565.758h-4.042a.441.441,0,0,1-.439-.439h0a.441.441,0,0,1,.439-.439h4.042a.44.44,0,0,1,.439.439h0A.44.44,0,0,1,2987.129,565.758Z" transform="translate(-2941.748 -538.569)" fill="#a6c7f9"/>
        <path id="Trazado_110567" data-name="Trazado 110567" d="M2987.129,578.76h-4.042a.441.441,0,0,1-.439-.439h0a.441.441,0,0,1,.439-.439h4.042a.44.44,0,0,1,.439.439h0A.44.44,0,0,1,2987.129,578.76Z" transform="translate(-2941.748 -550.021)" fill="#a6c7f9"/>
        <path id="Trazado_110568" data-name="Trazado 110568" d="M3169.285,512.292h-4.042a.44.44,0,0,1-.439-.439h0a.44.44,0,0,1,.439-.439h4.042a.441.441,0,0,1,.439.439h0A.44.44,0,0,1,3169.285,512.292Z" transform="translate(-3102.203 -491.472)" fill="#a6c7f9"/>
        <path id="Trazado_110569" data-name="Trazado 110569" d="M3169.285,525.293h-4.042a.44.44,0,0,1-.439-.439h0a.44.44,0,0,1,.439-.439h4.042a.44.44,0,0,1,.439.439h0A.44.44,0,0,1,3169.285,525.293Z" transform="translate(-3102.203 -502.925)" fill="#a6c7f9"/>
        <g id="Grupo_42522" data-name="Grupo 42522" transform="translate(64.931 63.233)">
          <path id="Trazado_110570" data-name="Trazado 110570" d="M3184.363,882.073a7.276,7.276,0,1,1,7.276,7.276A7.276,7.276,0,0,1,3184.363,882.073Z" transform="translate(-3184.363 -874.797)" fill="#f3f9ff"/>
          <path id="Trazado_110571" data-name="Trazado 110571" d="M3218.814,886.633a6.659,6.659,0,0,1-11.161,4.907l4.5-4.907v-6.659A6.659,6.659,0,0,1,3218.814,886.633Z" transform="translate(-3204.878 -879.357)" fill="#c65447"/>
          <path id="Trazado_110572" data-name="Trazado 110572" d="M3204.987,923.061H3202.6a.2.2,0,0,1-.2-.2h0a.2.2,0,0,1,.2-.2h2.391a.2.2,0,0,1,.2.2h0A.2.2,0,0,1,3204.987,923.061Z" transform="translate(-3200.247 -916.958)" fill="#a6c7f9"/>
        </g>
        <g id="Grupo_42523" data-name="Grupo 42523" transform="translate(46.867 63.233)">
          <circle id="Elipse_1057" data-name="Elipse 1057" cx="7.276" cy="7.276" r="7.276" fill="#f3f9ff"/>
          <path id="Trazado_110573" data-name="Trazado 110573" d="M3044.562,886.633l4.092,5.254a6.659,6.659,0,1,1,2.54-5.862Z" transform="translate(-3037.286 -879.357)" fill="#e57970"/>
          <path id="Trazado_110574" data-name="Trazado 110574" d="M3123.06,946.729H3121.4a.2.2,0,0,1-.2-.2h0a.2.2,0,0,1,.2-.2h1.664a.2.2,0,0,1,.2.2h0A.2.2,0,0,1,3123.06,946.729Z" transform="translate(-3110.656 -937.806)" fill="#a6c7f9"/>
        </g>
        <g id="Grupo_42524" data-name="Grupo 42524" transform="translate(64.931 83.273)">
          <path id="Trazado_110575" data-name="Trazado 110575" d="M3184.363,1050.286a7.276,7.276,0,1,1,7.276,7.276A7.276,7.276,0,0,1,3184.363,1050.286Z" transform="translate(-3184.363 -1043.01)" fill="#f3f9ff"/>
          <path id="Trazado_110576" data-name="Trazado 110576" d="M3218.814,1054.845a6.659,6.659,0,0,1-11.161,4.907l4.5-4.907v-6.659A6.659,6.659,0,0,1,3218.814,1054.845Z" transform="translate(-3204.878 -1047.569)" fill="#ee9849"/>
          <path id="Trazado_110577" data-name="Trazado 110577" d="M3204.987,1091.272H3202.6a.2.2,0,0,1-.2-.2h0a.2.2,0,0,1,.2-.2h2.391a.2.2,0,0,1,.2.2h0A.2.2,0,0,1,3204.987,1091.272Z" transform="translate(-3200.247 -1085.17)" fill="#a6c7f9"/>
        </g>
        <g id="Grupo_42525" data-name="Grupo 42525" transform="translate(46.867 83.273)">
          <path id="Trazado_110578" data-name="Trazado 110578" d="M3032.729,1050.286a7.276,7.276,0,1,1,7.276,7.276A7.276,7.276,0,0,1,3032.729,1050.286Z" transform="translate(-3032.729 -1043.01)" fill="#f3f9ff"/>
          <path id="Trazado_110579" data-name="Trazado 110579" d="M3051.194,1054.237a6.659,6.659,0,1,0-2.54,5.862l-4.092-5.254Z" transform="translate(-3037.286 -1047.569)" fill="#c65447"/>
          <path id="Trazado_110580" data-name="Trazado 110580" d="M3123.06,1114.941H3121.4a.2.2,0,0,1-.2-.2h0a.2.2,0,0,1,.2-.2h1.664a.2.2,0,0,1,.2.2h0A.2.2,0,0,1,3123.06,1114.941Z" transform="translate(-3110.656 -1106.019)" fill="#a6c7f9"/>
        </g>
        <g id="Grupo_42526" data-name="Grupo 42526" transform="translate(40.207 107.771)">
          <path id="Trazado_110581" data-name="Trazado 110581" d="M3013.128,1270.1h-36.3v-21.449h.452v21h35.85Z" transform="translate(-2976.827 -1248.647)" fill="#a6c7f9"/>
        </g>
        <g id="Grupo_42527" data-name="Grupo 42527" transform="translate(42.385 108.646)">
          <path id="Trazado_110582" data-name="Trazado 110582" d="M3004.283,1292.713c-4.444-3.537-9.17,0-9.17,0v6.047h33.222v-15.632C3019.306,1283.356,3008.726,1296.25,3004.283,1292.713Z" transform="translate(-2995.113 -1279.895)" fill="#a6c7f9"/>
          <path id="Trazado_110583" data-name="Trazado 110583" d="M2995.493,1256.752h15.48a.38.38,0,0,0,0-.761h-15.48a.38.38,0,0,0,0,.761Z" transform="translate(-2995.113 -1255.991)" fill="#a6c7f9"/>
          <path id="Trazado_110584" data-name="Trazado 110584" d="M2995.493,1272.353h15.48a.38.38,0,0,0,0-.761h-15.48a.38.38,0,0,0,0,.761Z" transform="translate(-2995.113 -1269.733)" fill="#a6c7f9"/>
          <path id="Rectángulo_32172" data-name="Rectángulo 32172" d="M.38,0H10.492a.38.38,0,0,1,.38.38v0a.38.38,0,0,1-.38.38H.38A.38.38,0,0,1,0,.38v0A.38.38,0,0,1,.38,0Z" transform="translate(0 3.613)" fill="#a6c7f9"/>
        </g>
      </g>
      <g id="Grupo_42533" data-name="Grupo 42533" transform="translate(106.775 0)">
        <rect id="Rectángulo_32173" data-name="Rectángulo 32173" width="116.405" height="175.551" fill="#d2e4ff"/>
        <rect id="Rectángulo_32174" data-name="Rectángulo 32174" width="93.719" height="104.461" transform="translate(11.247 9.82)" fill="#f3f9ff"/>
        <circle id="Elipse_1058" data-name="Elipse 1058" cx="16.855" cy="16.855" r="16.855" transform="translate(6.258 147.656) rotate(-45)" fill="#f3f9ff"/>
        <path id="Trazado_110585" data-name="Trazado 110585" d="M1705.606,1291.587a14.247,14.247,0,1,0-5.606,11.328l-8.641-11.328,13.314,5.082A14.228,14.228,0,0,0,1705.606,1291.587Z" transform="translate(-1661.264 -1143.932)" fill="#ee9849"/>
        <circle id="Elipse_1059" data-name="Elipse 1059" cx="16.855" cy="16.855" r="16.855" transform="translate(67.245 160.187) rotate(-76.718)" fill="#f3f9ff"/>
        <path id="Trazado_110586" data-name="Trazado 110586" d="M2173.394,1277.339a14.247,14.247,0,0,0-10.154,24.242l10.154-9.994,13.314,5.082a14.257,14.257,0,0,0-13.314-19.329Z" transform="translate(-2085.872 -1143.932)" fill="#ee9849"/>
        <g id="Grupo_42529" data-name="Grupo 42529" transform="translate(78.942 140.423)">
          <path id="Trazado_110587" data-name="Trazado 110587" d="M2213.218,1336.222h-6.065a.434.434,0,0,0-.433.433h0a.434.434,0,0,0,.433.433h6.065a.435.435,0,0,0,.433-.433h0A.434.434,0,0,0,2213.218,1336.222Z" transform="translate(-2206.72 -1336.222)" fill="#dd7c2c"/>
          <path id="Trazado_110588" data-name="Trazado 110588" d="M2213.218,1347.736h-6.065a.433.433,0,0,0,0,.867h6.065a.433.433,0,1,0,0-.867Z" transform="translate(-2206.72 -1346.364)" fill="#dd7c2c"/>
          <path id="Trazado_110589" data-name="Trazado 110589" d="M2209.658,1359.252h-2.5a.433.433,0,0,0,0,.866h2.5a.433.433,0,0,0,0-.866Z" transform="translate(-2206.72 -1356.508)" fill="#dd7c2c"/>
        </g>
        <g id="Grupo_42530" data-name="Grupo 42530" transform="translate(21.398 140.423)">
          <path id="Trazado_110590" data-name="Trazado 110590" d="M1730.2,1336.222h-6.065a.434.434,0,0,0-.433.433h0a.434.434,0,0,0,.433.433h6.065a.435.435,0,0,0,.433-.433h0A.434.434,0,0,0,1730.2,1336.222Z" transform="translate(-1723.703 -1336.222)" fill="#dd7c2c"/>
          <path id="Trazado_110591" data-name="Trazado 110591" d="M1730.2,1347.736h-6.065a.433.433,0,0,0,0,.867h6.065a.433.433,0,0,0,0-.867Z" transform="translate(-1723.703 -1346.364)" fill="#dd7c2c"/>
          <path id="Trazado_110592" data-name="Trazado 110592" d="M1726.641,1359.252h-2.5a.433.433,0,0,0,0,.866h2.5a.433.433,0,0,0,0-.866Z" transform="translate(-1723.703 -1356.508)" fill="#dd7c2c"/>
        </g>
        <g id="Grupo_42531" data-name="Grupo 42531" transform="translate(19.593 29.98)">
          <rect id="Rectángulo_32175" data-name="Rectángulo 32175" width="9.89" height="61.606" transform="translate(0 17.172)" fill="#a6c7f9"/>
          <rect id="Rectángulo_32176" data-name="Rectángulo 32176" width="9.89" height="78.778" transform="translate(16.202)" fill="#a6c7f9"/>
          <rect id="Rectángulo_32177" data-name="Rectángulo 32177" width="9.89" height="46.708" transform="translate(33.881 32.07)" fill="#a6c7f9"/>
          <rect id="Rectángulo_32178" data-name="Rectángulo 32178" width="9.89" height="68.261" transform="translate(51.084 10.517)" fill="#a6c7f9"/>
          <rect id="Rectángulo_32179" data-name="Rectángulo 32179" width="9.89" height="37.566" transform="translate(68.376 41.212)" fill="#a6c7f9"/>
        </g>
        <g id="Grupo_42532" data-name="Grupo 42532" transform="translate(36.343 18.199)">
          <path id="Trazado_110593" data-name="Trazado 110593" d="M2148.084,422.915h-8.375a.866.866,0,0,0,0,1.733h8.375a.866.866,0,1,0,0-1.733Z" transform="translate(-2104.331 -409.498)" fill="#a6c7f9"/>
          <path id="Trazado_110594" data-name="Trazado 110594" d="M2141.617,449.378h-1.908a.866.866,0,0,0,0,1.733h1.908a.866.866,0,1,0,0-1.733Z" transform="translate(-2104.331 -432.808)" fill="#a6c7f9"/>
          <path id="Trazado_110595" data-name="Trazado 110595" d="M1858.4,310.292h-8.375a.866.866,0,1,0,0,1.733h8.375a.866.866,0,1,0,0-1.733Z" transform="translate(-1849.154 -310.292)" fill="#a6c7f9"/>
          <path id="Trazado_110596" data-name="Trazado 110596" d="M1851.928,336.755h-1.907a.869.869,0,0,0-.866.866h0a.869.869,0,0,0,.866.866h1.907a.869.869,0,0,0,.866-.866h0A.869.869,0,0,0,1851.928,336.755Z" transform="translate(-1849.154 -333.602)" fill="#a6c7f9"/>
          <path id="Trazado_110597" data-name="Trazado 110597" d="M2001.269,601.192h-8.375a.866.866,0,1,0,0,1.733h8.375a.866.866,0,1,0,0-1.733Z" transform="translate(-1975.006 -566.536)" fill="#a6c7f9"/>
          <path id="Trazado_110598" data-name="Trazado 110598" d="M1994.8,627.656h-1.907a.869.869,0,0,0-.867.866h0a.869.869,0,0,0,.867.866h1.907a.869.869,0,0,0,.866-.866h0A.869.869,0,0,0,1994.8,627.656Z" transform="translate(-1975.006 -589.847)" fill="#a6c7f9"/>
          <path id="Trazado_110599" data-name="Trazado 110599" d="M2290.815,678.373h-8.375a.866.866,0,1,0,0,1.733h8.375a.866.866,0,1,0,0-1.733Z" transform="translate(-2230.057 -634.522)" fill="#a6c7f9"/>
          <path id="Trazado_110600" data-name="Trazado 110600" d="M2284.347,704.837h-1.907a.866.866,0,1,0,0,1.733h1.907a.866.866,0,1,0,0-1.733Z" transform="translate(-2230.057 -657.833)" fill="#a6c7f9"/>
        </g>
      </g>
      <g id="Grupo_42537" data-name="Grupo 42537" transform="translate(5.992 66.544)">
        <rect id="Rectángulo_32180" data-name="Rectángulo 32180" width="85.075" height="47.895" fill="#aed3ff"/>
        <rect id="Rectángulo_32181" data-name="Rectángulo 32181" width="85.075" height="47.895" transform="translate(2.766)" fill="#d2e4ff"/>
        <circle id="Elipse_1060" data-name="Elipse 1060" cx="15.383" cy="15.383" r="15.383" transform="translate(4.279 22.865) rotate(-45)" fill="#f3f9ff"/>
        <g id="Grupo_42534" data-name="Grupo 42534" transform="translate(51.116 14.272)">
          <path id="Trazado_110601" data-name="Trazado 110601" d="M1154.353,835.892H1128.87a1.684,1.684,0,0,0-1.679,1.679h0a1.684,1.684,0,0,0,1.679,1.679h25.483a1.684,1.684,0,0,0,1.679-1.679h0A1.684,1.684,0,0,0,1154.353,835.892Z" transform="translate(-1127.191 -835.892)" fill="#f3f9ff"/>
          <path id="Trazado_110602" data-name="Trazado 110602" d="M1154.353,893.927H1128.87a1.684,1.684,0,0,0-1.679,1.679h0a1.684,1.684,0,0,0,1.679,1.679h25.483a1.684,1.684,0,0,0,1.679-1.679h0A1.684,1.684,0,0,0,1154.353,893.927Z" transform="translate(-1127.191 -887.013)" fill="#f3f9ff"/>
          <path id="Trazado_110603" data-name="Trazado 110603" d="M1154.353,951.962H1128.87a1.679,1.679,0,1,0,0,3.358h25.483a1.679,1.679,0,1,0,0-3.358Z" transform="translate(-1127.191 -938.134)" fill="#f3f9ff"/>
        </g>
        <path id="Trazado_110604" data-name="Trazado 110604" d="M798.435,802.01h14.084V787.926A14.084,14.084,0,0,0,798.435,802.01Z" transform="translate(-786.485 -779.368)" fill="#a8d29f"/>
        <path id="Trazado_110605" data-name="Trazado 110605" d="M826.6,909.951H798.435a14.085,14.085,0,0,0,14.084,14.084h0A14.085,14.085,0,0,0,826.6,909.951Z" transform="translate(-786.485 -886.856)" fill="#f1a34f"/>
        <g id="Grupo_42535" data-name="Grupo 42535" transform="translate(15.167 15.401)">
          <path id="Trazado_110606" data-name="Trazado 110606" d="M833.872,845.367h-7.644a.791.791,0,1,0,0,1.582h7.644a.791.791,0,0,0,0-1.582Z" transform="translate(-825.438 -845.367)" fill="#82b378"/>
          <path id="Trazado_110607" data-name="Trazado 110607" d="M827.97,869.52h-1.741a.791.791,0,1,0,0,1.581h1.741a.791.791,0,0,0,0-1.581Z" transform="translate(-825.438 -866.643)" fill="#82b378"/>
        </g>
        <g id="Grupo_42536" data-name="Grupo 42536" transform="translate(26.515 26.538)">
          <path id="Trazado_110608" data-name="Trazado 110608" d="M929.126,938.852h-7.644a.791.791,0,0,0,0,1.581h7.644a.791.791,0,0,0,0-1.581Z" transform="translate(-920.692 -938.852)" fill="#dd8936"/>
          <path id="Trazado_110609" data-name="Trazado 110609" d="M923.223,963h-1.741a.793.793,0,0,0-.791.791h0a.793.793,0,0,0,.791.791h1.741a.793.793,0,0,0,.791-.791h0A.793.793,0,0,0,923.223,963Z" transform="translate(-920.692 -960.126)" fill="#dd8936"/>
        </g>
      </g>
      <g id="Grupo_42540" data-name="Grupo 42540" transform="translate(0 123.016)">
        <path id="Trazado_110610" data-name="Trazado 110610" d="M647.833,1190.109v48.982h85.075v-48.982Z" transform="translate(-647.833 -1190.109)" fill="#aed3ff"/>
        <path id="Trazado_110611" data-name="Trazado 110611" d="M671.054,1190.109v48.982h85.075v-48.982Z" transform="translate(-668.288 -1190.109)" fill="#d2e4ff"/>
        <circle id="Elipse_1061" data-name="Elipse 1061" cx="15.382" cy="15.382" r="15.382" transform="translate(10.65 7.596)" fill="#f3f9ff"/>
        <g id="Grupo_42538" data-name="Grupo 42538" transform="translate(51.115 14.385)">
          <path id="Trazado_110612" data-name="Trazado 110612" d="M1078.566,1314.215h25.483a1.679,1.679,0,1,0,0-3.359h-25.483a1.679,1.679,0,0,0,0,3.359Z" transform="translate(-1076.887 -1310.857)" fill="#f3f9ff"/>
          <path id="Trazado_110613" data-name="Trazado 110613" d="M1104.049,1368.893h-25.483a1.679,1.679,0,0,0,0,3.358h25.483a1.679,1.679,0,1,0,0-3.358Z" transform="translate(-1076.887 -1361.979)" fill="#f3f9ff"/>
          <path id="Trazado_110614" data-name="Trazado 110614" d="M1104.049,1426.928h-25.483a1.684,1.684,0,0,0-1.679,1.679h0a1.684,1.684,0,0,0,1.679,1.679h25.483a1.684,1.684,0,0,0,1.679-1.679h0A1.684,1.684,0,0,0,1104.049,1426.928Z" transform="translate(-1076.887 -1413.1)" fill="#f3f9ff"/>
        </g>
        <path id="Trazado_110615" data-name="Trazado 110615" d="M762.215,1383.759l-14.083-.179c0,.059,0,.12,0,.179a14.085,14.085,0,0,0,21.641,11.886Z" transform="translate(-736.182 -1360.531)" fill="#f1a34f"/>
        <g id="Grupo_42539" data-name="Grupo 42539" transform="translate(18.117 27.663)">
          <rect id="Rectángulo_32182" data-name="Rectángulo 32182" width="9.225" height="1.581" rx="0.791" transform="translate(0)" fill="#dd8936"/>
          <path id="Trazado_110616" data-name="Trazado 110616" d="M802.438,1446.461H800.7a.791.791,0,1,0,0,1.581h1.741a.791.791,0,1,0,0-1.581Z" transform="translate(-799.907 -1443.584)" fill="#dd8936"/>
        </g>
      </g>
      <g id="Grupo_42543" data-name="Grupo 42543" transform="translate(0 14.309)">
        <rect id="Rectángulo_32183" data-name="Rectángulo 32183" width="85.076" height="44.386" fill="#aed3ff"/>
        <rect id="Rectángulo_32184" data-name="Rectángulo 32184" width="85.075" height="44.386" transform="translate(2.766)" fill="#d2e4ff"/>
        <circle id="Elipse_1062" data-name="Elipse 1062" cx="15.383" cy="15.383" r="15.383" transform="translate(4.279 22.845) rotate(-45)" fill="#f3f9ff"/>
        <path id="Trazado_110617" data-name="Trazado 110617" d="M762.217,351.191a14.084,14.084,0,0,0-6.759,26.44c2.256-4.179,6.759-12.358,6.759-12.358l6.668,12.407a14.084,14.084,0,0,0-6.668-26.489Z" transform="translate(-736.184 -342.429)" fill="#a8d29f"/>
        <g id="Grupo_42541" data-name="Grupo 42541" transform="translate(51.115 14.252)">
          <rect id="Rectángulo_32185" data-name="Rectángulo 32185" width="28.841" height="3.358" rx="1.679" fill="#f3f9ff"/>
          <path id="Trazado_110618" data-name="Trazado 110618" d="M1104.051,455.3h-25.483a1.679,1.679,0,0,0,0,3.358h25.483a1.679,1.679,0,0,0,0-3.358Z" transform="translate(-1076.889 -448.391)" fill="#f3f9ff"/>
          <path id="Trazado_110619" data-name="Trazado 110619" d="M1104.051,513.34h-25.483a1.679,1.679,0,0,0,0,3.358h25.483a1.679,1.679,0,1,0,0-3.358Z" transform="translate(-1076.889 -499.512)" fill="#f3f9ff"/>
        </g>
        <g id="Grupo_42542" data-name="Grupo 42542" transform="translate(18.117 16.119)">
          <path id="Trazado_110620" data-name="Trazado 110620" d="M808.343,412.94H800.7a.791.791,0,1,0,0,1.581h7.644a.791.791,0,0,0,0-1.581Z" transform="translate(-799.909 -412.94)" fill="#82b378"/>
          <path id="Trazado_110621" data-name="Trazado 110621" d="M802.441,437.092H800.7a.793.793,0,0,0-.791.791h0a.793.793,0,0,0,.791.791h1.741a.793.793,0,0,0,.791-.791h0A.793.793,0,0,0,802.441,437.092Z" transform="translate(-799.909 -434.215)" fill="#82b378"/>
        </g>
      </g>
    </g>
    <g id="Grupo_42545" data-name="Grupo 42545" transform="translate(465.97 231.308)">
      <path id="Trazado_110622" data-name="Trazado 110622" d="M1550.8,921.065s9.924,10.245,10.4,14.107-4.721,9.906-4.721,9.906Z" transform="translate(-1528.119 -903.88)" fill="#e58638"/>
      <path id="Trazado_110623" data-name="Trazado 110623" d="M1416.269,1800.177s-.338,5.446-1.391,5.524c-.14.01-5.344.01-5.344.01l-6.643-.038a2.155,2.155,0,0,1,1.985-1.939c1.942-.338,5.192-1.7,6.368-4.27C1412.481,1796.764,1416.269,1800.177,1416.269,1800.177Z" transform="translate(-1397.828 -1676.716)" fill="#163560"/>
      <path id="Trazado_110624" data-name="Trazado 110624" d="M1540.321,1800.177s-.338,5.446-1.391,5.524c-.14.01-5.344.01-5.344.01l-6.663-.024a2.2,2.2,0,0,1,2.005-1.954c1.942-.338,5.192-1.7,6.368-4.27C1536.533,1796.764,1540.321,1800.177,1540.321,1800.177Z" transform="translate(-1507.083 -1676.716)" fill="#163560"/>
      <path id="Trazado_110625" data-name="Trazado 110625" d="M1453.433,1261.334s1.737,11.112,8.219,30.838,7.365,28.268,7.365,28.268a28.539,28.539,0,0,0,3.605.254,22.826,22.826,0,0,0,3.348-.449s.06-21.558-2.927-31.478-.645-35.76-.645-35.76Z" transform="translate(-1442.349 -1196.276)" fill="#163560"/>
      <path id="Trazado_110626" data-name="Trazado 110626" d="M1424.994,1258.116a269.717,269.717,0,0,0,2.651,37.306c2.9,20.56,1.915,29.288,1.915,29.288s2.385.427,3.223.455c.9.03,3.716-.224,3.716-.224s4.147-20.568,2.958-30.859,5.679-35.312,5.679-35.312Z" transform="translate(-1417.293 -1200.777)" fill="#1c468a"/>
      <path id="Trazado_110627" data-name="Trazado 110627" d="M1478.616,867.979l-3.273,2.424-4.73-1c.065-.431.378-2.219.662-3.838.017-.1.034-.191.05-.284.244-1.378.454-2.561.454-2.561l4.418-2.2,1.647-.821c0,.029-.128,1.529-.145,1.748A14.144,14.144,0,0,0,1478.616,867.979Z" transform="translate(-1457.482 -849.826)" fill="#ffb27d"/>
      <path id="Trazado_110628" data-name="Trazado 110628" d="M1457.584,906.325c.1-.044,6.434-1.912,7.122-1.685s1.095,1.558,1.095,1.558l-10.355,2.341A5.142,5.142,0,0,1,1457.584,906.325Z" transform="translate(-1444.122 -889.395)" fill="#e58638"/>
      <path id="Trazado_110629" data-name="Trazado 110629" d="M1439.023,960.056c-1.073,4.9-18.932,5.476-23.536,1.032-.524-.507-.549-2.863-.352-6.04.386-6.208,1.627-15.545,1.675-20.316a37.749,37.749,0,0,1,.762-6.8,55.232,55.232,0,0,1,2.265-8.139s8.723-2.82,10.355-2.34C1438.056,919.762,1440.1,955.16,1439.023,960.056Z" transform="translate(-1408.514 -900.649)" fill="#ee9849"/>
      <path id="Trazado_110630" data-name="Trazado 110630" d="M1415.976,1026.091c.386-6.208,1.627-15.545,1.675-20.316a37.758,37.758,0,0,1,.762-6.8l5.247-.926S1428.79,1019,1415.976,1026.091Z" transform="translate(-1409.354 -971.692)" fill="#e58638"/>
      <path id="Trazado_110631" data-name="Trazado 110631" d="M1428.778,1154.772a1.235,1.235,0,0,1-.394,1.429,2.394,2.394,0,0,0-1.066,2.183c.172.68,1.82,1.788,2.391,1.61s1.734-1.074,1.609-1.433.782-3.146-.611-4.219A1.124,1.124,0,0,0,1428.778,1154.772Z" transform="translate(-1419.315 -1109.026)" fill="#ffb27d"/>
      <path id="Trazado_110632" data-name="Trazado 110632" d="M1375.727,926.961s-5.117.958-9.2,6.967-6.76,10.477-6.009,12.643,7.6,9.677,8.778,9.677a3.164,3.164,0,0,0,3.192-2.79s-4.82-7.225-3.871-8.307c.406-.462,6.258-5.214,7.094-3.067C1377.1,945.634,1375.727,926.961,1375.727,926.961Z" transform="translate(-1360.397 -909.073)" fill="#ee9849"/>
      <path id="Trazado_110633" data-name="Trazado 110633" d="M1482.263,867.581c-.97,1.856-4.585,3.462-6.093,4.052.017-.1.034-.191.05-.284.244-1.378.454-2.561.454-2.561l4.418-2.2C1482.068,866.57,1482.663,866.817,1482.263,867.581Z" transform="translate(-1462.377 -855.89)" fill="#fca56b"/>
      <path id="Trazado_110634" data-name="Trazado 110634" d="M1462.41,806.333s6.54,2.04,7.748-2.052,2.865-6.585-1.259-8.06-5.4-.154-6.135,1.113S1460.74,805.7,1462.41,806.333Z" transform="translate(-1449.537 -793.335)" fill="#ffb27d"/>
      <path id="Trazado_110635" data-name="Trazado 110635" d="M1469.026,780.419s.417,4.762,1.4,4.555,1.878-.36,1.734,1.076-1.51,3.093,1.525,3.347,7.4-7.573,6.564-9.055C1477.845,776.066,1465.549,775.2,1469.026,780.419Z" transform="translate(-1455.543 -776.815)" fill="#163560"/>
    </g>
    <g id="Grupo_42547" data-name="Grupo 42547" transform="translate(345.002 234.445)">
      <path id="Trazado_110636" data-name="Trazado 110636" d="M485.249,1735.912l1.991,8.385,2.982-.017.109-8.368Z" transform="translate(-468.541 -1624.787)" fill="#ffb27d"/>
      <path id="Trazado_110637" data-name="Trazado 110637" d="M695.812,1730.751l5.665,8.028,2.208-2.835-3.41-6.3Z" transform="translate(-654.018 -1619.269)" fill="#ffb27d"/>
      <path id="Trazado_110638" data-name="Trazado 110638" d="M372.068,804.075a5.776,5.776,0,0,0-3.126-.6,1.462,1.462,0,0,1,.659-.313,4.846,4.846,0,0,0-1.73.451c-7.444-2.868-8.613,8.092-8.457,10.638s-2.5,3.378-6.374,5.384c-7.389,3.828-8.038,8.954-8.038,8.954.058.034.118.073.182.116.367-.621,1.121-1.787,1.758-1.963a26.31,26.31,0,0,0-1.024,2.493c2.18,1.658,6.258,5.333,9.1,7.938a4.177,4.177,0,0,1,.194-1.614l.351,2.114c1.521,1.4,2.57,2.382,2.57,2.382-.188-2.058,9.306-12.916,14.259-16.168a14.318,14.318,0,0,0,1.666-5.158,13.541,13.541,0,0,1-1.014,4.667C377.238,819.538,374.8,805.626,372.068,804.075Z" transform="translate(-345.002 -803.141)" fill="#163560"/>
      <path id="Trazado_110639" data-name="Trazado 110639" d="M520.591,924.438c.025.011-2.392,1.266-4.209.769-1.71-.466-2.827-2.683-2.8-2.688.724-.144.933-1.139.917-5.414l.327.064,5.5,1.09s-.125,1.732-.129,3.363C520.194,922.992,520.277,924.291,520.591,924.438Z" transform="translate(-493.495 -903.527)" fill="#ffb27d"/>
      <path id="Trazado_110640" data-name="Trazado 110640" d="M520.2,816.219a4.4,4.4,0,0,1,6.123-.148A23.855,23.855,0,0,0,520.2,816.219Z" transform="translate(-499.329 -813.489)" fill="#e37970"/>
      <path id="Trazado_110641" data-name="Trazado 110641" d="M529.533,918.735s-.125,1.732-.129,3.364c-3.08-.087-4.708-2.9-5.375-4.453Z" transform="translate(-502.701 -904.004)" fill="#d68d5d"/>
      <path id="Trazado_110642" data-name="Trazado 110642" d="M504.112,829a16.184,16.184,0,0,1-2-4.731c-.277-1.557.516-7.327,6.315-6.5a7.878,7.878,0,0,1,3.267,1.235c1.259.85,3.076,2.686,1.044,7.721l-.528,1.7Z" transform="translate(-483.352 -815.963)" fill="#163560"/>
      <path id="Trazado_110643" data-name="Trazado 110643" d="M523.368,1297.3l-2.917.089-3.158.1a62.329,62.329,0,0,1-11.385-21.139q-.143-.454-.3-.919c-2.239-6.529-6.881-14.724-9.327-22.142-.389-1.181-.739-2.294-1.052-3.346-.1-.337-.2-.668-.291-.994a78.672,78.672,0,0,1-2.806-14.77l17.664.141A329.258,329.258,0,0,0,523.368,1297.3Z" transform="translate(-474.601 -1182.827)" fill="#80bdcc"/>
      <path id="Trazado_110644" data-name="Trazado 110644" d="M451.346,980.863c-.045,8.406,1.233,12.012,1.233,12.012a23.734,23.734,0,0,1-16.551,1.014c-.106-.033-7.443-1.708-7.443-1.708.151-.34,1.488-6,1.635-6.317,1.9-4.075,3.339-5.862,3.564-7.115a26.654,26.654,0,0,0,.218-7.042,56.507,56.507,0,0,0-2.18-11.059,57.972,57.972,0,0,0,7.355-2.466,5.517,5.517,0,0,0,3.87,1.433c1.79-.039,2.35-.8,2.284-1.649,1.908,1.062,3.425,2.071,3.425,2.071,1.622,2.817,4.91,5.552,5.149,9.873C453.964,970.972,451.347,980.628,451.346,980.863Z" transform="translate(-418.627 -939.52)" fill="#e7f1fd"/>
      <path id="Trazado_110645" data-name="Trazado 110645" d="M448.242,1050.028c-.772,1.093-2.252,7.735-5.935,8.57,1.9-4.734,3.339-6.81,3.564-8.265a35.9,35.9,0,0,0,.218-8.18c1.233-2.161,2.153-3.642,2.153-3.642.1-.349,1.959-6.108,2.556-.961A23.785,23.785,0,0,1,448.242,1050.028Z" transform="translate(-430.715 -1007.748)" fill="#5f9aa8"/>
      <path id="Trazado_110646" data-name="Trazado 110646" d="M524.34,848.853s-7.286.12-7.291-4.419-.949-7.58,3.7-7.849,5.558,1.462,5.928,2.977S526.236,848.7,524.34,848.853Z" transform="translate(-496.48 -832.577)" fill="#ffb27d"/>
      <path id="Trazado_110647" data-name="Trazado 110647" d="M509.14,829.605c-1.125-1.363-1.975-1.067-2.452-.657-1.575-2.353-6.551,1.05-6.551,1.05a8.67,8.67,0,0,1-2.836,5.122s1.328.82,4.39.033c2.409-.62,4.158-4.049,4.794-5.482a5.782,5.782,0,0,1,1.621,2.147c.363,1.156.527,3.535,1.22,3.454C509.326,835.272,510.829,831.652,509.14,829.605Z" transform="translate(-479.157 -825.143)" fill="#163560"/>
      <path id="Trazado_110648" data-name="Trazado 110648" d="M497.97,1802.363a8.081,8.081,0,0,1-.38,3.438s-.488,2.224,1.7,2.265,2.728-.165,2.48-1.529-.72-3.722-.72-3.722Z" transform="translate(-479.371 -1683.321)" fill="#ffb27d"/>
      <path id="Trazado_110649" data-name="Trazado 110649" d="M500.563,1834.154l-.007.005h-4.532l-.007-.005a11.689,11.689,0,0,1,.157-3.354c2.48,2.371,4.033-.06,4.033-.06A12.665,12.665,0,0,1,500.563,1834.154Z" transform="translate(-477.955 -1708.318)" fill="#c45446"/>
      <path id="Trazado_110650" data-name="Trazado 110650" d="M744.971,1789.369a58.5,58.5,0,0,1-5.278-6.867l-3,1.538,6.712,6.3,1.57-.207Z" transform="translate(-690.026 -1665.826)" fill="#ffb27d"/>
      <path id="Trazado_110651" data-name="Trazado 110651" d="M741.589,1802.921h-5.6a9.133,9.133,0,0,1-1.54-2.515,2.71,2.71,0,0,0-1.829-1.247v3.762h-1.159l-1.073-4c-.715-1.34-.178-2.569.325-3.629.585,0,2.282.422,5.265,3.849a3.881,3.881,0,0,0,3.138,1.494.269.269,0,0,0,.044.024A4.158,4.158,0,0,1,741.589,1802.921Z" transform="translate(-684.167 -1677.093)" fill="#c45446"/>
      <path id="Trazado_110652" data-name="Trazado 110652" d="M599.561,963.329s-4.783,2.675-6.492,3.445c-.608.274-1.708.786-2.833,1.312-.679.317-1.367.64-1.961.92a2.465,2.465,0,0,1-2.921-.63c-2.59-3.024-9.292-9.578-16.214-10.4l-.024-.01,0,.008h-.009l.038.075c.389.968,4.184,10.448,4.3,12.448.124,2.108.5,34.467.5,34.467s-.248,1.488,2.6.868,3.6-1.24,3.6-1.24-2.728-19.961-1.984-26.9a15.446,15.446,0,0,0-.291-4.474,35.554,35.554,0,0,0,9.186,3.689,41.8,41.8,0,0,0,4.734-2.594,29.718,29.718,0,0,0,3.992-3.212,58.645,58.645,0,0,0,4.538-5.223Z" transform="translate(-542.411 -939.52)" fill="#e37970"/>
      <path id="Trazado_110653" data-name="Trazado 110653" d="M541.2,1392l-3.158.1a62.331,62.331,0,0,1-11.385-21.139q-.143-.454-.3-.919c-2.239-6.529-6.881-14.724-9.327-22.142-.389-1.181-.739-2.294-1.053-3.346-.1-.337-.2-.668-.291-.994l2.6-1.974s7.81,12.646,10.227,24.547C530.608,1376.471,539.019,1388.91,541.2,1392Z" transform="translate(-495.346 -1277.439)" fill="#5f9aa8"/>
      <path id="Trazado_110654" data-name="Trazado 110654" d="M439.768,1342.427c.045,5.787-.248,19.093-1,24.6h-2.8c-1.546,0-2.317-.022-2.317-.022-1.891-9.578-3.236-17.5-4.215-24.331-.8-5.6-1.518-10.408-2.067-14.544-.553-4.162-.937-7.647-1.075-10.592q-.032-.7-.046-1.353t-.007-1.283l15.262-1.488C441.312,1323.555,439.743,1339.063,439.768,1342.427Z" transform="translate(-416.562 -1252.624)" fill="#80bdcc"/>
      <path id="Trazado_110655" data-name="Trazado 110655" d="M436.376,1397.517c-1.546,0-2.317-.022-2.317-.022-1.891-9.577-3.236-17.5-4.215-24.331-.8-5.6-1.518-10.408-2.067-14.544-.553-4.162-.937-7.647-1.075-10.592l5.6,3.294s-3.574,1.261-2.211,10.807S434.478,1396.166,436.376,1397.517Z" transform="translate(-416.969 -1283.113)" fill="#5f9aa8"/>
      <path id="Trazado_110656" data-name="Trazado 110656" d="M411.9,1005.94s-1.075,3.884-4.794,3.388a44.83,44.83,0,0,1-9.008-2.728s1.59-5.022,3.566-11.621c2.393-7.988,5.355-18.286,6.751-24.781a40.155,40.155,0,0,0,.759-4.429l3.15-5.99s4.537,10.329,4.785,12.933S411.9,1005.94,411.9,1005.94Z" transform="translate(-391.771 -941.12)" fill="#e37970"/>
      <path id="Trazado_110657" data-name="Trazado 110657" d="M526.609,1091.535a2.762,2.762,0,0,0-2.7,2.47,5.452,5.452,0,0,1-.779,1.86c-1.783.1-6.03.327-9.6.553l-.294,4.679a53.429,53.429,0,0,0,10.677-2.527,2.791,2.791,0,0,0,1.215-.661,13.357,13.357,0,0,0,4.031-6.131C529.168,1091.275,528.4,1091.3,526.609,1091.535Z" transform="translate(-493.197 -1057.035)" fill="#ffb27d"/>
      <path id="Trazado_110658" data-name="Trazado 110658" d="M438.1,1055.2c-.166,4.215-1.158,12.4-10,16.778-.024.011-.047.023-.071.033,2.393-7.988,5.355-18.286,6.751-24.781C436.4,1049.658,438.189,1052.88,438.1,1055.2Z" transform="translate(-418.135 -1018.151)" fill="#c45446"/>
      <path id="Trazado_110659" data-name="Trazado 110659" d="M436.285,959.781s-7.565.536-9.383,4.586-2.4,17.523-.083,21.49c0,0,3.186.907,8.822-.146l.208-.04s1.8-4.4.186-5.269c0,0-4.753.248-4.257-1.323S436.285,959.781,436.285,959.781Z" transform="translate(-415.735 -941.12)" fill="#e37970"/>
      <g id="Grupo_42546" data-name="Grupo 42546" transform="translate(47.825 20.58)">
        <path id="Trazado_110660" data-name="Trazado 110660" d="M830.068,975.934a4.548,4.548,0,0,0-5.1,3.179l.76,2.543a3.223,3.223,0,0,0,3.364-1.6c1.011-1.448,1.29-.892,1.933-1.969C831.9,976.624,830.535,976.08,830.068,975.934Z" transform="translate(-815.615 -975.883)" fill="#ffb27d"/>
        <path id="Trazado_110661" data-name="Trazado 110661" d="M749.273,1006.435c-.608.274-1.708.786-2.833,1.312a14.459,14.459,0,0,1,1.555,6.22,25.959,25.959,0,0,0,4.111-3.312,54.53,54.53,0,0,0,4.419-5.123l-.76-2.542S750.981,1005.664,749.273,1006.435Z" transform="translate(-746.44 -999.761)" fill="#ffb27d"/>
      </g>
    </g>
    <g id="Grupo_42551" data-name="Grupo 42551" transform="translate(591.696 242.817)">
      <g id="Grupo_42548" data-name="Grupo 42548" transform="translate(9.335 20.005)">
        <path id="Trazado_110662" data-name="Trazado 110662" d="M2504.608,1279.439a11.079,11.079,0,0,1-4.734.189c-1.84-.554-5.006.356-5.516,1.027s-.323.938.587,1.169,4.134,1.606,6.252.811a16.884,16.884,0,0,1,4.882-.825Z" transform="translate(-2494.079 -1251.073)" fill="#e49963"/>
        <path id="Trazado_110663" data-name="Trazado 110663" d="M2591.443,1044.565s-3.251,23.107-8.634,25.177c-2.656,1.021-14.4,3.336-17.868,3.569,0,0-.851-.69-.644-3.5,0,0,12.3-4.516,14.047-6.971,2.6-3.655-1.614-14.931,1.649-18.363S2588.752,1039.57,2591.443,1044.565Z" transform="translate(-2555.903 -1041.34)" fill="#4a75cb"/>
      </g>
      <path id="Trazado_110664" data-name="Trazado 110664" d="M2669.707,1543.9v-5.038h7.932a.39.39,0,0,0,.389-.389v-.807a.39.39,0,0,0-.389-.389h-7.932V1508.6a1.467,1.467,0,0,0-1.463-1.463h-1.57a1.467,1.467,0,0,0-1.463,1.463v28.679h-7.932a.39.39,0,0,0-.389.389v.807a.39.39,0,0,0,.389.389h7.932v5.038c-5.739.434-10.336,2.5-11.626,5.169h27.749C2680.044,1546.4,2675.446,1544.338,2669.707,1543.9Z" transform="translate(-2625.248 -1431.641)" fill="#2b478b"/>
      <path id="Trazado_110665" data-name="Trazado 110665" d="M2541.392,1376.726a40.5,40.5,0,0,1-3.176,4.544c-3.494,4.411-7.3,8.048-7.96,11.486a15.548,15.548,0,0,1-.614,2.2c-.277.788-.619,1.616-1.014,2.472a76.161,76.161,0,0,1-5.914,10.11c-3.827,5.671-7.426,10.4-7.426,10.4l-6.6-.281c.264-.661,3.143-8.492,6.994-18.061l4.831-12,.639-1.587c.49-1.22.973-2.42,1.444-3.589l6.5-16.14s14.452-5.474,15.952-1.927C2546.281,1367.28,2545.273,1370.145,2541.392,1376.726Z" transform="translate(-2497.613 -1304.814)" fill="#163560"/>
      <path id="Trazado_110666" data-name="Trazado 110666" d="M2463.436,1799.975s-.338,5.446-1.391,5.524c-.14.01-5.344.01-5.344.01l-6.643-.038a2.155,2.155,0,0,1,1.985-1.939c1.942-.338,5.192-1.7,6.368-4.27C2459.648,1796.562,2463.436,1799.975,2463.436,1799.975Z" transform="translate(-2445.967 -1688.047)" fill="#163560"/>
      <path id="Trazado_110667" data-name="Trazado 110667" d="M2665.086,1682.331s4.591,2.95,4.145,3.908c-.059.128-2.6,4.672-2.6,4.672l-3.272,5.781a2.155,2.155,0,0,1-.725-2.679c.651-1.86,1.044-5.363-.624-7.642C2660.26,1683.974,2665.086,1682.331,2665.086,1682.331Z" transform="translate(-2632.335 -1585.962)" fill="#163560"/>
      <path id="Trazado_110668" data-name="Trazado 110668" d="M2488.58,1367.563s-18.139,11.3-20.164,18.892,24.13,23.792,24.13,23.792,2.869-2.531,3.375-4.387c0,0-11.822-14.164-14.386-17.339-1.575-1.95,23.287-6.75,26.324-11.475s1.95-8.7,1.95-8.7Z" transform="translate(-2462.04 -1308.693)" fill="#1c468a"/>
      <path id="Rectángulo_32186" data-name="Rectángulo 32186" d="M5.062,0h29.7a5.062,5.062,0,0,1,5.062,5.062v0a5.063,5.063,0,0,1-5.063,5.063H5.063A5.063,5.063,0,0,1,0,5.062v0A5.062,5.062,0,0,1,5.062,0Z" transform="translate(22.299 73.379)" fill="#ee9849"/>
      <path id="Trazado_110669" data-name="Trazado 110669" d="M2688.476,966.334a10.243,10.243,0,0,0-2.763,2.5c4.346,1.124,11.55-2.9,11.55-2.9a10.66,10.66,0,0,1-3.833-6.009q-.079-.313-.142-.641a13.052,13.052,0,0,1-.235-2.261l-2,1.788-3.319,2.974a28.521,28.521,0,0,0,.49,3.357Q2688.334,965.7,2688.476,966.334Z" transform="translate(-2653.548 -947.064)" fill="#e49963"/>
      <path id="Trazado_110670" data-name="Trazado 110670" d="M2655.869,1039.883c-.623,8.372.424,21.1-.282,23.305-.609,1.9-7.781.776-10.553.141-1.026-.235-2.269-.571-3.552-.968-3.58-1.108-7.48-2.691-7.9-3.866a1.011,1.011,0,0,1-.039-.135,1.081,1.081,0,0,1,.007-.493,8.368,8.368,0,0,0,.74-2.73c.071-1.656.06-3.606.122-5.7,0-.236.007-.494.032-.729v-.086l0-.134c.06-2.338.183-4.8.324-7.235.09-1.531.194-3.047.314-4.5a60.2,60.2,0,0,1,1.29-9.194,14.763,14.763,0,0,1,4.743-7.321l1.321-1.133a7.639,7.639,0,0,0,4.793-.638c1.706-.81,2.3-1.391,2.593-1.172C2653.77,1020.333,2656.6,1029.648,2655.869,1039.883Z" transform="translate(-2607.573 -1000.112)" fill="#739af0"/>
      <path id="Trazado_110671" data-name="Trazado 110671" d="M2641.84,1248.146c-3.58-1.109-7.48-2.691-7.9-3.866a.915.915,0,0,1-.039-.135q0-.246.007-.492a8.38,8.38,0,0,0,.741-2.73c.071-1.656.06-3.606.122-5.7,0-.236.007-.494.032-.729v-.086c0-.045,0-.089,0-.134l13.522-6.132A31.534,31.534,0,0,1,2641.84,1248.146Z" transform="translate(-2607.91 -1185.88)" fill="#4a75cb"/>
      <path id="Trazado_110672" data-name="Trazado 110672" d="M2702.692,975.009a28.473,28.473,0,0,0,.491,3.357,8.8,8.8,0,0,0,5.2-5.217c.14-.351.2-.568.2-.568l-.343-.073-2.232-.473Z" transform="translate(-2668.504 -960.286)" fill="#d68d5d"/>
      <path id="Trazado_110673" data-name="Trazado 110673" d="M2679.235,909.18s7.122.8,7.553-3.639,1.642-7.331-2.887-8.031-5.578.908-6.083,2.356S2677.394,908.856,2679.235,909.18Z" transform="translate(-2646.36 -894.49)" fill="#e49963"/>
      <path id="Trazado_110674" data-name="Trazado 110674" d="M2684.287,884.776a7.317,7.317,0,0,0-6.934-6.508c-4.44-.418-1.965-4.24-1.492-4.849,0,0,3.4.466,6.889,1.043C2690.069,875.671,2685.006,883.858,2684.287,884.776Z" transform="translate(-2643.889 -873.419)" fill="#2b478b"/>
      <g id="Grupo_42549" data-name="Grupo 42549" transform="translate(0 37.839)">
        <rect id="Rectángulo_32187" data-name="Rectángulo 32187" width="0.655" height="17.163" transform="translate(0 0.203) rotate(-18.001)" fill="#4a75cb"/>
        <rect id="Rectángulo_32188" data-name="Rectángulo 32188" width="18.01" height="1.077" transform="translate(5.281 15.448) rotate(-1.224)" fill="#4a75cb"/>
      </g>
      <g id="Grupo_42550" data-name="Grupo 42550" transform="translate(11.085 21.489)">
        <path id="Trazado_110675" data-name="Trazado 110675" d="M2519.037,1309.257a11.078,11.078,0,0,1-4.684.71c-1.89-.348-4.936.906-5.369,1.629s-.218.967.713,1.1,4.286,1.141,6.3.116a16.889,16.889,0,0,1,4.761-1.358Z" transform="translate(-2508.769 -1278.822)" fill="#e49963"/>
        <path id="Trazado_110676" data-name="Trazado 110676" d="M2601.444,1056.482s-.684,23.324-5.806,25.975c-2.528,1.308-13.94,4.9-17.365,5.517,0,0-.922-.592-1.026-3.407,0,0,11.727-5.844,13.192-8.477,2.182-3.919-3.25-14.661-.385-18.433S2598.218,1051.813,2601.444,1056.482Z" transform="translate(-2569.089 -1053.792)" fill="#739af0"/>
      </g>
    </g>
    <path id="Trazado_110677" data-name="Trazado 110677" d="M739.677,1860.1h-365.1a.357.357,0,0,1-.356-.356h0a.357.357,0,0,1,.356-.356h365.1a.357.357,0,0,1,.356.356h0A.357.357,0,0,1,739.677,1860.1Z" transform="translate(-25.737 -1499.107)" fill="#202f4e"/>
  </g>
</svg>
